<svg width="43" height="43" viewBox="0 0 43 43" fill="none" xmlns="http://www.w3.org/2000/svg">
<rect y="43" width="43" height="43" rx="21.5" transform="rotate(-90 0 43)" fill="url(#paint0_linear_704_11655)"/>
<path d="M17.2617 25.3647C17.4305 25.5607 17.4099 25.857 17.2139 26.0268L16.7056 26.4657C16.1701 26.9289 15.5081 27.1559 14.8498 27.1559C14.0686 27.1559 13.2931 26.8361 12.7417 26.2106C10.7583 23.958 9.87686 21.0639 10.2576 18.0591C10.8287 13.5661 14.1943 10.0268 18.6327 9.25218C21.4553 8.75889 24.2639 9.39848 26.5417 11.0528C28.7914 12.6864 30.3068 15.1941 30.6988 17.9325C30.7354 18.1886 30.5572 18.4268 30.3012 18.4633C30.0424 18.4962 29.807 18.3217 29.7704 18.0657C29.415 15.5768 28.0365 13.2969 25.9913 11.8115C23.9207 10.3082 21.3634 9.72671 18.7949 10.1759C14.7635 10.8793 11.7064 14.095 11.1878 18.1773C10.8409 20.911 11.6427 23.5435 13.445 25.5898C14.1108 26.3456 15.3215 26.4225 16.0914 25.7557L16.5996 25.3159C16.7956 25.1471 17.091 25.1696 17.2617 25.3647ZM20.4876 21.2815C19.4532 21.2815 18.6121 20.4402 18.6121 19.4058C18.6121 18.5346 19.2122 17.8069 20.0187 17.5968V12.3723C20.0187 12.1134 20.2288 11.9034 20.4876 11.9034C20.7464 11.9034 20.9565 12.1134 20.9565 12.3723V17.5968C21.7629 17.8069 22.3631 18.5346 22.3631 19.4058C22.3631 20.4402 21.5219 21.2815 20.4876 21.2815ZM20.4876 20.3436C21.0043 20.3436 21.4253 19.9226 21.4253 19.4058C21.4253 18.8891 21.0043 18.468 20.4876 18.468C19.9709 18.468 19.5498 18.8891 19.5498 19.4058C19.5498 19.9226 19.9709 20.3436 20.4876 20.3436ZM32.6784 25.5016C32.6784 28.8627 29.9439 31.5974 26.583 31.5974C23.2221 31.5974 20.4876 28.8627 20.4876 25.5016C20.4876 22.1405 23.2221 19.4058 26.583 19.4058C29.9439 19.4058 32.6784 22.1405 32.6784 25.5016ZM31.7407 25.5016C31.7407 22.6572 29.4272 20.3436 26.583 20.3436C23.7388 20.3436 21.4253 22.6572 21.4253 25.5016C21.4253 28.346 23.7388 30.6595 26.583 30.6595C29.4272 30.6595 31.7407 28.346 31.7407 25.5016ZM27.8921 25.0477H25.2851C25.2345 25.0477 25.2073 25.0261 25.1876 24.953L26.9853 21.9942C27.1203 21.7729 27.0491 21.484 26.8287 21.3499C26.6083 21.2139 26.3185 21.2861 26.1844 21.5065C26.1844 21.5065 24.2977 24.6229 24.2864 24.6604C24.1908 24.9745 24.247 25.3047 24.4402 25.5654C24.6381 25.8326 24.9466 25.9855 25.287 25.9855H27.894C27.9362 25.9855 27.9615 26.0155 27.9756 26.0408C27.9859 26.0605 28.0074 26.1112 27.969 26.1693L26.1891 29.0034C26.0513 29.2228 26.1169 29.5117 26.3364 29.6495C26.4142 29.6983 26.5005 29.7217 26.5858 29.7217C26.7424 29.7217 26.8943 29.6439 26.9834 29.5023L28.7576 26.6776C28.9715 26.3559 28.9883 25.9424 28.8036 25.5973C28.6217 25.2578 28.2738 25.0477 27.8958 25.0477H27.8921Z" fill="white"/>
<defs>
<linearGradient id="paint0_linear_704_11655" x1="36.1383" y1="43" x2="3.2888" y2="86.7604" gradientUnits="userSpaceOnUse">
<stop stop-color="#9A2686"/>
<stop offset="1" stop-color="#293992"/>
</linearGradient>
</defs>
</svg>
