<svg width="44" height="44" viewBox="0 0 44 44" fill="none" xmlns="http://www.w3.org/2000/svg">
<rect y="43.4355" width="43.4354" height="43.4354" rx="21.7177" transform="rotate(-90 0 43.4355)" fill="url(#paint0_linear_704_11658)"/>
<path d="M24.7021 15.2224C23.1593 15.2224 21.9038 16.4729 21.9038 18.0096C21.9038 19.5462 23.1593 20.7968 24.7021 20.7968C26.2448 20.7968 27.5003 19.5462 27.5003 18.0096C27.5003 16.4729 26.2448 15.2224 24.7021 15.2224ZM24.7021 19.8677C23.6732 19.8677 22.8366 19.0343 22.8366 18.0096C22.8366 16.9848 23.6732 16.1515 24.7021 16.1515C25.7309 16.1515 26.5675 16.9848 26.5675 18.0096C26.5675 19.0343 25.7309 19.8677 24.7021 19.8677ZM32.3226 21.7806C32.4 22.1448 32.33 22.5174 32.1257 22.8295C31.9215 23.1408 31.6071 23.3544 31.2424 23.4315C30.8777 23.5114 30.5028 23.4399 30.1894 23.2355L29.28 22.6456C28.961 22.9577 28.6112 23.2374 28.2362 23.478C28.1579 23.5291 28.0702 23.5523 27.9834 23.5523C27.8305 23.5523 27.6812 23.4771 27.5917 23.3396C27.4518 23.124 27.5143 22.836 27.7297 22.6976C28.1476 22.4291 28.5291 22.1049 28.864 21.7342C29.0197 21.5632 29.2753 21.5307 29.4656 21.6561L30.6987 22.456C30.8041 22.5239 30.9281 22.5489 31.0503 22.5211C31.1716 22.496 31.276 22.4245 31.3441 22.3195C31.4122 22.2163 31.4355 22.0919 31.4094 21.9701C31.3842 21.8494 31.3124 21.7453 31.207 21.6775L29.9758 20.8785C29.7836 20.7531 29.7109 20.5078 29.8051 20.2988C30.1325 19.5769 30.2976 18.8067 30.2976 18.0087C30.2976 17.2106 30.1315 16.4404 29.8051 15.7186C29.7099 15.5095 29.7836 15.2642 29.9758 15.1388L31.207 14.3398C31.3115 14.272 31.3833 14.167 31.4094 14.0472C31.4346 13.9255 31.4122 13.801 31.3441 13.6979C31.276 13.5938 31.1706 13.5223 31.0503 13.4963C30.9262 13.4684 30.8031 13.4935 30.6996 13.5613L29.4656 14.3612C29.2762 14.4866 29.0188 14.455 28.864 14.2822C28.003 13.3281 26.8306 12.6945 25.5639 12.4994C25.3363 12.4641 25.1684 12.2699 25.1684 12.0404V10.5762C25.1684 10.3208 24.9586 10.1117 24.7021 10.1117C24.4456 10.1117 24.2357 10.3208 24.2357 10.5762V12.0404C24.2357 12.2699 24.0678 12.4641 23.8402 12.4994C22.5735 12.6945 21.4011 13.3281 20.5392 14.2822C20.3863 14.455 20.1307 14.4876 19.9376 14.3612L18.7045 13.5613C18.6001 13.4935 18.4751 13.4675 18.3538 13.4963C18.2316 13.5213 18.1272 13.5929 18.0591 13.6979C17.9192 13.9115 17.9798 14.2005 18.1953 14.3398L19.4265 15.1388C19.6419 15.2782 19.7035 15.5671 19.5627 15.7817C19.4227 15.9954 19.1336 16.0567 18.9172 15.9174L17.686 15.1184C17.0405 14.6994 16.8568 13.8335 17.2774 13.1906C17.4817 12.8784 17.7951 12.6648 18.1607 12.5876C18.5254 12.5087 18.8995 12.5793 19.2138 12.7837L20.1223 13.3736C20.9991 12.5152 22.1053 11.9178 23.302 11.6558V10.5772C23.302 9.80885 23.9297 9.18359 24.7011 9.18359C25.4725 9.18359 26.1002 9.80885 26.1002 10.5772V11.6558C27.2969 11.9169 28.4032 12.5152 29.279 13.3736L30.1894 12.7837C30.5018 12.5802 30.8768 12.5087 31.2415 12.5876C31.6071 12.6648 31.9215 12.8784 32.1248 13.1897C32.3291 13.5018 32.399 13.8744 32.3216 14.2386C32.2442 14.6028 32.0297 14.9158 31.7172 15.1184L30.8097 15.7074C31.0895 16.4414 31.2303 17.2143 31.2303 18.0096C31.2303 18.8049 31.0895 19.5778 30.8097 20.3118L31.7172 20.9008C32.0297 21.1043 32.2451 21.4174 32.3226 21.7806ZM22.8356 22.1903H18.934L19.4815 19.0975C19.4946 18.8182 19.4946 18.6531 19.4815 18.6023C19.3686 18.1898 19.1075 17.8656 18.7446 17.6881C18.3771 17.5088 17.9546 17.5014 17.5451 17.6705C17.3101 17.769 17.0788 18.0124 16.9155 18.331L14.8672 22.1913H13.5092C11.9664 22.1913 10.7109 23.4418 10.7109 24.9784V28.6946C10.7109 30.2313 11.9664 31.4818 13.5092 31.4818H21.3246C23.0968 31.4818 24.6358 30.2248 24.9837 28.494L25.5807 25.5247C25.7449 24.7006 25.5331 23.858 24.9996 23.2114C24.4661 22.5638 23.677 22.1913 22.8366 22.1913L22.8356 22.1903ZM11.6437 28.6937V24.9775C11.6437 23.9527 12.4803 23.1194 13.5092 23.1194H14.4419V30.5518H13.5092C12.4803 30.5518 11.6437 29.7184 11.6437 28.6937ZM24.6657 25.3417L24.0687 28.3109C23.8085 29.6088 22.6538 30.5518 21.3246 30.5518H15.3746V22.9698C15.5062 22.8853 15.6162 22.7673 15.6918 22.6242L17.7438 18.7584C17.8389 18.5735 17.9098 18.5271 17.908 18.5252C18.0609 18.463 18.2111 18.4611 18.3333 18.5206C18.4378 18.5726 18.5189 18.6674 18.5628 18.7863L18.0162 22.0268C17.9677 22.299 18.0414 22.5759 18.2195 22.7868C18.3977 22.9977 18.6579 23.1185 18.934 23.1185H22.8356C23.3962 23.1185 23.9214 23.3665 24.2777 23.7985C24.634 24.2296 24.7748 24.7917 24.6657 25.3398V25.3417Z" fill="white"/>
<defs>
<linearGradient id="paint0_linear_704_11658" x1="36.5042" y1="43.4355" x2="3.3221" y2="87.639" gradientUnits="userSpaceOnUse">
<stop stop-color="#9A2686"/>
<stop offset="1" stop-color="#293992"/>
</linearGradient>
</defs>
</svg>
