<svg width="44" height="44" viewBox="0 0 44 44" fill="none" xmlns="http://www.w3.org/2000/svg">
<rect y="44" width="44" height="44" rx="22" transform="rotate(-90 0 44)" fill="url(#paint0_linear_704_11649)"/>
<path d="M20.0588 31.4512C20.0588 31.6931 19.8624 31.8894 19.6205 31.8894H15.2376C13.0628 31.8894 11.293 30.1196 11.293 27.9448V14.7962C11.293 12.6214 13.0628 10.8516 15.2376 10.8516H23.1268C25.3016 10.8516 27.0714 12.6214 27.0714 14.7962C27.0714 15.0381 26.875 15.2345 26.6331 15.2345C26.3912 15.2345 26.1948 15.0381 26.1948 14.7962C26.1948 13.1044 24.8186 11.7281 23.1268 11.7281H15.2376C13.5458 11.7281 12.1695 13.1044 12.1695 14.7962V27.9448C12.1695 29.6366 13.5458 31.0129 15.2376 31.0129H19.6205C19.8624 31.0129 20.0588 31.2092 20.0588 31.4512ZM29.2628 16.9876H24.8799C24.0077 16.9876 23.175 17.3602 22.5938 18.0106C22.4325 18.1903 22.4474 18.4673 22.628 18.6294C22.8095 18.7907 23.0856 18.7741 23.2469 18.5944C23.6624 18.1307 24.2576 17.8642 24.8799 17.8642H29.2628C30.4707 17.8642 31.4543 18.8468 31.4543 20.0556V28.8214C31.4543 30.0302 30.4707 31.0129 29.2628 31.0129H24.8799C23.672 31.0129 22.6885 30.0302 22.6885 28.8214C22.6885 28.5795 22.4921 28.3831 22.2502 28.3831C22.0083 28.3831 21.8119 28.5795 21.8119 28.8214C21.8119 30.5132 23.1881 31.8894 24.8799 31.8894H29.2628C30.9546 31.8894 32.3308 30.5132 32.3308 28.8214V20.0556C32.3308 18.3638 30.9546 16.9876 29.2628 16.9876ZM19.6205 15.2345C19.8624 15.2345 20.0588 15.0381 20.0588 14.7962C20.0588 14.5542 19.8624 14.3579 19.6205 14.3579H16.5524C15.5856 14.3579 14.7993 15.1442 14.7993 16.111V19.1791C14.7993 19.421 14.9956 19.6173 15.2376 19.6173C15.4795 19.6173 15.6759 19.421 15.6759 19.1791V16.111C15.6759 16.0356 15.7013 15.9673 15.7188 15.8971L25.5312 25.7096C25.4611 25.728 25.3936 25.7525 25.3173 25.7525H22.2493C22.0074 25.7525 21.811 25.9489 21.811 26.1908C21.811 26.4327 22.0074 26.6291 22.2493 26.6291H25.3173C26.2842 26.6291 27.0705 25.8428 27.0705 24.8759V21.8079C27.0705 21.566 26.8741 21.3696 26.6322 21.3696C26.3903 21.3696 26.1939 21.566 26.1939 21.8079V24.8759C26.1939 24.9513 26.1685 25.0197 26.151 25.0898L16.3386 15.2774C16.4087 15.259 16.4762 15.2345 16.5524 15.2345H19.6205ZM19.6205 27.5065H17.8673C17.6254 27.5065 17.429 27.7029 17.429 27.9448C17.429 28.1868 17.6254 28.3831 17.8673 28.3831H19.6205C19.8624 28.3831 20.0588 28.1868 20.0588 27.9448C20.0588 27.7029 19.8624 27.5065 19.6205 27.5065Z" fill="white"/>
<defs>
<linearGradient id="paint0_linear_704_11649" x1="36.9787" y1="44" x2="3.36529" y2="88.778" gradientUnits="userSpaceOnUse">
<stop stop-color="#9A2686"/>
<stop offset="1" stop-color="#293992"/>
</linearGradient>
</defs>
</svg>
