<svg width="44" height="44" viewBox="0 0 44 44" fill="none" xmlns="http://www.w3.org/2000/svg">
<rect y="43.4355" width="43.4354" height="43.4354" rx="21.7177" transform="rotate(-90 0 43.4355)" fill="url(#paint0_linear_704_11661)"/>
<path d="M21.3081 30.8756C21.4047 31.1149 21.3173 31.3776 21.0804 31.4761L20.6159 31.6647C20.5601 31.6872 20.5007 31.6984 20.4421 31.6984C20.3706 31.6984 20.2991 31.6816 20.234 31.6487L19.8392 31.4489C17.8007 30.4206 11.1484 26.5814 11.1484 20.3789V15.4665C11.1484 13.5535 12.3563 11.8637 14.155 11.2614L20.2935 9.20486C20.3883 9.1739 20.4914 9.1739 20.5852 9.20486L26.7228 11.2595C28.5215 11.8619 29.7293 13.5506 29.7293 15.4646V17.6244C29.7293 17.8833 29.5212 18.0935 29.2648 18.0935C29.0084 18.0935 28.8002 17.8833 28.8002 17.6244V15.4646C28.8002 13.9569 27.8479 12.6246 26.4301 12.1499L20.4384 10.1431L14.4476 12.1508C13.0308 12.6256 12.0775 13.9578 12.0775 15.4655V20.378C12.0775 26.042 18.3359 29.6409 20.2545 30.6092L20.4626 30.7143L20.6772 30.6261C20.915 30.5285 21.2105 30.6364 21.3081 30.8756ZM33.4466 25.6001C33.4466 28.9626 30.7374 31.6984 27.4075 31.6984C24.0777 31.6984 21.3684 28.9626 21.3684 25.6001C21.3684 22.2375 24.0777 19.5017 27.4075 19.5017C30.7374 19.5017 33.4466 22.2375 33.4466 25.6001ZM32.5175 25.6001C32.5175 22.7554 30.2255 20.4399 27.4075 20.4399C24.5896 20.4399 22.2975 22.7554 22.2975 25.6001C22.2975 28.4447 24.5896 30.7602 27.4075 30.7602C30.2255 30.7602 32.5175 28.4447 32.5175 25.6001ZM27.4075 27.0074C27.664 27.0074 27.8721 26.7972 27.8721 26.5383V21.8472C27.8721 21.5883 27.664 21.3781 27.4075 21.3781C27.1511 21.3781 26.943 21.5883 26.943 21.8472V26.5383C26.943 26.7972 27.1511 27.0074 27.4075 27.0074ZM27.4075 27.9456C26.8947 27.9456 26.4784 28.3659 26.4784 28.8838C26.4784 29.4017 26.8947 29.822 27.4075 29.822C27.9204 29.822 28.3366 29.4017 28.3366 28.8838C28.3366 28.3659 27.9204 27.9456 27.4075 27.9456Z" fill="white"/>
<defs>
<linearGradient id="paint0_linear_704_11661" x1="36.5042" y1="43.4355" x2="3.3221" y2="87.639" gradientUnits="userSpaceOnUse">
<stop stop-color="#9A2686"/>
<stop offset="1" stop-color="#293992"/>
</linearGradient>
</defs>
</svg>
