<svg width="43" height="43" viewBox="0 0 43 43" fill="none" xmlns="http://www.w3.org/2000/svg">
<rect y="43" width="43" height="43" rx="21.5" transform="rotate(-90 0 43)" fill="url(#paint0_linear_704_9629)"/>
<path d="M21.1928 30.8664C21.1928 31.1078 20.9968 31.3037 20.7554 31.3037H15.5076C13.3377 31.3037 11.5718 29.5378 11.5718 27.3679V14.2484C11.5718 12.0784 13.3377 10.3125 15.5076 10.3125H23.3793C25.5493 10.3125 27.3152 12.0784 27.3152 14.2484V17.7469C27.3152 17.9883 27.1193 18.1842 26.8779 18.1842C26.6365 18.1842 26.4406 17.9883 26.4406 17.7469V14.2484C26.4406 12.5603 25.0674 11.1871 23.3793 11.1871H15.5076C13.8196 11.1871 12.4464 12.5603 12.4464 14.2484V27.3679C12.4464 29.0559 13.8196 30.4291 15.5076 30.4291H20.7554C20.9968 30.4291 21.1928 30.625 21.1928 30.8664ZM23.8167 15.123C23.8167 14.8816 23.6207 14.6857 23.3793 14.6857H15.5076C15.2662 14.6857 15.0703 14.8816 15.0703 15.123C15.0703 15.3644 15.2662 15.5603 15.5076 15.5603H23.3793C23.6207 15.5603 23.8167 15.3644 23.8167 15.123ZM22.0674 19.4962C22.0674 19.2548 21.8715 19.0588 21.6301 19.0588H15.5076C15.2662 19.0588 15.0703 19.2548 15.0703 19.4962C15.0703 19.7376 15.2662 19.9335 15.5076 19.9335H21.6301C21.8715 19.9335 22.0674 19.7376 22.0674 19.4962ZM15.5076 23.432C15.2662 23.432 15.0703 23.6279 15.0703 23.8693C15.0703 24.1107 15.2662 24.3066 15.5076 24.3066H19.0062C19.2476 24.3066 19.4435 24.1107 19.4435 23.8693C19.4435 23.6279 19.2476 23.432 19.0062 23.432H15.5076ZM32.563 25.6186C32.563 28.7533 30.0126 31.3037 26.8779 31.3037C23.7432 31.3037 21.1928 28.7533 21.1928 25.6186C21.1928 22.4839 23.7432 19.9335 26.8779 19.9335C30.0126 19.9335 32.563 22.4839 32.563 25.6186ZM31.6884 25.6186C31.6884 22.9667 29.5298 20.8081 26.8779 20.8081C24.226 20.8081 22.0674 22.9667 22.0674 25.6186C22.0674 28.2705 24.226 30.4291 26.8779 30.4291C29.5298 30.4291 31.6884 28.2705 31.6884 25.6186ZM28.761 24.8489L26.821 26.711C26.5271 27.0014 26.0461 27.0014 25.7505 26.7128L24.7613 25.7437C24.5898 25.5766 24.3126 25.5775 24.1429 25.7507C23.9741 25.923 23.9776 26.2002 24.1499 26.369L25.1391 27.3381C25.4557 27.6477 25.872 27.8026 26.2866 27.8026C26.7012 27.8026 27.1175 27.6469 27.4324 27.3373L29.368 25.4795C29.542 25.3133 29.5473 25.0352 29.3802 24.8612C29.214 24.688 28.9359 24.6819 28.761 24.8489Z" fill="white"/>
<defs>
<linearGradient id="paint0_linear_704_9629" x1="36.1383" y1="43" x2="3.2888" y2="86.7604" gradientUnits="userSpaceOnUse">
<stop stop-color="#9A2686"/>
<stop offset="1" stop-color="#293992"/>
</linearGradient>
</defs>
</svg>
