<svg width="41" height="42" viewBox="0 0 41 42" fill="none" xmlns="http://www.w3.org/2000/svg">
<path d="M35.875 24.3069C35.875 22.3919 34.3426 20.8345 32.4583 20.8345H29.0417C27.1574 20.8345 25.625 22.3919 25.625 24.3069C22.7994 24.3069 20.5 26.6438 20.5 29.5155V36.4604C20.5 39.3321 22.7994 41.669 25.625 41.669H35.875C38.7006 41.669 41 39.3321 41 36.4604V29.5155C41 26.6438 38.7006 24.3069 35.875 24.3069ZM29.0417 22.5707H32.4583C33.4013 22.5707 34.1667 23.3485 34.1667 24.3069H27.3333C27.3333 23.3485 28.0987 22.5707 29.0417 22.5707ZM25.625 26.0431H35.875C37.7593 26.0431 39.2917 27.6005 39.2917 29.5155V31.2517H22.2083V29.5155C22.2083 27.6005 23.7407 26.0431 25.625 26.0431ZM35.875 39.9328H25.625C23.7407 39.9328 22.2083 38.3754 22.2083 36.4604V32.9879H29.8958V35.5923C29.8958 36.0715 30.2785 36.4604 30.75 36.4604C31.2215 36.4604 31.6042 36.0715 31.6042 35.5923V32.9879H39.2917V36.4604C39.2917 38.3754 37.7593 39.9328 35.875 39.9328ZM17.0833 40.8009C17.0833 41.2801 16.7007 41.669 16.2292 41.669H7.6875C3.44913 41.669 0 38.1636 0 33.8561V7.81294C0 3.5054 3.44913 0 7.6875 0H19.6458C23.8842 0 27.3333 3.5054 27.3333 7.81294V16.494C27.3333 16.9732 26.9507 17.3621 26.4792 17.3621C26.0077 17.3621 25.625 16.9732 25.625 16.494V7.81294C25.625 4.46205 22.9429 1.73621 19.6458 1.73621H7.6875C4.39042 1.73621 1.70833 4.46205 1.70833 7.81294V33.8561C1.70833 37.2069 4.39042 39.9328 7.6875 39.9328H16.2292C16.7007 39.9328 17.0833 40.3217 17.0833 40.8009ZM11.9583 23.4388C11.9583 23.918 11.5757 24.3069 11.1042 24.3069H7.6875C7.216 24.3069 6.83333 23.918 6.83333 23.4388C6.83333 22.9596 7.216 22.5707 7.6875 22.5707H11.1042C11.5757 22.5707 11.9583 22.9596 11.9583 23.4388ZM20.5 23.4388C20.5 23.918 20.1173 24.3069 19.6458 24.3069H16.2292C15.7577 24.3069 15.375 23.918 15.375 23.4388C15.375 22.9596 15.7577 22.5707 16.2292 22.5707H19.6458C20.1173 22.5707 20.5 22.9596 20.5 23.4388ZM11.9583 30.3836C11.9583 30.8628 11.5757 31.2517 11.1042 31.2517H7.6875C7.216 31.2517 6.83333 30.8628 6.83333 30.3836C6.83333 29.9044 7.216 29.5155 7.6875 29.5155H11.1042C11.5757 29.5155 11.9583 29.9044 11.9583 30.3836ZM11.9583 9.54914C11.9583 10.0283 11.5757 10.4172 11.1042 10.4172H7.6875C7.216 10.4172 6.83333 10.0283 6.83333 9.54914C6.83333 9.06995 7.216 8.68104 7.6875 8.68104H11.1042C11.5757 8.68104 11.9583 9.06995 11.9583 9.54914ZM20.5 9.54914C20.5 10.0283 20.1173 10.4172 19.6458 10.4172H16.2292C15.7577 10.4172 15.375 10.0283 15.375 9.54914C15.375 9.06995 15.7577 8.68104 16.2292 8.68104H19.6458C20.1173 8.68104 20.5 9.06995 20.5 9.54914ZM11.9583 16.494C11.9583 16.9732 11.5757 17.3621 11.1042 17.3621H7.6875C7.216 17.3621 6.83333 16.9732 6.83333 16.494C6.83333 16.0148 7.216 15.6259 7.6875 15.6259H11.1042C11.5757 15.6259 11.9583 16.0148 11.9583 16.494ZM20.5 16.494C20.5 16.9732 20.1173 17.3621 19.6458 17.3621H16.2292C15.7577 17.3621 15.375 16.9732 15.375 16.494C15.375 16.0148 15.7577 15.6259 16.2292 15.6259H19.6458C20.1173 15.6259 20.5 16.0148 20.5 16.494Z" fill="#9A2686"/>
</svg>
