<svg width="32" height="42" viewBox="0 0 32 42" fill="none" xmlns="http://www.w3.org/2000/svg">
<path d="M24 0H8C3.58933 0 0 3.5315 0 7.875V34.125C0 38.4668 3.58933 42 8 42H11.5556C12.0462 42 12.4444 41.608 12.4444 41.125V29.7272H19.5556V41.125C19.5556 41.608 19.9538 42 20.4444 42H24C28.4107 42 32 38.4668 32 34.125V7.875C32 3.5315 28.4107 0 24 0ZM30.2222 34.125C30.2222 37.5025 27.4311 40.25 24 40.25H21.3333V29.7272H23.8862C24.3769 29.7272 24.7751 29.3352 24.7751 28.8522C24.7751 28.3692 24.3769 27.9773 23.8862 27.9773H7.88622C7.39556 27.9773 6.99733 28.3692 6.99733 28.8522C6.99733 29.3352 7.39556 29.7272 7.88622 29.7272H10.6667V40.25H8C4.56889 40.25 1.77778 37.5025 1.77778 34.125V7.875C1.77778 4.4975 4.56889 1.75 8 1.75H24C27.4311 1.75 30.2222 4.4975 30.2222 7.875V34.125ZM10.5529 21.8523C10.5529 22.3353 10.1547 22.7273 9.664 22.7273H7.88622C7.39556 22.7273 6.99733 22.3353 6.99733 21.8523C6.99733 21.3693 7.39556 20.9773 7.88622 20.9773H9.664C10.1547 20.9773 10.5529 21.3693 10.5529 21.8523ZM24.7751 21.8523C24.7751 22.3353 24.3769 22.7273 23.8862 22.7273H22.1084C21.6178 22.7273 21.2196 22.3353 21.2196 21.8523C21.2196 21.3693 21.6178 20.9773 22.1084 20.9773H23.8862C24.3769 20.9773 24.7751 21.3693 24.7751 21.8523ZM10.5529 7.85225C10.5529 8.33525 10.1547 8.72725 9.664 8.72725H7.88622C7.39556 8.72725 6.99733 8.33525 6.99733 7.85225C6.99733 7.36925 7.39556 6.97725 7.88622 6.97725H9.664C10.1547 6.97725 10.5529 7.36925 10.5529 7.85225ZM24.7751 7.85225C24.7751 8.33525 24.3769 8.72725 23.8862 8.72725H22.1084C21.6178 8.72725 21.2196 8.33525 21.2196 7.85225C21.2196 7.36925 21.6178 6.97725 22.1084 6.97725H23.8862C24.3769 6.97725 24.7751 7.36925 24.7751 7.85225ZM10.5529 14.8523C10.5529 15.3353 10.1547 15.7273 9.664 15.7273H7.88622C7.39556 15.7273 6.99733 15.3353 6.99733 14.8523C6.99733 14.3693 7.39556 13.9773 7.88622 13.9773H9.664C10.1547 13.9773 10.5529 14.3693 10.5529 14.8523ZM24.7751 14.8523C24.7751 15.3353 24.3769 15.7273 23.8862 15.7273H22.1084C21.6178 15.7273 21.2196 15.3353 21.2196 14.8523C21.2196 14.3693 21.6178 13.9773 22.1084 13.9773H23.8862C24.3769 13.9773 24.7751 14.3693 24.7751 14.8523ZM17.664 21.8523C17.664 22.3353 17.2658 22.7273 16.7751 22.7273H14.9973C14.5067 22.7273 14.1084 22.3353 14.1084 21.8523C14.1084 21.3693 14.5067 20.9773 14.9973 20.9773H16.7751C17.2658 20.9773 17.664 21.3693 17.664 21.8523ZM17.664 7.85225C17.664 8.33525 17.2658 8.72725 16.7751 8.72725H14.9973C14.5067 8.72725 14.1084 8.33525 14.1084 7.85225C14.1084 7.36925 14.5067 6.97725 14.9973 6.97725H16.7751C17.2658 6.97725 17.664 7.36925 17.664 7.85225ZM17.664 14.8523C17.664 15.3353 17.2658 15.7273 16.7751 15.7273H14.9973C14.5067 15.7273 14.1084 15.3353 14.1084 14.8523C14.1084 14.3693 14.5067 13.9773 14.9973 13.9773H16.7751C17.2658 13.9773 17.664 14.3693 17.664 14.8523Z" fill="#9A2686"/>
</svg>
