<svg width="45" height="42" viewBox="0 0 45 42" fill="none" xmlns="http://www.w3.org/2000/svg">
<path d="M7.5 22.9091H18.75C21.8512 22.9091 24.375 20.3395 24.375 17.1818V5.72727C24.375 2.56964 21.8512 0 18.75 0H7.5C4.39875 0 1.875 2.56964 1.875 5.72727V17.1818C1.875 20.3395 4.39875 22.9091 7.5 22.9091ZM3.75 5.72727C3.75 3.62155 5.43187 1.90909 7.5 1.90909H18.75C20.8181 1.90909 22.5 3.62155 22.5 5.72727V17.1818C22.5 19.2875 20.8181 21 18.75 21H7.5C5.43187 21 3.75 19.2875 3.75 17.1818V5.72727ZM32.8125 22.9091H38.4375C41.0231 22.9091 43.125 20.7671 43.125 18.1364V12.4091C43.125 9.77836 41.0231 7.63636 38.4375 7.63636H32.8125C30.2269 7.63636 28.125 9.77836 28.125 12.4091V18.1364C28.125 20.7671 30.2269 22.9091 32.8125 22.9091ZM30 12.4091C30 10.8303 31.2619 9.54545 32.8125 9.54545H38.4375C39.9881 9.54545 41.25 10.8303 41.25 12.4091V18.1364C41.25 19.7152 39.9881 21 38.4375 21H32.8125C31.2619 21 30 19.7152 30 18.1364V12.4091ZM37.5 26.7273H7.5C3.36375 26.7273 0 30.1522 0 34.3636C0 38.5751 3.36375 42 7.5 42H37.5C41.6362 42 45 38.5751 45 34.3636C45 30.1522 41.6362 26.7273 37.5 26.7273ZM37.5 40.0909H7.5C4.39875 40.0909 1.875 37.5213 1.875 34.3636C1.875 31.206 4.39875 28.6364 7.5 28.6364H37.5C40.6012 28.6364 43.125 31.206 43.125 34.3636C43.125 37.5213 40.6012 40.0909 37.5 40.0909ZM9.375 34.3636C9.375 35.4175 8.535 36.2727 7.5 36.2727C6.465 36.2727 5.625 35.4175 5.625 34.3636C5.625 33.3098 6.465 32.4545 7.5 32.4545C8.535 32.4545 9.375 33.3098 9.375 34.3636ZM39.375 34.3636C39.375 35.4175 38.535 36.2727 37.5 36.2727C36.465 36.2727 35.625 35.4175 35.625 34.3636C35.625 33.3098 36.465 32.4545 37.5 32.4545C38.535 32.4545 39.375 33.3098 39.375 34.3636ZM18.75 34.3636C18.75 35.4175 17.91 36.2727 16.875 36.2727C15.84 36.2727 15 35.4175 15 34.3636C15 33.3098 15.84 32.4545 16.875 32.4545C17.91 32.4545 18.75 33.3098 18.75 34.3636ZM30 34.3636C30 35.4175 29.16 36.2727 28.125 36.2727C27.09 36.2727 26.25 35.4175 26.25 34.3636C26.25 33.3098 27.09 32.4545 28.125 32.4545C29.16 32.4545 30 33.3098 30 34.3636Z" fill="#9A2686"/>
</svg>
