<svg width="43" height="43" viewBox="0 0 43 43" fill="none" xmlns="http://www.w3.org/2000/svg">
<rect y="43" width="43" height="43" rx="21.5" transform="rotate(-90 0 43)" fill="url(#paint0_linear_704_9623)"/>
<path d="M32.4079 22.8286L31.2957 14.1243C31.0062 11.8588 29.0647 10.1504 26.781 10.1504H15.8558C13.8005 10.1495 12.0538 11.6868 11.7926 13.7266L10.6303 22.8286C10.481 23.9954 10.8414 25.1714 11.6187 26.0543C12.3961 26.9372 13.5165 27.4433 14.6925 27.4433H21.064V31.0841H16.5129C16.2617 31.0841 16.0578 31.2879 16.0578 31.5392C16.0578 31.7904 16.2617 31.9943 16.5129 31.9943H26.5253C26.7765 31.9943 26.9804 31.7904 26.9804 31.5392C26.9804 31.2879 26.7765 31.0841 26.5253 31.0841H21.9742V27.4433H28.3457C29.5217 27.4433 30.6421 26.9363 31.4195 26.0543C32.1968 25.1714 32.5572 23.9954 32.4079 22.8286ZM17.9019 26.5331L18.1859 21.9821H24.8477L25.1317 26.5331H17.901H17.9019ZM18.2433 21.0719L18.5272 16.5209H24.5064L24.7904 21.0719H18.2423H18.2433ZM12.3542 16.5209H17.617L17.333 21.0719H11.7726L12.3542 16.5209ZM24.166 11.0597L24.45 15.6107H18.5846L18.8686 11.0597H24.1651H24.166ZM25.4194 16.5209H30.6849L31.2665 21.0719H25.7042L25.4194 16.5209ZM30.3937 14.239L30.5693 15.6107H25.3629L25.0789 11.0597H26.7828C28.6096 11.0597 30.1616 12.4268 30.3937 14.239ZM15.8558 11.0597H17.9574L17.6735 15.6107H12.4698L12.6955 13.8422C12.8976 12.2566 14.2565 11.0597 15.8558 11.0597ZM12.3023 25.4517C11.697 24.7655 11.4167 23.8507 11.5332 22.9432L11.6561 21.9812H17.2748L16.9908 26.5322H14.6934C13.7787 26.5322 12.9076 26.138 12.3032 25.4508L12.3023 25.4517ZM30.7359 25.4517C30.1315 26.1389 29.2595 26.5331 28.3457 26.5331H26.0456L25.7616 21.9821H31.3831L31.5059 22.9441C31.6215 23.8516 31.3412 24.7664 30.7368 25.4527L30.7359 25.4517Z" fill="white"/>
<defs>
<linearGradient id="paint0_linear_704_9623" x1="36.1383" y1="43" x2="3.2888" y2="86.7604" gradientUnits="userSpaceOnUse">
<stop stop-color="#9A2686"/>
<stop offset="1" stop-color="#293992"/>
</linearGradient>
</defs>
</svg>
