<svg width="43" height="43" viewBox="0 0 43 43" fill="none" xmlns="http://www.w3.org/2000/svg">
<rect y="42.6895" width="42.6892" height="42.6893" rx="21.3446" transform="rotate(-90 0 42.6895)" fill="url(#paint0_linear_704_9632)"/>
<path d="M32.9106 31.7139L26.7702 25.5736C28.3003 23.8835 29.242 21.6508 29.242 19.1971C29.241 13.9471 24.9697 9.67578 19.7195 9.67578C14.4693 9.67578 10.198 13.9471 10.198 19.1971C10.198 24.4472 14.4693 28.7185 19.7195 28.7185C22.1732 28.7185 24.406 27.7768 26.0961 26.2467L32.2365 32.3871C32.6669 32.8308 33.3534 32.1443 32.9106 31.7139ZM19.7195 27.7663C14.994 27.7663 11.1501 23.9226 11.1501 19.1971C11.1501 14.4717 14.994 10.6279 19.7195 10.6279C24.445 10.6279 28.2889 14.4726 28.2889 19.1971C28.2889 23.9216 24.445 27.7663 19.7195 27.7663ZM25.4334 17.8413C24.425 16.5054 22.6169 14.9125 19.7195 14.9125C16.8221 14.9125 15.014 16.5045 14.0057 17.8413C13.4039 18.6392 13.4039 19.7551 14.0057 20.5539C15.014 21.8898 16.824 23.4817 19.7195 23.4817C22.615 23.4817 24.425 21.8898 25.4334 20.553C26.0351 19.7551 26.0351 18.6392 25.4334 17.8403V17.8413ZM24.6726 19.9807C23.7957 21.1442 22.2246 22.5306 19.7195 22.5306C17.2144 22.5306 15.6443 21.1442 14.7664 19.9817C14.4189 19.5209 14.4189 18.8763 14.7664 18.4154C15.6434 17.2519 17.2144 15.8656 19.7195 15.8656C22.2246 15.8656 23.7957 17.2519 24.6726 18.4145C25.0201 18.8753 25.0201 19.5199 24.6726 19.9807ZM19.7195 17.2938C18.6693 17.2938 17.8152 18.1479 17.8152 19.1981C17.8152 20.2483 18.6693 21.1024 19.7195 21.1024C20.7697 21.1024 21.6238 20.2483 21.6238 19.1981C21.6238 18.1479 20.7697 17.2938 19.7195 17.2938ZM19.7195 20.1502C19.1939 20.1502 18.7674 19.7227 18.7674 19.1981C18.7674 18.6735 19.1939 18.246 19.7195 18.246C20.2451 18.246 20.6717 18.6735 20.6717 19.1981C20.6717 19.7227 20.2451 20.1502 19.7195 20.1502Z" fill="white"/>
<defs>
<linearGradient id="paint0_linear_704_9632" x1="35.8771" y1="42.6894" x2="3.26503" y2="86.1335" gradientUnits="userSpaceOnUse">
<stop stop-color="#9A2686"/>
<stop offset="1" stop-color="#293992"/>
</linearGradient>
</defs>
</svg>
