<svg width="43" height="43" viewBox="0 0 43 43" fill="none" xmlns="http://www.w3.org/2000/svg">
<rect y="42.6895" width="42.6892" height="42.6892" rx="21.3446" transform="rotate(-90 0 42.6895)" fill="url(#paint0_linear_704_9620)"/>
<path d="M21.1105 32.771C20.8773 32.771 20.6403 32.7195 20.4109 32.6138C19.6628 32.2682 19.2991 31.473 19.5257 30.6807L21.1962 25.1526H16.1266C15.366 25.1526 14.6692 24.8022 14.2161 24.1908C13.7631 23.5795 13.6288 22.811 13.8487 22.0825L16.7253 11.6187C17.0346 10.596 17.9503 9.91602 19.006 9.91602H23.1685C23.8234 9.91602 24.4373 10.2379 24.8105 10.7759C25.1836 11.314 25.2693 12.0025 25.0399 12.6158L22.9838 18.4866H26.5962C27.4928 18.4866 28.2791 18.9599 28.6989 19.7532C29.1186 20.5464 29.0691 21.4616 28.5656 22.2044L22.4641 32.0244C22.1414 32.5091 21.6379 32.771 21.1105 32.771ZM19.0069 10.8683C18.373 10.8683 17.8237 11.2759 17.64 11.8834L14.7635 22.3472C14.6283 22.7957 14.7083 23.2566 14.9805 23.6233C15.2527 23.9899 15.6706 24.2004 16.1275 24.2004H21.8378C21.9882 24.2004 22.13 24.2718 22.2195 24.3927C22.309 24.5137 22.3366 24.6698 22.2928 24.8136L20.4395 30.9483C20.3234 31.3559 20.5547 31.6301 20.8117 31.7482C21.0677 31.8663 21.4266 31.8663 21.6645 31.5073L27.7679 21.6844C28.0802 21.2235 28.1106 20.674 27.8584 20.1979C27.6061 19.7217 27.1349 19.438 26.5962 19.438H22.3128C22.1586 19.438 22.0139 19.3627 21.9244 19.237C21.8349 19.1113 21.8121 18.9504 21.8635 18.8037L24.1451 12.2901C24.2708 11.9539 24.227 11.6035 24.028 11.3178C23.83 11.0311 23.5159 10.8674 23.1685 10.8674H19.006L19.0069 10.8683Z" fill="white"/>
<defs>
<linearGradient id="paint0_linear_704_9620" x1="35.8771" y1="42.6894" x2="3.26503" y2="86.1335" gradientUnits="userSpaceOnUse">
<stop stop-color="#9A2686"/>
<stop offset="1" stop-color="#293992"/>
</linearGradient>
</defs>
</svg>
