<svg width="44" height="44" viewBox="0 0 44 44" fill="none" xmlns="http://www.w3.org/2000/svg">
<rect y="44" width="43.3105" height="43.3105" rx="21.6553" transform="rotate(-90 0 44)" fill="url(#paint0_linear_704_9635)"/>
<path d="M25.6207 12.7712V12.2872C25.6207 11.5291 25.0049 10.9121 24.2482 10.9121H19.673C18.9163 10.9121 18.3005 11.5291 18.3005 12.2872V12.7712C16.2444 13.0004 14.6404 14.7514 14.6404 16.8709V28.7884C14.6404 31.0628 16.4878 32.9137 18.758 32.9137H25.1632C27.4334 32.9137 29.2809 31.0628 29.2809 28.7884V16.8709C29.2809 14.7514 27.6768 12.9995 25.6207 12.7712ZM28.3658 28.7884C28.3658 30.5577 26.9292 31.997 25.1632 31.997H18.758C16.992 31.997 15.5554 30.5577 15.5554 28.7884V16.8709C15.5554 15.1016 16.992 13.6623 18.758 13.6623C19.0106 13.6623 19.2155 13.457 19.2155 13.2039V12.2872C19.2155 12.0342 19.4205 11.8288 19.673 11.8288H24.2482C24.4998 11.8288 24.7057 12.0342 24.7057 12.2872V13.2039C24.7057 13.457 24.9107 13.6623 25.1632 13.6623C26.9292 13.6623 28.3658 15.1016 28.3658 16.8709V28.7884ZM20.6247 18.3532C18.4707 20.4865 17.7853 22.6665 18.6949 24.4908C19.2329 25.5569 20.3108 26.3701 21.5031 26.4443V27.8717C21.5031 28.1247 21.7081 28.3301 21.9606 28.3301C22.2132 28.3301 22.4181 28.1247 22.4181 27.8717V26.4572C23.0797 26.3737 23.7102 26.1226 24.2409 25.6981C25.1175 24.9977 25.6207 23.9517 25.6207 22.8296C25.6207 21.0347 24.3617 19.4093 23.3048 18.3615C22.5645 17.6263 21.3613 17.6208 20.6247 18.3532ZM23.6708 24.9812C23.3048 25.2737 22.8729 25.4506 22.419 25.5276V23.288C22.419 23.035 22.2141 22.8296 21.9615 22.8296C21.709 22.8296 21.504 23.035 21.504 23.288V25.5276C20.6558 25.4396 19.9018 24.8446 19.5138 24.0801C18.5448 22.1357 20.1974 20.0657 21.2679 19.0041C21.6504 18.6255 22.2763 18.6292 22.6615 19.0124C23.4247 19.7696 24.7057 21.2721 24.7057 22.8287C24.7057 23.6703 24.3287 24.455 23.6699 24.9803L23.6708 24.9812Z" fill="white"/>
<defs>
<linearGradient id="paint0_linear_704_9635" x1="36.3993" y1="44" x2="3.31255" y2="88.0764" gradientUnits="userSpaceOnUse">
<stop stop-color="#9A2686"/>
<stop offset="1" stop-color="#293992"/>
</linearGradient>
</defs>
</svg>
