<svg width="43" height="43" viewBox="0 0 43 43" fill="none" xmlns="http://www.w3.org/2000/svg">
<rect y="43" width="43" height="43" rx="21.5" transform="rotate(-90 0 43)" fill="url(#paint0_linear_704_9626)"/>
<path d="M24.6467 19.7626C25.5034 20.6201 26.6444 21.0925 27.8581 21.0925C29.0719 21.0925 30.2129 20.6201 31.0696 19.7626C32.8175 18.0157 32.8466 15.1768 31.1395 13.1592C31.1359 13.1556 31.1332 13.1519 31.1296 13.1483L28.8157 10.5829C28.6085 10.3812 28.3587 10.1904 27.8572 10.1904C27.4048 10.1904 27.105 10.3812 26.8797 10.6038L24.5758 13.1583C22.8688 15.1759 22.8979 18.0148 24.6458 19.7617L24.6467 19.7626ZM25.2608 13.756L27.4984 11.2896C27.6365 11.1379 27.7682 11.0925 27.8799 11.0925C27.9917 11.0925 28.0962 11.1561 28.2288 11.2833L30.4509 13.7515C31.8463 15.4048 31.8363 17.7122 30.4282 19.1203C29.0564 20.493 26.6617 20.493 25.2899 19.1203C23.879 17.7104 23.8709 15.4003 25.2617 13.7569L25.2608 13.756ZM21.9531 26.5004V29.421C21.9531 30.2232 21.5888 30.9653 20.9519 31.4568C20.4959 31.8093 19.9508 31.9937 19.393 31.9937C19.1777 31.9937 18.9615 31.9664 18.7471 31.911C13.9485 30.6628 10.5972 26.2633 10.5972 21.0925C10.5972 20.6828 10.6199 20.2658 10.6653 19.8534C11.2186 14.847 15.2531 10.8127 20.2597 10.2595C20.6739 10.214 21.0909 10.1913 21.4988 10.1913C22.4982 10.1913 23.1686 10.2949 23.8681 10.4493C24.1134 10.5038 24.267 10.7464 24.2134 10.9908C24.1598 11.2351 23.9281 11.3896 23.671 11.336C23.0105 11.1897 22.4173 11.0989 21.4979 11.0989C21.1227 11.0989 20.7394 11.1198 20.3578 11.1615C15.7718 11.6694 12.0753 15.3658 11.5683 19.9524C11.5265 20.3322 11.5056 20.7155 11.5056 21.0925C11.5056 25.8009 14.5781 29.8879 18.9769 31.0317C19.4729 31.1616 19.9899 31.0535 20.3969 30.7382C20.8093 30.4194 21.0446 29.9397 21.0446 29.421V26.4968C18.7552 26.2651 16.9565 24.3492 16.9565 22.0009V20.1841H16.5022C16.2515 20.1841 16.048 19.9806 16.048 19.7299C16.048 19.4791 16.2515 19.2757 16.5022 19.2757H18.7734V16.0961C18.7734 15.8454 18.9769 15.6419 19.2277 15.6419C19.4784 15.6419 19.6819 15.8454 19.6819 16.0961V19.2757H21.9531C22.2038 19.2757 22.4073 19.4791 22.4073 19.7299C22.4073 19.9806 22.2038 20.1841 21.9531 20.1841H17.8649V22.0009C17.8649 24.0049 19.4947 25.6347 21.4988 25.6347C23.3539 25.6347 24.9065 24.2466 25.1109 22.4052C25.1382 22.1563 25.3626 21.9746 25.6124 22.0037C25.8613 22.0309 26.0421 22.2562 26.0139 22.5051C25.7759 24.6527 24.0644 26.2887 21.9531 26.5004ZM32.3087 22.5133C31.7646 26.6803 28.8238 30.1995 24.8166 31.4795C24.5831 31.5549 24.3215 31.4259 24.2451 31.1843C24.1688 30.9454 24.3015 30.6901 24.5395 30.6138C28.2134 29.441 30.9097 26.2161 31.4075 22.397C31.4402 22.1481 31.6719 21.9719 31.9172 22.0055C32.1661 22.0382 32.3415 22.2662 32.3097 22.5142L32.3087 22.5133Z" fill="white"/>
<defs>
<linearGradient id="paint0_linear_704_9626" x1="36.1383" y1="43" x2="3.2888" y2="86.7604" gradientUnits="userSpaceOnUse">
<stop stop-color="#9A2686"/>
<stop offset="1" stop-color="#293992"/>
</linearGradient>
</defs>
</svg>
