<svg width="48" height="48" viewBox="0 0 48 48" fill="none" xmlns="http://www.w3.org/2000/svg">
<rect y="47.8887" width="47.8894" height="47.8894" rx="23.9447" transform="rotate(-90 0 47.8887)" fill="url(#paint0_linear_704_12441)"/>
<path d="M34.4168 23.0067C34.2597 22.7745 34.3185 22.4592 34.5506 22.3021C34.7808 22.147 35.0961 22.2037 35.2543 22.4349C35.9224 23.4153 36.3736 24.5032 36.5946 25.6671C36.6473 25.9418 36.4658 26.2075 36.1911 26.2592C36.1596 26.2652 36.1282 26.2683 36.0958 26.2683C35.8575 26.2683 35.6456 26.099 35.599 25.8556C35.4043 24.8286 35.0059 23.8705 34.4168 23.0047V23.0067ZM26.7024 34.7533C25.6763 34.5586 24.7172 34.1612 23.8524 33.5711C23.6202 33.415 23.307 33.4728 23.1478 33.7039C22.9906 33.9351 23.0494 34.2504 23.2806 34.4085C24.262 35.0777 25.36 35.6404 26.6091 35.758C26.8473 35.758 27.0603 35.5887 27.1059 35.3454C27.1586 35.0706 26.9771 34.805 26.7024 34.7533ZM36.1911 28.3061C35.9183 28.2534 35.6517 28.4339 35.599 28.7097C35.4043 29.7367 35.0059 30.6958 34.4168 31.5606C34.2597 31.7918 34.3185 32.1081 34.5506 32.2653C34.6378 32.3251 34.7372 32.3535 34.8355 32.3535C34.9967 32.3535 35.1559 32.2764 35.2543 32.1324C35.9224 31.152 36.3736 30.0642 36.5946 28.8992C36.6473 28.6245 36.4658 28.3578 36.1911 28.3061ZM29.6496 20.1862C29.6496 24.9381 25.7838 28.8039 21.0319 28.8039C20.9173 28.8039 20.8058 28.7908 20.6922 28.7867C20.8909 29.7742 21.2661 30.7171 21.8409 31.5596C21.9981 31.7908 21.9393 32.1061 21.7071 32.2642C21.6199 32.3241 21.5205 32.3524 21.4222 32.3524C21.261 32.3524 21.1018 32.2754 21.0035 32.1314C20.2917 31.0882 19.8325 29.9131 19.6317 28.6803C15.5449 28.0071 12.4141 24.4606 12.4141 20.1862C12.4141 15.4342 16.2799 11.5684 21.0319 11.5684C25.3053 11.5684 28.8528 14.6992 29.5249 18.785C30.7578 18.9857 31.9329 19.446 32.9761 20.1567C33.2083 20.3139 33.2671 20.6292 33.1099 20.8614C32.9528 21.0946 32.6355 21.1513 32.4063 20.9942C31.5638 20.4204 30.6199 20.0442 29.6324 19.8455C29.6365 19.959 29.6496 20.0706 29.6496 20.1851V20.1862ZM19.5111 27.2832C19.5111 22.5312 23.3769 18.6654 28.1289 18.6654C28.2495 18.6654 28.3671 18.6867 28.4867 18.6917C27.7902 15.2122 24.7132 12.5822 21.0319 12.5822C16.8385 12.5822 13.4279 15.9928 13.4279 20.1862C13.4279 23.8675 16.0579 26.9445 19.5374 27.641C19.5324 27.5214 19.5111 27.4038 19.5111 27.2832ZM28.6358 20.1862C28.6358 20.027 28.6216 19.8719 28.6115 19.7147C28.4503 19.7046 28.2911 19.6792 28.1289 19.6792C23.9355 19.6792 20.5249 23.0898 20.5249 27.2832C20.5249 27.4464 20.5503 27.6045 20.5604 27.7658C20.7165 27.7759 20.8727 27.7901 21.0319 27.7901C25.2252 27.7901 28.6358 24.3795 28.6358 20.1862ZM33.1099 33.7039C32.9528 33.4717 32.6365 33.415 32.4053 33.5711C31.5405 34.1612 30.5814 34.5586 29.5554 34.7533C29.2806 34.805 29.0991 35.0706 29.1518 35.3454C29.1975 35.5887 29.4104 35.758 29.6486 35.758C31.0275 35.615 31.9957 35.0777 32.9771 34.4085C33.2083 34.2504 33.2671 33.9351 33.1099 33.7039Z" fill="white"/>
<defs>
<linearGradient id="paint0_linear_704_12441" x1="40.2475" y1="47.8887" x2="3.66275" y2="96.6249" gradientUnits="userSpaceOnUse">
<stop stop-color="#9A2686"/>
<stop offset="1" stop-color="#293992"/>
</linearGradient>
</defs>
</svg>
