<svg width="48" height="48" viewBox="0 0 48 48" fill="none" xmlns="http://www.w3.org/2000/svg">
<rect y="47.8887" width="47.8894" height="47.8894" rx="23.9447" transform="rotate(-90 0 47.8887)" fill="url(#paint0_linear_704_12448)"/>
<path d="M19.9586 22.7471C22.4253 22.7471 24.4327 20.7398 24.4327 18.2731C24.4327 15.8064 22.4253 13.799 19.9586 13.799C17.4919 13.799 15.4846 15.8064 15.4846 18.2731C15.4846 20.7398 17.4919 22.7471 19.9586 22.7471ZM19.9586 14.7933C21.8775 14.7933 23.4384 16.3542 23.4384 18.2731C23.4384 20.1919 21.8775 21.7529 19.9586 21.7529C18.0397 21.7529 16.4788 20.1919 16.4788 18.2731C16.4788 16.3542 18.0397 14.7933 19.9586 14.7933ZM23.9773 28.0166C24.2796 28.7076 24.4327 29.4443 24.4327 30.2039V35.1751C24.4327 35.4495 24.21 35.6722 23.9356 35.6722C23.6611 35.6722 23.4384 35.4495 23.4384 35.1751V30.2039C23.4384 29.5815 23.3132 28.98 23.0666 28.4143C22.9562 28.1627 23.0716 27.8694 23.3231 27.7601C23.5756 27.6517 23.8679 27.766 23.9773 28.0166ZM36.3635 15.7875V12.3077C36.3635 12.1764 36.3118 12.0492 36.2183 11.9557C36.1249 11.8622 35.9986 11.8105 35.8664 11.8105C35.6447 11.8105 35.3166 11.9567 35.2559 12.1705C34.9586 13.2055 34.0946 13.799 32.8837 13.799H30.3981C28.7536 13.799 27.4154 15.1373 27.4154 16.7817C27.4154 17.419 27.6202 18.0076 27.9622 18.4928L29.898 23.3884C29.9029 23.4013 29.9169 23.4083 29.9238 23.4202L28.3708 24.3707C27.9801 24.6093 27.5317 24.7356 27.0734 24.7356H18.9644C15.9489 24.7356 13.4961 27.1894 13.4961 30.2039V35.1751C13.4961 35.4495 13.7188 35.6722 13.9932 35.6722C14.2676 35.6722 14.4903 35.4495 14.4903 35.1751V30.2039C14.4903 27.7372 16.4977 25.7298 18.9644 25.7298H27.0724C27.7136 25.7298 28.341 25.5529 28.8878 25.2188L31.9232 23.3626C32.6729 22.9191 32.5973 21.9537 32.3856 21.4775L31.7134 19.7634H32.8837C34.0936 19.7634 34.9586 20.357 35.2559 21.392C35.3175 21.6047 35.6437 21.7519 35.8654 21.7519C36.1398 21.7519 36.3625 21.5292 36.3625 21.2548V17.775C36.9103 17.775 37.3567 17.3285 37.3567 16.7807C37.3567 16.2329 36.9103 15.7865 36.3625 15.7865L36.3635 15.7875ZM31.4231 22.4349C31.3675 22.5204 31.2929 22.589 31.2064 22.6358C31.1199 22.6835 31.0215 22.7084 30.9191 22.7084H30.6983L29.4695 19.6014C29.7638 19.6988 30.072 19.7644 30.3981 19.7644H30.6456L31.4689 21.8613C31.5514 22.0482 31.5345 22.2629 31.4231 22.4349ZM35.3683 19.6879C34.7568 19.0983 33.8978 18.7702 32.8837 18.7702H30.3981C29.3014 18.7702 28.4096 17.8784 28.4096 16.7817C28.4096 15.6851 29.3014 14.7933 30.3981 14.7933H32.8837C33.8988 14.7933 34.7578 14.4652 35.3692 13.8756L35.3683 19.6879Z" fill="white"/>
<defs>
<linearGradient id="paint0_linear_704_12448" x1="40.2475" y1="47.8887" x2="3.66275" y2="96.6249" gradientUnits="userSpaceOnUse">
<stop stop-color="#9A2686"/>
<stop offset="1" stop-color="#293992"/>
</linearGradient>
</defs>
</svg>
