<svg width="38" height="38" viewBox="0 0 38 38" fill="none" xmlns="http://www.w3.org/2000/svg">
<path d="M36.4006 21.6992C37.3133 22.8866 37.809 24.3281 37.809 25.8313C37.809 28.5202 36.1812 30.9818 33.7212 32.0586C32.2433 35.447 29.4597 37.5533 26.0365 37.8564C25.6087 37.8959 25.2187 37.5754 25.1808 37.1396C25.1429 36.7054 25.4634 36.3217 25.8976 36.2838C28.8123 36.0264 31.1775 34.157 32.387 31.157C32.4707 30.9518 32.6333 30.7923 32.8401 30.7133C34.8991 29.9349 36.2285 28.0181 36.2285 25.8313C36.2285 24.4845 35.7091 23.2008 34.7649 22.2171C34.4617 21.914 34.4775 21.3755 34.7996 21.0913C35.8164 20.1519 36.2885 18.7166 36.3122 17.3035C36.3122 15.3882 35.3175 13.8993 33.2712 12.7499C33.0233 12.6109 32.8686 12.3472 32.8686 12.0614V10.3388C32.8686 7.92622 30.5996 6.82571 28.4934 6.82571C28.0576 6.82571 27.7039 6.47203 27.7039 6.03625C27.7039 3.63627 25.8581 1.5963 23.6729 1.57735C21.8271 1.63893 19.7982 2.61786 19.6466 4.73521V11.842C19.6466 12.2778 19.2929 12.6314 18.8572 12.6314C18.4214 12.6314 18.0677 12.2778 18.0677 11.842V4.73679C18.0677 2.87523 16.0324 1.57893 14.2056 1.57893C12.0235 1.57893 10.1809 3.62048 10.1809 6.03783C10.1809 6.47361 9.82726 6.82729 9.39147 6.82729C7.28518 6.82729 5.01626 7.92622 5.01626 10.3404V12.063C5.01626 12.3488 4.86152 12.6125 4.61363 12.7514C2.56892 13.9025 1.57419 15.3898 1.57419 17.3051C1.59314 18.6645 2.05261 20.1061 3.08523 21.0898C3.40891 21.374 3.42628 21.9155 3.12154 22.2187C2.17734 23.2039 1.65788 24.4876 1.65788 25.8329C1.65788 28.0197 2.98891 29.9365 5.04784 30.7149C5.25468 30.7939 5.41889 30.9533 5.50099 31.1586C6.21309 32.927 7.97991 35.9427 11.8214 36.2854C12.2556 36.3233 12.5762 36.7085 12.5383 37.1412C12.502 37.5785 12.1104 37.8975 11.6825 37.858C8.31464 37.5596 5.6573 35.5038 4.16679 32.0586C1.7084 30.9802 0.0789465 28.5218 0.0789465 25.8329C0.0789465 24.3266 0.576309 22.8818 1.49367 21.6929C0.495784 20.3508 0 18.8619 0 17.3035C0 14.9382 1.15736 13.0246 3.44207 11.613V10.3404C3.44207 7.60728 5.59099 5.56888 8.65095 5.2831C9.00937 2.3526 11.4093 0 14.2104 0C15.9993 0 17.8514 0.895253 18.8666 2.35103C19.9166 0.85578 21.9155 0.0552625 23.6903 0C26.4865 0.0236839 28.8818 2.37313 29.2418 5.2831C32.3017 5.5673 34.4522 7.60728 34.4522 10.3404V11.613C36.7369 13.0262 37.8959 14.9367 37.8959 17.3035C37.8959 18.8903 37.3811 20.4045 36.4038 21.6992H36.4006ZM27.546 24.4734C27.546 27.5744 25.8581 30.4544 23.1376 31.9938C22.4476 32.3823 22.0197 33.178 22.0197 34.0686V35.2101C22.0197 36.6912 20.815 37.8943 19.3356 37.8943H18.3882C16.8582 37.8943 15.704 36.6722 15.704 35.0491V34.1001C15.704 33.1923 15.2682 32.3791 14.5656 31.9796C11.2909 30.1181 9.63147 26.5086 10.3372 22.7855C10.9736 19.4224 13.6419 16.6924 16.9766 15.9867C19.604 15.4325 22.2803 16.0656 24.3266 17.7235C26.3713 19.3829 27.5444 21.8413 27.5444 24.4718L27.546 24.4734ZM20.4408 34.0686C20.4408 33.7559 20.4898 33.4528 20.5561 33.1575H17.1645C17.234 33.4638 17.283 33.7765 17.283 34.1017V35.0507C17.283 35.7849 17.7472 36.317 18.3882 36.317H19.3356C19.945 36.317 20.4408 35.8212 20.4408 35.2117V34.0686ZM25.9671 24.4734C26.0476 20.6461 22.6671 17.2861 18.8445 17.3714C15.5288 17.313 12.4846 19.8014 11.8893 23.0792C11.3114 26.1313 12.6677 29.087 15.3472 30.6091C15.7767 30.8539 16.1209 31.2044 16.4193 31.5944C16.4445 31.5912 16.4667 31.5802 16.4935 31.5802H18.0724V25.9418C16.7145 25.5881 15.704 24.3629 15.704 22.8961C15.704 22.4603 16.0577 22.1066 16.4935 22.1066C16.9293 22.1066 17.283 22.4603 17.283 22.8961C17.283 23.7676 17.9919 24.475 18.8619 24.475C19.7319 24.475 20.4408 23.7676 20.4408 22.8961C20.4408 22.4603 20.7945 22.1066 21.2303 22.1066C21.6661 22.1066 22.0197 22.4603 22.0197 22.8961C22.0197 24.3629 21.0092 25.5881 19.6514 25.9418V31.5802H21.2303C21.2524 31.5802 21.2729 31.5912 21.295 31.5928C21.5919 31.206 21.9345 30.8602 22.3608 30.6186C24.5855 29.3602 25.9671 27.006 25.9671 24.4734Z" fill="white"/>
</svg>
