<svg width="31" height="37" viewBox="0 0 31 37" fill="none" xmlns="http://www.w3.org/2000/svg">
<path d="M24.025 0H6.975C3.131 0 0 3.11417 0 6.9375V31.6042C0 34.5796 2.4335 37 5.425 37H24.025C27.869 37 31 33.8858 31 30.0625V6.9375C31 3.11417 27.869 0 24.025 0ZM29.45 6.9375V26.2083H7.75V1.54167H24.025C27.0165 1.54167 29.45 3.96208 29.45 6.9375ZM1.55 6.9375C1.55 4.22417 3.5805 1.97333 6.2 1.60333V26.2083H5.425C3.906 26.2083 2.542 26.825 1.55 27.8271V6.9375ZM24.025 35.4583H5.425C3.286 35.4583 1.55 33.7317 1.55 31.6042C1.55 29.4767 3.286 27.75 5.425 27.75H29.45V30.0625C29.45 33.0379 27.0165 35.4583 24.025 35.4583ZM12.276 21.5371C12.679 21.6758 13.1285 21.4754 13.268 21.0746L14.7715 16.9583H22.227L23.7305 21.0746C23.839 21.3829 24.149 21.5833 24.459 21.5833C24.552 21.5833 24.6295 21.5833 24.7225 21.5371C25.1255 21.3983 25.327 20.9513 25.1875 20.5504L20.429 7.50792C20.1345 6.69083 19.375 6.16667 18.4915 6.16667C17.608 6.16667 16.864 6.69083 16.5695 7.50792L11.811 20.5504C11.6715 20.9513 11.873 21.3983 12.276 21.5371ZM18.0265 8.03208C18.135 7.73917 18.3985 7.70833 18.4915 7.70833C18.5845 7.70833 18.8635 7.73917 18.972 8.03208L21.669 15.4167H15.345L18.042 8.03208H18.0265Z" fill="white"/>
</svg>
