<svg width="43" height="43" viewBox="0 0 43 43" fill="none" xmlns="http://www.w3.org/2000/svg">
<path d="M38.2987 7.08254L25.1872 0.820988C22.8903 -0.273663 20.2566 -0.273663 17.9579 0.820988L4.84646 7.08254C1.94575 8.46742 0.0716667 11.4379 0.0716667 14.6501L0 42.1024C0 42.5951 0.399542 42.9982 0.894042 43C1.38675 43 1.79167 42.6005 1.79167 42.106L1.80779 35.8337H41.2083V42.1042C41.2083 42.5987 41.6097 43 42.1042 43C42.5987 43 43 42.5987 43 42.1042V14.6519C43 11.368 41.1994 8.46742 38.2987 7.08254ZM5.61687 8.69854L18.7283 2.43699C20.5361 1.57703 22.6073 1.57703 24.415 2.43699L37.5265 8.69854C38.5226 9.1751 39.3414 9.88993 39.9595 10.7517H3.16587C3.79833 9.89172 4.62429 9.1733 5.61687 8.69854ZM22.3958 34.0421V25.0843C22.3958 24.8048 22.5302 24.536 22.7542 24.3694L24.381 23.1494C24.596 23.2425 24.8343 23.2945 25.0833 23.2945C26.0723 23.2945 26.875 22.4919 26.875 21.5029C26.875 20.514 26.0723 19.7113 25.0833 19.7113C24.0943 19.7113 23.2917 20.514 23.2917 21.5029C23.2917 21.571 23.3239 21.6301 23.3311 21.6964L21.6792 22.9344C21.0055 23.4396 20.6042 24.2422 20.6042 25.0843V34.0421H1.81317L1.86333 14.6519C1.86333 13.9228 1.9995 13.2151 2.22704 12.5433H7.16667V15.2306C7.16667 15.7251 7.568 16.1264 8.0625 16.1264C8.557 16.1264 8.95833 15.7251 8.95833 15.2306V12.5433H16.125V15.2306C16.125 15.7251 16.5263 16.1264 17.0208 16.1264C17.5153 16.1264 17.9167 15.7251 17.9167 15.2306V12.5433H25.0833V15.2306C25.0833 15.7251 25.4847 16.1264 25.9792 16.1264C26.4737 16.1264 26.875 15.7251 26.875 15.2306V12.5433H34.0417V15.2306C34.0417 15.7251 34.443 16.1264 34.9375 16.1264C35.432 16.1264 35.8333 15.7251 35.8333 15.2306V12.5433H40.8661C41.0811 13.2097 41.2083 13.9156 41.2083 14.6519V34.0421H22.3958ZM12.5417 39.4169C12.0472 39.4169 11.6458 39.0155 11.6458 38.5211C11.6458 38.0266 12.0472 37.6253 12.5417 37.6253H30.4583C30.9528 37.6253 31.3542 38.0266 31.3542 38.5211C31.3542 39.0155 30.9528 39.4169 30.4583 39.4169H12.5417ZM32.25 42.1042C32.25 42.5987 31.8487 43 31.3542 43H11.6458C11.1513 43 10.75 42.5987 10.75 42.1042C10.75 41.6097 11.1513 41.2084 11.6458 41.2084H31.3542C31.8487 41.2084 32.25 41.6097 32.25 42.1042Z" fill="white"/>
</svg>
