<svg width="48" height="48" viewBox="0 0 48 48" fill="none" xmlns="http://www.w3.org/2000/svg">
<rect y="47.8887" width="47.8894" height="47.8894" rx="23.9447" transform="rotate(-90 0 47.8887)" fill="url(#paint0_linear_704_12445)"/>
<path d="M35.1897 19.2956V30.5049C35.1897 32.8225 33.2837 34.7084 30.9416 34.7084H16.7813C14.4392 34.7084 12.5332 32.8225 12.5332 30.5049V18.3615C12.5332 16.0439 14.4392 14.1579 16.7813 14.1579H26.2215C26.4821 14.1579 26.6935 14.3672 26.6935 14.625C26.6935 14.8828 26.4821 15.0921 26.2215 15.0921H16.7813C14.9593 15.0921 13.4772 16.5586 13.4772 18.3615V20.6967H19.6134C19.8739 20.6967 20.0854 20.906 20.0854 21.1638C20.0854 21.4216 19.8739 21.6308 19.6134 21.6308H13.4772V30.5049C13.4772 32.3078 14.9593 33.7743 16.7813 33.7743H30.9416C32.7636 33.7743 34.2457 32.3078 34.2457 30.5049V21.6308H32.8296C32.5691 21.6308 32.3576 21.4216 32.3576 21.1638C32.3576 20.906 32.5691 20.6967 32.8296 20.6967H34.2457V19.2956C34.2457 19.0378 34.4571 18.8285 34.7177 18.8285C34.9782 18.8285 35.1897 19.0378 35.1897 19.2956ZM15.3653 17.8944C15.3653 18.41 15.7882 18.8285 16.3093 18.8285C16.8304 18.8285 17.2533 18.41 17.2533 17.8944C17.2533 17.3788 16.8304 16.9603 16.3093 16.9603C15.7882 16.9603 15.3653 17.3788 15.3653 17.8944ZM17.7253 30.0379C17.4648 30.0379 17.2533 30.2471 17.2533 30.5049C17.2533 30.7627 17.4648 30.972 17.7253 30.972H29.9976C30.2581 30.972 30.4696 30.7627 30.4696 30.5049C30.4696 30.2471 30.2581 30.0379 29.9976 30.0379H17.7253ZM18.1973 17.8944C18.1973 18.41 18.6202 18.8285 19.1413 18.8285C19.6624 18.8285 20.0854 18.41 20.0854 17.8944C20.0854 17.3788 19.6624 16.9603 19.1413 16.9603C18.6202 16.9603 18.1973 17.3788 18.1973 17.8944ZM22.9174 17.8944C22.9174 17.3788 22.4945 16.9603 21.9734 16.9603C21.4523 16.9603 21.0294 17.3788 21.0294 17.8944C21.0294 18.41 21.4523 18.8285 21.9734 18.8285C22.4945 18.8285 22.9174 18.41 22.9174 17.8944ZM23.1563 21.6486C29.8824 13.8656 30.5196 13.1314 30.5546 13.0921C31.6317 12.03 33.347 12.03 34.4005 13.0716C35.4531 14.1159 35.4474 15.8188 34.3892 16.8687L26.6746 25.1029C26.6746 25.1029 26.6699 25.1058 26.6671 25.1076C26.6576 25.2543 26.6586 25.4009 26.6303 25.5476C26.332 27.0665 24.9216 28.1696 23.278 28.1696H19.5492C19.1168 28.1696 18.7213 27.9735 18.4635 27.6297C18.2077 27.2888 18.1312 26.8591 18.2549 26.4518C18.6741 25.0768 19.9844 21.9158 23.1544 21.6523C23.1553 21.6514 23.1553 21.6495 23.1572 21.6477L23.1563 21.6486ZM24.291 21.7719C24.931 21.9522 25.5078 22.3043 25.9392 22.8228C26.2064 23.1432 26.3895 23.5112 26.516 23.8979L28.5023 21.7784C28.136 20.7117 27.2099 19.9728 26.0148 19.7785C25.4965 20.3791 24.9178 21.048 24.291 21.7728V21.7719ZM25.2114 23.4178C24.7602 22.876 24.0965 22.565 23.3894 22.565C20.6839 22.6715 19.5293 25.5074 19.1593 26.7218C19.0762 26.9693 19.2867 27.243 19.5501 27.2355H23.279C24.4722 27.2355 25.4918 26.4509 25.7042 25.3701C25.842 24.6695 25.6617 23.9577 25.2114 23.4178ZM26.7077 18.9761C27.8282 19.2993 28.7175 20.026 29.2065 21.0265L33.7085 16.2214C34.4128 15.5227 34.4175 14.4111 33.7321 13.7311C33.0477 13.0548 31.93 13.0538 31.2418 13.7311C31.2361 13.7385 30.8765 14.1523 26.7077 18.9761Z" fill="white"/>
<defs>
<linearGradient id="paint0_linear_704_12445" x1="40.2475" y1="47.8887" x2="3.66275" y2="96.6249" gradientUnits="userSpaceOnUse">
<stop stop-color="#9A2686"/>
<stop offset="1" stop-color="#293992"/>
</linearGradient>
</defs>
</svg>
