<svg width="48" height="48" viewBox="0 0 48 48" fill="none" xmlns="http://www.w3.org/2000/svg">
<rect y="47.8887" width="47.8894" height="47.8894" rx="23.9447" transform="rotate(-90 0 47.8887)" fill="url(#paint0_linear_704_12438)"/>
<path d="M33.02 24.3432H29.7141L32.5139 21.5434C33.1512 20.9062 33.5021 20.0587 33.5021 19.1573C33.5021 18.2558 33.1512 17.4084 32.5139 16.7711L30.469 14.7262C29.1945 13.4507 26.9703 13.4517 25.6967 14.7262L22.8969 17.526V14.2201C22.8969 12.3593 21.3833 10.8457 19.5225 10.8457H16.6302C14.7695 10.8457 13.2559 12.3593 13.2559 14.2201V29.1637C13.2559 31.8218 15.4183 33.9843 18.0764 33.9843H33.02C34.8808 33.9843 36.3944 32.4706 36.3944 30.6099V27.7176C36.3944 25.8568 34.8808 24.3432 33.02 24.3432ZM26.3783 15.4079C27.2884 14.4977 28.8763 14.4968 29.7874 15.4079L31.8323 17.4527C32.2873 17.9078 32.538 18.5132 32.538 19.1573C32.538 19.8013 32.2873 20.4067 31.8323 20.8618L22.8487 29.8453C22.8805 29.6226 22.8969 29.3951 22.8969 29.1637V18.8892L26.3783 15.4079ZM14.22 17.5944H21.9328V22.415H14.22V17.5944ZM16.6302 11.8098H19.5225C20.8511 11.8098 21.9328 12.8915 21.9328 14.2201V16.6303H14.22V14.2201C14.22 12.8915 15.3017 11.8098 16.6302 11.8098ZM14.22 29.1637V23.3791H21.9328V29.1637C21.9328 31.1903 20.1994 33.0192 18.1738 33.0192C16.1482 33.0192 14.22 31.2905 14.22 29.1637ZM35.4303 30.6099C35.4303 31.9384 34.3486 33.0201 33.02 33.0201H20.9697C21.15 32.8842 21.3225 32.7348 21.4855 32.5728L28.75 25.3073H33.02C34.3486 25.3073 35.4303 26.389 35.4303 27.7176V30.6099ZM18.0764 30.1278C17.5442 30.1278 17.1123 29.6959 17.1123 29.1637C17.1123 28.6315 17.5442 28.1996 18.0764 28.1996C18.6086 28.1996 19.0405 28.6315 19.0405 29.1637C19.0405 29.6959 18.6086 30.1278 18.0764 30.1278Z" fill="white"/>
<defs>
<linearGradient id="paint0_linear_704_12438" x1="40.2475" y1="47.8887" x2="3.66275" y2="96.6249" gradientUnits="userSpaceOnUse">
<stop stop-color="#9A2686"/>
<stop offset="1" stop-color="#293992"/>
</linearGradient>
</defs>
</svg>
