<svg width="48" height="48" viewBox="0 0 48 48" fill="none" xmlns="http://www.w3.org/2000/svg">
<rect y="47.8887" width="47.8894" height="47.8894" rx="23.9447" transform="rotate(-90 0 47.8887)" fill="url(#paint0_linear_704_12435)"/>
<path d="M25.7895 19.5238V22.4161C25.7895 22.6822 25.5735 22.8981 25.3074 22.8981C25.0413 22.8981 24.8254 22.6822 24.8254 22.4161V19.7233L22.7564 21.7923C22.4614 22.0873 22.1615 22.3814 21.8588 22.6774C19.5257 24.9652 17.1125 27.3301 17.1125 30.1289C17.1125 30.395 16.8966 30.611 16.6305 30.611C16.3644 30.611 16.1484 30.395 16.1484 30.1289C16.1484 26.9262 18.7081 24.4166 21.1839 21.9899C21.4838 21.6969 21.7817 21.4038 22.0748 21.1116L24.1437 19.0427H21.451C21.1849 19.0427 20.9689 18.8267 20.9689 18.5606C20.9689 18.2945 21.1849 18.0786 21.451 18.0786H24.3433C25.1406 18.0786 25.7895 18.7264 25.7895 19.5238ZM25.6487 25.9312C25.4607 25.7432 25.1551 25.7432 24.9671 25.9312L23.3802 27.5181L21.7933 25.9312C21.6053 25.7432 21.2996 25.7432 21.1116 25.9312C20.9236 26.1192 20.9236 26.4248 21.1116 26.6128L22.6986 28.1998L21.1116 29.7867C20.9236 29.9747 20.9236 30.2803 21.1116 30.4683C21.2996 30.6563 21.6053 30.6563 21.7933 30.4683L23.3802 28.8814L24.9671 30.4683C25.1551 30.6563 25.4607 30.6563 25.6487 30.4683C25.8367 30.2803 25.8367 29.9747 25.6487 29.7867L24.0618 28.1998L25.6487 26.6128C25.8367 26.4248 25.8367 26.1192 25.6487 25.9312ZM17.1125 22.8981C16.0491 22.8981 15.1843 22.0333 15.1843 20.9699C15.1843 19.9065 16.0491 19.0417 17.1125 19.0417C18.1759 19.0417 19.0407 19.9065 19.0407 20.9699C19.0407 22.0333 18.1759 22.8981 17.1125 22.8981ZM17.1125 21.934C17.6447 21.934 18.0766 21.5011 18.0766 20.9699C18.0766 20.4387 17.6447 20.0058 17.1125 20.0058C16.5803 20.0058 16.1484 20.4387 16.1484 20.9699C16.1484 21.5011 16.5803 21.934 17.1125 21.934ZM28.6818 17.5956V31.093C28.6818 33.485 26.7353 35.4315 24.3433 35.4315H16.6305C14.2385 35.4315 12.292 33.485 12.292 31.093V17.5956C12.292 16.2545 13.0845 15.1033 14.2202 14.5596V12.775C14.2202 12.5089 14.4362 12.293 14.7023 12.293C14.9684 12.293 15.1843 12.5089 15.1843 12.775V14.2704C15.3434 14.2472 15.5015 14.2212 15.6664 14.2212H17.1125V12.775C17.1125 12.5089 17.3285 12.293 17.5946 12.293C17.8607 12.293 18.0766 12.5089 18.0766 12.775V14.2212H20.0048V12.775C20.0048 12.5089 20.2208 12.293 20.4869 12.293C20.753 12.293 20.9689 12.5089 20.9689 12.775V14.2212H22.8972V12.775C22.8972 12.5089 23.1131 12.293 23.3792 12.293C23.6453 12.293 23.8613 12.5089 23.8613 12.775V14.2212H25.3074C25.4723 14.2212 25.6304 14.2472 25.7895 14.2704V12.775C25.7895 12.5089 26.0054 12.293 26.2715 12.293C26.5376 12.293 26.7536 12.5089 26.7536 12.775V14.5596C27.8893 15.1033 28.6818 16.2545 28.6818 17.5956ZM27.7177 17.5956C27.7177 16.267 26.6369 15.1853 25.3074 15.1853H15.6664C14.3369 15.1853 13.2561 16.267 13.2561 17.5956V31.093C13.2561 32.9538 14.7697 34.4674 16.6305 34.4674H24.3433C26.204 34.4674 27.7177 32.9538 27.7177 31.093V17.5956ZM35.4305 14.7032V31.6233C35.4305 32.653 35.0295 33.6209 34.3006 34.3498L33.3606 35.2898C33.27 35.3804 33.1475 35.4306 33.0193 35.4306C32.8911 35.4306 32.7686 35.3795 32.678 35.2898L31.738 34.3498C31.0091 33.6209 30.6081 32.653 30.6081 31.6233V14.7032C30.6081 13.3747 31.6888 12.293 33.0183 12.293C34.3478 12.293 35.4286 13.3747 35.4286 14.7032H35.4305ZM34.4664 14.7032C34.4664 13.9059 33.8176 13.2571 33.0203 13.2571C32.223 13.2571 31.5741 13.9059 31.5741 14.7032V31.6233C31.5741 32.3955 31.8749 33.1215 32.4216 33.6682L33.0203 34.2669L33.619 33.6682C34.1647 33.1215 34.4664 32.3955 34.4664 31.6233V14.7032Z" fill="white"/>
<defs>
<linearGradient id="paint0_linear_704_12435" x1="40.2475" y1="47.8887" x2="3.66275" y2="96.6249" gradientUnits="userSpaceOnUse">
<stop stop-color="#9A2686"/>
<stop offset="1" stop-color="#293992"/>
</linearGradient>
</defs>
</svg>
