<svg width="37" height="37" viewBox="0 0 37 37" fill="none" xmlns="http://www.w3.org/2000/svg">
<path d="M37 13.1042C37 13.041 36.9923 12.9777 36.9769 12.9176L33.8935 0.584292C33.8072 0.2405 33.4989 0 33.1458 0H3.85417C3.50112 0 3.19279 0.2405 3.10646 0.584292L0.023125 12.9176C0.00770833 12.9793 0 13.041 0 13.1042C0 14.5703 0.588917 15.9023 1.54167 16.8766V31.6042C1.54167 34.5796 3.96208 37 6.9375 37H17.7292C20.7046 37 23.125 34.5796 23.125 31.6042V17.9789C24.0855 17.521 24.8917 16.7872 25.4375 15.8807C26.3825 17.4486 28.1015 18.5 30.0625 18.5H31.6042C32.4305 18.5 33.2152 18.3119 33.9167 17.9789V36.2292C33.9167 36.6547 34.262 37 34.6875 37C35.113 37 35.4583 36.6547 35.4583 36.2292V16.9383C35.4583 16.9183 35.4583 16.8982 35.4552 16.8782C36.4095 15.9038 37 14.5718 37 13.1026V13.1042ZM17.7292 35.4583H6.9375C4.81308 35.4583 3.08333 33.7286 3.08333 31.6042V27.75H21.5833V31.6042C21.5833 33.7286 19.8536 35.4583 17.7292 35.4583ZM21.5833 26.2083H3.08333V17.9789C3.78479 18.3135 4.5695 18.5 5.39583 18.5H6.9375C8.8985 18.5 10.6175 17.4486 11.5625 15.8807C12.5075 17.4486 14.2265 18.5 16.1875 18.5H20.8125C21.0746 18.5 21.332 18.4815 21.5833 18.4445V26.2083ZM30.0625 16.9583C27.9365 16.9583 26.2083 15.2286 26.2083 13.1042C26.2083 12.6787 25.863 12.3333 25.4375 12.3333C25.012 12.3333 24.6667 12.6787 24.6667 13.1042C24.6667 15.2286 22.9385 16.9583 20.8125 16.9583H16.1875C14.0631 16.9583 12.3333 15.2286 12.3333 13.1042C12.3333 12.6787 11.988 12.3333 11.5625 12.3333C11.137 12.3333 10.7917 12.6787 10.7917 13.1042C10.7917 15.2286 9.06192 16.9583 6.9375 16.9583H5.39583C4.43229 16.9583 3.54892 16.6022 2.87212 16.0148C2.84283 15.984 2.812 15.9562 2.77962 15.9316C2.03962 15.2455 1.56787 14.2758 1.54167 13.1951L4.45696 1.54167H10.7917V6.9375C10.7917 7.363 11.137 7.70833 11.5625 7.70833C11.988 7.70833 12.3333 7.363 12.3333 6.9375V1.54167H24.6667V6.9375C24.6667 7.363 25.012 7.70833 25.4375 7.70833C25.863 7.70833 26.2083 7.363 26.2083 6.9375V1.54167H32.543L35.4568 13.1951C35.409 15.2795 33.6978 16.9583 31.6042 16.9583H30.0625Z" fill="white"/>
</svg>
