<svg width="48" height="48" viewBox="0 0 48 48" fill="none" xmlns="http://www.w3.org/2000/svg">
<rect y="47.5664" width="47.5662" height="47.5662" rx="23.7831" transform="rotate(-90 0 47.5664)" fill="url(#paint0_linear_704_12059)"/>
<path d="M27.2636 21.8621C28.2113 22.8107 29.4735 23.3332 30.8161 23.3332C32.1587 23.3332 33.4209 22.8107 34.3686 21.8621C36.3021 19.9296 36.3342 16.7893 34.4459 14.5574C34.4419 14.5534 34.4389 14.5494 34.4349 14.5454L31.8753 11.7076C31.6462 11.4845 31.3698 11.2734 30.8151 11.2734C30.3146 11.2734 29.983 11.4845 29.7338 11.7307L27.1852 14.5564C25.2969 16.7883 25.3291 19.9286 27.2626 21.861L27.2636 21.8621ZM27.943 15.2177L30.4181 12.4894C30.5709 12.3215 30.7166 12.2713 30.8402 12.2713C30.9638 12.2713 31.0794 12.3416 31.2261 12.4823L33.6842 15.2126C35.2278 17.0416 35.2167 19.594 33.6591 21.1516C32.1416 22.67 29.4926 22.67 27.9751 21.1516C26.4144 19.592 26.4054 17.0365 27.944 15.2187L27.943 15.2177ZM24.284 29.3154V32.5461C24.284 33.4335 23.881 34.2545 23.1765 34.7981C22.672 35.188 22.0691 35.392 21.452 35.392C21.2139 35.392 20.9747 35.3619 20.7375 35.3006C15.4294 33.9198 11.7222 29.0531 11.7222 23.3332C11.7222 22.88 11.7473 22.4188 11.7975 21.9625C12.4095 16.4245 16.8725 11.9618 22.4107 11.3498C22.869 11.2996 23.3303 11.2744 23.7815 11.2744C24.8869 11.2744 25.6286 11.389 26.4024 11.5598C26.6737 11.6201 26.8436 11.8884 26.7843 12.1588C26.725 12.4291 26.4687 12.5999 26.1843 12.5406C25.4537 12.3788 24.7975 12.2783 23.7805 12.2783C23.3654 12.2783 22.9414 12.3014 22.5193 12.3477C17.4463 12.9094 13.3572 16.9983 12.7965 22.0721C12.7502 22.4921 12.7271 22.9162 12.7271 23.3332C12.7271 28.5416 16.1258 33.0626 20.9918 34.3278C21.5405 34.4715 22.1123 34.3519 22.5625 34.0032C23.0187 33.6505 23.279 33.1199 23.279 32.5461V29.3114C20.7466 29.0551 18.7568 26.9358 18.7568 24.3381V22.3283H18.2543C17.9769 22.3283 17.7518 22.1032 17.7518 21.8259C17.7518 21.5485 17.9769 21.3234 18.2543 21.3234H20.7667V17.8063C20.7667 17.5289 20.9918 17.3038 21.2691 17.3038C21.5465 17.3038 21.7716 17.5289 21.7716 17.8063V21.3234H24.284C24.5613 21.3234 24.7864 21.5485 24.7864 21.8259C24.7864 22.1032 24.5613 22.3283 24.284 22.3283H19.7617V24.3381C19.7617 26.5549 21.5646 28.3577 23.7815 28.3577C25.8336 28.3577 27.551 26.8222 27.7771 24.7853C27.8073 24.51 28.0555 24.309 28.3319 24.3411C28.6072 24.3713 28.8072 24.6205 28.7761 24.8958C28.5128 27.2714 26.6195 29.0812 24.284 29.3154ZM35.7393 24.9049C35.1374 29.5143 31.8843 33.4073 27.4515 34.8232C27.1933 34.9066 26.9038 34.7639 26.8194 34.4966C26.735 34.2323 26.8817 33.95 27.145 33.8656C31.209 32.5682 34.1917 29.0008 34.7424 24.7763C34.7786 24.5009 35.0348 24.306 35.3062 24.3431C35.5815 24.3793 35.7755 24.6315 35.7403 24.9059L35.7393 24.9049Z" fill="white"/>
<defs>
<linearGradient id="paint0_linear_704_12059" x1="39.9758" y1="47.5664" x2="3.63804" y2="95.9737" gradientUnits="userSpaceOnUse">
<stop stop-color="#9A2686"/>
<stop offset="1" stop-color="#293992"/>
</linearGradient>
</defs>
</svg>
