<svg width="51" height="51" viewBox="0 0 51 51" fill="none" xmlns="http://www.w3.org/2000/svg">
<rect y="50.8887" width="50.8894" height="50.8894" rx="25.4447" transform="rotate(-90 0 50.8887)" fill="url(#paint0_linear_704_12422)"/>
<path d="M25.3546 25.548C26.9432 25.548 28.236 24.2552 28.236 22.6666C28.236 21.0779 26.9432 19.7852 25.3546 19.7852C23.7659 19.7852 22.4731 21.0779 22.4731 22.6666C22.4731 24.2552 23.7659 25.548 25.3546 25.548ZM25.3546 20.7456C26.414 20.7456 27.2755 21.6072 27.2755 22.6666C27.2755 23.726 26.414 24.5875 25.3546 24.5875C24.2952 24.5875 23.4336 23.726 23.4336 22.6666C23.4336 21.6072 24.2952 20.7456 25.3546 20.7456Z" fill="white"/>
<path d="M25.3552 27.4707C23.466 27.4707 21.837 28.8864 21.5671 30.7642C21.5287 31.0264 21.7112 31.2694 21.9734 31.3078C22.2366 31.3452 22.4796 31.1637 22.517 30.9005C22.7206 29.4925 23.9404 28.4312 25.3552 28.4312C26.77 28.4312 27.9898 29.4925 28.1934 30.9005C28.228 31.1397 28.4335 31.3126 28.6679 31.3126C28.69 31.3126 28.714 31.3107 28.737 31.3078C28.9992 31.2694 29.1817 31.0264 29.1433 30.7642C28.8725 28.8864 27.2435 27.4707 25.3552 27.4707Z" fill="white"/>
<path d="M28.9248 26.7878C29.3109 26.6034 29.7258 26.5093 30.158 26.5093C31.5728 26.5093 32.7926 27.5706 32.9962 28.9787C33.0308 29.2178 33.2363 29.3907 33.4707 29.3907C33.4928 29.3907 33.5168 29.3888 33.5398 29.3859C33.8021 29.3475 33.9845 29.1045 33.9461 28.8423C33.6753 26.9646 32.0463 25.5488 30.158 25.5488C29.5817 25.5488 29.0276 25.6746 28.5099 25.9215C28.2707 26.0358 28.1699 26.323 28.2842 26.5621C28.3984 26.8013 28.6847 26.9012 28.9248 26.7878Z" fill="white"/>
<path d="M22.1521 25.9215C21.6344 25.6746 21.0802 25.5488 20.5039 25.5488C18.6147 25.5488 16.9857 26.9646 16.7158 28.8423C16.6774 29.1045 16.8599 29.3475 17.1221 29.3859C17.1451 29.3888 17.1682 29.3907 17.1912 29.3907C17.4265 29.3907 17.6311 29.2178 17.6657 28.9787C17.8693 27.5706 19.0891 26.5093 20.5039 26.5093C20.9361 26.5093 21.351 26.6034 21.7371 26.7878C21.9773 26.9012 22.2635 26.8013 22.3778 26.5621C22.4921 26.323 22.3912 26.0358 22.1521 25.9215Z" fill="white"/>
<path d="M29.0047 19.2089C29.3389 18.9583 29.7375 18.8257 30.1573 18.8257C31.2167 18.8257 32.0782 19.6872 32.0782 20.7466C32.0782 21.6572 31.4318 22.4486 30.5415 22.6292C30.2812 22.682 30.114 22.9356 30.1659 23.1958C30.212 23.4235 30.4128 23.58 30.6365 23.58C30.6682 23.58 30.6999 23.5772 30.7326 23.5704C32.0686 23.2996 33.0377 22.1115 33.0377 20.7466C33.0377 19.158 31.7449 17.8652 30.1563 17.8652C29.5272 17.8652 28.9298 18.065 28.4275 18.4425C28.2152 18.601 28.1729 18.9025 28.3314 19.1138C28.4918 19.3271 28.7934 19.3722 29.0037 19.2099L29.0047 19.2089Z" fill="white"/>
<path d="M17.6711 20.7457C17.6711 22.1114 18.6412 23.2986 19.9763 23.5694C20.0089 23.5762 20.0406 23.579 20.0723 23.579C20.2961 23.579 20.4959 23.4225 20.5429 23.1949C20.5958 22.9346 20.4277 22.681 20.1674 22.6282C19.277 22.4476 18.6306 21.6562 18.6306 20.7457C18.6306 19.6863 19.4922 18.8247 20.5516 18.8247C20.9713 18.8247 21.3699 18.9582 21.7041 19.2079C21.9164 19.3693 22.218 19.3251 22.3765 19.1119C22.5359 18.8996 22.4927 18.599 22.2804 18.4405C21.7781 18.0631 21.1797 17.8633 20.5516 17.8633C18.963 17.8633 17.6702 19.1561 17.6702 20.7447L17.6711 20.7457Z" fill="white"/>
<path d="M14.3098 19.7858C14.5749 19.7858 14.7901 19.5706 14.7901 19.3056V17.3846C14.7901 15.5309 16.298 14.023 18.1517 14.023H20.0726C20.3377 14.023 20.5529 13.8078 20.5529 13.5427C20.5529 13.2776 20.3377 13.0625 20.0726 13.0625H18.1517C15.7688 13.0625 13.8296 15.0017 13.8296 17.3846V19.3056C13.8296 19.5706 14.0447 19.7858 14.3098 19.7858Z" fill="white"/>
<path d="M20.0726 35.1534H18.1517C16.298 35.1534 14.7901 33.6455 14.7901 31.7918V29.8709C14.7901 29.6058 14.5749 29.3906 14.3098 29.3906C14.0447 29.3906 13.8296 29.6058 13.8296 29.8709V31.7918C13.8296 34.1747 15.7688 36.1139 18.1517 36.1139H20.0726C20.3377 36.1139 20.5529 35.8988 20.5529 35.6337C20.5529 35.3686 20.3377 35.1534 20.0726 35.1534Z" fill="white"/>
<path d="M36.4005 29.3906C36.1354 29.3906 35.9203 29.6058 35.9203 29.8709V31.7918C35.9203 33.6455 34.4124 35.1534 32.5586 35.1534H30.6377C30.3726 35.1534 30.1575 35.3686 30.1575 35.6337C30.1575 35.8988 30.3726 36.1139 30.6377 36.1139H32.5586C34.9416 36.1139 36.8808 34.1747 36.8808 31.7918V29.8709C36.8808 29.6058 36.6656 29.3906 36.4005 29.3906Z" fill="white"/>
<path d="M32.5586 13.0625H30.6377C30.3726 13.0625 30.1575 13.2776 30.1575 13.5427C30.1575 13.8078 30.3726 14.023 30.6377 14.023H32.5586C34.4124 14.023 35.9203 15.5309 35.9203 17.3846V19.3056C35.9203 19.5706 36.1354 19.7858 36.4005 19.7858C36.6656 19.7858 36.8808 19.5706 36.8808 19.3056V17.3846C36.8808 15.0017 34.9416 13.0625 32.5586 13.0625Z" fill="white"/>
<defs>
<linearGradient id="paint0_linear_704_12422" x1="42.7687" y1="50.8887" x2="3.89221" y2="102.678" gradientUnits="userSpaceOnUse">
<stop stop-color="#9A2686"/>
<stop offset="1" stop-color="#293992"/>
</linearGradient>
</defs>
</svg>
