<svg width="33" height="39" viewBox="0 0 33 39" fill="none" xmlns="http://www.w3.org/2000/svg">
<path d="M25.1875 0H7.3125C3.2825 0 0 3.28143 0 7.31011V33.3016C0 36.4369 2.55125 38.9873 5.6875 38.9873H25.1875C29.2175 38.9873 32.5 35.7058 32.5 31.6772V7.31011C32.5 3.28143 29.2175 0 25.1875 0ZM30.875 7.31011V27.616H8.125V1.62447H25.1875C28.3237 1.62447 30.875 4.17489 30.875 7.31011ZM1.625 7.31011C1.625 4.45105 3.75375 2.07932 6.5 1.68945V27.616H5.6875C4.095 27.616 2.665 28.2658 1.625 29.3217V7.31011ZM25.1875 37.3628H5.6875C3.445 37.3628 1.625 35.5434 1.625 33.3016C1.625 31.0599 3.445 29.2405 5.6875 29.2405H30.875V31.6772C30.875 34.8124 28.3237 37.3628 25.1875 37.3628ZM12.87 22.6938C13.2925 22.84 13.7638 22.6289 13.91 22.2065L15.4862 17.8692H23.3025L24.8787 22.2065C24.9925 22.5314 25.3175 22.7426 25.6425 22.7426C25.74 22.7426 25.8213 22.7426 25.9188 22.6938C26.3413 22.5476 26.5525 22.0765 26.4062 21.6542L21.4175 7.91117C21.1088 7.0502 20.3125 6.49788 19.3862 6.49788C18.46 6.49788 17.68 7.0502 17.3713 7.91117L12.3825 21.6542C12.2362 22.0765 12.4475 22.5476 12.87 22.6938ZM18.8988 8.46349C19.0125 8.15484 19.2887 8.12235 19.3862 8.12235C19.4838 8.12235 19.7762 8.15484 19.89 8.46349L22.7175 16.2447H16.0875L18.915 8.46349H18.8988Z" fill="#9A2686"/>
</svg>
