<svg width="43" height="43" viewBox="0 0 43 43" fill="none" xmlns="http://www.w3.org/2000/svg">
<rect y="43" width="43" height="43" rx="21.5" transform="rotate(-90 0 43)" fill="url(#paint0_linear_704_10432)"/>
<path d="M25.4683 9.74023H17.4338C15.2189 9.74023 13.4165 11.5426 13.4165 13.7575V27.1484C13.4165 29.3632 15.2189 31.1657 17.4338 31.1657H25.4683C27.6832 31.1657 29.4856 29.3632 29.4856 27.1484V13.7575C29.4856 11.5426 27.6832 9.74023 25.4683 9.74023ZM28.5928 27.1484C28.5928 28.8713 27.1913 30.2729 25.4683 30.2729H17.4338C15.7108 30.2729 14.3092 28.8713 14.3092 27.1484V13.7575C14.3092 12.0345 15.7108 10.633 17.4338 10.633H25.4683C27.1913 10.633 28.5928 12.0345 28.5928 13.7575V27.1484ZM23.2365 28.0411C23.2365 28.2875 23.0365 28.4875 22.7901 28.4875H20.1119C19.8656 28.4875 19.6656 28.2875 19.6656 28.0411C19.6656 27.7947 19.8656 27.5948 20.1119 27.5948H22.7901C23.0365 27.5948 23.2365 27.7947 23.2365 28.0411Z" fill="white"/>
<defs>
<linearGradient id="paint0_linear_704_10432" x1="36.1383" y1="43" x2="3.2888" y2="86.7604" gradientUnits="userSpaceOnUse">
<stop stop-color="#9A2686"/>
<stop offset="1" stop-color="#293992"/>
</linearGradient>
</defs>
</svg>
