<svg width="44" height="44" viewBox="0 0 44 44" fill="none" xmlns="http://www.w3.org/2000/svg">
<rect y="43.5303" width="43.53" height="43.53" rx="21.765" transform="rotate(-90 0 43.5303)" fill="url(#paint0_linear_704_10438)"/>
<path d="M28.3586 11.8955H14.8026C12.5605 11.8955 10.7358 13.7201 10.7358 15.9623V25.9033C10.7358 28.1455 12.5605 29.9701 14.8026 29.9701H28.3586C30.6007 29.9701 32.4253 28.1455 32.4253 25.9033V15.9623C32.4253 13.7201 30.6007 11.8955 28.3586 11.8955ZM31.5216 25.9033C31.5216 27.6475 30.1028 29.0664 28.3586 29.0664H14.8026C13.0584 29.0664 11.6396 27.6475 11.6396 25.9033V15.9623C11.6396 14.2181 13.0584 12.7992 14.8026 12.7992H28.3586C30.1028 12.7992 31.5216 14.2181 31.5216 15.9623V25.9033ZM20.6769 16.866V24.9996C20.6769 25.249 20.4744 25.4514 20.225 25.4514C19.9756 25.4514 19.7731 25.249 19.7731 24.9996V21.3847H15.2545V24.9996C15.2545 25.249 15.0521 25.4514 14.8026 25.4514C14.5532 25.4514 14.3508 25.249 14.3508 24.9996V16.866C14.3508 16.6166 14.5532 16.4142 14.8026 16.4142C15.0521 16.4142 15.2545 16.6166 15.2545 16.866V20.4809H19.7731V16.866C19.7731 16.6166 19.9756 16.4142 20.225 16.4142C20.4744 16.4142 20.6769 16.6166 20.6769 16.866ZM25.1955 16.4142H23.8399C23.0925 16.4142 22.4843 17.0224 22.4843 17.7697V24.0959C22.4843 24.8432 23.0925 25.4514 23.8399 25.4514H25.1955C27.1891 25.4514 28.8104 23.8302 28.8104 21.8365V20.0291C28.8104 18.0354 27.1891 16.4142 25.1955 16.4142ZM27.9067 21.8365C27.9067 23.3313 26.6903 24.5477 25.1955 24.5477H23.8399C23.5905 24.5477 23.3881 24.3453 23.3881 24.0959V17.7697C23.3881 17.5203 23.5905 17.3179 23.8399 17.3179H25.1955C26.6903 17.3179 27.9067 18.5343 27.9067 20.0291V21.8365Z" fill="white"/>
<defs>
<linearGradient id="paint0_linear_704_10438" x1="36.5837" y1="43.5303" x2="3.32934" y2="87.83" gradientUnits="userSpaceOnUse">
<stop stop-color="#9A2686"/>
<stop offset="1" stop-color="#293992"/>
</linearGradient>
</defs>
</svg>
