<svg width="44" height="44" viewBox="0 0 44 44" fill="none" xmlns="http://www.w3.org/2000/svg">
<rect y="44" width="44" height="44" rx="22" transform="rotate(-90 0 44)" fill="url(#paint0_linear_704_10429)"/>
<path d="M20.0592 31.4512C20.0592 31.6931 19.8629 31.8894 19.621 31.8894H15.2381C13.0633 31.8894 11.2935 30.1196 11.2935 27.9448V14.7962C11.2935 12.6214 13.0633 10.8516 15.2381 10.8516H23.1273C25.3021 10.8516 27.0719 12.6214 27.0719 14.7962C27.0719 15.0381 26.8755 15.2345 26.6336 15.2345C26.3916 15.2345 26.1953 15.0381 26.1953 14.7962C26.1953 13.1044 24.8191 11.7281 23.1273 11.7281H15.2381C13.5463 11.7281 12.17 13.1044 12.17 14.7962V27.9448C12.17 29.6366 13.5463 31.0129 15.2381 31.0129H19.621C19.8629 31.0129 20.0592 31.2092 20.0592 31.4512ZM29.2633 16.9876H24.8804C24.0082 16.9876 23.1755 17.3602 22.5943 18.0106C22.433 18.1903 22.4479 18.4673 22.6285 18.6294C22.8099 18.7907 23.0861 18.7741 23.2474 18.5944C23.6629 18.1307 24.258 17.8642 24.8804 17.8642H29.2633C30.4712 17.8642 31.4548 18.8468 31.4548 20.0556V28.8214C31.4548 30.0302 30.4712 31.0129 29.2633 31.0129H24.8804C23.6725 31.0129 22.689 30.0302 22.689 28.8214C22.689 28.5795 22.4926 28.3831 22.2507 28.3831C22.0087 28.3831 21.8124 28.5795 21.8124 28.8214C21.8124 30.5132 23.1886 31.8894 24.8804 31.8894H29.2633C30.9551 31.8894 32.3313 30.5132 32.3313 28.8214V20.0556C32.3313 18.3638 30.9551 16.9876 29.2633 16.9876ZM19.621 15.2345C19.8629 15.2345 20.0592 15.0381 20.0592 14.7962C20.0592 14.5542 19.8629 14.3579 19.621 14.3579H16.5529C15.5861 14.3579 14.7998 15.1442 14.7998 16.111V19.1791C14.7998 19.421 14.9961 19.6173 15.2381 19.6173C15.48 19.6173 15.6763 19.421 15.6763 19.1791V16.111C15.6763 16.0356 15.7018 15.9673 15.7193 15.8971L25.5317 25.7096C25.4616 25.728 25.3941 25.7525 25.3178 25.7525H22.2498C22.0079 25.7525 21.8115 25.9489 21.8115 26.1908C21.8115 26.4327 22.0079 26.6291 22.2498 26.6291H25.3178C26.2847 26.6291 27.071 25.8428 27.071 24.8759V21.8079C27.071 21.566 26.8746 21.3696 26.6327 21.3696C26.3908 21.3696 26.1944 21.566 26.1944 21.8079V24.8759C26.1944 24.9513 26.169 25.0197 26.1515 25.0898L16.339 15.2774C16.4092 15.259 16.4767 15.2345 16.5529 15.2345H19.621ZM19.621 27.5065H17.8678C17.6259 27.5065 17.4295 27.7029 17.4295 27.9448C17.4295 28.1868 17.6259 28.3831 17.8678 28.3831H19.621C19.8629 28.3831 20.0592 28.1868 20.0592 27.9448C20.0592 27.7029 19.8629 27.5065 19.621 27.5065Z" fill="white"/>
<defs>
<linearGradient id="paint0_linear_704_10429" x1="36.9787" y1="44" x2="3.36529" y2="88.778" gradientUnits="userSpaceOnUse">
<stop stop-color="#9A2686"/>
<stop offset="1" stop-color="#293992"/>
</linearGradient>
</defs>
</svg>
