<svg width="47" height="47" viewBox="0 0 47 47" fill="none" xmlns="http://www.w3.org/2000/svg">
<rect y="46.5303" width="46.53" height="46.53" rx="23.265" transform="rotate(-90 0 46.5303)" fill="url(#paint0_linear_704_10435)"/>
<path d="M15.3401 17.7842C15.3401 19.6486 16.8568 21.1652 18.7212 21.1652C20.5856 21.1652 22.1022 19.6486 22.1022 17.7842C22.1022 15.9198 20.5856 14.4031 18.7212 14.4031C16.8568 14.4031 15.3401 15.9198 15.3401 17.7842ZM21.1362 17.7842C21.1362 19.1153 20.0523 20.1992 18.7212 20.1992C17.39 20.1992 16.3061 19.1153 16.3061 17.7842C16.3061 16.453 17.39 15.3691 18.7212 15.3691C20.0523 15.3691 21.1362 16.453 21.1362 17.7842ZM28.7049 25.6726C28.9029 25.8513 28.9184 26.1566 28.7407 26.3556C28.561 26.5527 28.2567 26.5681 28.0577 26.3913L23.7705 22.5273C23.187 22.0085 22.2925 22.0018 21.6955 22.5089C21.0338 23.048 20.9478 24.1057 21.5139 24.7443L25.1906 30.039C25.6977 30.7703 25.9663 31.6271 25.9663 32.5168V33.2394C25.9663 33.506 25.7499 33.7224 25.4833 33.7224C25.2166 33.7224 25.0003 33.506 25.0003 33.2394V32.5168C25.0003 31.8242 24.7916 31.1576 24.3965 30.5896L23.5638 29.3898C22.962 29.6922 22.2973 29.8593 21.6192 29.8593H15.8231C13.4265 29.8593 11.4761 27.9089 11.4761 25.5123V17.7842C11.4761 13.7887 14.7257 10.5391 18.7212 10.5391C22.7166 10.5391 25.9663 13.7887 25.9663 17.7842V19.7906C25.9663 20.0572 25.7499 20.2736 25.4833 20.2736C25.2166 20.2736 25.0003 20.0572 25.0003 19.7906V17.7842C25.0003 14.322 22.1834 11.5051 18.7212 11.5051C15.259 11.5051 12.4421 14.322 12.4421 17.7842V25.5123C12.4421 27.3767 13.9587 28.8933 15.8231 28.8933H21.6192C22.1012 28.8933 22.5736 28.7861 23.0083 28.59L20.7488 25.3326C19.8717 24.3463 20.0195 22.6113 21.0705 21.7719C22.0336 20.9556 23.4701 20.9691 24.4148 21.8057L28.7049 25.6717V25.6726ZM34.6604 27.3467V33.2404C34.6604 33.507 34.444 33.7234 34.1774 33.7234C33.9108 33.7234 33.6944 33.507 33.6944 33.2404V27.3467C33.6944 24.781 32.6095 22.3157 30.7181 20.5817L28.0548 18.1406C27.8577 17.96 27.8452 17.6547 28.0248 17.4576C28.2055 17.2615 28.5107 17.2471 28.7078 17.4277L31.3711 19.8688C33.4616 21.7844 34.6604 24.5115 34.6604 27.3467Z" fill="white"/>
<defs>
<linearGradient id="paint0_linear_704_10435" x1="39.105" y1="46.5303" x2="3.55879" y2="93.8831" gradientUnits="userSpaceOnUse">
<stop stop-color="#9A2686"/>
<stop offset="1" stop-color="#293992"/>
</linearGradient>
</defs>
</svg>
