<svg width="43" height="43" viewBox="0 0 43 43" fill="none" xmlns="http://www.w3.org/2000/svg">
<rect y="43" width="43" height="43" rx="21.5" transform="rotate(-90 0 43)" fill="url(#paint0_linear_704_10423)"/>
<path d="M32.9272 24.6459C32.9272 22.0022 31.882 20.6346 30.445 19.9399C30.4128 12.1417 27.7322 8.81055 21.4983 8.81055C15.3485 8.81055 12.5858 12.2445 12.5515 19.9399C11.1146 20.6346 10.0693 22.0022 10.0693 24.6459C10.0693 29.4235 13.4804 30.0351 16.4529 30.0351C16.6773 30.0351 16.8758 29.8908 16.9464 29.6789C18.0218 26.4329 18.0218 22.8588 16.9464 19.6128C16.8758 19.401 16.6773 19.2567 16.4529 19.2567C15.5033 19.2567 14.509 19.319 13.5957 19.5609C13.7411 11.04 17.4722 9.84893 21.4993 9.84893C25.5264 9.84893 29.2575 11.04 29.4029 19.5609C28.4897 19.32 27.4953 19.2567 26.5457 19.2567C26.3213 19.2567 26.1228 19.401 26.0522 19.6128C25.0485 22.6408 24.9831 25.9574 25.8517 29.0247C24.4075 29.0725 23.0308 29.0455 21.7507 28.9427C21.4588 28.923 21.2146 29.1327 21.1907 29.4183C21.1679 29.7039 21.3809 29.9551 21.6666 29.9769C22.5664 30.0496 23.5098 30.086 24.4906 30.086C25.1607 30.086 25.8475 30.0694 26.5478 30.0341C29.5183 30.0341 32.9282 29.4204 32.9282 24.6448L32.9272 24.6459ZM16.0737 28.9926C12.5079 28.9126 11.1083 27.6717 11.1083 24.6448C11.1083 21.618 12.5079 20.3792 16.0737 20.2982C16.9267 23.1153 16.9267 26.1754 16.0737 28.9926ZM26.9239 28.9926C26.0709 26.1744 26.0709 23.1164 26.9239 20.2992C30.4897 20.3792 31.8892 21.619 31.8892 24.6459C31.8892 27.6728 30.4897 28.9126 26.9249 28.9936L26.9239 28.9926Z" fill="white"/>
<defs>
<linearGradient id="paint0_linear_704_10423" x1="36.1383" y1="43" x2="3.2888" y2="86.7603" gradientUnits="userSpaceOnUse">
<stop stop-color="#9A2686"/>
<stop offset="1" stop-color="#293992"/>
</linearGradient>
</defs>
</svg>
