<svg width="43" height="43" viewBox="0 0 43 43" fill="none" xmlns="http://www.w3.org/2000/svg">
<rect y="42.7031" width="42.7028" height="42.7028" rx="21.3514" transform="rotate(-90 0 42.7031)" fill="url(#paint0_linear_704_11253)"/>
<path d="M16.4548 10.3418H21.3442C21.6403 10.3418 21.932 10.3684 22.2174 10.4198V15.218C22.2174 16.4397 23.2122 17.4345 24.4338 17.4345H29.231C29.2602 17.5923 29.2815 17.7528 29.2939 17.9141C29.3134 18.158 29.5368 18.3388 29.7718 18.3202C30.0156 18.3007 30.1973 18.0861 30.1778 17.8423C30.067 16.4805 29.4748 15.1994 28.5084 14.2339L25.4188 11.1441C24.3301 10.0554 22.8832 9.45606 21.3442 9.45606H16.4548C14.2553 9.45517 12.4653 11.2452 12.4653 13.4448V26.7437C12.4653 28.9434 14.2553 30.7334 16.4548 30.7334H20.0011C20.2457 30.7334 20.4443 30.5348 20.4443 30.2901C20.4443 30.0454 20.2457 29.8468 20.0011 29.8468H16.4548C14.7438 29.8468 13.3519 28.4548 13.3519 26.7437V13.4448C13.3519 11.7337 14.7438 10.3418 16.4548 10.3418ZM27.8816 14.8598C28.3648 15.343 28.7372 15.9193 28.981 16.5479H24.4338C23.7006 16.5479 23.104 15.9512 23.104 15.218V10.668C23.7299 10.9101 24.3035 11.2815 24.792 11.7701L27.8816 14.8598ZM33.0928 19.8567C32.2568 19.0197 30.7949 19.0197 29.9588 19.8567L23.1262 26.6896C22.5401 27.2757 22.2174 28.055 22.2174 28.884V30.2901C22.2174 30.5348 22.416 30.7334 22.6607 30.7334H24.0668C24.8957 30.7334 25.675 30.4107 26.261 29.8246L33.0937 22.9917C33.5122 22.5732 33.7427 22.0164 33.7427 21.4242C33.7427 20.8319 33.5113 20.2751 33.0928 19.8567ZM32.466 22.364L25.6333 29.1969C25.2149 29.6154 24.6581 29.8459 24.0659 29.8459H23.1031V28.8831C23.1031 28.2908 23.3336 27.7349 23.7521 27.3156L30.5848 20.4826C31.0865 19.9808 31.9633 19.9808 32.4651 20.4826C32.716 20.7335 32.8543 21.0678 32.8543 21.4233C32.8543 21.7788 32.7169 22.1122 32.466 22.364Z" fill="white"/>
<defs>
<linearGradient id="paint0_linear_704_11253" x1="35.8885" y1="42.7031" x2="3.26607" y2="86.161" gradientUnits="userSpaceOnUse">
<stop stop-color="#9A2686"/>
<stop offset="1" stop-color="#293992"/>
</linearGradient>
</defs>
</svg>
