<svg width="43" height="43" viewBox="0 0 43 43" fill="none" xmlns="http://www.w3.org/2000/svg">
<rect y="42.7031" width="42.7028" height="42.7028" rx="21.3514" transform="rotate(-90 0 42.7031)" fill="url(#paint0_linear_704_11256)"/>
<path d="M28.6924 23.6008C28.6924 23.8603 28.4818 24.0709 28.2223 24.0709H25.4014C25.1419 24.0709 24.9313 23.8603 24.9313 23.6008C24.9313 23.3413 25.1419 23.1307 25.4014 23.1307H28.2223C28.4818 23.1307 28.6924 23.3413 28.6924 23.6008ZM32.4536 22.6605V28.3022C32.4536 30.117 30.9773 31.5932 29.1626 31.5932H13.1777C11.363 31.5932 9.88672 30.117 9.88672 28.3022V22.6605C9.88672 20.8458 11.363 19.3695 13.1777 19.3695H14.5881V12.3174C14.5881 10.5026 16.0644 9.02637 17.8792 9.02637H24.4612C26.2759 9.02637 27.7522 10.5026 27.7522 12.3174V19.3695H29.1626C30.9773 19.3695 32.4536 20.8458 32.4536 22.6605ZM15.5284 19.3695H26.8119V12.3174C26.8119 11.0207 25.7578 9.96665 24.4612 9.96665H17.8792C16.5825 9.96665 15.5284 11.0207 15.5284 12.3174V19.3695ZM13.1777 30.6529H20.7V20.3098H13.1777C11.8811 20.3098 10.827 21.3639 10.827 22.6605V28.3022C10.827 29.5989 11.8811 30.6529 13.1777 30.6529ZM31.5133 22.6605C31.5133 21.3639 30.4592 20.3098 29.1626 20.3098H21.6403V30.6529H29.1626C30.4592 30.6529 31.5133 29.5989 31.5133 28.3022V22.6605ZM16.9389 23.1307H14.118C13.8585 23.1307 13.6479 23.3413 13.6479 23.6008C13.6479 23.8603 13.8585 24.0709 14.118 24.0709H16.9389C17.1984 24.0709 17.409 23.8603 17.409 23.6008C17.409 23.3413 17.1984 23.1307 16.9389 23.1307ZM23.0507 13.2577C23.0507 12.9981 22.8401 12.7875 22.5806 12.7875H19.7597C19.5002 12.7875 19.2896 12.9981 19.2896 13.2577C19.2896 13.5172 19.5002 13.7278 19.7597 13.7278H22.5806C22.8401 13.7278 23.0507 13.5172 23.0507 13.2577Z" fill="white"/>
<defs>
<linearGradient id="paint0_linear_704_11256" x1="35.8885" y1="42.7031" x2="3.26607" y2="86.161" gradientUnits="userSpaceOnUse">
<stop stop-color="#9A2686"/>
<stop offset="1" stop-color="#293992"/>
</linearGradient>
</defs>
</svg>
