<svg width="45" height="45" viewBox="0 0 45 45" fill="none" xmlns="http://www.w3.org/2000/svg">
<rect y="44.5312" width="44.5312" height="44.5312" rx="22.2656" transform="rotate(-90 0 44.5312)" fill="url(#paint0_linear_704_11238)"/>
<path d="M24.6518 31.5985H16.5844C14.8545 31.5985 13.4472 30.1912 13.4472 28.4612V15.0153C13.4472 13.2853 14.8545 11.8779 16.5844 11.8779H21.5279C21.8282 11.8779 22.1222 11.912 22.4109 11.964V16.8081C22.4109 18.0433 23.4166 19.0491 24.6518 19.0491H29.4823C29.5119 19.2104 29.5522 19.3691 29.5648 19.534C29.5854 19.7805 29.8077 19.9634 30.0479 19.9446C30.2944 19.9248 30.4782 19.7079 30.4585 19.4614C30.3464 18.0845 29.7476 16.7893 28.7706 15.8131L25.6468 12.6892C24.546 11.5884 23.0831 10.9824 21.527 10.9824H16.5844C14.3606 10.9815 12.5508 12.7913 12.5508 15.0153V28.4612C12.5508 30.6851 14.3606 32.4949 16.5844 32.4949H24.6518C24.8992 32.4949 25.1 32.2941 25.1 32.0467C25.1 31.7993 24.8992 31.5985 24.6518 31.5985ZM28.1378 16.4459C28.6245 16.9327 28.9839 17.5198 29.2304 18.1527H24.6518C23.9105 18.1527 23.3072 17.5494 23.3072 16.8081V12.2177C23.9383 12.4624 24.5209 12.829 25.0139 13.3211L28.1378 16.445V16.4459ZM33.9319 31.7294L29.2215 27.0189L31.2769 24.9635L31.6668 25.3534C32.0719 25.7711 32.7173 25.1248 32.3005 24.7196L28.1055 20.5245C27.9307 20.3497 27.6466 20.3497 27.4718 20.5245C27.297 20.6993 27.297 20.9835 27.4718 21.1583L27.8384 21.5249L23.0939 26.2695L22.7273 25.9029C22.5525 25.7281 22.2683 25.7281 22.0935 25.9029C21.9187 26.0777 21.9187 26.3618 22.0935 26.5366L26.2886 30.7317C26.6937 31.1495 27.3391 30.5032 26.9223 30.098L26.5324 29.7081L28.5877 27.6526L33.2982 32.3632C33.7033 32.7809 34.3487 32.1346 33.9319 31.7294ZM23.7276 26.9032L28.4721 22.1586L30.6431 24.3297L25.8986 29.0743L23.7276 26.9032ZM16.1363 18.6009C16.1363 18.3535 16.337 18.1527 16.5844 18.1527H20.1699C20.4173 18.1527 20.6181 18.3535 20.6181 18.6009C20.6181 18.8483 20.4173 19.0491 20.1699 19.0491H16.5844C16.337 19.0491 16.1363 18.8483 16.1363 18.6009ZM24.6518 21.7382H16.5844C16.337 21.7382 16.1363 21.5374 16.1363 21.29C16.1363 21.0426 16.337 20.8418 16.5844 20.8418H24.6518C24.8992 20.8418 25.1 21.0426 25.1 21.29C25.1 21.5374 24.8992 21.7382 24.6518 21.7382ZM21.9627 24.4274H16.5844C16.337 24.4274 16.1363 24.2266 16.1363 23.9792C16.1363 23.7318 16.337 23.531 16.5844 23.531H21.9627C22.2101 23.531 22.4109 23.7318 22.4109 23.9792C22.4109 24.2266 22.2101 24.4274 21.9627 24.4274ZM19.2736 26.2202C19.521 26.2202 19.7217 26.421 19.7217 26.6684C19.7217 26.9158 19.521 27.1166 19.2736 27.1166H16.5844C16.337 27.1166 16.1363 26.9158 16.1363 26.6684C16.1363 26.421 16.337 26.2202 16.5844 26.2202H19.2736Z" fill="white"/>
<defs>
<linearGradient id="paint0_linear_704_11238" x1="37.4252" y1="44.5312" x2="3.40592" y2="89.8499" gradientUnits="userSpaceOnUse">
<stop stop-color="#9A2686"/>
<stop offset="1" stop-color="#293992"/>
</linearGradient>
</defs>
</svg>
