<svg width="43" height="43" viewBox="0 0 43 43" fill="none" xmlns="http://www.w3.org/2000/svg">
<rect y="42.7031" width="42.7028" height="42.7028" rx="21.3514" transform="rotate(-90 0 42.7031)" fill="url(#paint0_linear_704_11247)"/>
<path d="M15.1668 23.1307C15.1668 22.0935 16.0133 21.2501 17.0543 21.2501H23.189C23.4495 21.2501 23.6609 21.4607 23.6609 21.7202C23.6609 21.9797 23.4495 22.1904 23.189 22.1904H17.0543C16.5343 22.1904 16.1106 22.6126 16.1106 23.1307V25.0112C16.1106 25.5293 16.5343 25.9515 17.0543 25.9515H24.1328C24.3933 25.9515 24.6047 26.1621 24.6047 26.4217C24.6047 26.6812 24.3933 26.8918 24.1328 26.8918H17.0543C16.0133 26.8918 15.1668 26.0484 15.1668 25.0112V23.1307ZM15.6387 18.4292H19.4138C19.6743 18.4292 19.8857 18.2186 19.8857 17.9591C19.8857 17.6996 19.6743 17.4889 19.4138 17.4889H15.6387C15.3782 17.4889 15.1668 17.6996 15.1668 17.9591C15.1668 18.2186 15.3782 18.4292 15.6387 18.4292ZM15.6387 14.6681H19.4138C19.6743 14.6681 19.8857 14.4575 19.8857 14.1979C19.8857 13.9384 19.6743 13.7278 19.4138 13.7278H15.6387C15.3782 13.7278 15.1668 13.9384 15.1668 14.1979C15.1668 14.4575 15.3782 14.6681 15.6387 14.6681ZM26.4922 31.1231C26.4922 31.3826 26.2808 31.5932 26.0203 31.5932H15.6387C13.2971 31.5932 11.3916 29.6948 11.3916 27.3619V13.2577C11.3916 10.9248 13.2971 9.02637 15.6387 9.02637H20.8437C22.4811 9.02637 24.0223 9.662 25.1823 10.8167L28.4704 14.0936C29.2481 14.8684 29.804 15.8397 30.0768 16.9022C30.1126 17.0432 30.0815 17.1928 29.9918 17.3075C29.9022 17.4222 29.7653 17.4889 29.619 17.4889H24.1328C22.8313 17.4889 21.7733 16.4339 21.7733 15.1382V10.0485C21.4694 9.99392 21.1589 9.96665 20.8437 9.96665H15.6387C13.8171 9.96665 12.3354 11.4429 12.3354 13.2577V27.3619C12.3354 29.1767 13.8171 30.6529 15.6387 30.6529H26.0203C26.2808 30.6529 26.4922 30.8636 26.4922 31.1231ZM22.7171 15.1382C22.7171 15.9158 23.3523 16.5487 24.1328 16.5487H28.9735C28.7139 15.8792 28.3156 15.2689 27.8032 14.7584L24.515 11.4815C23.994 10.9634 23.3834 10.5694 22.718 10.3127V15.1382H22.7171ZM31.013 24.8053L27.7833 24.2882C27.0349 24.1687 26.4922 23.5331 26.4922 22.779C26.4922 21.9365 27.1803 21.2501 28.0268 21.2501H30.6695C31.2574 21.2501 31.8058 21.5651 32.1012 22.0728C32.2324 22.2985 32.5212 22.3737 32.7458 22.2449C32.9714 22.1151 33.0488 21.8274 32.9185 21.6027C32.4561 20.8053 31.5953 20.3098 30.6704 20.3098H29.7965V18.8994C29.7965 18.6399 29.585 18.4292 29.3246 18.4292C29.0641 18.4292 28.8527 18.6399 28.8527 18.8994V20.3098H28.0278C26.6612 20.3098 25.5494 21.4175 25.5494 22.779C25.5494 23.9976 26.4271 25.0235 27.6352 25.2172L30.8648 25.7343C31.6132 25.8537 32.1559 26.4894 32.1559 27.2435C32.1559 28.086 31.4679 28.7724 30.6213 28.7724H27.9787C27.3907 28.7724 26.8424 28.4574 26.547 27.9496C26.4158 27.724 26.1242 27.6478 25.9024 27.7776C25.6768 27.9073 25.5994 28.195 25.7297 28.4198C26.1921 29.2171 27.0529 29.7127 27.9778 29.7127H28.8517V31.1231C28.8517 31.3826 29.0631 31.5932 29.3236 31.5932C29.5841 31.5932 29.7955 31.3826 29.7955 31.1231V29.7127H30.6204C31.987 29.7127 33.0988 28.605 33.0988 27.2435C33.0988 26.0249 32.2211 24.999 31.013 24.8053Z" fill="white"/>
<defs>
<linearGradient id="paint0_linear_704_11247" x1="35.8885" y1="42.7031" x2="3.26607" y2="86.161" gradientUnits="userSpaceOnUse">
<stop stop-color="#9A2686"/>
<stop offset="1" stop-color="#293992"/>
</linearGradient>
</defs>
</svg>
