<svg width="43" height="43" viewBox="0 0 43 43" fill="none" xmlns="http://www.w3.org/2000/svg">
<rect y="42.7031" width="42.7028" height="42.7028" rx="21.3514" transform="rotate(-90 0 42.7031)" fill="url(#paint0_linear_704_11250)"/>
<path d="M32.6689 26.7483C32.6689 27.9682 31.6769 28.9603 30.457 28.9603H29.566V30.2901C29.566 30.5348 29.3674 30.7334 29.1227 30.7334C28.878 30.7334 28.6794 30.5348 28.6794 30.2901V28.9603H27.7884C26.5685 28.9603 25.5765 27.9682 25.5765 26.7483C25.5765 26.5036 25.7751 26.305 26.0198 26.305C26.2645 26.305 26.463 26.5036 26.463 26.7483C26.463 27.4788 27.0579 28.0737 27.7884 28.0737H30.457C31.1875 28.0737 31.7824 27.4788 31.7824 26.7483C31.7824 26.1596 31.387 25.6357 30.8213 25.4734L27.1812 24.4326C26.237 24.1631 25.5765 23.289 25.5765 22.3067C25.5765 21.0868 26.5685 20.0947 27.7884 20.0947H28.6794V18.7649C28.6794 18.5202 28.878 18.3216 29.1227 18.3216C29.3674 18.3216 29.566 18.5202 29.566 18.7649V20.0947H30.457C31.6769 20.0947 32.6689 21.0868 32.6689 22.3067C32.6689 22.5514 32.4703 22.75 32.2257 22.75C31.981 22.75 31.7824 22.5514 31.7824 22.3067C31.7824 21.5762 31.1875 20.9813 30.457 20.9813H27.7884C27.0579 20.9813 26.463 21.5762 26.463 22.3067C26.463 22.8953 26.8584 23.4193 27.4241 23.5815L31.0643 24.6224C32.0084 24.8919 32.6689 25.766 32.6689 26.7483ZM15.3811 12.1157H16.2677C16.5123 12.1157 16.7109 11.9171 16.7109 11.6724C16.7109 10.9393 17.3076 10.3426 18.0408 10.3426H20.7004C21.4336 10.3426 22.0303 10.9393 22.0303 11.6724C22.0303 11.9171 22.2289 12.1157 22.4735 12.1157H23.3601C25.0712 12.1157 26.463 13.5076 26.463 15.2187V17.8783C26.463 18.123 26.6616 18.3216 26.9063 18.3216C27.151 18.3216 27.3496 18.123 27.3496 17.8783V15.2187C27.3496 13.0191 25.5596 11.2292 23.3601 11.2292H22.8725C22.6668 10.2185 21.7714 9.45605 20.7004 9.45605H18.0408C16.9698 9.45605 16.0753 10.2185 15.8687 11.2292H15.3811C13.1816 11.2292 11.3916 13.0191 11.3916 15.2187V26.7439C11.3916 28.9434 13.1816 30.7334 15.3811 30.7334H23.3601C23.877 30.7334 24.3796 30.6359 24.8566 30.4435C25.0836 30.3513 25.1926 30.0924 25.1013 29.8663C25.01 29.6394 24.7511 29.5312 24.5241 29.6216C24.1545 29.7715 23.7626 29.8477 23.361 29.8477H15.3811C13.67 29.8477 12.2782 28.4558 12.2782 26.7448V15.2187C12.2782 13.5076 13.67 12.1157 15.3811 12.1157ZM19.5142 14.1752C19.6871 14.3481 19.6871 14.6291 19.5142 14.802L17.2757 17.0405C17.0212 17.295 16.6843 17.4342 16.3253 17.4342C15.9671 17.4342 15.6293 17.2941 15.3767 17.0405L14.1825 15.8472C14.0096 15.6744 14.0096 15.3933 14.1825 15.2204C14.3554 15.0476 14.6364 15.0476 14.8093 15.2204L16.0035 16.4137C16.0903 16.5006 16.2047 16.5476 16.3262 16.5476C16.4476 16.5476 16.5638 16.4997 16.6498 16.4137L18.8883 14.1752C19.0612 14.0023 19.3422 14.0023 19.5151 14.1752H19.5142ZM19.5142 19.4945C19.6871 19.6674 19.6871 19.9484 19.5142 20.1213L17.2757 22.3599C17.0212 22.6143 16.6843 22.7535 16.3253 22.7535C15.9671 22.7535 15.6293 22.6134 15.3767 22.3599L14.1825 21.1666C14.0096 20.9937 14.0096 20.7126 14.1825 20.5398C14.3554 20.3669 14.6364 20.3669 14.8093 20.5398L16.0035 21.7331C16.0903 21.82 16.2047 21.8669 16.3262 21.8669C16.4476 21.8669 16.5638 21.8191 16.6498 21.7331L18.8883 19.4945C19.0612 19.3216 19.3422 19.3216 19.5151 19.4945H19.5142ZM19.5142 24.8139C19.6871 24.9867 19.6871 25.2678 19.5142 25.4406L17.2757 27.6792C17.0212 27.9336 16.6843 28.0728 16.3253 28.0728C15.9671 28.0728 15.6293 27.9328 15.3767 27.6792L14.1825 26.4859C14.0096 26.313 14.0096 26.032 14.1825 25.8591C14.3554 25.6862 14.6364 25.6862 14.8093 25.8591L16.0035 27.0524C16.0903 27.1393 16.2047 27.1863 16.3262 27.1863C16.4476 27.1863 16.5638 27.1384 16.6498 27.0524L18.8883 24.8139C19.0612 24.641 19.3422 24.641 19.5151 24.8139H19.5142Z" fill="white"/>
<defs>
<linearGradient id="paint0_linear_704_11250" x1="35.8885" y1="42.7031" x2="3.26607" y2="86.161" gradientUnits="userSpaceOnUse">
<stop stop-color="#9A2686"/>
<stop offset="1" stop-color="#293992"/>
</linearGradient>
</defs>
</svg>
