<svg width="42" height="42" viewBox="0 0 42 42" fill="none" xmlns="http://www.w3.org/2000/svg">
<path d="M35.875 14H28V6.125C28 2.7475 25.2525 0 21.875 0H20.125C16.7475 0 14 2.7475 14 6.125V14H6.125C2.7475 14 0 16.7475 0 20.125V21.875C0 25.2525 2.7475 28 6.125 28H14V35.875C14 39.2525 16.7475 42 20.125 42H21.875C25.2525 42 28 39.2525 28 35.875V28H35.875C39.2525 28 42 25.2525 42 21.875V20.125C42 16.7475 39.2525 14 35.875 14ZM40.25 21.875C40.25 24.2865 38.2865 26.25 35.875 26.25H27.125C26.642 26.25 26.25 26.642 26.25 27.125V35.875C26.25 38.2865 24.2865 40.25 21.875 40.25H20.125C17.7135 40.25 15.75 38.2865 15.75 35.875V27.125C15.75 26.642 15.358 26.25 14.875 26.25H6.125C3.7135 26.25 1.75 24.2865 1.75 21.875V20.125C1.75 17.7135 3.7135 15.75 6.125 15.75H14.875C15.358 15.75 15.75 15.358 15.75 14.875V6.125C15.75 3.7135 17.7135 1.75 20.125 1.75H21.875C24.2865 1.75 26.25 3.7135 26.25 6.125V14.875C26.25 15.358 26.642 15.75 27.125 15.75H35.875C38.2865 15.75 40.25 17.7135 40.25 20.125V21.875Z" fill="#9A2686"/>
</svg>
