<svg width="45" height="45" viewBox="0 0 45 45" fill="none" xmlns="http://www.w3.org/2000/svg">
<path d="M44.0627 0C43.5452 0 43.1253 0.42 43.1253 0.9375V3.75H29.0652C27.5148 3.75 26.2531 5.01188 26.2531 6.5625V13.125H18.7544V6.5625C18.7544 6.045 19.1743 5.625 19.6917 5.625H21.5664C22.0838 5.625 22.5037 5.205 22.5037 4.6875C22.5037 4.17 22.0838 3.75 21.5664 3.75H19.6917C18.1414 3.75 16.8797 5.01188 16.8797 6.5625V13.125H13.5896C8.75479 13.125 5.63156 15.9225 5.63156 20.25V21.5625C5.63156 23.1131 6.89323 24.375 8.44359 24.375H9.38094V32.8125C9.38094 35.3963 11.4843 37.5 14.0677 37.5H30.9398C33.5232 37.5 35.6266 35.3963 35.6266 32.8125V24.375H36.5639C38.1143 24.375 39.3759 23.1131 39.3759 21.5625V20.25C39.3759 15.9225 36.2508 13.125 31.4179 13.125H28.1278V6.5625C28.1278 6.045 28.5477 5.625 29.0652 5.625H43.1253V44.0625C43.1253 44.58 43.5452 45 44.0627 45C44.5801 45 45 44.58 45 44.0625V0.9375C45 0.42 44.5801 0 44.0627 0ZM15.8992 16.7175C14.9469 16.455 14.1333 15.8438 13.6459 15H17.2602C16.6997 15.4856 16.2592 16.0706 15.8992 16.7175ZM30.4168 15C29.7625 16.1362 28.5552 16.875 27.1905 16.875C25.8257 16.875 24.6184 16.1362 23.9641 15H30.4168ZM11.2556 32.8125V23.4375C11.2556 22.92 10.8357 22.5 10.3183 22.5H8.44359C7.92618 22.5 7.50625 22.08 7.50625 21.5625V20.25C7.50625 16.8244 9.80649 15.6244 11.6699 15.2119C12.2961 16.7775 13.6046 17.9813 15.215 18.4856C15.0894 19.0425 15.005 19.6256 15.005 20.25V21.5625C15.005 23.1131 16.2667 24.375 17.817 24.375H18.7544V32.8125C18.7544 33.8719 19.1199 34.8394 19.7161 35.625H14.0677C12.5173 35.625 11.2556 34.3631 11.2556 32.8125ZM37.5012 20.25V21.5625C37.5012 22.08 37.0813 22.5 36.5639 22.5H34.6892C34.1718 22.5 33.7519 22.92 33.7519 23.4375V32.8125C33.7519 34.3631 32.4902 35.625 30.9398 35.625H23.4411C21.8907 35.625 20.6291 34.3631 20.6291 32.8125V23.4375C20.6291 22.92 20.2091 22.5 19.6917 22.5H17.817C17.2996 22.5 16.8797 22.08 16.8797 21.5625V20.25C16.8797 16.2431 20.0273 15.2775 21.9395 15.06C22.7418 17.2575 24.8059 18.75 27.1905 18.75C29.5751 18.75 31.6391 17.2575 32.4415 15.06C34.3536 15.2775 37.5012 16.2431 37.5012 20.25ZM1.87469 5.625V44.0625C1.87469 44.58 1.45476 45 0.937344 45C0.41993 45 0 44.58 0 44.0625V0.9375C0 0.42 0.41993 0 0.937344 0C1.45476 0 1.87469 0.42 1.87469 0.9375V3.75H12.193C12.7104 3.75 13.1303 4.17 13.1303 4.6875C13.1303 5.205 12.7104 5.625 12.193 5.625H1.87469Z" fill="#9A2686"/>
</svg>
