<svg width="51" height="51" viewBox="0 0 51 51" fill="none" xmlns="http://www.w3.org/2000/svg">
<rect y="51" width="51" height="51" rx="25.5" transform="rotate(-90 0 51)" fill="url(#paint0_linear_704_14164)"/>
<path d="M21.09 26.2841C21.09 25.9983 21.322 25.7662 21.6079 25.7662H30.9301C31.216 25.7662 31.448 25.9983 31.448 26.2841C31.448 26.57 31.216 26.802 30.9301 26.802H21.6079C21.322 26.802 21.09 26.57 21.09 26.2841ZM21.09 17.9977V14.8903C21.09 13.463 22.2522 12.3008 23.6795 12.3008H28.8585C30.2859 12.3008 31.448 13.463 31.448 14.8903V17.9977C31.448 19.425 30.2859 20.5872 28.8585 20.5872C28.7384 20.5872 28.4763 20.6297 28.3841 20.7063L26.9599 21.8851C26.7672 22.056 26.5217 22.142 26.2731 22.142C26.0204 22.142 25.7666 22.0529 25.5647 21.8737L24.1539 20.7063C24.0617 20.6297 23.7996 20.5872 23.6795 20.5872C22.2522 20.5872 21.09 19.425 21.09 17.9977ZM22.1258 17.9977C22.1258 18.8543 22.8229 19.5514 23.6795 19.5514C24.041 19.5514 24.5371 19.6788 24.8147 19.9077L26.239 21.0865L27.7233 19.9077C28.0009 19.6778 28.4981 19.5514 28.8585 19.5514C29.7151 19.5514 30.4122 18.8543 30.4122 17.9977V14.8903C30.4122 14.0337 29.7151 13.3366 28.8585 13.3366H23.6795C22.8229 13.3366 22.1258 14.0337 22.1258 14.8903V17.9977ZM33.5196 19.0335C33.5196 17.6062 34.6818 16.444 36.1091 16.444C37.5365 16.444 38.6987 17.6062 38.6987 19.0335C38.6987 20.4608 37.5365 21.623 36.1091 21.623C34.6818 21.623 33.5196 20.4608 33.5196 19.0335ZM34.5554 19.0335C34.5554 19.8901 35.2525 20.5872 36.1091 20.5872C36.9658 20.5872 37.6628 19.8901 37.6628 19.0335C37.6628 18.1769 36.9658 17.4798 36.1091 17.4798C35.2525 17.4798 34.5554 18.1769 34.5554 19.0335ZM38.1807 34.0527H35.0733C34.2167 34.0527 33.5196 34.7498 33.5196 35.6064V36.6422C33.5196 36.9281 33.7517 37.1601 34.0375 37.1601C34.3234 37.1601 34.5554 36.9281 34.5554 36.6422V35.6064C34.5554 35.3205 34.7875 35.0885 35.0733 35.0885H38.1807C38.4666 35.0885 38.6987 34.8564 38.6987 34.5706C38.6987 34.2847 38.4666 34.0527 38.1807 34.0527ZM38.6987 25.2483V29.3915C38.6987 30.8189 37.5365 31.9811 36.1091 31.9811H32.4838C31.9131 31.9811 31.448 32.4461 31.448 33.0169V36.6422C31.448 36.9281 31.216 37.1601 30.9301 37.1601C30.6442 37.1601 30.4122 36.9281 30.4122 36.6422V33.0169C30.4122 31.8744 31.3413 30.9453 32.4838 30.9453H33.5196V25.2483C33.5196 23.821 34.6818 22.6588 36.1091 22.6588C37.5365 22.6588 38.6987 23.821 38.6987 25.2483ZM37.6628 25.2483C37.6628 24.3917 36.9658 23.6946 36.1091 23.6946C35.2525 23.6946 34.5554 24.3917 34.5554 25.2483V30.9453H36.1091C36.9658 30.9453 37.6628 30.2482 37.6628 29.3915V25.2483ZM17.4647 34.0527H14.3573C14.0714 34.0527 13.8394 34.2847 13.8394 34.5706C13.8394 34.8564 14.0714 35.0885 14.3573 35.0885H17.4647C17.7506 35.0885 17.9826 35.3205 17.9826 35.6064V36.6422C17.9826 36.9281 18.2146 37.1601 18.5005 37.1601C18.7864 37.1601 19.0184 36.9281 19.0184 36.6422V35.6064C19.0184 34.7498 18.3213 34.0527 17.4647 34.0527ZM13.8394 19.0335C13.8394 17.6062 15.0015 16.444 16.4289 16.444C17.8562 16.444 19.0184 17.6062 19.0184 19.0335C19.0184 20.4608 17.8562 21.623 16.4289 21.623C15.0015 21.623 13.8394 20.4608 13.8394 19.0335ZM14.8752 19.0335C14.8752 19.8901 15.5723 20.5872 16.4289 20.5872C17.2855 20.5872 17.9826 19.8901 17.9826 19.0335C17.9826 18.1769 17.2855 17.4798 16.4289 17.4798C15.5723 17.4798 14.8752 18.1769 14.8752 19.0335ZM22.1258 33.0169V36.6422C22.1258 36.9281 21.8938 37.1601 21.6079 37.1601C21.322 37.1601 21.09 36.9281 21.09 36.6422V33.0169C21.09 32.4461 20.6249 31.9811 20.0542 31.9811H16.4289C15.0015 31.9811 13.8394 30.8189 13.8394 29.3915V25.2483C13.8394 23.821 15.0015 22.6588 16.4289 22.6588C17.8562 22.6588 19.0184 23.821 19.0184 25.2483V30.9453H20.0542C21.1967 30.9453 22.1258 31.8744 22.1258 33.0169ZM17.9826 25.2483C17.9826 24.3917 17.2855 23.6946 16.4289 23.6946C15.5723 23.6946 14.8752 24.3917 14.8752 25.2483V29.3915C14.8752 30.2482 15.5723 30.9453 16.4289 30.9453H17.9826V25.2483Z" fill="white"/>
<defs>
<linearGradient id="paint0_linear_704_14164" x1="42.8617" y1="51" x2="3.90067" y2="102.902" gradientUnits="userSpaceOnUse">
<stop stop-color="#9A2686"/>
<stop offset="1" stop-color="#293992"/>
</linearGradient>
</defs>
</svg>
