<svg width="51" height="51" viewBox="0 0 51 51" fill="none" xmlns="http://www.w3.org/2000/svg">
<rect y="51" width="51" height="51" rx="25.5" transform="rotate(-90 0 51)" fill="url(#paint0_linear_704_14143)"/>
<path d="M38.3383 38.0685L35.034 34.7644C35.8105 33.815 36.2963 32.6189 36.2963 31.2995C36.2963 28.263 33.8257 25.7926 30.7891 25.7926C27.7524 25.7926 25.2819 28.263 25.2819 31.2995C25.2819 34.3359 27.7524 36.8063 30.7891 36.8063C32.1086 36.8063 33.3048 36.3206 34.2542 35.5441L37.5585 38.8483C38.0564 39.3615 38.8494 38.5674 38.3372 38.0696L38.3383 38.0685ZM30.7891 35.7049C28.3593 35.7049 26.3833 33.7291 26.3833 31.2995C26.3833 28.8698 28.3593 26.894 30.7891 26.894C33.2188 26.894 35.1948 28.8698 35.1948 31.2995C35.1948 33.7291 33.2188 35.7049 30.7891 35.7049ZM23.6298 28.546C23.6298 28.85 23.383 29.0967 23.079 29.0967H21.9776C21.8311 29.0967 21.6912 29.0384 21.5877 28.9359L20.6471 27.9954H14.8183C13.9074 27.9954 13.1661 28.7366 13.1661 29.6474C13.1661 30.5582 13.9074 31.2995 14.8183 31.2995H22.5283C22.8323 31.2995 23.079 31.5462 23.079 31.8501C23.079 32.1541 22.8323 32.4008 22.5283 32.4008H14.8183C13.3005 32.4008 12.0647 31.1651 12.0647 29.6474C12.0647 28.3181 13.0119 27.2057 14.2676 26.9502V17.5323C14.2676 14.7998 16.4914 12.5762 19.224 12.5762H31.3398C34.0725 12.5762 36.2963 14.7998 36.2963 17.5323V25.2419C36.2963 25.5459 36.0495 25.7926 35.7455 25.7926C35.4415 25.7926 35.1948 25.5459 35.1948 25.2419V17.5323C35.1948 15.4067 33.4656 13.6775 31.3398 13.6775H19.224C17.0983 13.6775 15.369 15.4067 15.369 17.5323V26.894H20.8762C21.0227 26.894 21.1625 26.9524 21.2661 27.0548L22.2067 27.9954H23.0801C23.3841 27.9954 23.6309 28.2421 23.6309 28.546H23.6298Z" fill="white"/>
<defs>
<linearGradient id="paint0_linear_704_14143" x1="42.8617" y1="51" x2="3.90067" y2="102.902" gradientUnits="userSpaceOnUse">
<stop stop-color="#9A2686"/>
<stop offset="1" stop-color="#293992"/>
</linearGradient>
</defs>
</svg>
