<svg width="51" height="51" viewBox="0 0 51 51" fill="none" xmlns="http://www.w3.org/2000/svg">
<rect y="51" width="51" height="51" rx="25.5" transform="rotate(-90 0 51)" fill="url(#paint0_linear_704_14149)"/>
<path d="M17.2408 17.8234C18.8469 17.8234 20.1525 16.5167 20.1525 14.9117C20.1525 13.3068 18.8469 12 17.2408 12C15.6347 12 14.3291 13.3068 14.3291 14.9117C14.3291 16.5167 15.6347 17.8234 17.2408 17.8234ZM17.2408 13.1647C18.204 13.1647 18.9879 13.9485 18.9879 14.9117C18.9879 15.8749 18.204 16.6587 17.2408 16.6587C16.2776 16.6587 15.4938 15.8749 15.4938 14.9117C15.4938 13.9485 16.2776 13.1647 17.2408 13.1647Z" fill="white"/>
<path d="M23.8114 26.3805C23.9267 26.4993 24.0782 26.5587 24.2307 26.5587C24.3763 26.5587 24.5219 26.5051 24.6349 26.3956C24.8666 26.1732 24.8736 25.804 24.6512 25.5722L22.7958 23.647H30.0553C30.3768 23.647 30.6377 23.3861 30.6377 23.0646C30.6377 22.7432 30.3768 22.4823 30.0553 22.4823H22.797L24.6523 20.557C24.8748 20.3253 24.869 19.9572 24.636 19.7336C24.4066 19.51 24.0386 19.517 23.8126 19.7488L21.8489 21.787C21.1455 22.4916 21.1455 23.6365 21.8408 24.3341L23.8114 26.3805Z" fill="white"/>
<path d="M28.1426 25.5706C27.9179 25.34 27.5498 25.3318 27.3192 25.5555C27.0874 25.7779 27.0804 26.1471 27.3029 26.3789L29.1582 28.3041H21.8987C21.5773 28.3041 21.3164 28.565 21.3164 28.8865C21.3164 29.2079 21.5773 29.4688 21.8987 29.4688H29.1571L27.3017 31.394C27.0793 31.6258 27.0851 31.9938 27.318 32.2175C27.431 32.3269 27.5766 32.3805 27.7222 32.3805C27.8748 32.3805 28.0273 32.3211 28.1415 32.2023L30.1051 30.1641C30.8086 29.4595 30.8086 28.3146 30.1133 27.617L28.1426 25.5706Z" fill="white"/>
<path d="M34.711 17.8234C36.3171 17.8234 37.6228 16.5167 37.6228 14.9117C37.6228 13.3068 36.3171 12 34.711 12C33.1049 12 31.7993 13.3068 31.7993 14.9117C31.7993 16.5167 33.1049 17.8234 34.711 17.8234ZM34.711 13.1647C35.6742 13.1647 36.4581 13.9485 36.4581 14.9117C36.4581 15.8749 35.6742 16.6587 34.711 16.6587C33.7478 16.6587 32.964 15.8749 32.964 14.9117C32.964 13.9485 33.7478 13.1647 34.711 13.1647Z" fill="white"/>
<path d="M20.444 19.5365C19.8279 19.1789 19.1221 18.9902 18.4058 18.9902H16.0764C13.8286 18.9902 12 20.8188 12 23.0666V27.7254C12 29.3455 12.9574 30.7361 14.3294 31.393V39.3723C14.3294 39.6937 14.5903 39.9546 14.9117 39.9546C15.2332 39.9546 15.4941 39.6937 15.4941 39.3723V31.7424C15.6862 31.7703 15.8772 31.8018 16.0764 31.8018H18.4058C18.6014 31.8018 18.7959 31.7878 18.9881 31.7599V39.3723C18.9881 39.6937 19.249 39.9546 19.5705 39.9546C19.8919 39.9546 20.1528 39.6937 20.1528 39.3723V31.0203C20.1528 30.8304 20.0608 30.6546 19.9059 30.5451C19.7522 30.4356 19.553 30.41 19.376 30.4717C19.0662 30.5812 18.74 30.6371 18.4058 30.6371H16.0764C14.4703 30.6371 13.1647 29.3303 13.1647 27.7254V23.0666C13.1647 21.4617 14.4703 20.1549 16.0764 20.1549H18.4058C18.9171 20.1549 19.4214 20.29 19.8616 20.5439C20.1377 20.7058 20.4952 20.6103 20.6571 20.332C20.819 20.0536 20.7235 19.6972 20.444 19.5365Z" fill="white"/>
<path d="M35.876 18.9902H33.5466C32.7407 18.9902 31.9615 19.2255 31.2918 19.6704C31.0251 19.8486 30.9517 20.2097 31.1299 20.4775C31.3069 20.7454 31.668 20.8176 31.937 20.6394C32.4134 20.3226 32.9701 20.1549 33.5455 20.1549H35.8748C37.4809 20.1549 38.7866 21.4617 38.7866 23.0666V27.7254C38.7866 29.3303 37.4809 30.6371 35.8748 30.6371H33.5455C33.2112 30.6371 32.8851 30.5812 32.5753 30.4717C32.3982 30.41 32.2002 30.4356 32.0453 30.5451C31.8904 30.6546 31.7984 30.8316 31.7984 31.0203V39.3723C31.7984 39.6937 32.0593 39.9546 32.3808 39.9546C32.7022 39.9546 32.9631 39.6937 32.9631 39.3723V31.7599C33.1553 31.7878 33.3498 31.8018 33.5455 31.8018H35.8748C36.074 31.8018 36.265 31.7703 36.4572 31.7424V39.3723C36.4572 39.6937 36.7181 39.9546 37.0395 39.9546C37.361 39.9546 37.6219 39.6937 37.6219 39.3723V31.393C38.9939 30.7361 39.9512 29.3455 39.9512 27.7254V23.0666C39.9512 20.8188 38.1238 18.9902 35.876 18.9902Z" fill="white"/>
<defs>
<linearGradient id="paint0_linear_704_14149" x1="42.8617" y1="51" x2="3.90067" y2="102.902" gradientUnits="userSpaceOnUse">
<stop stop-color="#9A2686"/>
<stop offset="1" stop-color="#293992"/>
</linearGradient>
</defs>
</svg>
