<svg width="38" height="38" viewBox="0 0 38 38" fill="none" xmlns="http://www.w3.org/2000/svg">
<path d="M31.6667 9.58075V7.125C31.6667 3.19675 28.4699 0 24.5417 0H13.4583C9.53008 0 6.33333 3.19675 6.33333 7.125V9.58075C2.78033 9.97975 0 12.9675 0 16.625V30.875C0 34.8032 3.19675 38 7.125 38H30.875C34.8032 38 38 34.8032 38 30.875V16.625C38 12.9675 35.2197 9.97975 31.6667 9.58075ZM1.58333 30.875V16.625C1.58333 13.8415 3.65433 11.552 6.33333 11.1641V36.3375C3.65433 35.9496 1.58333 33.6585 1.58333 30.875ZM7.91667 7.125C7.91667 4.06917 10.4025 1.58333 13.4583 1.58333H24.5417C27.5975 1.58333 30.0833 4.06917 30.0833 7.125V36.4167H7.91667V7.125ZM36.4167 30.875C36.4167 33.6585 34.3457 35.948 31.6667 36.3359V11.1641C34.3457 11.552 36.4167 13.8415 36.4167 16.625V30.875ZM17.4167 22.9583C17.4167 23.3953 17.062 23.75 16.625 23.75H13.4583C13.0213 23.75 12.6667 23.3953 12.6667 22.9583C12.6667 22.5213 13.0213 22.1667 13.4583 22.1667H16.625C17.062 22.1667 17.4167 22.5213 17.4167 22.9583ZM25.3333 22.9583C25.3333 23.3953 24.9787 23.75 24.5417 23.75H21.375C20.938 23.75 20.5833 23.3953 20.5833 22.9583C20.5833 22.5213 20.938 22.1667 21.375 22.1667H24.5417C24.9787 22.1667 25.3333 22.5213 25.3333 22.9583ZM17.4167 29.2917C17.4167 29.7287 17.062 30.0833 16.625 30.0833H13.4583C13.0213 30.0833 12.6667 29.7287 12.6667 29.2917C12.6667 28.8547 13.0213 28.5 13.4583 28.5H16.625C17.062 28.5 17.4167 28.8547 17.4167 29.2917ZM25.3333 29.2917C25.3333 29.7287 24.9787 30.0833 24.5417 30.0833H21.375C20.938 30.0833 20.5833 29.7287 20.5833 29.2917C20.5833 28.8547 20.938 28.5 21.375 28.5H24.5417C24.9787 28.5 25.3333 28.8547 25.3333 29.2917ZM19.7917 11.875V15.0417C19.7917 15.4787 19.437 15.8333 19 15.8333C18.563 15.8333 18.2083 15.4787 18.2083 15.0417V11.875H15.0417C14.6047 11.875 14.25 11.5203 14.25 11.0833C14.25 10.6463 14.6047 10.2917 15.0417 10.2917H18.2083V7.125C18.2083 6.688 18.563 6.33333 19 6.33333C19.437 6.33333 19.7917 6.688 19.7917 7.125V10.2917H22.9583C23.3953 10.2917 23.75 10.6463 23.75 11.0833C23.75 11.5203 23.3953 11.875 22.9583 11.875H19.7917Z" fill="white"/>
</svg>
