<svg width="51" height="51" viewBox="0 0 51 51" fill="none" xmlns="http://www.w3.org/2000/svg">
<rect y="51" width="51" height="51" rx="25.5" transform="rotate(-90 0 51)" fill="url(#paint0_linear_704_14158)"/>
<path d="M34.6107 28.4781C34.2755 28.403 33.738 28.2782 33.4982 27.7061C32.5177 25.3426 30.0518 23.9488 27.4985 24.3231C25.2856 24.6447 23.4415 26.3235 22.9111 28.4984C22.7079 29.3322 22.6947 30.1721 22.8705 30.9958C22.9274 31.2626 22.8034 31.5111 22.5596 31.6146C21.1605 32.2141 20.43 33.7316 20.8232 35.2227C21.0914 36.2422 21.9235 37.074 22.9457 37.3418C23.1915 37.4057 23.4384 37.4422 23.6772 37.4473C24.3397 37.4665 32.6285 37.4655 33.5043 37.4473C33.8325 37.4402 34.1617 37.3996 34.4817 37.3255C36.1541 36.9462 37.4821 35.6234 37.8651 33.9588C38.4239 31.5273 36.9944 29.1202 34.6107 28.4781ZM36.8755 33.7326C36.5839 35.0016 35.5313 36.0484 34.2562 36.3385C34.0021 36.3974 33.7431 36.4298 33.486 36.4349C31.7913 36.4684 25.0641 36.4735 23.7057 36.4349C23.5431 36.4309 23.3744 36.4065 23.2048 36.3629C22.5321 36.1864 21.9835 35.6386 21.8077 34.9671C21.509 33.833 22.1623 32.8917 22.9629 32.5488C23.6549 32.2526 24.0257 31.5263 23.8662 30.7848C23.7219 30.1122 23.7331 29.4245 23.9007 28.7398C24.3346 26.9626 25.8403 25.5911 27.6479 25.3284C27.8734 25.2959 28.098 25.2797 28.3215 25.2797C30.1615 25.2797 31.8461 26.3712 32.5624 28.0967C33.0044 29.1537 33.9493 29.3677 34.3476 29.458C36.2019 29.9581 37.3124 31.8357 36.8765 33.7336L36.8755 33.7326ZM20.7165 17.1869C20.7165 16.627 21.1717 16.1726 21.7325 16.1726C22.2934 16.1726 22.7486 16.627 22.7486 17.1869C22.7486 17.7469 22.2934 18.2013 21.7325 18.2013C21.1717 18.2013 20.7165 17.7469 20.7165 17.1869ZM37.9891 17.6941V26.8236C37.9891 27.1036 37.7615 27.3308 37.481 27.3308C37.2006 27.3308 36.973 27.1036 36.973 26.8236V17.6941C36.973 15.7364 35.3779 14.1438 33.4169 14.1438L18.1754 14.1042C16.2165 14.1042 14.6203 15.6968 14.6203 17.6546V32.9099C14.6203 34.8677 16.2155 36.4603 18.1764 36.4603H19.1924C19.4729 36.4603 19.7005 36.6875 19.7005 36.9675C19.7005 37.2474 19.4729 37.4747 19.1924 37.4747H18.1764C15.6556 37.4747 13.6042 35.4266 13.6042 32.9099V17.6546C13.6042 15.1379 15.6556 13.0898 18.1764 13.0898L33.4179 13.1294C35.9377 13.1294 37.9891 15.1774 37.9891 17.6941ZM17.6684 16.1726C18.2292 16.1726 18.6844 16.627 18.6844 17.1869C18.6844 17.7469 18.2292 18.2013 17.6684 18.2013C17.1075 18.2013 16.6523 17.7469 16.6523 17.1869C16.6523 16.627 17.1075 16.1726 17.6684 16.1726Z" fill="white"/>
<defs>
<linearGradient id="paint0_linear_704_14158" x1="42.8617" y1="51" x2="3.90067" y2="102.902" gradientUnits="userSpaceOnUse">
<stop stop-color="#9A2686"/>
<stop offset="1" stop-color="#293992"/>
</linearGradient>
</defs>
</svg>
