<svg width="40" height="40" viewBox="0 0 40 40" fill="none" xmlns="http://www.w3.org/2000/svg">
<path d="M35 23.3333C35 21.495 33.505 20 31.6667 20H28.3333C26.495 20 25 21.495 25 23.3333C22.2433 23.3333 20 25.5767 20 28.3333V35C20 37.7567 22.2433 40 25 40H35C37.7567 40 40 37.7567 40 35V28.3333C40 25.5767 37.7567 23.3333 35 23.3333ZM28.3333 21.6667H31.6667C32.5867 21.6667 33.3333 22.4133 33.3333 23.3333H26.6667C26.6667 22.4133 27.4133 21.6667 28.3333 21.6667ZM25 25H35C36.8383 25 38.3333 26.495 38.3333 28.3333V30H21.6667V28.3333C21.6667 26.495 23.1617 25 25 25ZM35 38.3333H25C23.1617 38.3333 21.6667 36.8383 21.6667 35V31.6667H29.1667V34.1667C29.1667 34.6267 29.54 35 30 35C30.46 35 30.8333 34.6267 30.8333 34.1667V31.6667H38.3333V35C38.3333 36.8383 36.8383 38.3333 35 38.3333ZM16.6667 39.1667C16.6667 39.6267 16.2933 40 15.8333 40H7.5C3.365 40 0 36.635 0 32.5V7.5C0 3.365 3.365 0 7.5 0H19.1667C23.3017 0 26.6667 3.365 26.6667 7.5V15.8333C26.6667 16.2933 26.2933 16.6667 25.8333 16.6667C25.3733 16.6667 25 16.2933 25 15.8333V7.5C25 4.28333 22.3833 1.66667 19.1667 1.66667H7.5C4.28333 1.66667 1.66667 4.28333 1.66667 7.5V32.5C1.66667 35.7167 4.28333 38.3333 7.5 38.3333H15.8333C16.2933 38.3333 16.6667 38.7067 16.6667 39.1667ZM11.6667 22.5C11.6667 22.96 11.2933 23.3333 10.8333 23.3333H7.5C7.04 23.3333 6.66667 22.96 6.66667 22.5C6.66667 22.04 7.04 21.6667 7.5 21.6667H10.8333C11.2933 21.6667 11.6667 22.04 11.6667 22.5ZM20 22.5C20 22.96 19.6267 23.3333 19.1667 23.3333H15.8333C15.3733 23.3333 15 22.96 15 22.5C15 22.04 15.3733 21.6667 15.8333 21.6667H19.1667C19.6267 21.6667 20 22.04 20 22.5ZM11.6667 29.1667C11.6667 29.6267 11.2933 30 10.8333 30H7.5C7.04 30 6.66667 29.6267 6.66667 29.1667C6.66667 28.7067 7.04 28.3333 7.5 28.3333H10.8333C11.2933 28.3333 11.6667 28.7067 11.6667 29.1667ZM11.6667 9.16667C11.6667 9.62667 11.2933 10 10.8333 10H7.5C7.04 10 6.66667 9.62667 6.66667 9.16667C6.66667 8.70667 7.04 8.33333 7.5 8.33333H10.8333C11.2933 8.33333 11.6667 8.70667 11.6667 9.16667ZM20 9.16667C20 9.62667 19.6267 10 19.1667 10H15.8333C15.3733 10 15 9.62667 15 9.16667C15 8.70667 15.3733 8.33333 15.8333 8.33333H19.1667C19.6267 8.33333 20 8.70667 20 9.16667ZM11.6667 15.8333C11.6667 16.2933 11.2933 16.6667 10.8333 16.6667H7.5C7.04 16.6667 6.66667 16.2933 6.66667 15.8333C6.66667 15.3733 7.04 15 7.5 15H10.8333C11.2933 15 11.6667 15.3733 11.6667 15.8333ZM20 15.8333C20 16.2933 19.6267 16.6667 19.1667 16.6667H15.8333C15.3733 16.6667 15 16.2933 15 15.8333C15 15.3733 15.3733 15 15.8333 15H19.1667C19.6267 15 20 15.3733 20 15.8333Z" fill="white"/>
</svg>
