<svg width="51" height="51" viewBox="0 0 51 51" fill="none" xmlns="http://www.w3.org/2000/svg">
<rect y="51" width="51" height="51" rx="25.5" transform="rotate(-90 0 51)" fill="url(#paint0_linear_704_14140)"/>
<path d="M25.3019 35.8239C25.4189 36.0976 25.3131 36.3982 25.0262 36.511L24.4637 36.7268C24.3962 36.7525 24.3243 36.7654 24.2534 36.7654C24.1667 36.7654 24.0801 36.7461 24.0014 36.7085L23.5233 36.4798C21.055 35.3032 13 30.9102 13 23.8128V18.1916C13 16.0026 14.4625 14.0691 16.6405 13.3798L24.0734 11.0266C24.1881 10.9911 24.313 10.9911 24.4266 11.0266L31.8584 13.3777C34.0364 14.0669 35.4989 15.9993 35.4989 18.1894V20.6608C35.4989 20.9571 35.2469 21.1976 34.9364 21.1976C34.6259 21.1976 34.3739 20.9571 34.3739 20.6608V18.1894C34.3739 16.4642 33.2208 14.9397 31.504 14.3965L24.2489 12.1001L16.9949 14.3976C15.2793 14.9408 14.125 16.4653 14.125 18.1905V23.8117C14.125 30.2929 21.703 34.4111 24.0261 35.519L24.2781 35.6392L24.538 35.5383C24.826 35.4267 25.1838 35.5501 25.3019 35.8239ZM40 29.7872C40 33.6349 36.7195 36.7654 32.6875 36.7654C28.6555 36.7654 25.375 33.6349 25.375 29.7872C25.375 25.9395 28.6555 22.809 32.6875 22.809C36.7195 22.809 40 25.9395 40 29.7872ZM38.875 29.7872C38.875 26.5321 36.0996 23.8826 32.6875 23.8826C29.2754 23.8826 26.5 26.5321 26.5 29.7872C26.5 33.0423 29.2754 35.6918 32.6875 35.6918C36.0996 35.6918 38.875 33.0423 38.875 29.7872ZM32.6875 31.3976C32.998 31.3976 33.25 31.1571 33.25 30.8608V25.4929C33.25 25.1966 32.998 24.9561 32.6875 24.9561C32.377 24.9561 32.125 25.1966 32.125 25.4929V30.8608C32.125 31.1571 32.377 31.3976 32.6875 31.3976ZM32.6875 32.4711C32.0665 32.4711 31.5625 32.9521 31.5625 33.5447C31.5625 34.1373 32.0665 34.6183 32.6875 34.6183C33.3085 34.6183 33.8125 34.1373 33.8125 33.5447C33.8125 32.9521 33.3085 32.4711 32.6875 32.4711Z" fill="white"/>
<defs>
<linearGradient id="paint0_linear_704_14140" x1="42.8617" y1="51" x2="3.90068" y2="102.902" gradientUnits="userSpaceOnUse">
<stop stop-color="#9A2686"/>
<stop offset="1" stop-color="#293992"/>
</linearGradient>
</defs>
</svg>
