<svg width="51" height="51" viewBox="0 0 51 51" fill="none" xmlns="http://www.w3.org/2000/svg">
<rect y="51" width="51" height="51" rx="25.5" transform="rotate(-90 0 51)" fill="url(#paint0_linear_704_14161)"/>
<path d="M25.5969 35.2771C25.6912 35.5436 25.5518 35.8369 25.2852 35.9312C24.9018 36.0665 24.4999 36.1362 24.0888 36.1362H23.0637C21.085 36.1362 19.4755 34.5266 19.4755 32.5479V32.1911C19.4755 30.4411 18.7394 28.7863 17.4569 27.6483C15.1389 25.5958 14.0112 22.5253 14.4418 19.4342C15.0108 15.3609 18.3929 12.0638 22.4854 11.5942C27.3346 11.0375 31.8075 14.347 32.6594 19.1307C32.7097 19.4096 32.5231 19.6761 32.2453 19.7254C31.9633 19.7746 31.7009 19.59 31.6507 19.3112C30.8941 15.0595 26.9173 12.1202 22.6023 12.6133C18.967 13.0316 15.9611 15.9597 15.4567 19.5767C15.0733 22.3264 16.0749 25.0576 18.1356 26.8825C19.0798 27.7191 19.7707 28.7945 20.1542 29.9859H23.0626V22.2536C21.6099 22.0085 20.4996 20.7424 20.4996 19.2209C20.4996 18.938 20.7293 18.7083 21.0122 18.7083C21.2952 18.7083 21.5248 18.938 21.5248 19.2209C21.5248 20.3518 22.4444 21.2714 23.5752 21.2714C24.706 21.2714 25.6256 20.3518 25.6256 19.2209C25.6256 18.938 25.8552 18.7083 26.1382 18.7083C26.4212 18.7083 26.6508 18.938 26.6508 19.2209C26.6508 20.7424 25.5405 22.0085 24.0878 22.2536V30.4985C24.0878 30.7814 23.8582 31.0111 23.5752 31.0111H20.4023C20.4668 31.3986 20.4996 31.7933 20.4996 32.1922V32.5489C20.4996 33.9617 21.6499 35.112 23.0626 35.112H24.0878C24.382 35.112 24.6691 35.0628 24.9418 34.9664C25.2063 34.8711 25.5005 35.0105 25.5959 35.2781L25.5969 35.2771ZM33.8282 28.9596C33.8282 30.0904 32.9086 31.0101 31.7778 31.0101C30.647 31.0101 29.7274 30.0904 29.7274 28.9596C29.7274 27.8288 30.647 26.9091 31.7778 26.9091C32.9086 26.9091 33.8282 27.8288 33.8282 28.9596ZM32.803 28.9596C32.803 28.3947 32.3437 27.9344 31.7778 27.9344C31.2119 27.9344 30.7526 28.3947 30.7526 28.9596C30.7526 29.5245 31.2119 29.9848 31.7778 29.9848C32.3437 29.9848 32.803 29.5245 32.803 28.9596ZM38.134 31.412C38.2396 31.8097 38.1822 32.2239 37.9751 32.5776C37.768 32.9324 37.4358 33.1856 37.038 33.2902C36.6423 33.3948 36.2281 33.3384 35.8714 33.1302L35.2142 32.7468C34.6647 33.2481 34.0188 33.6203 33.3145 33.8418V34.5984C33.3145 35.4462 32.6246 36.1362 31.7768 36.1362C30.9289 36.1362 30.239 35.4462 30.239 34.5984V33.8418C29.5347 33.6203 28.8898 33.2481 28.3393 32.7468L27.6821 33.1302C27.3264 33.3384 26.9132 33.3948 26.5155 33.2902C26.1177 33.1856 25.7855 32.9324 25.5784 32.5776C25.3714 32.2239 25.315 31.8097 25.4185 31.412C25.5221 31.0142 25.7763 30.681 26.131 30.4739L26.7933 30.0874C26.6969 29.6926 26.6498 29.3215 26.6498 28.9596C26.6498 28.5977 26.6969 28.2266 26.7933 27.8308L26.131 27.4443C25.7763 27.2372 25.5231 26.904 25.4185 26.5062C25.3139 26.1084 25.3714 25.6942 25.5784 25.3405C25.7855 24.9858 26.1177 24.7336 26.5155 24.629C26.9132 24.5245 27.3274 24.5819 27.6821 24.7879L28.3393 25.1714C28.8898 24.6711 29.5347 24.2979 30.239 24.0775V23.3208C30.239 22.473 30.9289 21.783 31.7768 21.783C32.6246 21.783 33.3145 22.473 33.3145 23.3208V24.0775C34.0188 24.2989 34.6627 24.6711 35.2142 25.1714L35.8724 24.7879C36.2281 24.5808 36.6423 24.5255 37.038 24.629C37.4358 24.7336 37.768 24.9868 37.9751 25.3416C38.1822 25.6963 38.2396 26.1105 38.134 26.5073C38.0294 26.905 37.7772 27.2372 37.4225 27.4453L36.7602 27.8308C36.8566 28.2255 36.9037 28.5977 36.9037 28.9596C36.9037 29.3215 36.8566 29.6937 36.7602 30.0874L37.4225 30.4739C37.7782 30.681 38.0304 31.0142 38.134 31.412ZM37.1426 31.6724C37.1077 31.5401 37.0237 31.4294 36.9058 31.3607L35.9021 30.7743C35.695 30.6533 35.5997 30.4062 35.6715 30.1776C35.8129 29.7285 35.8785 29.341 35.8785 28.9606C35.8785 28.5803 35.8129 28.1927 35.6715 27.7427C35.5997 27.514 35.695 27.2669 35.9021 27.146L36.9058 26.5606C37.0237 26.4919 37.1077 26.3811 37.1426 26.2489C37.1775 26.1166 37.159 25.9782 37.0893 25.8603C37.0206 25.7424 36.9089 25.6573 36.7766 25.6235C36.6403 25.5876 36.5049 25.6081 36.3881 25.6758L35.3916 26.2571C35.1865 26.377 34.9231 26.3401 34.7601 26.1659C34.1962 25.5651 33.4796 25.1519 32.6882 24.9715C32.4544 24.9181 32.2894 24.711 32.2894 24.4722V23.3239C32.2894 23.0409 32.0587 22.8113 31.7768 22.8113C31.4948 22.8113 31.2642 23.0409 31.2642 23.3239V24.4722C31.2642 24.711 31.0991 24.9192 30.8654 24.9715C30.0739 25.1519 29.3563 25.5651 28.7934 26.1659C28.6304 26.3401 28.3659 26.377 28.1619 26.2571L27.1665 25.6758C27.0475 25.6071 26.9091 25.5876 26.7779 25.6235C26.6457 25.6584 26.5349 25.7424 26.4652 25.8603C26.3965 25.9793 26.3771 26.1166 26.4119 26.2489C26.4468 26.3811 26.5308 26.4929 26.6487 26.5616L27.6524 27.147C27.8595 27.2669 27.9548 27.514 27.8831 27.7427C27.7416 28.1938 27.676 28.5813 27.676 28.9606C27.676 29.34 27.7416 29.7275 27.8831 30.1786C27.9548 30.4072 27.8595 30.6543 27.6524 30.7753L26.6487 31.3617C26.5308 31.4304 26.4458 31.5422 26.4119 31.6744C26.3771 31.8067 26.3955 31.9441 26.4652 32.062C26.5339 32.1809 26.6457 32.2649 26.7779 32.2998C26.9112 32.3347 27.0486 32.3162 27.1665 32.2465L28.163 31.6652C28.2429 31.618 28.3321 31.5955 28.4213 31.5955C28.5597 31.5955 28.6961 31.6508 28.7945 31.7575C29.3583 32.3582 30.0749 32.7714 30.8664 32.9519C31.1001 33.0052 31.2652 33.2123 31.2652 33.4511V34.5994C31.2652 34.8824 31.4959 35.112 31.7778 35.112C32.0597 35.112 32.2904 34.8824 32.2904 34.5994V33.4511C32.2904 33.2123 32.4554 33.0041 32.6892 32.9519C33.4806 32.7714 34.1983 32.3582 34.7611 31.7575C34.9241 31.5821 35.1876 31.5442 35.3926 31.6652L36.3891 32.2465C36.509 32.3162 36.6464 32.3336 36.7776 32.2998C36.9099 32.2649 37.0206 32.1809 37.0903 32.063C37.159 31.9441 37.1785 31.8067 37.1436 31.6744L37.1426 31.6724Z" fill="white"/>
<defs>
<linearGradient id="paint0_linear_704_14161" x1="42.8617" y1="51" x2="3.90067" y2="102.902" gradientUnits="userSpaceOnUse">
<stop stop-color="#9A2686"/>
<stop offset="1" stop-color="#293992"/>
</linearGradient>
</defs>
</svg>
