<svg width="51" height="51" viewBox="0 0 51 51" fill="none" xmlns="http://www.w3.org/2000/svg">
<rect y="51" width="51" height="51" rx="25.5" transform="rotate(-90 0 51)" fill="url(#paint0_linear_704_14146)"/>
<path d="M29.0049 17.8738C27.1935 17.8738 25.7194 19.342 25.7194 21.1463C25.7194 22.9506 27.1935 24.4189 29.0049 24.4189C30.8164 24.4189 32.2905 22.9506 32.2905 21.1463C32.2905 19.342 30.8164 17.8738 29.0049 17.8738ZM29.0049 23.328C27.7969 23.328 26.8146 22.3495 26.8146 21.1463C26.8146 19.9431 27.7969 18.9646 29.0049 18.9646C30.2129 18.9646 31.1953 19.9431 31.1953 21.1463C31.1953 22.3495 30.2129 23.328 29.0049 23.328ZM37.9526 25.5741C38.0435 26.0017 37.9614 26.4391 37.7215 26.8057C37.4817 27.1711 37.1126 27.422 36.6844 27.5125C36.2562 27.6064 35.8159 27.5224 35.4479 27.2824L34.3801 26.5897C34.0055 26.9562 33.5949 27.2846 33.1546 27.5671C33.0626 27.6271 32.9596 27.6544 32.8578 27.6544C32.6782 27.6544 32.503 27.566 32.3978 27.4045C32.2335 27.1515 32.3069 26.8133 32.5599 26.6508C33.0505 26.3355 33.4985 25.9548 33.8916 25.5196C34.0745 25.3188 34.3746 25.2807 34.598 25.4279L36.0459 26.3671C36.1696 26.4468 36.3153 26.4762 36.4588 26.4435C36.6011 26.4141 36.7238 26.3301 36.8037 26.2068C36.8837 26.0857 36.9111 25.9395 36.8804 25.7966C36.8508 25.6548 36.7665 25.5326 36.6428 25.453L35.1971 24.5149C34.9715 24.3676 34.8861 24.0796 34.9967 23.8342C35.3811 22.9866 35.5749 22.0823 35.5749 21.1452C35.5749 20.2082 35.38 19.3039 34.9967 18.4563C34.885 18.2108 34.9715 17.9228 35.1971 17.7756L36.6428 16.8374C36.7654 16.7578 36.8497 16.6345 36.8804 16.4938C36.91 16.3509 36.8837 16.2047 36.8037 16.0837C36.7238 15.9615 36.6 15.8775 36.4588 15.8469C36.3131 15.8142 36.1685 15.8437 36.047 15.9233L34.598 16.8625C34.3757 17.0098 34.0734 16.9727 33.8916 16.7698C32.8808 15.6495 31.5041 14.9055 30.0169 14.6765C29.7497 14.635 29.5525 14.407 29.5525 14.1376V12.4184C29.5525 12.1184 29.3061 11.873 29.0049 11.873C28.7038 11.873 28.4573 12.1184 28.4573 12.4184V14.1376C28.4573 14.407 28.2602 14.635 27.993 14.6765C26.5057 14.9055 25.1291 15.6495 24.1171 16.7698C23.9375 16.9727 23.6374 17.0109 23.4107 16.8625L21.9629 15.9233C21.8402 15.8437 21.6935 15.8131 21.5511 15.8469C21.4076 15.8764 21.285 15.9604 21.205 16.0837C21.0407 16.3346 21.1119 16.6738 21.3649 16.8374L22.8106 17.7756C23.0635 17.9392 23.1358 18.2785 22.9705 18.5304C22.8062 18.7813 22.4667 18.8533 22.2126 18.6897L20.7669 17.7516C20.0091 17.2596 19.7933 16.2429 20.2873 15.4881C20.5271 15.1215 20.8951 14.8706 21.3244 14.7801C21.7526 14.6874 22.1918 14.7703 22.5609 15.0103L23.6276 15.703C24.657 14.695 25.9559 13.9936 27.3611 13.686V12.4195C27.3611 11.5173 28.0981 10.7832 29.0038 10.7832C29.9096 10.7832 30.6466 11.5173 30.6466 12.4195V13.686C32.0517 13.9925 33.3506 14.695 34.379 15.703L35.4479 15.0103C35.8148 14.7714 36.2551 14.6874 36.6833 14.7801C37.1126 14.8706 37.4817 15.1215 37.7204 15.487C37.9603 15.8535 38.0424 16.2909 37.9515 16.7185C37.8606 17.1462 37.6087 17.5138 37.2418 17.7516L36.1762 18.4432C36.5048 19.305 36.6701 20.2125 36.6701 21.1463C36.6701 22.0801 36.5048 22.9877 36.1762 23.8495L37.2418 24.5411C37.6087 24.78 37.8617 25.1476 37.9526 25.5741ZM26.8135 26.0552H22.2323L22.8752 22.4237C22.8905 22.0957 22.8905 21.9019 22.8752 21.8423C22.7427 21.3579 22.436 20.9772 22.01 20.7689C21.5785 20.5583 21.0824 20.5496 20.6016 20.7482C20.3256 20.8638 20.054 21.1496 19.8623 21.5238L17.4573 26.0563H15.8627C14.0513 26.0563 12.5771 27.5245 12.5771 29.3288V33.6922C12.5771 35.4965 14.0513 36.9648 15.8627 36.9648H25.0393C27.1201 36.9648 28.9272 35.4889 29.3357 33.4566L30.0366 29.9702C30.2293 29.0026 29.9807 28.0132 29.3543 27.254C28.7278 26.4937 27.8013 26.0563 26.8146 26.0563L26.8135 26.0552ZM13.6723 33.6911V29.3277C13.6723 28.1245 14.6547 27.146 15.8627 27.146H16.9579V35.8728H15.8627C14.6547 35.8728 13.6723 34.8944 13.6723 33.6911ZM28.9622 29.7553L28.2613 33.2417C27.9557 34.7656 26.5999 35.8728 25.0393 35.8728H18.0531V26.9704C18.2075 26.8711 18.3367 26.7326 18.4254 26.5646L20.8348 22.0255C20.9466 21.8085 21.0298 21.7539 21.0276 21.7517C21.2072 21.6787 21.3835 21.6765 21.527 21.7463C21.6497 21.8074 21.7449 21.9186 21.7964 22.0583L21.1546 25.8632C21.0977 26.1828 21.1842 26.5079 21.3934 26.7555C21.6026 27.0031 21.9081 27.1449 22.2323 27.1449H26.8135C27.4717 27.1449 28.0883 27.4362 28.5066 27.9434C28.925 28.4496 29.0904 29.1096 28.9622 29.7532V29.7553Z" fill="white"/>
<defs>
<linearGradient id="paint0_linear_704_14146" x1="42.8617" y1="51" x2="3.90067" y2="102.902" gradientUnits="userSpaceOnUse">
<stop stop-color="#9A2686"/>
<stop offset="1" stop-color="#293992"/>
</linearGradient>
</defs>
</svg>
