<svg width="38" height="38" viewBox="0 0 38 38" fill="none" xmlns="http://www.w3.org/2000/svg">
<g clip-path="url(#clip0_704_14024)">
<path d="M37.9113 29.7635L35.161 12.3468C34.6101 8.8635 31.6508 6.33333 28.1247 6.33333H22.1476C22.6495 5.66992 22.9583 4.85292 22.9583 3.95833C22.9583 1.77492 21.1834 0 19 0C16.8165 0 15.0416 1.77492 15.0416 3.95833C15.0416 4.85292 15.3504 5.66992 15.8539 6.33333H9.8768C6.34913 6.33333 3.3883 8.8635 2.83888 12.3468L0.0886324 29.7635C-0.237534 31.825 0.353049 33.9166 1.70997 35.5031C3.0653 37.0912 5.03972 38 7.12655 38H30.8734C32.9602 38 34.9346 37.0896 36.2915 35.5031C37.6453 33.9166 38.2375 31.825 37.9113 29.7635ZM16.625 3.95833C16.625 2.64892 17.6905 1.58333 19 1.58333C20.3094 1.58333 21.375 2.64892 21.375 3.95833C21.375 5.26775 20.3094 6.33333 19 6.33333C17.6905 6.33333 16.625 5.26775 16.625 3.95833ZM35.0866 34.4739C34.0321 35.7073 32.4963 36.4167 30.8734 36.4167H7.12655C5.50363 36.4167 3.9678 35.7089 2.9133 34.4739C1.8588 33.2405 1.39805 31.6128 1.65138 30.0105L4.40163 12.5938C4.83072 9.88317 7.13288 7.91667 9.8768 7.91667H28.1247C30.8671 7.91667 33.1708 9.88317 33.5967 12.5938L36.347 30.0105C36.6003 31.6144 36.1411 33.2405 35.0866 34.4739ZM15.0416 19.6238C15.0416 20.7084 15.8175 21.6252 16.8878 21.8025L21.3734 22.5514C23.2085 22.857 24.5416 24.4308 24.5416 26.2913C24.5416 28.3813 22.8411 30.0833 20.7495 30.0833H19.7916V30.875C19.7916 31.312 19.437 31.6667 19 31.6667C18.563 31.6667 18.2083 31.312 18.2083 30.875V30.0833H17.4166C15.2348 30.0833 13.4583 28.3084 13.4583 26.125C13.4583 25.688 13.813 25.3333 14.25 25.3333C14.687 25.3333 15.0416 25.688 15.0416 26.125C15.0416 27.4344 16.1072 28.5 17.4166 28.5H20.7495C21.9671 28.5 22.9583 27.5088 22.9583 26.2913C22.9583 25.2067 22.1825 24.2899 21.1137 24.1126L16.6281 23.3637C14.7915 23.0581 13.4599 21.4843 13.4599 19.6238C13.4599 17.5338 15.1604 15.8317 17.252 15.8317H18.2099V15.0401C18.2099 14.6031 18.5646 14.2484 19.0016 14.2484C19.4385 14.2484 19.7932 14.6031 19.7932 15.0401V15.8317H20.5849C22.7683 15.8317 24.5432 17.6067 24.5432 19.7901C24.5432 20.2271 24.1885 20.5817 23.7516 20.5817C23.3146 20.5817 22.9599 20.2271 22.9599 19.7901C22.9599 18.4807 21.8943 17.4151 20.5849 17.4151H17.252C16.0344 17.4151 15.0432 18.4062 15.0432 19.6238H15.0416Z" fill="white"/>
</g>
<defs>
<clipPath id="clip0_704_14024">
<rect width="38" height="38" fill="white"/>
</clipPath>
</defs>
</svg>
