<svg width="48" height="48" viewBox="0 0 48 48" fill="none" xmlns="http://www.w3.org/2000/svg">
<rect y="47.5312" width="47.5312" height="47.5312" rx="23.7656" transform="rotate(-90 0 47.5312)" fill="url(#paint0_linear_704_15492)"/>
<path d="M26.3108 33.7277H17.6999C15.8534 33.7277 14.3513 32.2255 14.3513 30.3789V16.0272C14.3513 14.1806 15.8534 12.6785 17.6999 12.6785H22.9765C23.297 12.6785 23.6108 12.7148 23.9189 12.7703V17.9408C23.9189 19.2592 24.9923 20.3327 26.3108 20.3327H31.4667C31.4983 20.5049 31.5413 20.6743 31.5547 20.8503C31.5767 21.1135 31.814 21.3086 32.0704 21.2886C32.3335 21.2675 32.5297 21.036 32.5086 20.7728C32.389 19.3032 31.7499 17.9207 30.7071 16.8787L27.3728 13.5444C26.1979 12.3694 24.6364 11.7227 22.9755 11.7227H17.6999C15.3262 11.7217 13.3945 13.6534 13.3945 16.0272V30.3789C13.3945 32.7527 15.3262 34.6844 17.6999 34.6844H26.3108C26.5748 34.6844 26.7891 34.4701 26.7891 34.206C26.7891 33.942 26.5748 33.7277 26.3108 33.7277ZM30.0316 17.5542C30.5511 18.0738 30.9348 18.7005 31.1979 19.3759H26.3108C25.5195 19.3759 24.8756 18.732 24.8756 17.9408V13.0411C25.5492 13.3023 26.1711 13.6936 26.6973 14.2189L30.0316 17.5533V17.5542ZM36.2161 33.8673L31.1883 28.8395L33.3821 26.6456L33.7983 27.0618C34.2308 27.5076 34.9197 26.8178 34.4748 26.3853L29.9971 21.9076C29.8106 21.721 29.5073 21.721 29.3207 21.9076C29.1341 22.0942 29.1341 22.3975 29.3207 22.584L29.712 22.9754L24.6479 28.0396L24.2566 27.6483C24.07 27.4617 23.7667 27.4617 23.5802 27.6483C23.3936 27.8348 23.3936 28.1381 23.5802 28.3247L28.0578 32.8025C28.4902 33.2483 29.1791 32.5585 28.7342 32.126L28.318 31.7098L30.5119 29.5159L35.5396 34.5438C35.9721 34.9897 36.661 34.2998 36.2161 33.8673ZM25.3243 28.716L30.3885 23.6518L32.7057 25.9691L27.6416 31.0334L25.3243 28.716ZM17.2216 19.8543C17.2216 19.5903 17.4359 19.3759 17.6999 19.3759H21.527C21.791 19.3759 22.0053 19.5903 22.0053 19.8543C22.0053 20.1184 21.791 20.3327 21.527 20.3327H17.6999C17.4359 20.3327 17.2216 20.1184 17.2216 19.8543ZM26.3108 23.2031H17.6999C17.4359 23.2031 17.2216 22.9888 17.2216 22.7247C17.2216 22.4606 17.4359 22.2463 17.6999 22.2463H26.3108C26.5748 22.2463 26.7891 22.4606 26.7891 22.7247C26.7891 22.9888 26.5748 23.2031 26.3108 23.2031ZM23.4405 26.0734H17.6999C17.4359 26.0734 17.2216 25.8591 17.2216 25.595C17.2216 25.3309 17.4359 25.1166 17.6999 25.1166H23.4405C23.7045 25.1166 23.9189 25.3309 23.9189 25.595C23.9189 25.8591 23.7045 26.0734 23.4405 26.0734ZM20.5702 27.987C20.8343 27.987 21.0486 28.2013 21.0486 28.4654C21.0486 28.7294 20.8343 28.9438 20.5702 28.9438H17.6999C17.4359 28.9438 17.2216 28.7294 17.2216 28.4654C17.2216 28.2013 17.4359 27.987 17.6999 27.987H20.5702Z" fill="white"/>
<defs>
<linearGradient id="paint0_linear_704_15492" x1="39.9465" y1="47.5312" x2="3.63536" y2="95.903" gradientUnits="userSpaceOnUse">
<stop stop-color="#9A2686"/>
<stop offset="1" stop-color="#293992"/>
</linearGradient>
</defs>
</svg>
