<svg width="48" height="48" viewBox="0 0 48 48" fill="none" xmlns="http://www.w3.org/2000/svg">
<rect y="47.6895" width="47.6892" height="47.6893" rx="23.8446" transform="rotate(-90 0 47.6895)" fill="url(#paint0_linear_704_15495)"/>
<path d="M33.5046 18.9682C32.9005 14.6333 29.2878 11.1269 24.9133 10.6276C22.1718 10.3137 19.5079 11.1083 17.4154 12.8621C15.3502 14.593 14.0763 17.1196 13.9209 19.7944C13.9033 20.0953 14.1332 20.3536 14.4352 20.3699C14.7373 20.3939 14.9956 20.1585 15.0131 19.8576C15.151 17.4793 16.2837 15.2339 18.1202 13.6949C19.9796 12.1373 22.348 11.4299 24.7886 11.7111C28.6738 12.1536 31.8838 15.2688 32.4211 19.1175C32.6313 20.6293 32.4551 22.1608 31.91 23.5461C31.376 24.9064 29.9663 25.8209 28.4024 25.8209H25.6477C25.8349 25.5005 25.9421 25.1277 25.9421 24.731C25.9421 23.5287 24.9604 22.551 23.7532 22.551C22.5461 22.551 21.5644 23.5287 21.5644 24.731C21.5644 25.9332 22.5461 26.9109 23.7532 26.9109H28.4024C30.4118 26.9109 32.2318 25.7185 32.9301 23.944C33.5429 22.3831 33.741 20.6631 33.5046 18.9682ZM22.6588 24.731C22.6588 24.1293 23.1502 23.641 23.7532 23.641C24.3563 23.641 24.8477 24.1293 24.8477 24.731C24.8477 25.3326 24.3563 25.8209 23.7532 25.8209C23.1502 25.8209 22.6588 25.3326 22.6588 24.731ZM28.6289 22.8475C29.024 22.0768 29.2254 21.2441 29.2254 20.371C29.2254 17.3659 26.7706 14.9211 23.7532 14.9211C20.7359 14.9211 18.2811 17.3659 18.2811 20.371C18.2811 21.6343 18.7254 22.866 19.532 23.8394C19.7246 24.0715 19.6918 24.4149 19.4587 24.6067C19.3569 24.6906 19.2332 24.731 19.1107 24.731C18.9531 24.731 18.7966 24.6634 18.6882 24.5326C17.7207 23.3652 17.1866 21.8872 17.1866 20.371C17.1866 16.7643 20.1318 13.8311 23.7532 13.8311C27.3747 13.8311 30.3198 16.7643 30.3198 20.371C30.3198 21.4185 30.0791 22.4191 29.6041 23.3445C29.4651 23.6126 29.1324 23.7173 28.8675 23.5821C28.5983 23.4448 28.491 23.1145 28.6289 22.8475ZM23.7532 29.0909C19.5309 29.0909 15.8525 32.023 15.0087 36.0646C14.9474 36.36 15.1554 36.7208 15.545 36.7208C15.7989 36.7208 16.0265 36.5442 16.0802 36.287C16.4632 34.4493 17.5183 32.8742 18.9629 31.7843L20.39 33.9152C20.9143 34.6989 22.2134 34.6989 22.7387 33.9152L23.7171 32.3445L24.7678 33.9152C25.0293 34.3065 25.4693 34.5408 25.9421 34.5408C26.4149 34.5408 26.8549 34.3065 27.1164 33.9152L28.5425 31.7843C29.9871 32.8742 31.0422 34.4493 31.4263 36.287C31.4876 36.5824 31.7831 36.7753 32.0731 36.7099C32.3697 36.6488 32.559 36.3611 32.4978 36.0657C31.6539 32.024 27.9767 29.092 23.7543 29.092L23.7532 29.0909ZM26.2059 33.3102C26.1216 33.4367 25.9935 33.4508 25.9421 33.4508C25.8907 33.4508 25.7626 33.4367 25.6783 33.3102L24.6266 31.7385C24.237 31.1575 23.2706 31.1564 22.8799 31.7385L21.8281 33.3091C21.7428 33.4356 21.6158 33.4497 21.5644 33.4497C21.5129 33.4497 21.386 33.4356 21.3006 33.3091L19.8789 31.1858C21.0314 30.5438 22.3578 30.1798 23.7532 30.1798C25.1486 30.1798 26.4751 30.5438 27.6264 31.1858L26.2059 33.3102Z" fill="white"/>
<defs>
<linearGradient id="paint0_linear_704_15495" x1="40.0792" y1="47.6894" x2="3.64745" y2="96.222" gradientUnits="userSpaceOnUse">
<stop stop-color="#9A2686"/>
<stop offset="1" stop-color="#293992"/>
</linearGradient>
</defs>
</svg>
