<svg width="50" height="50" viewBox="0 0 50 50" fill="none" xmlns="http://www.w3.org/2000/svg">
<rect y="49.1113" width="49.1114" height="49.1114" rx="24.5557" transform="rotate(-90 0 49.1113)" fill="url(#paint0_linear_704_15498)"/>
<path d="M37.5231 24.3747C37.4215 23.9632 37.1652 23.6176 36.8035 23.3989L35.466 22.5924C35.5182 22.544 36.8993 21.4666 36.8993 21.4666C37.026 21.3678 37.0956 21.2139 37.0849 21.0532C37.0753 20.8935 36.9863 20.7492 36.848 20.6669L23.1136 12.5438C22.3186 12.0994 21.3989 11.9929 20.5217 12.2456C19.6464 12.4992 18.9239 13.0801 18.4878 13.8816L17.6715 15.3841C16.7972 16.994 17.3794 19.0415 18.9607 19.9418L25.1504 23.6738L23.9695 27.2208C23.5072 28.6071 22.2171 29.5375 20.7586 29.5375H16.2923V25.1811C16.2923 24.9139 16.0757 24.6971 15.8088 24.6971C15.5418 24.6971 15.3252 24.9139 15.3252 25.1811V34.8619C15.3252 35.1291 15.5418 35.346 15.8088 35.346C16.0757 35.346 16.2923 35.1291 16.2923 34.8619V30.5055H20.7576C22.6339 30.5055 24.2925 29.309 24.8864 27.5268L25.9996 24.1849L29.7801 26.4638C30.2298 26.7349 30.7318 26.8743 31.2434 26.8743C31.4842 26.8743 31.727 26.8433 31.9678 26.7804C32.2724 26.701 32.5549 26.5742 32.8102 26.4077L34.4127 27.3738C34.6681 27.5277 34.9485 27.6003 35.2271 27.6003C35.7638 27.6003 36.289 27.3273 36.5849 26.8336L37.3432 25.5732C37.5618 25.2101 37.6246 24.7851 37.5231 24.3747ZM31.7221 25.8442C31.2289 25.972 30.7153 25.8994 30.2782 25.6351L19.4491 19.1073C18.3127 18.4597 17.8959 16.9969 18.5206 15.8468L19.3379 14.3444C19.6493 13.7723 20.1648 13.3569 20.7896 13.1759C21.013 13.1111 21.2412 13.0791 21.4675 13.0791C21.8728 13.0791 22.2732 13.1817 22.632 13.3831L35.7445 21.1394L35.0375 21.6883C34.6661 21.9758 34.3644 22.3311 34.1448 22.7348L32.8808 24.9555C32.6284 25.3999 32.2164 25.7155 31.7221 25.8442ZM36.5143 25.0746L35.7561 26.335C35.5801 26.6264 35.201 26.7194 34.9108 26.5451L33.5375 25.7174C33.6032 25.6274 33.6651 25.5335 33.7212 25.4347L34.8915 23.3776L36.3045 24.2295C36.5956 24.4047 36.6894 24.7832 36.5143 25.0746Z" fill="white"/>
<defs>
<linearGradient id="paint0_linear_704_15498" x1="41.2745" y1="49.1113" x2="3.75622" y2="99.0911" gradientUnits="userSpaceOnUse">
<stop stop-color="#9A2686"/>
<stop offset="1" stop-color="#293992"/>
</linearGradient>
</defs>
</svg>
