<svg width="49" height="49" viewBox="0 0 49 49" fill="none" xmlns="http://www.w3.org/2000/svg">
<rect y="48.6895" width="48.6892" height="48.6893" rx="24.3446" transform="rotate(-90 0 48.6895)" fill="url(#paint0_linear_704_15485)"/>
<path d="M27.9074 22.3777C28.8774 23.3487 30.1695 23.8836 31.5438 23.8836C32.9181 23.8836 34.2101 23.3487 35.1801 22.3777C37.1593 20.3996 37.1922 17.1852 35.2593 14.9006C35.2552 14.8965 35.2521 14.8924 35.248 14.8883L32.628 11.9834C32.3934 11.7551 32.1106 11.5391 31.5427 11.5391C31.0305 11.5391 30.691 11.7551 30.4359 12.0071L27.8272 14.8996C25.8943 17.1842 25.9272 20.3986 27.9064 22.3766L27.9074 22.3777ZM28.6028 15.5764L31.1364 12.7837C31.2928 12.6119 31.4419 12.5605 31.5684 12.5605C31.695 12.5605 31.8133 12.6325 31.9635 12.7765L34.4796 15.5713C36.0596 17.4434 36.0483 20.0561 34.4539 21.6504C32.9006 23.2047 30.189 23.2047 28.6357 21.6504C27.0382 20.054 27.0289 17.4382 28.6038 15.5774L28.6028 15.5764ZM24.8574 30.007V33.314C24.8574 34.2223 24.4449 35.0627 23.7238 35.6192C23.2074 36.0183 22.5902 36.2271 21.9586 36.2271C21.7148 36.2271 21.47 36.1962 21.2272 36.1335C15.7938 34.7201 11.999 29.7385 11.999 23.8836C11.999 23.4197 12.0247 22.9475 12.0762 22.4805C12.7026 16.8118 17.271 12.2437 22.94 11.6172C23.409 11.5658 23.8812 11.5401 24.3431 11.5401C25.4746 11.5401 26.2338 11.6574 27.0258 11.8322C27.3036 11.8939 27.4774 12.1686 27.4167 12.4453C27.356 12.722 27.0937 12.8968 26.8026 12.8362C26.0548 12.6705 25.3831 12.5677 24.342 12.5677C23.9172 12.5677 23.4831 12.5913 23.0511 12.6387C17.8583 13.2137 13.6727 17.3991 13.0987 22.5927C13.0514 23.0226 13.0277 23.4567 13.0277 23.8836C13.0277 29.2149 16.5067 33.8427 21.4875 35.1378C22.0491 35.2848 22.6344 35.1624 23.0953 34.8055C23.5623 34.4445 23.8287 33.9013 23.8287 33.314V30.0029C21.2365 29.7406 19.1997 27.5712 19.1997 24.9122V22.855H18.6854C18.4015 22.855 18.171 22.6245 18.171 22.3406C18.171 22.0567 18.4015 21.8263 18.6854 21.8263H21.2571V18.2261C21.2571 17.9422 21.4875 17.7118 21.7714 17.7118C22.0553 17.7118 22.2857 17.9422 22.2857 18.2261V21.8263H24.8574C25.1413 21.8263 25.3717 22.0567 25.3717 22.3406C25.3717 22.6245 25.1413 22.855 24.8574 22.855H20.2284V24.9122C20.2284 27.1813 22.0738 29.0267 24.3431 29.0267C26.4436 29.0267 28.2016 27.455 28.4331 25.3699C28.4639 25.0881 28.718 24.8824 29.0009 24.9153C29.2827 24.9461 29.4874 25.2012 29.4556 25.4831C29.186 27.9148 27.248 29.7673 24.8574 30.007ZM36.5832 25.4923C35.967 30.2106 32.6372 34.1955 28.0998 35.6449C27.8354 35.7302 27.5391 35.5842 27.4527 35.3106C27.3663 35.04 27.5165 34.751 27.786 34.6646C31.946 33.3366 34.9991 29.685 35.5628 25.3607C35.5998 25.0788 35.8621 24.8793 36.1399 24.9173C36.4217 24.9544 36.6203 25.2126 36.5842 25.4934L36.5832 25.4923Z" fill="white"/>
<defs>
<linearGradient id="paint0_linear_704_15485" x1="40.9197" y1="48.6894" x2="3.72393" y2="98.2396" gradientUnits="userSpaceOnUse">
<stop stop-color="#9A2686"/>
<stop offset="1" stop-color="#293992"/>
</linearGradient>
</defs>
</svg>
