<svg width="40" height="37" viewBox="0 0 40 37" fill="none" xmlns="http://www.w3.org/2000/svg">
<path d="M6.66667 20.1818H16.6667C19.4233 20.1818 21.6667 17.9181 21.6667 15.1364V5.04545C21.6667 2.26373 19.4233 0 16.6667 0H6.66667C3.91 0 1.66667 2.26373 1.66667 5.04545V15.1364C1.66667 17.9181 3.91 20.1818 6.66667 20.1818ZM3.33333 5.04545C3.33333 3.19041 4.82833 1.68182 6.66667 1.68182H16.6667C18.505 1.68182 20 3.19041 20 5.04545V15.1364C20 16.9914 18.505 18.5 16.6667 18.5H6.66667C4.82833 18.5 3.33333 16.9914 3.33333 15.1364V5.04545ZM29.1667 20.1818H34.1667C36.465 20.1818 38.3333 18.2948 38.3333 15.9773V10.9318C38.3333 8.61427 36.465 6.72727 34.1667 6.72727H29.1667C26.8683 6.72727 25 8.61427 25 10.9318V15.9773C25 18.2948 26.8683 20.1818 29.1667 20.1818ZM26.6667 10.9318C26.6667 9.54095 27.7883 8.40909 29.1667 8.40909H34.1667C35.545 8.40909 36.6667 9.54095 36.6667 10.9318V15.9773C36.6667 17.3681 35.545 18.5 34.1667 18.5H29.1667C27.7883 18.5 26.6667 17.3681 26.6667 15.9773V10.9318ZM33.3333 23.5455H6.66667C2.99 23.5455 0 26.5626 0 30.2727C0 33.9828 2.99 37 6.66667 37H33.3333C37.01 37 40 33.9828 40 30.2727C40 26.5626 37.01 23.5455 33.3333 23.5455ZM33.3333 35.3182H6.66667C3.91 35.3182 1.66667 33.0545 1.66667 30.2727C1.66667 27.491 3.91 25.2273 6.66667 25.2273H33.3333C36.09 25.2273 38.3333 27.491 38.3333 30.2727C38.3333 33.0545 36.09 35.3182 33.3333 35.3182ZM8.33333 30.2727C8.33333 31.2011 7.58667 31.9545 6.66667 31.9545C5.74667 31.9545 5 31.2011 5 30.2727C5 29.3444 5.74667 28.5909 6.66667 28.5909C7.58667 28.5909 8.33333 29.3444 8.33333 30.2727ZM35 30.2727C35 31.2011 34.2533 31.9545 33.3333 31.9545C32.4133 31.9545 31.6667 31.2011 31.6667 30.2727C31.6667 29.3444 32.4133 28.5909 33.3333 28.5909C34.2533 28.5909 35 29.3444 35 30.2727ZM16.6667 30.2727C16.6667 31.2011 15.92 31.9545 15 31.9545C14.08 31.9545 13.3333 31.2011 13.3333 30.2727C13.3333 29.3444 14.08 28.5909 15 28.5909C15.92 28.5909 16.6667 29.3444 16.6667 30.2727ZM26.6667 30.2727C26.6667 31.2011 25.92 31.9545 25 31.9545C24.08 31.9545 23.3333 31.2011 23.3333 30.2727C23.3333 29.3444 24.08 28.5909 25 28.5909C25.92 28.5909 26.6667 29.3444 26.6667 30.2727Z" fill="white"/>
</svg>
