<svg width="45" height="48" viewBox="0 0 45 48" fill="none" xmlns="http://www.w3.org/2000/svg">
<g filter="url(#filter0_d_704_15370)">
<path d="M35.1136 13.3333H34.2727V7.5C34.2727 3.365 30.8771 0 26.7045 0H18.2955C14.1229 0 10.7273 3.365 10.7273 7.5V13.3333H9.88636C6.64046 13.3333 4 15.95 4 19.1667V27.5C4 29.7983 5.887 31.6667 8.20455 31.6667H21.6591V38.3333H13.25C12.7858 38.3333 12.4091 38.7067 12.4091 39.1667C12.4091 39.6267 12.7858 40 13.25 40H31.75C32.2142 40 32.5909 39.6267 32.5909 39.1667C32.5909 38.7067 32.2142 38.3333 31.75 38.3333H23.3409V31.6667H36.7955C39.113 31.6667 41 29.7983 41 27.5V19.1667C41 15.95 38.3595 13.3333 35.1136 13.3333ZM35.1136 15C37.4312 15 39.3182 16.8683 39.3182 19.1667V24.1683C38.6152 23.6433 37.7406 23.3333 36.7955 23.3333H34.2727V15H35.1136ZM12.4091 7.5C12.4091 4.28333 15.0495 1.66667 18.2955 1.66667H26.7045C29.9505 1.66667 32.5909 4.28333 32.5909 7.5V23.3333H12.4091V7.5ZM9.88636 15H10.7273V23.3333H8.20455C7.25936 23.3333 6.38482 23.645 5.68182 24.1683V19.1667C5.68182 16.8683 7.56882 15 9.88636 15ZM36.7955 30H8.20455C6.81368 30 5.68182 28.8783 5.68182 27.5C5.68182 26.1217 6.81368 25 8.20455 25H36.7955C38.1863 25 39.3182 26.1217 39.3182 27.5C39.3182 28.8783 38.1863 30 36.7955 30Z" fill="white"/>
</g>
<defs>
<filter id="filter0_d_704_15370" x="0" y="0" width="45" height="48" filterUnits="userSpaceOnUse" color-interpolation-filters="sRGB">
<feFlood flood-opacity="0" result="BackgroundImageFix"/>
<feColorMatrix in="SourceAlpha" type="matrix" values="0 0 0 0 0 0 0 0 0 0 0 0 0 0 0 0 0 0 127 0" result="hardAlpha"/>
<feOffset dy="4"/>
<feGaussianBlur stdDeviation="2"/>
<feComposite in2="hardAlpha" operator="out"/>
<feColorMatrix type="matrix" values="0 0 0 0 0 0 0 0 0 0 0 0 0 0 0 0 0 0 0.25 0"/>
<feBlend mode="normal" in2="BackgroundImageFix" result="effect1_dropShadow_704_15370"/>
<feBlend mode="normal" in="SourceGraphic" in2="effect1_dropShadow_704_15370" result="shape"/>
</filter>
</defs>
</svg>
