<svg width="49" height="49" viewBox="0 0 49 49" fill="none" xmlns="http://www.w3.org/2000/svg">
<rect y="48.9746" width="48.9741" height="48.9742" rx="24.4871" transform="rotate(-90 0 48.9746)" fill="url(#paint0_linear_704_15482)"/>
<path d="M31.2189 36.3672C31.2458 36.6724 31.0268 36.9432 30.7301 36.9698C30.7139 36.9698 30.6978 36.9721 30.6816 36.9721C30.4054 36.9721 30.1702 36.7557 30.1443 36.4671C29.8929 33.5917 27.583 31.4232 24.7725 31.4232C21.962 31.4232 19.6521 33.5917 19.4007 36.4671C19.3738 36.7723 19.1127 36.992 18.8149 36.9698C18.5182 36.9432 18.2992 36.6724 18.3262 36.3672C18.6282 32.9159 21.3999 30.3134 24.7736 30.3134C28.1473 30.3134 30.9178 32.9159 31.221 36.3672H31.2189ZM28.5475 25.3195C28.5475 27.4613 26.8537 29.2037 24.7714 29.2037C22.6892 29.2037 20.9953 27.4613 20.9953 25.3195C20.9953 23.1776 22.6892 21.4353 24.7714 21.4353C26.8537 21.4353 28.5475 23.1776 28.5475 25.3195ZM27.4686 25.3195C27.4686 23.7891 26.2581 22.545 24.7714 22.545C23.2847 22.545 22.0742 23.7891 22.0742 25.3195C22.0742 26.8498 23.2847 28.0939 24.7714 28.0939C26.2581 28.0939 27.4686 26.8498 27.4686 25.3195ZM20.8777 14.8133C20.0405 14.1308 20.5638 12.657 21.6254 12.6881H23.1337L23.6742 11.1277C24.0076 10.0945 25.532 10.0934 25.8676 11.1211L26.4103 12.6881H27.9185C28.9769 12.6525 29.5023 14.1374 28.6716 14.8099L27.4697 15.8165L27.9606 17.257C28.3393 18.3013 27.0986 19.2812 26.2171 18.6509L24.7822 17.6898L23.3732 18.6597C22.5058 19.3034 21.251 18.339 21.6081 17.2991L22.085 15.8243L20.8777 14.8133ZM21.5585 13.9532L23.0549 15.2061C23.2297 15.3515 23.2977 15.5934 23.2265 15.8121L22.6342 17.641L22.7226 17.753C22.7356 17.753 22.7528 17.7508 22.7701 17.7386L24.4769 16.5634C24.6571 16.4413 24.889 16.4402 25.0714 16.56L26.804 17.7209L26.9411 17.6232L26.325 15.8154C26.2495 15.5957 26.3175 15.3493 26.4933 15.2017L27.9822 13.9543L27.9175 13.7967H26.0294C25.8018 13.7967 25.5979 13.6491 25.5213 13.4283L24.8523 11.4995H24.6905L24.0216 13.4283C23.945 13.6491 23.7411 13.7967 23.5134 13.7967H21.6254L21.5585 13.9532ZM37.3027 18.0194L36.1008 19.026L36.5917 20.4664C36.9704 21.5118 35.7286 22.4907 34.8482 21.8603L33.4133 20.8992L32.0043 21.8692C31.1369 22.5129 29.8821 21.5485 30.2392 20.5086L30.7161 19.0337L29.5088 18.0227C28.6716 17.3402 29.1949 15.8664 30.2565 15.8975H31.7648L32.3053 14.3372C32.6387 13.304 34.1631 13.3029 34.4987 14.3305L35.0413 15.8975H36.5496C37.608 15.862 38.1334 17.3469 37.3027 18.0194ZM36.6144 17.1638L36.5496 17.0062H34.6616C34.4339 17.0062 34.23 16.8586 34.1534 16.6377L33.4845 14.7089H33.3227L32.6538 16.6377C32.5772 16.8586 32.3733 17.0062 32.1456 17.0062H30.2576L30.1907 17.1615L31.6871 18.4145C31.8619 18.5599 31.9298 18.8018 31.8586 19.0204L31.2663 20.8504L31.3548 20.9614C31.3677 20.9614 31.385 20.9592 31.4023 20.947L33.1091 19.7717C33.2882 19.6508 33.5212 19.6474 33.7035 19.7684L35.4362 20.9292L35.5732 20.8316L34.9572 19.0237C34.8817 18.804 34.9496 18.5576 35.1255 18.41L36.6144 17.1638ZM18.9357 21.8048C18.5409 22.1156 17.9982 22.1378 17.585 21.8603L16.15 20.8992L14.741 21.8692C13.8736 22.5129 12.6188 21.5485 12.976 20.5086L13.4528 19.0337L12.2455 18.0227C11.4083 17.3402 11.9316 15.8664 12.9932 15.8975H14.5015L15.042 14.3372C15.3754 13.304 16.8999 13.3029 17.2354 14.3305L17.7781 15.8975H19.2864C20.3448 15.862 20.8702 17.3469 20.0394 18.0194L18.8375 19.026L19.3284 20.4664C19.4881 20.9592 19.3284 21.4941 18.9357 21.8048ZM18.31 20.8327L17.6939 19.0248C17.6184 18.8051 17.6864 18.5587 17.8622 18.4111L19.3511 17.1638L19.2864 17.0062H17.3983C17.1707 17.0062 16.9668 16.8586 16.8902 16.6377L16.2212 14.7089H16.0594L15.3905 16.6377C15.3139 16.8586 15.11 17.0062 14.8823 17.0062H12.9932L12.9263 17.1615L14.4227 18.4145C14.5975 18.5599 14.6655 18.8018 14.5943 19.0204L14.002 20.8504L14.0904 20.9614C14.1034 20.9614 14.1207 20.9592 14.1379 20.947L15.8447 19.7717C16.0238 19.6508 16.2579 19.6474 16.4392 19.7684L18.1719 20.9292L18.3089 20.8316L18.31 20.8327Z" fill="white"/>
<defs>
<linearGradient id="paint0_linear_704_15482" x1="41.1591" y1="48.9746" x2="3.74572" y2="98.8147" gradientUnits="userSpaceOnUse">
<stop stop-color="#9A2686"/>
<stop offset="1" stop-color="#293992"/>
</linearGradient>
</defs>
</svg>
