<svg width="50" height="50" viewBox="0 0 50 50" fill="none" xmlns="http://www.w3.org/2000/svg">
<rect y="49.1113" width="49.1114" height="49.1114" rx="24.5557" transform="rotate(-90 0 49.1113)" fill="url(#paint0_linear_704_15501)"/>
<path d="M38.0652 18.353V28.3636C38.0652 31.1233 35.8195 33.369 33.0599 33.369H16.3754C13.6158 33.369 11.3701 31.1233 11.3701 28.3636C11.3701 28.0567 11.6193 27.8075 11.9263 27.8075C12.2333 27.8075 12.4824 28.0567 12.4824 28.3636C12.4824 30.5104 14.2287 32.2567 16.3754 32.2567H33.0599C35.2066 32.2567 36.9529 30.5104 36.9529 28.3636V18.353C36.9529 16.2063 35.2066 14.46 33.0599 14.46H16.3754C14.2287 14.46 12.4824 16.2063 12.4824 18.353C12.4824 18.66 12.2333 18.9091 11.9263 18.9091C11.6193 18.9091 11.3701 18.66 11.3701 18.353C11.3701 15.5934 13.6158 13.3477 16.3754 13.3477H33.0599C35.8195 13.3477 38.0652 15.5934 38.0652 18.353ZM11.3701 23.3583C11.3701 22.1315 12.3678 21.1337 13.5947 21.1337C14.8216 21.1337 15.8193 22.1315 15.8193 23.3583C15.8193 24.5852 14.8216 25.5829 13.5947 25.5829C12.3678 25.5829 11.3701 24.5852 11.3701 23.3583ZM12.4824 23.3583C12.4824 23.9712 12.9818 24.4706 13.5947 24.4706C14.2076 24.4706 14.707 23.9712 14.707 23.3583C14.707 22.7454 14.2076 22.246 13.5947 22.246C12.9818 22.246 12.4824 22.7454 12.4824 23.3583ZM21.0126 24.1325L21.9125 27.089C22.0014 27.3826 21.8357 27.6929 21.5421 27.783C21.2562 27.872 20.937 27.7096 20.848 27.4126L19.9448 24.4461C19.8669 24.4528 19.7913 24.4695 19.7112 24.4695H18.0428V27.2502C18.0428 27.5572 17.7936 27.8064 17.4866 27.8064C17.1796 27.8064 16.9305 27.5572 16.9305 27.2502V20.5765C16.9305 19.6566 17.6791 18.908 18.5989 18.908H19.7112C21.244 18.908 22.492 20.156 22.492 21.6888C22.492 22.7499 21.888 23.6631 21.0115 24.1314L21.0126 24.1325ZM21.3808 21.6899C21.3808 20.77 20.6322 20.0214 19.7123 20.0214H18.6C18.293 20.0214 18.0439 20.2706 18.0439 20.5776V23.3583H19.7123C20.6322 23.3583 21.3808 22.6097 21.3808 21.6899ZM25.2738 20.0214H27.4984C27.8054 20.0214 28.0546 19.7723 28.0546 19.4653C28.0546 19.1583 27.8054 18.9091 27.4984 18.9091H25.2738C24.3539 18.9091 23.6054 19.6577 23.6054 20.5776V26.1391C23.6054 27.0589 24.3539 27.8075 25.2738 27.8075H27.4984C27.8054 27.8075 28.0546 27.5583 28.0546 27.2514C28.0546 26.9444 27.8054 26.6952 27.4984 26.6952H25.2738C24.9668 26.6952 24.7177 26.4449 24.7177 26.1391V23.9145H27.4984C27.8054 23.9145 28.0546 23.6653 28.0546 23.3583C28.0546 23.0513 27.8054 22.8022 27.4984 22.8022H24.7177V20.5776C24.7177 20.2706 24.9668 20.0214 25.2738 20.0214ZM31.9476 20.0214C32.7095 20.0214 33.3736 20.5353 33.5638 21.2728C33.6405 21.5709 33.9497 21.7522 34.2411 21.6732C34.5392 21.5964 34.7183 21.2928 34.6416 20.9958C34.3246 19.7678 33.2178 18.9102 31.9487 18.9102C30.416 18.9102 29.168 20.1582 29.168 21.691V25.0279C29.168 26.5617 30.416 27.8086 31.9487 27.8086C33.2178 27.8086 34.3257 26.951 34.6416 25.7231C34.7183 25.425 34.5392 25.1224 34.2411 25.0457C33.9486 24.9711 33.6405 25.148 33.5638 25.445C33.3747 26.1813 32.7095 26.6963 31.9476 26.6963C31.0277 26.6963 30.2791 25.9477 30.2791 25.0279V21.691C30.2791 20.7711 31.0277 20.0225 31.9476 20.0225V20.0214Z" fill="white"/>
<defs>
<linearGradient id="paint0_linear_704_15501" x1="41.2745" y1="49.1113" x2="3.75622" y2="99.0911" gradientUnits="userSpaceOnUse">
<stop stop-color="#9A2686"/>
<stop offset="1" stop-color="#293992"/>
</linearGradient>
</defs>
</svg>
