<svg width="42" height="42" viewBox="0 0 42 42" fill="none" xmlns="http://www.w3.org/2000/svg">
<path d="M34.125 10.5H24.6225L24.0975 9.99075C23.478 9.3905 22.7308 9.01425 21.9503 8.84275L27.846 6.0095C28.49 5.60875 28.875 4.91575 28.875 4.15625C28.875 3.39675 28.49 2.702 27.7533 2.2505L23.5532 0.28525C23.149 0.09625 22.7167 0 22.274 0C20.608 0 19.25 1.35625 19.25 3.02225V9.10175C18.7652 9.31175 18.3067 9.6005 17.9025 9.99075L17.3775 10.5H7.875C3.53325 10.5 0 14.0332 0 18.375V35.875C0 39.2525 2.7475 42 6.125 42H35.875C39.2525 42 42 39.2525 42 35.875V18.375C42 14.0332 38.4668 10.5 34.125 10.5ZM34.125 12.25C37.2015 12.25 39.732 14.539 40.1607 17.5H34.3332C32.7355 17.5 31.2218 16.8875 30.072 15.7763L26.4285 12.25H34.125ZM21 3.02225C21 2.3205 21.5705 1.75 22.274 1.75C22.4595 1.75 22.6415 1.79025 22.813 1.87075L26.9202 3.78525C27.1058 3.90075 27.1268 4.0845 27.1268 4.15625C27.1268 4.24725 27.0987 4.41525 27.0077 4.48L21.0018 7.3605V3.02225H21ZM7.875 12.25H15.5698L11.9263 15.7763C10.7782 16.8875 9.2645 17.5 7.665 17.5H1.83925C2.268 14.539 4.7985 12.25 7.875 12.25ZM24.5 40.25H17.5V29.75C17.5 27.8197 19.0697 26.25 21 26.25C22.9303 26.25 24.5 27.8197 24.5 29.75V40.25ZM35.875 40.25H26.25V29.75C26.25 26.8555 23.8945 24.5 21 24.5C18.1055 24.5 15.75 26.8555 15.75 29.75V40.25H6.125C3.71175 40.25 1.75 38.2865 1.75 35.875V19.25H7.66675C9.723 19.25 11.6673 18.4625 13.1442 17.0327L19.1205 11.249C20.1775 10.227 21.8278 10.227 22.8795 11.249L28.8558 17.0327C30.3328 18.4625 32.277 19.25 34.3332 19.25H40.25V35.875C40.25 38.2865 38.2882 40.25 35.875 40.25ZM12.25 27.125C12.25 27.608 11.858 28 11.375 28H7.875C7.392 28 7 27.608 7 27.125C7 26.642 7.392 26.25 7.875 26.25H11.375C11.858 26.25 12.25 26.642 12.25 27.125ZM12.25 34.125C12.25 34.608 11.858 35 11.375 35H7.875C7.392 35 7 34.608 7 34.125C7 33.642 7.392 33.25 7.875 33.25H11.375C11.858 33.25 12.25 33.642 12.25 34.125ZM35 27.125C35 27.608 34.608 28 34.125 28H30.625C30.142 28 29.75 27.608 29.75 27.125C29.75 26.642 30.142 26.25 30.625 26.25H34.125C34.608 26.25 35 26.642 35 27.125ZM35 34.125C35 34.608 34.608 35 34.125 35H30.625C30.142 35 29.75 34.608 29.75 34.125C29.75 33.642 30.142 33.25 30.625 33.25H34.125C34.608 33.25 35 33.642 35 34.125ZM22.75 17.5C22.75 18.466 21.966 19.25 21 19.25C20.034 19.25 19.25 18.466 19.25 17.5C19.25 16.534 20.034 15.75 21 15.75C21.966 15.75 22.75 16.534 22.75 17.5Z" fill="white"/>
</svg>
