<svg width="48" height="48" viewBox="0 0 48 48" fill="none" xmlns="http://www.w3.org/2000/svg">
<rect y="47.6895" width="47.6892" height="47.6893" rx="23.8446" transform="rotate(-90 0 47.6895)" fill="url(#paint0_linear_704_13314)"/>
<path d="M24.0714 24.369C24.2919 24.5871 24.2952 24.9454 24.0792 25.168C23.861 25.3896 23.5085 25.3918 23.2881 25.1748C23.0263 24.916 22.6782 24.7725 22.309 24.7725C21.538 24.7725 20.9102 25.4065 20.9102 26.1852C20.9102 26.3231 20.9595 26.8215 21.2884 28.6253C21.3187 28.7903 21.275 28.9609 21.1687 29.0898C21.0624 29.2175 20.9046 29.2932 20.739 29.2932H18.9531C16.7934 29.2932 15.0366 27.5188 15.0366 25.3376V24.2096C13.6512 24.4583 13.254 24.4899 13.0783 24.4899C11.6896 24.4899 10.5605 23.3484 10.5605 21.947C10.5605 20.5456 11.6896 19.4041 13.0783 19.4041C13.254 19.4041 13.6512 19.4357 15.0366 19.6844V18.5565C15.0366 16.3752 16.7934 14.6008 18.9531 14.6008H20.0698C19.8248 13.2005 19.7923 12.7993 19.7923 12.623C19.7923 11.2216 20.9214 10.0801 22.3101 10.0801C23.6988 10.0801 24.8279 11.2216 24.8279 12.623C24.8279 12.7993 24.7965 13.2005 24.5503 14.6008H25.6671C27.8268 14.6008 29.5836 16.3752 29.5836 18.5565V21.947C29.5836 22.2589 29.333 22.5121 29.0241 22.5121C28.7153 22.5121 28.4646 22.2589 28.4646 21.947V18.5565C28.4646 16.9979 27.2091 15.731 25.6671 15.731H23.8812C23.7156 15.731 23.5578 15.6564 23.4515 15.5276C23.3452 15.3987 23.3015 15.2281 23.3317 15.0631C23.6607 13.2593 23.71 12.7609 23.71 12.623C23.71 11.8443 23.0822 11.2103 22.3112 11.2103C21.5402 11.2103 20.9125 11.8443 20.9125 12.623C20.9125 12.7609 20.9617 13.2593 21.2907 15.0631C21.3209 15.2281 21.2773 15.3987 21.1709 15.5276C21.0646 15.6553 20.9069 15.731 20.7413 15.731H18.9553C17.4133 15.731 16.1578 16.9979 16.1578 18.5565V20.3614C16.1578 20.5286 16.084 20.688 15.9564 20.7965C15.8288 20.9039 15.661 20.9479 15.4965 20.9163C13.6468 20.5716 13.1902 20.5343 13.0805 20.5343C12.3096 20.5343 11.6818 21.1683 11.6818 21.947C11.6818 22.7257 12.3096 23.3597 13.0805 23.3597C13.1913 23.3597 13.6468 23.3225 15.4965 22.9777C15.6621 22.9472 15.8288 22.9913 15.9564 23.0975C16.084 23.206 16.1578 23.3643 16.1578 23.5327V25.3376C16.1578 26.8961 17.4133 28.163 18.9553 28.163H20.0721C19.827 26.7627 19.7946 26.3615 19.7946 26.1852C19.7946 24.7838 20.9236 23.6423 22.3123 23.6423C22.9759 23.6423 23.6014 23.9011 24.0748 24.3701L24.0714 24.369ZM32.9395 30.4223C32.9395 31.6689 31.9358 32.6826 30.7015 32.6826C29.4673 32.6826 28.4635 31.6689 28.4635 30.4223C28.4635 29.1757 29.4673 28.1619 30.7015 28.1619C31.9358 28.1619 32.9395 29.1757 32.9395 30.4223ZM31.8205 30.4223C31.8205 29.7984 31.3181 29.2921 30.7015 29.2921C30.0849 29.2921 29.5825 29.7984 29.5825 30.4223C29.5825 31.0461 30.0849 31.5525 30.7015 31.5525C31.3181 31.5525 31.8205 31.0461 31.8205 30.4223ZM36.668 32.573C36.7811 33.0127 36.7173 33.4681 36.489 33.8592C36.2618 34.2491 35.8982 34.5271 35.464 34.6401C35.0309 34.7577 34.5777 34.691 34.1917 34.4604L33.9422 34.3124C33.4856 34.6966 32.9563 34.9973 32.38 35.2007V35.507C32.38 36.4416 31.6269 37.2023 30.7015 37.2023C29.7761 37.2023 29.023 36.4416 29.023 35.507V35.2007C28.4467 34.9973 27.9174 34.6966 27.4609 34.3124L27.2113 34.4604C26.8253 34.691 26.3732 34.7577 25.939 34.6401C25.5049 34.526 25.1412 34.2479 24.9129 33.858C24.6857 33.4681 24.622 33.0127 24.735 32.573C24.848 32.1345 25.1222 31.7672 25.5082 31.5378L25.7701 31.3818C25.6984 31.0439 25.6649 30.7319 25.6649 30.4211C25.6649 30.1103 25.6984 29.7984 25.7701 29.4594L25.5082 29.3034C25.1222 29.0751 24.8469 28.7078 24.7339 28.2681C24.6208 27.8296 24.6846 27.3742 24.9129 26.9831C25.1401 26.5932 25.5037 26.3152 25.9379 26.2022C26.3721 26.0869 26.8242 26.1524 27.2102 26.3819L27.4598 26.5299C27.9163 26.1457 28.4456 25.845 29.0219 25.6416V25.3353C29.0219 24.4006 29.775 23.64 30.7004 23.64C31.6258 23.64 32.3789 24.4006 32.3789 25.3353V25.6416C32.9552 25.845 33.4845 26.1457 33.941 26.5299L34.1906 26.3819C34.5766 26.1524 35.0298 26.0869 35.4629 26.2022C35.8971 26.3163 36.2607 26.5943 36.489 26.9842C36.7162 27.3742 36.7799 27.8296 36.6669 28.2681C36.5539 28.7078 36.2786 29.0751 35.8926 29.3045L35.6318 29.4594C35.7035 29.7984 35.737 30.1103 35.737 30.4211C35.737 30.7319 35.7035 31.0439 35.6318 31.3818L35.8926 31.5366C36.2798 31.7672 36.555 32.1345 36.6669 32.573H36.668ZM34.7042 28.701L35.3264 28.3314C35.455 28.2546 35.5468 28.1314 35.5837 27.9856C35.6218 27.8398 35.6005 27.6872 35.5244 27.5584C35.4483 27.4273 35.3264 27.3346 35.182 27.2973C35.0377 27.2589 34.8866 27.2804 34.7579 27.3572L34.1525 27.7166C33.9332 27.8477 33.6534 27.8127 33.4733 27.6296C32.9921 27.1413 32.3722 26.7899 31.6795 26.609C31.4322 26.5435 31.2599 26.3186 31.2599 26.062V25.3364C31.2599 25.0256 31.0092 24.7713 30.7004 24.7713C30.3916 24.7713 30.1409 25.0256 30.1409 25.3364V26.062C30.1409 26.3197 29.9686 26.5446 29.7213 26.609C29.0286 26.7899 28.4087 27.1425 27.9275 27.6296C27.7473 27.8127 27.4665 27.8477 27.2483 27.7166L26.6429 27.3572C26.5131 27.2815 26.3654 27.26 26.2188 27.2973C26.0744 27.3346 25.9536 27.4273 25.8775 27.5573C25.8014 27.6872 25.7801 27.8398 25.8182 27.9856C25.8551 28.1314 25.9469 28.2534 26.0755 28.3303L26.6988 28.701C26.9182 28.831 27.0233 29.0954 26.954 29.3418C26.8387 29.7498 26.785 30.0934 26.785 30.4211C26.785 30.7489 26.8387 31.0925 26.954 31.5005C27.0233 31.748 26.9193 32.0124 26.6988 32.1424L26.0767 32.5109C25.948 32.5866 25.8573 32.7098 25.8193 32.8567C25.7812 33.0025 25.8025 33.1551 25.8786 33.2839C25.9547 33.415 26.0767 33.5077 26.221 33.545C26.3665 33.5834 26.5153 33.5619 26.6451 33.4851L27.2505 33.1257C27.3389 33.0726 27.4374 33.0477 27.5336 33.0477C27.678 33.0477 27.8223 33.1042 27.9297 33.2127C28.4109 33.7009 29.0308 34.0524 29.7235 34.2333C29.9708 34.2988 30.1431 34.5237 30.1431 34.7803V35.5058C30.1431 35.8166 30.3938 36.0709 30.7026 36.0709C31.0115 36.0709 31.2621 35.8166 31.2621 35.5058V34.7803C31.2621 34.5226 31.4345 34.2977 31.6818 34.2333C32.3744 34.0524 32.9944 33.6998 33.4755 33.2127C33.6557 33.0296 33.9366 32.9934 34.1548 33.1257L34.7601 33.4851C34.8899 33.5619 35.0399 33.5834 35.1842 33.545C35.3286 33.5077 35.4495 33.415 35.5255 33.285C35.6016 33.1551 35.6229 33.0025 35.5849 32.8567C35.5468 32.7098 35.4562 32.5877 35.3275 32.5097L34.7053 32.1424C34.4849 32.0124 34.3797 31.7468 34.4502 31.5005C34.5654 31.0925 34.6191 30.7489 34.6191 30.4211C34.6191 30.0934 34.5654 29.7498 34.4502 29.3418C34.3808 29.0943 34.4837 28.831 34.7042 28.701Z" fill="white"/>
<defs>
<linearGradient id="paint0_linear_704_13314" x1="40.0793" y1="47.6894" x2="3.64745" y2="96.222" gradientUnits="userSpaceOnUse">
<stop stop-color="#9A2686"/>
<stop offset="1" stop-color="#293992"/>
</linearGradient>
</defs>
</svg>
