<svg width="49" height="49" viewBox="0 0 49 49" fill="none" xmlns="http://www.w3.org/2000/svg">
<rect y="48.6895" width="48.6892" height="48.6893" rx="24.3446" transform="rotate(-90 0 48.6895)" fill="url(#paint0_linear_704_13271)"/>
<path d="M33.9712 20.8594C33.8772 20.8594 33.7876 20.879 33.6958 20.8878L31.5346 16.9371C32.3454 16.3394 32.8786 15.3867 32.8786 14.3051C32.8786 12.4979 31.4079 11.0273 29.6007 11.0273C27.9804 11.0273 26.6397 12.2117 26.3786 13.7588H21.8978C21.6355 12.2117 20.296 11.0273 18.6757 11.0273C16.8685 11.0273 15.3978 12.4979 15.3978 14.3051C15.3978 15.3867 15.931 16.3405 16.7417 16.9371L14.5805 20.8878C14.4877 20.8801 14.3992 20.8594 14.3052 20.8594C12.498 20.8594 11.0273 22.33 11.0273 24.1371C11.0273 25.9442 12.498 27.4148 14.3052 27.4148C14.397 27.4148 14.4833 27.3951 14.5729 27.3875L16.7406 31.3382C15.9299 31.9359 15.3967 32.8886 15.3967 33.9702C15.3967 35.7773 16.8674 37.2479 18.6746 37.2479C20.2949 37.2479 21.6355 36.0636 21.8967 34.5165H26.3775C26.6397 36.0636 27.9793 37.2479 29.5996 37.2479C31.4068 37.2479 32.8775 35.7773 32.8775 33.9702C32.8775 32.8798 32.3366 31.9184 31.515 31.3218L33.7013 27.3875C33.792 27.3951 33.8783 27.4148 33.9701 27.4148C35.7773 27.4148 37.2479 25.9442 37.2479 24.1371C37.2479 22.33 35.7784 20.8594 33.9712 20.8594ZM29.6007 12.1188C30.8059 12.1188 31.7859 13.0989 31.7859 14.304C31.7859 15.5091 30.8059 16.4891 29.6007 16.4891C28.3956 16.4891 27.4155 15.5091 27.4155 14.304C27.4155 13.0989 28.3956 12.1188 29.6007 12.1188ZM18.6746 12.1188C19.8797 12.1188 20.8598 13.0989 20.8598 14.304C20.8598 15.5091 19.8797 16.4891 18.6746 16.4891C17.4694 16.4891 16.4893 15.5091 16.4893 14.304C16.4893 13.0989 17.4694 12.1188 18.6746 12.1188ZM12.1189 24.1371C12.1189 22.932 13.0989 21.952 14.3041 21.952C15.5093 21.952 16.4893 22.932 16.4893 24.1371C16.4893 25.3422 15.5093 26.3222 14.3041 26.3222C13.0989 26.3222 12.1189 25.3422 12.1189 24.1371ZM18.6746 36.1554C17.4694 36.1554 16.4893 35.1753 16.4893 33.9702C16.4893 32.7651 17.4694 31.7851 18.6746 31.7851C19.8797 31.7851 20.8598 32.7651 20.8598 33.9702C20.8598 35.1753 19.8797 36.1554 18.6746 36.1554ZM29.6007 36.1554C28.3956 36.1554 27.4155 35.1753 27.4155 33.9702C27.4155 32.7651 28.3956 31.7851 29.6007 31.7851C30.8059 31.7851 31.7859 32.7651 31.7859 33.9702C31.7859 35.1753 30.8059 36.1554 29.6007 36.1554ZM30.5305 30.8433C30.2333 30.7548 29.9252 30.6925 29.6007 30.6925C27.9804 30.6925 26.6397 31.8769 26.3786 33.4239H21.8978C21.6355 31.8769 20.296 30.6925 18.6757 30.6925C18.3413 30.6925 18.0245 30.7581 17.7207 30.8509L15.6677 27.1089C16.7953 26.5899 17.5841 25.4569 17.5841 24.136C17.5841 22.8151 16.7974 21.6865 15.6731 21.1664L17.7207 17.4222C18.0255 17.5161 18.3413 17.5806 18.6757 17.5806C20.296 17.5806 21.6366 16.3962 21.8978 14.8492H26.3786C26.6408 16.3962 27.9804 17.5806 29.6007 17.5806C29.9351 17.5806 30.2519 17.515 30.5557 17.4222L32.6032 21.1664C31.4789 21.6865 30.6922 22.8184 30.6922 24.136C30.6922 25.4536 31.48 26.5866 32.6054 27.1067L30.5294 30.8422L30.5305 30.8433ZM33.9712 26.3222C32.766 26.3222 31.7859 25.3422 31.7859 24.1371C31.7859 22.932 32.766 21.952 33.9712 21.952C35.1763 21.952 36.1564 22.932 36.1564 24.1371C36.1564 25.3422 35.1763 26.3222 33.9712 26.3222ZM24.1376 21.952C22.9325 21.952 21.9524 22.932 21.9524 24.1371C21.9524 25.3422 22.9325 26.3222 24.1376 26.3222C25.3428 26.3222 26.3229 25.3422 26.3229 24.1371C26.3229 22.932 25.3428 21.952 24.1376 21.952ZM24.1376 25.2297C23.5345 25.2297 23.045 24.7391 23.045 24.1371C23.045 23.5351 23.5345 23.0445 24.1376 23.0445C24.7408 23.0445 25.2303 23.5351 25.2303 24.1371C25.2303 24.7391 24.7408 25.2297 24.1376 25.2297ZM29.4871 22.3158C29.5953 21.8919 29.5319 21.4505 29.309 21.0757C28.8479 20.2989 27.8405 20.04 27.0626 20.501L26.7774 20.6704C26.4726 20.4387 26.1382 20.2497 25.7766 20.1044V19.7679C25.7766 18.8643 25.0412 18.129 24.1376 18.129C23.234 18.129 22.4987 18.8643 22.4987 19.7679V20.1044C22.1371 20.2497 21.8027 20.4387 21.4979 20.6704L21.2127 20.501C20.4348 20.04 19.4274 20.2989 18.9674 21.0757C18.7434 21.4516 18.68 21.893 18.7882 22.3169C18.8975 22.7419 19.1641 23.0981 19.541 23.322L19.8229 23.4881C19.7847 23.7154 19.7661 23.9273 19.7661 24.1382C19.7661 24.3491 19.7847 24.5621 19.8229 24.7883L19.541 24.9543C19.1641 25.1772 18.8964 25.5345 18.7882 25.9584C18.68 26.3834 18.7434 26.8237 18.9663 27.1996C19.1892 27.5765 19.5454 27.8442 19.9704 27.9523C20.3954 28.0594 20.8358 27.996 21.2127 27.7743L21.4979 27.606C21.8027 27.8365 22.1371 28.0266 22.4987 28.172V28.5085C22.4987 29.412 23.234 30.1473 24.1376 30.1473C25.0412 30.1473 25.7766 29.412 25.7766 28.5085V28.172C26.1382 28.0266 26.4726 27.8365 26.7774 27.606L27.0626 27.7732C27.4395 27.9971 27.8809 28.0594 28.3049 27.9523C28.7299 27.8431 29.0861 27.5754 29.3079 27.2007C29.5319 26.8237 29.5953 26.3834 29.4871 25.9584C29.3778 25.5334 29.1101 25.1772 28.7343 24.9543L28.4524 24.7883C28.4906 24.561 28.5092 24.3491 28.5092 24.1382C28.5092 23.9273 28.4906 23.7143 28.4524 23.4881L28.7343 23.322C29.1123 23.0981 29.3789 22.7408 29.4871 22.3158ZM27.4155 24.1371C27.4155 24.3775 27.3816 24.6277 27.3062 24.927C27.2483 25.1608 27.351 25.4056 27.5575 25.529L28.1749 25.895C28.3005 25.9682 28.3901 26.0884 28.4262 26.2294C28.4611 26.3714 28.4415 26.5178 28.365 26.6434C28.2918 26.7691 28.1716 26.8587 28.0306 26.8947C27.8886 26.9275 27.7411 26.9089 27.6165 26.8336L27.0003 26.4686C26.7938 26.3463 26.5294 26.3736 26.3513 26.5364C25.9896 26.8707 25.558 27.1133 25.0696 27.2607C24.8391 27.3296 24.6818 27.5426 24.6818 27.7841V28.5074C24.6818 28.8078 24.4359 29.0537 24.1355 29.0537C23.835 29.0537 23.5891 28.8078 23.5891 28.5074V27.7841C23.5891 27.5426 23.4307 27.3307 23.2013 27.2607C22.7129 27.1133 22.2813 26.8707 21.9196 26.5364C21.8158 26.4413 21.6825 26.3922 21.5492 26.3922C21.4531 26.3922 21.3569 26.4162 21.2706 26.4675L20.6544 26.8336C20.5298 26.9068 20.3812 26.9264 20.2403 26.8936C20.0993 26.8576 19.9802 26.768 19.9048 26.6413C19.8305 26.5167 19.8098 26.3703 19.8448 26.2283C19.8808 26.0873 19.9704 25.9682 20.0961 25.8939L20.7134 25.5279C20.9199 25.4056 21.0226 25.1608 20.9647 24.9259C20.8904 24.6277 20.8554 24.3764 20.8554 24.136C20.8554 23.8956 20.8893 23.6454 20.9647 23.3461C21.0226 23.1123 20.9199 22.8675 20.7134 22.7441L20.0961 22.3791C19.9704 22.3049 19.8808 22.1858 19.8448 22.0437C19.8098 21.9028 19.8295 21.7564 19.9059 21.6307C20.0589 21.3707 20.3922 21.2844 20.6544 21.4384L21.2706 21.8045C21.4771 21.9268 21.7415 21.8995 21.9196 21.7367C22.2813 21.4035 22.7129 21.1598 23.2002 21.0134C23.4318 20.9446 23.5891 20.7316 23.5891 20.4901V19.7657C23.5891 19.4642 23.835 19.2194 24.1355 19.2194C24.4359 19.2194 24.6818 19.4642 24.6818 19.7657V20.4901C24.6818 20.7316 24.8402 20.9446 25.0707 21.0134C25.558 21.1598 25.9896 21.4035 26.3513 21.7367C26.5294 21.9006 26.7927 21.929 27.0003 21.8045L27.6165 21.4384C27.8722 21.2866 28.2109 21.3707 28.3661 21.6307C28.4404 21.7564 28.4611 21.9028 28.4262 22.0437C28.3901 22.1847 28.3005 22.3038 28.1749 22.3791L27.5575 22.7441C27.351 22.8664 27.2483 23.1112 27.3062 23.3461C27.3805 23.6443 27.4155 23.8956 27.4155 24.136V24.1371Z" fill="white"/>
<defs>
<linearGradient id="paint0_linear_704_13271" x1="40.9197" y1="48.6894" x2="3.72393" y2="98.2396" gradientUnits="userSpaceOnUse">
<stop stop-color="#9A2686"/>
<stop offset="1" stop-color="#293992"/>
</linearGradient>
</defs>
</svg>
