<svg width="42" height="39" viewBox="0 0 42 39" fill="none" xmlns="http://www.w3.org/2000/svg">
<path d="M35 9.615V7.15398C35 3.21729 31.4667 0.0136719 27.125 0.0136719H14.875C10.5333 0.0136719 7 3.21729 7 7.15398V9.615C3.073 10.0149 0 13.009 0 16.6744V30.955C0 34.8917 3.53325 38.0953 7.875 38.0953H34.125C38.4667 38.0953 42 34.8917 42 30.955V16.6744C42 13.009 38.927 10.0149 35 9.615ZM1.75 30.955V16.6744C1.75 13.8849 4.039 11.5905 7 11.2017V36.4292C4.039 36.0405 1.75 33.7445 1.75 30.955ZM8.75 7.15398C8.75 4.09158 11.4975 1.60041 14.875 1.60041H27.125C30.5025 1.60041 33.25 4.09158 33.25 7.15398V36.5086H8.75V7.15398ZM40.25 30.955C40.25 33.7445 37.961 36.0389 35 36.4276V11.2017C37.961 11.5905 40.25 13.8849 40.25 16.6744V30.955ZM19.25 23.0213C19.25 23.4593 18.858 23.8147 18.375 23.8147H14.875C14.392 23.8147 14 23.4593 14 23.0213C14 22.5834 14.392 22.228 14.875 22.228H18.375C18.858 22.228 19.25 22.5834 19.25 23.0213ZM28 23.0213C28 23.4593 27.608 23.8147 27.125 23.8147H23.625C23.142 23.8147 22.75 23.4593 22.75 23.0213C22.75 22.5834 23.142 22.228 23.625 22.228H27.125C27.608 22.228 28 22.5834 28 23.0213ZM19.25 29.3683C19.25 29.8062 18.858 30.1616 18.375 30.1616H14.875C14.392 30.1616 14 29.8062 14 29.3683C14 28.9303 14.392 28.5749 14.875 28.5749H18.375C18.858 28.5749 19.25 28.9303 19.25 29.3683ZM28 29.3683C28 29.8062 27.608 30.1616 27.125 30.1616H23.625C23.142 30.1616 22.75 29.8062 22.75 29.3683C22.75 28.9303 23.142 28.5749 23.625 28.5749H27.125C27.608 28.5749 28 28.9303 28 29.3683ZM21.875 11.9142V15.0877C21.875 15.5256 21.483 15.881 21 15.881C20.517 15.881 20.125 15.5256 20.125 15.0877V11.9142H16.625C16.142 11.9142 15.75 11.5588 15.75 11.1208C15.75 10.6829 16.142 10.3274 16.625 10.3274H20.125V7.15398C20.125 6.71604 20.517 6.36061 21 6.36061C21.483 6.36061 21.875 6.71604 21.875 7.15398V10.3274H25.375C25.858 10.3274 26.25 10.6829 26.25 11.1208C26.25 11.5588 25.858 11.9142 25.375 11.9142H21.875Z" fill="white"/>
</svg>
