<svg width="50" height="50" viewBox="0 0 50 50" fill="none" xmlns="http://www.w3.org/2000/svg">
<rect y="49.6895" width="49.6892" height="49.6893" rx="24.8446" transform="rotate(-90 0 49.6895)" fill="url(#paint0_linear_704_13284)"/>
<path d="M30.3082 12.5039C30.0235 12.5039 29.7924 12.735 29.7924 13.0197C29.7924 16.5726 27.2856 18.6936 23.0869 18.6936H15.8655C13.8745 18.6936 12.2549 20.3133 12.2549 22.3043V24.3675C12.2549 25.5621 12.8377 26.6226 13.7353 27.2808L17.4573 35.5895C17.9092 36.6056 18.9191 37.2628 20.0323 37.2628C20.9019 37.2628 21.7045 36.8274 22.1791 36.097C22.6526 35.3677 22.7248 34.4568 22.3699 33.6572L19.7651 27.9782H23.0879C27.2866 27.9782 29.7934 30.0992 29.7934 33.6521C29.7934 33.9368 30.0245 34.1679 30.3092 34.1679C30.594 34.1679 30.825 33.9368 30.825 33.6521V13.0197C30.825 12.735 30.5929 12.5039 30.3082 12.5039ZM21.4291 34.0812C21.6436 34.563 21.6013 35.0922 21.3146 35.5348C21.0267 35.9774 20.5604 36.2311 20.0323 36.2311C19.3266 36.2311 18.686 35.8154 18.3992 35.1696L15.1444 27.906C15.3776 27.9534 15.619 27.9782 15.8655 27.9782H18.6293L21.4291 34.0812ZM29.7924 29.9403C28.5369 28.036 26.1962 26.9466 23.0869 26.9466H15.8655C14.444 26.9466 13.2865 25.7901 13.2865 24.3675V22.3043C13.2865 20.8817 14.444 19.7252 15.8655 19.7252H23.0869C26.1962 19.7252 28.5369 18.6348 29.7924 16.7315V29.9403ZM36.9591 28.724C36.8683 28.9046 36.6857 29.0088 36.4979 29.0088C36.4205 29.0088 36.3421 28.9912 36.2668 28.9541L34.2036 27.9225C33.9488 27.7946 33.8456 27.4851 33.9725 27.2303C34.1015 26.9755 34.4099 26.8733 34.6647 26.9992L36.728 28.0308C36.9828 28.1587 37.0859 28.4692 36.9591 28.724ZM33.9725 19.4395C33.8456 19.1847 33.9488 18.8752 34.2036 18.7473L36.2668 17.7156C36.5216 17.5888 36.8311 17.6919 36.9591 17.9467C37.0859 18.2015 36.9828 18.511 36.728 18.6389L34.6647 19.6706C34.5905 19.7077 34.5121 19.7252 34.4337 19.7252C34.2449 19.7252 34.0633 19.619 33.9725 19.4395ZM33.9178 23.3349C33.9178 23.0501 34.1489 22.8191 34.4337 22.8191H36.4969C36.7816 22.8191 37.0127 23.0501 37.0127 23.3349C37.0127 23.6196 36.7816 23.8507 36.4969 23.8507H34.4337C34.1489 23.8507 33.9178 23.6196 33.9178 23.3349Z" fill="white"/>
<defs>
<linearGradient id="paint0_linear_704_13284" x1="41.7601" y1="49.6894" x2="3.80042" y2="100.257" gradientUnits="userSpaceOnUse">
<stop stop-color="#9A2686"/>
<stop offset="1" stop-color="#293992"/>
</linearGradient>
</defs>
</svg>
