<svg width="42" height="42" viewBox="0 0 42 42" fill="none" xmlns="http://www.w3.org/2000/svg">
<path d="M35 10.5892V5.25H37.625C40.0382 5.25 42 3.2865 42 0.875C42 0.392 41.608 0 41.125 0C40.642 0 40.25 0.392 40.25 0.875C40.25 2.32225 39.0723 3.5 37.625 3.5H1.75V0.875C1.75 0.392 1.358 0 0.875 0C0.392 0 0 0.392 0 0.875V41.125C0 41.608 0.392 42 0.875 42C1.358 42 1.75 41.608 1.75 41.125V5.25H12.25V10.5892C8.323 11.0302 5.25 14.3325 5.25 18.375V34.125C5.25 38.4668 8.78325 42 13.125 42H34.125C38.4668 42 42 38.4668 42 34.125V18.375C42 14.3325 38.927 11.0302 35 10.5892ZM33.25 5.25V10.5H14V5.25H33.25ZM40.25 34.125C40.25 37.5025 37.5025 40.25 34.125 40.25H13.125C9.7475 40.25 7 37.5025 7 34.125V18.375C7 14.9975 9.7475 12.25 13.125 12.25H34.125C37.5025 12.25 40.25 14.9975 40.25 18.375V34.125ZM34.125 31.5H33.25V30.625C33.25 25.613 29.3982 21.4882 24.5 21.0437V20.125C24.5 19.642 24.108 19.25 23.625 19.25C23.142 19.25 22.75 19.642 22.75 20.125V21.0437C17.8517 21.4882 14 25.613 14 30.625V31.5H13.125C12.642 31.5 12.25 31.892 12.25 32.375C12.25 32.858 12.642 33.25 13.125 33.25H34.125C34.608 33.25 35 32.858 35 32.375C35 31.892 34.608 31.5 34.125 31.5ZM15.75 30.625C15.75 26.2832 19.2833 22.75 23.625 22.75C27.9667 22.75 31.5 26.2832 31.5 30.625V31.5H15.75V30.625Z" fill="white"/>
</svg>
