<svg width="49" height="49" viewBox="0 0 49 49" fill="none" xmlns="http://www.w3.org/2000/svg">
<rect y="49" width="49" height="49" rx="24.5" transform="rotate(-90 0 49)" fill="url(#paint0_linear_704_13274)"/>
<path d="M36.2519 14.8177V19.303C36.2519 19.5781 36.0286 19.8014 35.7535 19.8014C35.4784 19.8014 35.2551 19.5781 35.2551 19.303V14.8177C35.2551 14.732 35.2262 14.6542 35.2063 14.5745L30.1259 19.6549C30.0282 19.7526 29.9006 19.8004 29.773 19.8004C29.6455 19.8004 29.5179 19.7516 29.4202 19.6549C29.2258 19.4605 29.2258 19.1446 29.4202 18.9502L34.5006 13.8698C34.4208 13.8489 34.3441 13.821 34.2574 13.821H29.772C29.4969 13.821 29.2737 13.5977 29.2737 13.3226C29.2737 13.0475 29.4969 12.8242 29.772 12.8242H34.2574C35.3568 12.8242 36.2519 13.7183 36.2519 14.8177ZM35.7635 24.8619C35.4943 24.823 35.2551 25.0602 35.2422 25.3353C34.9541 31.1742 30.1448 35.7493 24.292 35.7493C18.2467 35.7493 13.3278 30.8303 13.3278 24.7851C13.3268 18.8954 17.9328 14.0841 23.8135 13.8319C24.0876 13.819 24.3019 13.5877 24.291 13.3126C24.278 13.0385 24.0817 12.8212 23.7717 12.8352C17.3556 13.1103 12.3301 18.3601 12.3301 24.7851C12.3301 31.3805 17.6955 36.746 24.291 36.746C30.6751 36.746 35.9229 31.7553 36.2359 25.3841C36.2499 25.11 36.0386 24.8758 35.7625 24.8629L35.7635 24.8619ZM23.7926 18.3063V19.8014H22.7909C21.4194 19.8014 20.304 20.9168 20.304 22.2883C20.304 23.3927 21.0456 24.3764 22.1081 24.6785L26.2007 25.8486C26.8366 26.031 27.2812 26.6191 27.2812 27.2819C27.2812 28.1033 26.6124 28.7721 25.7911 28.7721H22.7909C21.9696 28.7721 21.3007 28.1033 21.3007 27.2819V26.7786C21.3007 26.5035 21.0775 26.2802 20.8024 26.2802C20.5273 26.2802 20.304 26.5035 20.304 26.7786V27.2819C20.304 28.6535 21.4194 29.7688 22.7909 29.7688H23.7926V31.2639C23.7926 31.539 24.0159 31.7623 24.291 31.7623C24.5661 31.7623 24.7893 31.539 24.7893 31.2639V29.7688H25.7911C27.1626 29.7688 28.2779 28.6535 28.2779 27.2819C28.2779 26.1776 27.5364 25.1938 26.4738 24.8918L22.3812 23.7216C21.7453 23.5392 21.3007 22.9511 21.3007 22.2883C21.3007 21.467 21.9696 20.7981 22.7909 20.7981H25.7911C26.6124 20.7981 27.2812 21.467 27.2812 22.2883V22.7916C27.2812 23.0667 27.5045 23.29 27.7796 23.29C28.0547 23.29 28.2779 23.0667 28.2779 22.7916V22.2883C28.2779 20.9168 27.1626 19.8014 25.7911 19.8014H24.7893V18.3063C24.7893 18.0312 24.5661 17.8079 24.291 17.8079C24.0159 17.8079 23.7926 18.0312 23.7926 18.3063Z" fill="white"/>
<defs>
<linearGradient id="paint0_linear_704_13274" x1="41.1808" y1="49" x2="3.7477" y2="98.8664" gradientUnits="userSpaceOnUse">
<stop stop-color="#9A2686"/>
<stop offset="1" stop-color="#293992"/>
</linearGradient>
</defs>
</svg>
