<svg width="43" height="43" viewBox="0 0 43 43" fill="none" xmlns="http://www.w3.org/2000/svg">
<path d="M42.1043 0C41.6099 0 41.2086 0.401333 41.2086 0.895833V3.58333H27.7734C26.2919 3.58333 25.0863 4.78912 25.0863 6.27083V12.5417H17.9208V6.27083C17.9208 5.77633 18.3221 5.375 18.8165 5.375H20.6079C21.1023 5.375 21.5036 4.97367 21.5036 4.47917C21.5036 3.98467 21.1023 3.58333 20.6079 3.58333H18.8165C17.3351 3.58333 16.1295 4.78912 16.1295 6.27083V12.5417H12.9856C8.36569 12.5417 5.38127 15.2148 5.38127 19.35V20.6042C5.38127 22.0859 6.58686 23.2917 8.06832 23.2917H8.96401V31.3542C8.96401 33.8231 10.9739 35.8333 13.4424 35.8333H29.5647C32.0332 35.8333 34.0432 33.8231 34.0432 31.3542V23.2917H34.9388C36.4203 23.2917 37.6259 22.0859 37.6259 20.6042V19.35C37.6259 15.2148 34.6397 12.5417 30.0215 12.5417H26.8777V6.27083C26.8777 5.77633 27.279 5.375 27.7734 5.375H41.2086V42.1042C41.2086 42.5987 41.6099 43 42.1043 43C42.5987 43 43 42.5987 43 42.1042V0.895833C43 0.401333 42.5987 0 42.1043 0ZM15.1926 15.9745C14.2826 15.7237 13.5051 15.1396 13.0394 14.3333H16.4931C15.9575 14.7974 15.5365 15.3564 15.1926 15.9745ZM29.0649 14.3333C28.4398 15.4191 27.2861 16.125 25.982 16.125C24.6779 16.125 23.5242 15.4191 22.8991 14.3333H29.0649ZM10.7554 31.3542V22.3958C10.7554 21.9013 10.3541 21.5 9.85969 21.5H8.06832C7.5739 21.5 7.17264 21.0987 7.17264 20.6042V19.35C7.17264 16.0766 9.37065 14.93 11.1513 14.5358C11.7496 16.0318 13 17.1821 14.5387 17.664C14.4187 18.1962 14.3381 18.7534 14.3381 19.35V20.6042C14.3381 22.0859 15.5437 23.2917 17.0252 23.2917H17.9208V31.3542C17.9208 32.3665 18.2702 33.291 18.8398 34.0417H13.4424C11.961 34.0417 10.7554 32.8359 10.7554 31.3542ZM35.8345 19.35V20.6042C35.8345 21.0987 35.4333 21.5 34.9388 21.5H33.1475C32.6531 21.5 32.2518 21.9013 32.2518 22.3958V31.3542C32.2518 32.8359 31.0462 34.0417 29.5647 34.0417H22.3993C20.9178 34.0417 19.7122 32.8359 19.7122 31.3542V22.3958C19.7122 21.9013 19.3109 21.5 18.8165 21.5H17.0252C16.5307 21.5 16.1295 21.0987 16.1295 20.6042V19.35C16.1295 15.5212 19.1372 14.5985 20.9644 14.3907C21.7311 16.4905 23.7034 17.9167 25.982 17.9167C28.2606 17.9167 30.2329 16.4905 30.9996 14.3907C32.8268 14.5985 35.8345 15.5212 35.8345 19.35ZM1.79137 5.375V42.1042C1.79137 42.5987 1.3901 43 0.895684 43C0.401266 43 0 42.5987 0 42.1042V0.895833C0 0.401333 0.401266 0 0.895684 0C1.3901 0 1.79137 0.401333 1.79137 0.895833V3.58333H11.6511C12.1455 3.58333 12.5467 3.98467 12.5467 4.47917C12.5467 4.97367 12.1455 5.375 11.6511 5.375H1.79137Z" fill="white"/>
</svg>
