<svg width="43" height="43" viewBox="0 0 43 43" fill="none" xmlns="http://www.w3.org/2000/svg">
<rect y="42.5293" width="42.53" height="42.53" rx="21.265" transform="rotate(-90 0 42.5293)" fill="url(#paint0_linear_704_10833)"/>
<path d="M24.0204 19.4178C24.8194 20.2176 25.8836 20.6582 27.0156 20.6582C28.1476 20.6582 29.2118 20.2176 30.0108 19.4178C31.641 17.7885 31.6681 15.1408 30.076 13.2591C30.0727 13.2557 30.0701 13.2523 30.0667 13.2489L27.9087 10.8562C27.7155 10.6682 27.4825 10.4902 27.0148 10.4902C26.5928 10.4902 26.3132 10.6682 26.1031 10.8757L23.9543 13.2582C22.3623 15.14 22.3894 17.7877 24.0196 19.4169L24.0204 19.4178ZM24.5932 13.8157L26.6801 11.5154C26.8089 11.3739 26.9317 11.3316 27.0359 11.3316C27.1402 11.3316 27.2376 11.3909 27.3613 11.5095L29.4338 13.8115C30.7352 15.3535 30.7259 17.5055 29.4126 18.8188C28.1332 20.099 25.8997 20.099 24.6203 18.8188C23.3045 17.5038 23.2968 15.3493 24.594 13.8166L24.5932 13.8157ZM21.5082 25.7019V28.4258C21.5082 29.174 21.1684 29.8662 20.5745 30.3245C20.1491 30.6533 19.6407 30.8253 19.1205 30.8253C18.9197 30.8253 18.718 30.7998 18.5181 30.7482C14.0427 29.584 10.917 25.4808 10.917 20.6582C10.917 20.2761 10.9382 19.8872 10.9805 19.5025C11.4965 14.8333 15.2594 11.0706 19.9288 10.5546C20.3152 10.5123 20.7041 10.4911 21.0845 10.4911C22.0166 10.4911 22.6419 10.5877 23.2943 10.7317C23.5231 10.7825 23.6663 11.0088 23.6163 11.2367C23.5663 11.4646 23.3502 11.6086 23.1104 11.5586C22.4944 11.4222 21.9412 11.3375 21.0837 11.3375C20.7338 11.3375 20.3762 11.357 20.0203 11.396C15.7432 11.8696 12.2955 15.3171 11.8228 19.5949C11.7838 19.949 11.7643 20.3066 11.7643 20.6582C11.7643 25.0495 14.6298 28.8613 18.7324 29.928C19.1951 30.0492 19.6772 29.9484 20.0568 29.6544C20.4414 29.357 20.6609 28.9096 20.6609 28.4258V25.6985C18.5257 25.4825 16.8481 23.6956 16.8481 21.5054V19.8109H16.4244C16.1906 19.8109 16.0008 19.6211 16.0008 19.3873C16.0008 19.1534 16.1906 18.9637 16.4244 18.9637H18.5427V15.9983C18.5427 15.7644 18.7324 15.5746 18.9663 15.5746C19.2002 15.5746 19.39 15.7644 19.39 15.9983V18.9637H21.5082C21.742 18.9637 21.9318 19.1534 21.9318 19.3873C21.9318 19.6211 21.742 19.8109 21.5082 19.8109H17.6954V21.5054C17.6954 23.3745 19.2154 24.8945 21.0845 24.8945C22.8147 24.8945 24.2627 23.5999 24.4534 21.8825C24.4788 21.6503 24.6881 21.4809 24.9211 21.508C25.1533 21.5334 25.3219 21.7435 25.2956 21.9757C25.0736 23.9786 23.4773 25.5045 21.5082 25.7019ZM31.1665 21.9833C30.659 25.8697 27.9163 29.1519 24.1789 30.3457C23.9611 30.416 23.7171 30.2957 23.6459 30.0704C23.5747 29.8475 23.6985 29.6094 23.9204 29.5383C27.3469 28.4445 29.8617 25.4367 30.326 21.8748C30.3565 21.6427 30.5726 21.4783 30.8013 21.5097C31.0335 21.5402 31.197 21.7528 31.1674 21.9841L31.1665 21.9833Z" fill="white"/>
<defs>
<linearGradient id="paint0_linear_704_10833" x1="35.7433" y1="42.5293" x2="3.25285" y2="85.8114" gradientUnits="userSpaceOnUse">
<stop stop-color="#9A2686"/>
<stop offset="1" stop-color="#293992"/>
</linearGradient>
</defs>
</svg>
