<svg width="44" height="44" viewBox="0 0 44 44" fill="none" xmlns="http://www.w3.org/2000/svg">
<rect y="43.6895" width="43.6892" height="43.6893" rx="21.8446" transform="rotate(-90 0 43.6895)" fill="url(#paint0_linear_704_10839)"/>
<path d="M25.8733 23.1332C25.8733 23.4174 25.6435 23.648 25.3603 23.648H18.1773C17.8941 23.648 17.6642 23.4174 17.6642 23.1332C17.6642 22.8491 17.8941 22.6185 18.1773 22.6185H25.3603C25.6435 22.6185 25.8733 22.8491 25.8733 23.1332ZM34.0825 15.9269V27.2511C34.0825 29.8052 32.0107 31.8837 29.4648 31.8837H14.0727C11.5269 31.8837 9.45508 29.8052 9.45508 27.2511V13.868C9.45508 11.3139 11.5269 9.23535 14.0727 9.23535H17.1799C17.576 9.23535 17.972 9.32903 18.3261 9.50713L21.5646 11.1316C21.777 11.2387 22.014 11.2943 22.2521 11.2943H29.4638C32.0097 11.2943 34.0825 13.3728 34.0825 15.9269ZM10.4812 13.868V15.4122H33.0194C32.77 13.6683 31.2708 12.3238 29.4648 12.3238H22.2531C21.857 12.3238 21.4609 12.2301 21.1069 12.052L17.8684 10.4275C17.656 10.3204 17.419 10.2648 17.1809 10.2648H14.0737C12.0933 10.2648 10.4822 11.8811 10.4822 13.868H10.4812ZM33.0563 27.2511V16.4417H10.4812V27.2511C10.4812 29.238 12.0923 30.8543 14.0727 30.8543H29.4648C31.4453 30.8543 33.0563 29.238 33.0563 27.2511Z" fill="white"/>
<defs>
<linearGradient id="paint0_linear_704_10839" x1="36.7176" y1="43.6894" x2="3.34151" y2="88.1512" gradientUnits="userSpaceOnUse">
<stop stop-color="#9A2686"/>
<stop offset="1" stop-color="#293992"/>
</linearGradient>
</defs>
</svg>
