<svg width="44" height="43" viewBox="0 0 44 43" fill="none" xmlns="http://www.w3.org/2000/svg">
<rect x="0.5" y="43" width="43" height="43" rx="21.5" transform="rotate(-90 0.5 43)" fill="url(#paint0_linear_704_10827)"/>
<path d="M22.2038 21.9738C22.4026 22.1704 22.4056 22.4935 22.2109 22.6942C22.0141 22.894 21.6963 22.896 21.4976 22.7003C21.2615 22.467 20.9477 22.3376 20.6147 22.3376C19.9195 22.3376 19.3535 22.9092 19.3535 23.6114C19.3535 23.7357 19.3979 24.1851 19.6945 25.8115C19.7218 25.9603 19.6824 26.1142 19.5866 26.2303C19.4907 26.3455 19.3484 26.4138 19.1991 26.4138H17.5888C15.6415 26.4138 14.0574 24.8139 14.0574 22.8471V21.8301C12.8083 22.0543 12.4501 22.0828 12.2917 22.0828C11.0395 22.0828 10.0215 21.0535 10.0215 19.7899C10.0215 18.5263 11.0395 17.497 12.2917 17.497C12.4501 17.497 12.8083 17.5256 14.0574 17.7498V16.7328C14.0574 14.766 15.6415 13.1661 17.5888 13.1661H18.5957C18.3748 11.9035 18.3455 11.5417 18.3455 11.3827C18.3455 10.1191 19.3636 9.08984 20.6157 9.08984C21.8678 9.08984 22.8859 10.1191 22.8859 11.3827C22.8859 11.5417 22.8577 11.9035 22.6357 13.1661H23.6426C25.59 13.1661 27.174 14.766 27.174 16.7328V19.7899C27.174 20.0712 26.948 20.2994 26.6696 20.2994C26.3911 20.2994 26.1651 20.0712 26.1651 19.7899V16.7328C26.1651 15.3275 25.033 14.1851 23.6426 14.1851H22.0323C21.883 14.1851 21.7407 14.1179 21.6449 14.0017C21.549 13.8855 21.5097 13.7316 21.5369 13.5829C21.8335 11.9564 21.8779 11.507 21.8779 11.3827C21.8779 10.6806 21.3119 10.1089 20.6167 10.1089C19.9215 10.1089 19.3555 10.6806 19.3555 11.3827C19.3555 11.507 19.3999 11.9564 19.6965 13.5829C19.7238 13.7316 19.6844 13.8855 19.5886 14.0017C19.4927 14.1168 19.3505 14.1851 19.2011 14.1851H17.5908C16.2004 14.1851 15.0684 15.3275 15.0684 16.7328V18.3602C15.0684 18.511 15.0018 18.6547 14.8868 18.7525C14.7717 18.8493 14.6204 18.8891 14.4721 18.8605C12.8042 18.5497 12.3926 18.5161 12.2937 18.5161C11.5985 18.5161 11.0325 19.0878 11.0325 19.7899C11.0325 20.492 11.5985 21.0637 12.2937 21.0637C12.3936 21.0637 12.8042 21.0301 14.4721 20.7193C14.6214 20.6918 14.7717 20.7315 14.8868 20.8273C15.0018 20.9251 15.0684 21.0678 15.0684 21.2197V22.8471C15.0684 24.2524 16.2004 25.3947 17.5908 25.3947H18.5978C18.3768 24.1321 18.3475 23.7703 18.3475 23.6114C18.3475 22.3477 19.3656 21.3185 20.6177 21.3185C21.2161 21.3185 21.7801 21.5519 22.2069 21.9748L22.2038 21.9738ZM30.2 27.4318C30.2 28.5558 29.2949 29.4699 28.182 29.4699C27.0691 29.4699 26.1641 28.5558 26.1641 27.4318C26.1641 26.3078 27.0691 25.3937 28.182 25.3937C29.2949 25.3937 30.2 26.3078 30.2 27.4318ZM29.191 27.4318C29.191 26.8693 28.738 26.4128 28.182 26.4128C27.6261 26.4128 27.173 26.8693 27.173 27.4318C27.173 27.9943 27.6261 28.4509 28.182 28.4509C28.738 28.4509 29.191 27.9943 29.191 27.4318ZM33.5619 29.3711C33.6638 29.7675 33.6063 30.1782 33.4004 30.5308C33.1956 30.8823 32.8677 31.133 32.4762 31.2349C32.0857 31.3409 31.6771 31.2808 31.329 31.0729L31.104 30.9394C30.6923 31.2859 30.2151 31.5569 29.6955 31.7404V32.0165C29.6955 32.8593 29.0164 33.5451 28.182 33.5451C27.3476 33.5451 26.6685 32.8593 26.6685 32.0165V31.7404C26.1489 31.5569 25.6717 31.2859 25.26 30.9394L25.035 31.0729C24.6869 31.2808 24.2793 31.3409 23.8878 31.2349C23.4963 31.132 23.1684 30.8813 22.9626 30.5297C22.7578 30.1782 22.7003 29.7675 22.8022 29.3711C22.9041 28.9757 23.1513 28.6445 23.4994 28.4376L23.7355 28.297C23.6709 27.9923 23.6406 27.711 23.6406 27.4308C23.6406 27.1506 23.6709 26.8693 23.7355 26.5636L23.4994 26.4229C23.1513 26.2171 22.9031 25.8859 22.8011 25.4895C22.6992 25.0941 22.7568 24.6834 22.9626 24.3308C23.1674 23.9793 23.4953 23.7286 23.8868 23.6267C24.2783 23.5227 24.6859 23.5818 25.034 23.7887L25.259 23.9222C25.6707 23.5757 26.1479 23.3046 26.6675 23.1212V22.845C26.6675 22.0023 27.3466 21.3165 28.181 21.3165C29.0154 21.3165 29.6945 22.0023 29.6945 22.845V23.1212C30.2141 23.3046 30.6913 23.5757 31.103 23.9222L31.328 23.7887C31.6761 23.5818 32.0847 23.5227 32.4752 23.6267C32.8667 23.7296 33.1946 23.9803 33.4004 24.3318C33.6052 24.6834 33.6628 25.0941 33.5608 25.4895C33.4589 25.8859 33.2107 26.2171 32.8626 26.424L32.6275 26.5636C32.6921 26.8693 32.7224 27.1506 32.7224 27.4308C32.7224 27.711 32.6921 27.9923 32.6275 28.297L32.8626 28.4366C33.2117 28.6445 33.4599 28.9757 33.5608 29.3711H33.5619ZM31.7911 25.8798L32.3521 25.5466C32.4681 25.4773 32.5509 25.3662 32.5842 25.2347C32.6185 25.1033 32.5993 24.9657 32.5307 24.8495C32.4621 24.7313 32.3521 24.6477 32.2219 24.6141C32.0918 24.5795 31.9556 24.5988 31.8395 24.6681L31.2937 24.9922C31.0959 25.1104 30.8437 25.0788 30.6812 24.9137C30.2474 24.4735 29.6884 24.1566 29.0639 23.9935C28.8409 23.9344 28.6855 23.7316 28.6855 23.5003V22.8461C28.6855 22.5658 28.4595 22.3365 28.181 22.3365C27.9025 22.3365 27.6765 22.5658 27.6765 22.8461V23.5003C27.6765 23.7326 27.5211 23.9354 27.2981 23.9935C26.6736 24.1566 26.1146 24.4745 25.6808 24.9137C25.5183 25.0788 25.2651 25.1104 25.0683 24.9922L24.5225 24.6681C24.4054 24.5999 24.2722 24.5805 24.1401 24.6141C24.0099 24.6477 23.9009 24.7313 23.8323 24.8485C23.7637 24.9657 23.7445 25.1033 23.7788 25.2347C23.8121 25.3662 23.8949 25.4762 24.0109 25.5455L24.5729 25.8798C24.7707 25.997 24.8655 26.2354 24.803 26.4576C24.699 26.8255 24.6506 27.1353 24.6506 27.4308C24.6506 27.7263 24.699 28.0361 24.803 28.404C24.8655 28.6272 24.7717 28.8656 24.5729 28.9828L24.0119 29.315C23.8959 29.3833 23.8142 29.4944 23.7799 29.6269C23.7455 29.7583 23.7647 29.8959 23.8333 30.0121C23.9019 30.1303 24.0119 30.2138 24.1421 30.2475C24.2732 30.2821 24.4074 30.2627 24.5245 30.1934L25.0703 29.8694C25.15 29.8215 25.2388 29.7991 25.3256 29.7991C25.4558 29.7991 25.5859 29.85 25.6828 29.9479C26.1166 30.3881 26.6756 30.705 27.3002 30.8681C27.5231 30.9272 27.6785 31.13 27.6785 31.3613V32.0155C27.6785 32.2958 27.9045 32.525 28.183 32.525C28.4615 32.525 28.6875 32.2958 28.6875 32.0155V31.3613C28.6875 31.1289 28.8429 30.9261 29.0659 30.8681C29.6904 30.705 30.2494 30.3871 30.6833 29.9479C30.8457 29.7828 31.099 29.7502 31.2957 29.8694L31.8416 30.1934C31.9586 30.2627 32.0938 30.2821 32.224 30.2475C32.3541 30.2138 32.4631 30.1303 32.5317 30.0131C32.6003 29.8959 32.6195 29.7583 32.5852 29.6269C32.5509 29.4944 32.4691 29.3843 32.3531 29.314L31.7921 28.9828C31.5933 28.8656 31.4985 28.6261 31.5621 28.404C31.666 28.0361 31.7144 27.7263 31.7144 27.4308C31.7144 27.1353 31.666 26.8255 31.5621 26.4576C31.4995 26.2344 31.5923 25.997 31.7911 25.8798Z" fill="white"/>
<defs>
<linearGradient id="paint0_linear_704_10827" x1="36.6383" y1="43" x2="3.7888" y2="86.7604" gradientUnits="userSpaceOnUse">
<stop stop-color="#9A2686"/>
<stop offset="1" stop-color="#293992"/>
</linearGradient>
</defs>
</svg>
