<svg width="44" height="44" viewBox="0 0 44 44" fill="none" xmlns="http://www.w3.org/2000/svg">
<rect y="44" width="44" height="44" rx="22" transform="rotate(-90 0 44)" fill="url(#paint0_linear_704_10824)"/>
<path d="M22.0386 32.3847C22.0783 32.2398 22.0036 32.0848 21.9067 31.9778C21.8716 31.9455 19.4486 29.6304 18.0138 26.3169H20.208C20.4626 26.3169 20.6693 26.1103 20.6693 25.8556C20.6693 25.6009 20.4626 25.3942 20.208 25.3942H17.653C17.2479 24.2436 16.9785 23.0016 16.9785 21.7034C16.9785 20.4051 17.2479 19.1631 17.653 18.0125H31.0416C31.2298 18.4905 31.3876 18.9841 31.5011 19.4962C31.5564 19.7445 31.801 19.9032 32.0519 19.8469C32.3011 19.7915 32.457 19.5451 32.4026 19.296C31.2888 14.2792 26.7509 10.6382 21.6068 10.6299C15.4975 10.6216 10.5176 15.5913 10.5186 21.7025C10.5186 27.808 15.4855 32.775 21.5911 32.775C21.8163 32.7759 22.0146 32.6025 22.0386 32.3847ZM18.0128 17.0889C19.1469 14.4693 20.8889 12.4827 21.5911 11.7473C22.2998 12.4873 24.0502 14.4739 25.1786 17.0889H18.0128ZM30.6282 17.0889H26.1752C25.1879 14.628 23.6746 12.6829 22.7381 11.6264C26.1207 12.0177 29.0928 14.1067 30.6282 17.0889ZM20.447 11.6218C19.5067 12.6774 17.9888 14.6271 17.0043 17.0889H12.5614C14.0793 14.1307 17.0015 12.0103 20.447 11.6218ZM12.1462 18.0116H16.6721C16.2994 19.1631 16.0548 20.4005 16.0548 21.7025C16.0548 23.0044 16.2994 24.2418 16.6721 25.3933H12.1462C11.6969 24.2473 11.4413 23.0053 11.4413 21.7025C11.4413 20.3996 11.6969 19.1576 12.1462 18.0116ZM12.5614 26.316H17.0043C17.9888 28.7787 19.5067 30.7275 20.447 31.7831C17.0015 31.3946 14.0793 29.2742 12.5614 26.316ZM30.8183 24.7945V23.0865C30.8183 21.3057 29.3696 19.857 27.5888 19.857C25.8079 19.857 24.3593 21.3057 24.3593 23.0865V24.7945C23.2723 25.3149 22.5138 26.4166 22.5138 27.7001V29.5455C22.5138 31.3264 23.9625 32.775 25.7433 32.775H29.4342C31.215 32.775 32.6637 31.3264 32.6637 29.5455V27.7001C32.6637 26.4166 31.9052 25.3149 30.8183 24.7945ZM25.282 23.0865C25.282 21.815 26.3163 20.7797 27.5888 20.7797C28.8612 20.7797 29.8955 21.815 29.8955 23.0865V24.5177C29.7433 24.4955 29.592 24.4706 29.4342 24.4706H25.7433C25.5856 24.4706 25.4342 24.4955 25.282 24.5177V23.0865ZM31.741 29.5455C31.741 30.817 30.7066 31.8523 29.4342 31.8523H25.7433C24.4709 31.8523 23.4366 30.817 23.4366 29.5455V27.7001C23.4366 26.4286 24.4709 25.3933 25.7433 25.3933H29.4342C30.7066 25.3933 31.741 26.4286 31.741 27.7001V29.5455ZM28.5115 28.6228C28.5115 29.1321 28.0981 29.5455 27.5888 29.5455C27.0794 29.5455 26.666 29.1321 26.666 28.6228C26.666 28.1135 27.0794 27.7001 27.5888 27.7001C28.0981 27.7001 28.5115 28.1135 28.5115 28.6228Z" fill="white"/>
<defs>
<linearGradient id="paint0_linear_704_10824" x1="36.9787" y1="44" x2="3.36528" y2="88.778" gradientUnits="userSpaceOnUse">
<stop stop-color="#9A2686"/>
<stop offset="1" stop-color="#293992"/>
</linearGradient>
</defs>
</svg>
