<svg width="44" height="43" viewBox="0 0 44 43" fill="none" xmlns="http://www.w3.org/2000/svg">
<rect x="0.264648" y="42.999" width="43" height="43" rx="21.5" transform="rotate(-90 0.264648 42.999)" fill="url(#paint0_linear_704_10821)"/>
<path d="M28.2763 11.751H14.8854C12.6706 11.751 10.8682 13.5534 10.8682 15.7682V25.5882C10.8682 27.8031 12.6706 29.6055 14.8854 29.6055H28.2763C30.4912 29.6055 32.2936 27.8031 32.2936 25.5882V15.7682C32.2936 13.5534 30.4912 11.751 28.2763 11.751ZM31.4009 25.5882C31.4009 27.3112 29.9993 28.7128 28.2763 28.7128H14.8854C13.1625 28.7128 11.7609 27.3112 11.7609 25.5882V15.7682C11.7609 14.0453 13.1625 12.6437 14.8854 12.6437H28.2763C29.9993 12.6437 31.4009 14.0453 31.4009 15.7682V25.5882ZM20.6881 16.661V24.6955C20.6881 24.9419 20.4882 25.1419 20.2418 25.1419C19.9954 25.1419 19.7954 24.9419 19.7954 24.6955V21.1246H15.3318V24.6955C15.3318 24.9419 15.1318 25.1419 14.8854 25.1419C14.639 25.1419 14.4391 24.9419 14.4391 24.6955V16.661C14.4391 16.4146 14.639 16.2146 14.8854 16.2146C15.1318 16.2146 15.3318 16.4146 15.3318 16.661V20.2319H19.7954V16.661C19.7954 16.4146 19.9954 16.2146 20.2418 16.2146C20.4882 16.2146 20.6881 16.4146 20.6881 16.661ZM25.1518 16.2146H23.8127C23.0744 16.2146 22.4736 16.8154 22.4736 17.5537V23.8028C22.4736 24.5411 23.0744 25.1419 23.8127 25.1419H25.1518C27.1211 25.1419 28.7227 23.5403 28.7227 21.571V19.7855C28.7227 17.8162 27.1211 16.2146 25.1518 16.2146ZM27.83 21.571C27.83 23.0475 26.6283 24.2491 25.1518 24.2491H23.8127C23.5663 24.2491 23.3663 24.0492 23.3663 23.8028V17.5537C23.3663 17.3073 23.5663 17.1073 23.8127 17.1073H25.1518C26.6283 17.1073 27.83 18.3089 27.83 19.7855V21.571Z" fill="white"/>
<defs>
<linearGradient id="paint0_linear_704_10821" x1="36.4029" y1="42.999" x2="3.55345" y2="86.7594" gradientUnits="userSpaceOnUse">
<stop stop-color="#9A2686"/>
<stop offset="1" stop-color="#293992"/>
</linearGradient>
</defs>
</svg>
