<svg width="44" height="43" viewBox="0 0 44 43" fill="none" xmlns="http://www.w3.org/2000/svg">
<rect x="0.344727" y="43" width="43" height="43" rx="21.5" transform="rotate(-90 0.344727 43)" fill="url(#paint0_linear_704_10830)"/>
<path d="M31.6789 10.1738H11.6422C11.1392 10.1738 10.7314 10.6583 10.7314 11.2559V28.5694C10.7314 29.167 11.1392 29.6515 11.6422 29.6515H31.6789C32.1819 29.6515 32.5897 29.167 32.5897 28.5694V11.2559C32.5897 10.6583 32.1819 10.1738 31.6789 10.1738Z" stroke="white"/>
<path d="M28.704 12.2483H14.2913C14.007 12.2483 13.7765 12.5386 13.7765 12.8966V20.244C13.7765 20.602 14.007 20.8922 14.2913 20.8922H28.704C28.9882 20.8922 29.2187 20.602 29.2187 20.244V12.8966C29.2187 12.5386 28.9882 12.2483 28.704 12.2483Z" stroke="white"/>
<path d="M19.3308 23.1973H14.3937C14.0529 23.1973 13.7765 23.4886 13.7765 23.8479V26.8837C13.7765 27.243 14.0529 27.5343 14.3937 27.5343H19.3308C19.6717 27.5343 19.948 27.243 19.948 26.8837V23.8479C19.948 23.4886 19.6717 23.1973 19.3308 23.1973Z" stroke="white"/>
<path d="M26.7672 26.5184C27.3352 26.5184 27.7957 26.0329 27.7957 25.4341C27.7957 24.8353 27.3352 24.3499 26.7672 24.3499C26.1991 24.3499 25.7386 24.8353 25.7386 25.4341C25.7386 26.0329 26.1991 26.5184 26.7672 26.5184Z" stroke="white"/>
<defs>
<linearGradient id="paint0_linear_704_10830" x1="36.483" y1="43" x2="3.63352" y2="86.7604" gradientUnits="userSpaceOnUse">
<stop stop-color="#9A2686"/>
<stop offset="1" stop-color="#293992"/>
</linearGradient>
</defs>
</svg>
