<svg width="43" height="43" viewBox="0 0 43 43" fill="none" xmlns="http://www.w3.org/2000/svg">
<rect y="43" width="43" height="43" rx="21.5" transform="rotate(-90 0 43)" fill="url(#paint0_linear_704_10836)"/>
<path d="M15.7262 27.6649C15.7262 28.1775 15.306 28.5936 14.7884 28.5936C14.2707 28.5936 13.8505 28.1775 13.8505 27.6649C13.8505 27.1522 14.2707 26.7361 14.7884 26.7361C15.306 26.7361 15.7262 27.1522 15.7262 27.6649ZM18.5396 26.7361C18.0219 26.7361 17.6018 27.1522 17.6018 27.6649C17.6018 28.1775 18.0219 28.5936 18.5396 28.5936C19.0573 28.5936 19.4774 28.1775 19.4774 27.6649C19.4774 27.1522 19.0573 26.7361 18.5396 26.7361ZM33.5446 27.2005V28.1292C33.5446 29.9218 32.0723 31.38 30.2623 31.38H14.3195C12.5095 31.38 11.0371 29.9218 11.0371 28.1292V27.2005C11.0371 25.4079 12.5095 23.9497 14.3195 23.9497H30.0053L13.0806 9.9094C12.8818 9.74501 12.8565 9.45151 13.0225 9.25461C13.1913 9.05864 13.4857 9.03263 13.6836 9.19703C13.6836 9.19703 32.3855 24.7169 32.4033 24.7392C33.102 25.3355 33.5446 26.2178 33.5446 27.2005ZM32.6068 27.2005C32.6068 25.9197 31.5555 24.8785 30.2623 24.8785H14.3195C13.0262 24.8785 11.9749 25.9197 11.9749 27.2005V28.1292C11.9749 29.41 13.0262 30.4512 14.3195 30.4512H30.2623C31.5555 30.4512 32.6068 29.41 32.6068 28.1292V27.2005Z" fill="white"/>
<defs>
<linearGradient id="paint0_linear_704_10836" x1="36.1383" y1="43" x2="3.2888" y2="86.7604" gradientUnits="userSpaceOnUse">
<stop stop-color="#9A2686"/>
<stop offset="1" stop-color="#293992"/>
</linearGradient>
</defs>
</svg>
