<svg width="48" height="48" viewBox="0 0 48 48" fill="none" xmlns="http://www.w3.org/2000/svg">
<rect y="47.6895" width="47.6892" height="47.6893" rx="23.8446" transform="rotate(-90 0 47.6895)" fill="url(#paint0_linear_704_12858)"/>
<path d="M21.742 34.0885C21.742 34.3507 21.5292 34.5635 21.2669 34.5635H16.5166C14.1594 34.5635 12.2412 32.6453 12.2412 30.2882V16.0371C12.2412 13.6799 14.1594 11.7617 16.5166 11.7617H25.0672C27.4244 11.7617 29.3426 13.6799 29.3426 16.0371C29.3426 16.2993 29.1298 16.5121 28.8675 16.5121C28.6053 16.5121 28.3925 16.2993 28.3925 16.0371C28.3925 14.2034 26.9009 12.7118 25.0672 12.7118H16.5166C14.6829 12.7118 13.1913 14.2034 13.1913 16.0371V30.2882C13.1913 32.1219 14.6829 33.6135 16.5166 33.6135H21.2669C21.5292 33.6135 21.742 33.8263 21.742 34.0885ZM31.7178 18.4123H26.9674C26.0221 18.4123 25.1195 18.816 24.4896 19.521C24.3148 19.7158 24.3309 20.016 24.5266 20.1917C24.7233 20.3666 25.0226 20.3485 25.1974 20.1537C25.6477 19.6512 26.2928 19.3623 26.9674 19.3623H31.7178C33.027 19.3623 34.093 20.4274 34.093 21.7375V31.2383C34.093 32.5484 33.027 33.6135 31.7178 33.6135H26.9674C25.6582 33.6135 24.5922 32.5484 24.5922 31.2383C24.5922 30.9761 24.3794 30.7632 24.1172 30.7632C23.8549 30.7632 23.6421 30.9761 23.6421 31.2383C23.6421 33.0719 25.1337 34.5635 26.9674 34.5635H31.7178C33.5514 34.5635 35.043 33.0719 35.043 31.2383V21.7375C35.043 19.9039 33.5514 18.4123 31.7178 18.4123ZM21.2669 16.5121C21.5292 16.5121 21.742 16.2993 21.742 16.0371C21.742 15.7748 21.5292 15.562 21.2669 15.562H17.9417C16.8937 15.562 16.0415 16.4142 16.0415 17.4622V20.7874C16.0415 21.0497 16.2543 21.2625 16.5166 21.2625C16.7788 21.2625 16.9916 21.0497 16.9916 20.7874V17.4622C16.9916 17.3805 17.0191 17.3064 17.0381 17.2304L27.6733 27.8655C27.5973 27.8855 27.5241 27.9121 27.4415 27.9121H24.1162C23.854 27.9121 23.6412 28.1249 23.6412 28.3871C23.6412 28.6493 23.854 28.8621 24.1162 28.8621H27.4415C28.4894 28.8621 29.3416 28.0099 29.3416 26.962V23.6367C29.3416 23.3745 29.1288 23.1617 28.8666 23.1617C28.6044 23.1617 28.3916 23.3745 28.3916 23.6367V26.962C28.3916 27.0437 28.364 27.1178 28.345 27.1938L17.7098 16.5587C17.7859 16.5387 17.859 16.5121 17.9417 16.5121H21.2669ZM21.2669 29.8132H19.3668C19.1046 29.8132 18.8917 30.026 18.8917 30.2882C18.8917 30.5504 19.1046 30.7632 19.3668 30.7632H21.2669C21.5292 30.7632 21.742 30.5504 21.742 30.2882C21.742 30.026 21.5292 29.8132 21.2669 29.8132Z" fill="white"/>
<defs>
<linearGradient id="paint0_linear_704_12858" x1="40.0793" y1="47.6894" x2="3.64745" y2="96.222" gradientUnits="userSpaceOnUse">
<stop stop-color="#9A2686"/>
<stop offset="1" stop-color="#293992"/>
</linearGradient>
</defs>
</svg>
