<svg width="38" height="38" viewBox="0 0 38 38" fill="none" xmlns="http://www.w3.org/2000/svg">
<path d="M25.3333 21.3743C25.3333 21.8113 24.9787 22.166 24.5417 22.166H22.9583C22.5213 22.166 22.1667 21.8113 22.1667 21.3743C22.1667 20.9373 22.5213 20.5826 22.9583 20.5826H24.5417C24.9787 20.5826 25.3333 20.9373 25.3333 21.3743ZM30.875 20.5826H29.2917C28.8547 20.5826 28.5 20.9373 28.5 21.3743C28.5 21.8113 28.8547 22.166 29.2917 22.166H30.875C31.312 22.166 31.6667 21.8113 31.6667 21.3743C31.6667 20.9373 31.312 20.5826 30.875 20.5826ZM24.5417 26.9162H22.9583C22.5213 26.9162 22.1667 27.2709 22.1667 27.7079C22.1667 28.1449 22.5213 28.4996 22.9583 28.4996H24.5417C24.9787 28.4996 25.3333 28.1449 25.3333 27.7079C25.3333 27.2709 24.9787 26.9162 24.5417 26.9162ZM30.875 26.9162H29.2917C28.8547 26.9162 28.5 27.2709 28.5 27.7079C28.5 28.1449 28.8547 28.4996 29.2917 28.4996H30.875C31.312 28.4996 31.6667 28.1449 31.6667 27.7079C31.6667 27.2709 31.312 26.9162 30.875 26.9162ZM24.5417 7.91541H22.9583C22.5213 7.91541 22.1667 8.27009 22.1667 8.70711C22.1667 9.14413 22.5213 9.49881 22.9583 9.49881H24.5417C24.9787 9.49881 25.3333 9.14413 25.3333 8.70711C25.3333 8.27009 24.9787 7.91541 24.5417 7.91541ZM30.875 7.91541H29.2917C28.8547 7.91541 28.5 8.27009 28.5 8.70711C28.5 9.14413 28.8547 9.49881 29.2917 9.49881H30.875C31.312 9.49881 31.6667 9.14413 31.6667 8.70711C31.6667 8.27009 31.312 7.91541 30.875 7.91541ZM24.5417 14.249H22.9583C22.5213 14.249 22.1667 14.6037 22.1667 15.0407C22.1667 15.4777 22.5213 15.8324 22.9583 15.8324H24.5417C24.9787 15.8324 25.3333 15.4777 25.3333 15.0407C25.3333 14.6037 24.9787 14.249 24.5417 14.249ZM30.875 14.249H29.2917C28.8547 14.249 28.5 14.6037 28.5 15.0407C28.5 15.4777 28.8547 15.8324 29.2917 15.8324H30.875C31.312 15.8324 31.6667 15.4777 31.6667 15.0407C31.6667 14.6037 31.312 14.249 30.875 14.249ZM38 7.12371V30.8747C38 34.8031 34.8032 38 30.875 38H7.125C3.19675 38 0 34.8031 0 30.8747V14.0147C0 12.0893 0.794833 10.2193 2.18183 8.88287L4.864 6.30035C7.01892 4.22293 10.3962 4.22293 12.5511 6.30035L15.2333 8.88287C15.447 9.08871 15.6481 9.3088 15.8317 9.5384V7.1253C15.8317 3.19688 19.0285 0 22.9568 0H30.8734C34.8017 0 37.9984 3.19688 37.9984 7.1253L38 7.12371ZM15.8333 14.0147C15.8333 12.5168 15.2143 11.0616 14.136 10.0229L11.4538 7.44039C10.6843 6.69778 9.69633 6.32726 8.70833 6.32726C7.72033 6.32726 6.73233 6.69778 5.96283 7.44039L3.28067 10.0245C2.20242 11.0632 1.58333 12.5184 1.58333 14.0162V30.8763C1.58333 33.9322 4.06917 36.4182 7.125 36.4182H15.8333V14.0147ZM36.4167 7.12371C36.4167 4.06775 33.9308 1.58182 30.875 1.58182H22.9583C19.9025 1.58182 17.4167 4.06775 17.4167 7.12371V36.4166H30.875C33.9308 36.4166 36.4167 33.9307 36.4167 30.8747V7.12371ZM10.2917 20.5826H7.125C6.688 20.5826 6.33333 20.9373 6.33333 21.3743C6.33333 21.8113 6.688 22.166 7.125 22.166H10.2917C10.7287 22.166 11.0833 21.8113 11.0833 21.3743C11.0833 20.9373 10.7287 20.5826 10.2917 20.5826ZM10.2917 14.249H7.125C6.688 14.249 6.33333 14.6037 6.33333 15.0407C6.33333 15.4777 6.688 15.8324 7.125 15.8324H10.2917C10.7287 15.8324 11.0833 15.4777 11.0833 15.0407C11.0833 14.6037 10.7287 14.249 10.2917 14.249ZM10.2917 26.9162H7.125C6.688 26.9162 6.33333 27.2709 6.33333 27.7079C6.33333 28.1449 6.688 28.4996 7.125 28.4996H10.2917C10.7287 28.4996 11.0833 28.1449 11.0833 27.7079C11.0833 27.2709 10.7287 26.9162 10.2917 26.9162Z" fill="white"/>
</svg>
