<svg width="37" height="37" viewBox="0 0 37 37" fill="none" xmlns="http://www.w3.org/2000/svg">
<path d="M30.8333 9.32862V4.625H33.1458C35.2718 4.625 37 2.89525 37 0.770833C37 0.345333 36.6547 0 36.2292 0C35.8037 0 35.4583 0.345333 35.4583 0.770833C35.4583 2.04579 34.4208 3.08333 33.1458 3.08333H1.54167V0.770833C1.54167 0.345333 1.19633 0 0.770833 0C0.345333 0 0 0.345333 0 0.770833V36.2292C0 36.6547 0.345333 37 0.770833 37C1.19633 37 1.54167 36.6547 1.54167 36.2292V4.625H10.7917V9.32862C7.33217 9.71712 4.625 12.6263 4.625 16.1875V30.0625C4.625 33.8874 7.73763 37 11.5625 37H30.0625C33.8874 37 37 33.8874 37 30.0625V16.1875C37 12.6263 34.2928 9.71712 30.8333 9.32862ZM29.2917 4.625V9.25H12.3333V4.625H29.2917ZM35.4583 30.0625C35.4583 33.0379 33.0379 35.4583 30.0625 35.4583H11.5625C8.58708 35.4583 6.16667 33.0379 6.16667 30.0625V16.1875C6.16667 13.2121 8.58708 10.7917 11.5625 10.7917H30.0625C33.0379 10.7917 35.4583 13.2121 35.4583 16.1875V30.0625ZM30.0625 27.75H29.2917V26.9792C29.2917 22.5638 25.8985 18.9301 21.5833 18.5385V17.7292C21.5833 17.3037 21.238 16.9583 20.8125 16.9583C20.387 16.9583 20.0417 17.3037 20.0417 17.7292V18.5385C15.7265 18.9301 12.3333 22.5638 12.3333 26.9792V27.75H11.5625C11.137 27.75 10.7917 28.0953 10.7917 28.5208C10.7917 28.9463 11.137 29.2917 11.5625 29.2917H30.0625C30.488 29.2917 30.8333 28.9463 30.8333 28.5208C30.8333 28.0953 30.488 27.75 30.0625 27.75ZM13.875 26.9792C13.875 23.1543 16.9876 20.0417 20.8125 20.0417C24.6374 20.0417 27.75 23.1543 27.75 26.9792V27.75H13.875V26.9792Z" fill="white"/>
</svg>
