<svg width="48" height="48" viewBox="0 0 48 48" fill="none" xmlns="http://www.w3.org/2000/svg">
<rect y="48" width="48" height="48" rx="24" transform="rotate(-90 0 48)" fill="url(#paint0_linear_704_12864)"/>
<path d="M31.4524 31.012C31.4623 31.012 31.4721 31.012 31.4819 31.012C31.741 31.012 31.9626 30.7736 31.9813 30.5117C31.9912 30.3659 32.002 30.2182 32.002 30.0694C32.002 28.9742 31.7814 27.9144 31.346 26.9177C31.2377 26.6695 30.9501 26.5562 30.6979 26.6636C30.4488 26.7719 30.3345 27.0625 30.4438 27.3116C30.824 28.1833 31.0171 29.1101 31.0171 30.0694C31.0171 30.1955 30.9934 30.5284 30.9934 30.5284C30.9747 30.7993 31.1825 30.9923 31.4534 31.011L31.4524 31.012Z" fill="white"/>
<path d="M35.9079 30.9117C35.7701 32.6511 34.2621 34.0113 32.4755 34.0113H29.4626C29.1908 34.0113 28.9701 33.7906 28.9701 33.5188C28.9701 33.247 29.1908 33.0263 29.4626 33.0263H32.4755C33.7519 33.0263 34.8285 32.0631 34.926 30.8329C35.0954 28.6976 34.5448 26.6135 33.291 24.6397C31.0493 21.1097 27.4583 19.0916 23.6762 19.2462C17.8503 19.4807 13.2872 24.2349 13.2872 30.0706C13.2872 30.3276 13.298 30.5808 13.3177 30.8329C13.4152 32.0621 14.4907 33.0253 15.7682 33.0253H18.7811C19.0529 33.0253 19.2735 33.246 19.2735 33.5178C19.2735 33.7896 19.0529 34.0103 18.7811 34.0103H15.7682C13.9815 34.0103 12.4736 32.6481 12.3357 30.9107C12.3141 30.633 12.3022 30.3532 12.3022 30.0706C12.3022 26.5623 13.82 23.4174 16.2419 21.2525V14.6663L14.1214 16.712C13.9254 16.9011 13.6142 16.8972 13.4251 16.6992C13.236 16.5042 13.2419 16.192 13.4379 16.0039L15.8273 13.6982C16.3257 13.1998 17.1451 13.2018 17.6474 13.7041L20.031 16.0039C20.227 16.192 20.2329 16.5042 20.0438 16.6992C19.9472 16.8007 19.8182 16.8499 19.6892 16.8499C19.5661 16.8499 19.443 16.8036 19.3474 16.711L17.2269 14.6654V20.4547C19.0372 19.1576 21.2345 18.3588 23.6289 18.2603V11.7135L21.5083 13.7592C21.3123 13.9483 21.0011 13.9454 20.812 13.7464C20.6229 13.5514 20.6288 13.2392 20.8248 13.0511L23.2152 10.7454C23.7136 10.246 24.533 10.2499 25.0354 10.7513L27.4189 13.0511C27.6149 13.2392 27.6208 13.5514 27.4317 13.7464C27.3352 13.8479 27.2061 13.8971 27.0771 13.8971C26.954 13.8971 26.8309 13.8508 26.7353 13.7582L24.6148 11.7126V18.2919C26.9274 18.4081 29.1356 19.2423 31.0168 20.6951V14.6673L28.8963 16.713C28.7012 16.9021 28.389 16.8982 28.1999 16.7002C28.0108 16.5052 28.0167 16.193 28.2127 16.0049L30.6022 13.6991C31.1005 13.2008 31.919 13.2027 32.4223 13.7051L34.8058 16.0049C35.0018 16.193 35.0077 16.5052 34.8186 16.7002C34.7221 16.8017 34.5931 16.8509 34.464 16.8509C34.3409 16.8509 34.2178 16.8046 34.1223 16.712L32.0017 14.6663V21.5431C32.7877 22.2897 33.5067 23.1406 34.1223 24.1108C35.4943 26.2688 36.0941 28.5567 35.9079 30.9097V30.9117Z" fill="white"/>
<path d="M29.8879 25.0025C30.08 24.8104 30.08 24.4982 29.8879 24.3062C29.6959 24.1141 29.3837 24.1141 29.1916 24.3062L25.117 28.3808C24.8244 28.2074 24.4866 28.1021 24.1222 28.1021C23.0358 28.1021 22.1523 28.9855 22.1523 30.0719C22.1523 31.1583 23.0358 32.0418 24.1222 32.0418C25.2086 32.0418 26.092 31.1583 26.092 30.0719C26.092 29.7075 25.9857 29.3706 25.8133 29.0771L29.8879 25.0025ZM24.1222 31.0558C23.5795 31.0558 23.1373 30.6146 23.1373 30.0709C23.1373 29.5272 23.5795 29.086 24.1222 29.086C24.6649 29.086 25.1071 29.5272 25.1071 30.0709C25.1071 30.6146 24.6649 31.0558 24.1222 31.0558Z" fill="white"/>
<path d="M24.1222 23.1763C25.0806 23.1763 26.0094 23.3694 26.88 23.7496C27.1332 23.8579 27.4208 23.7436 27.5281 23.4954C27.6374 23.2463 27.5232 22.9557 27.274 22.8474C26.2773 22.412 25.2175 22.1914 24.1222 22.1914C19.7777 22.1914 16.2428 25.7263 16.2428 30.0708C16.2428 30.2195 16.2271 30.3338 16.2428 30.5633C16.2428 30.8351 16.4635 31.0557 16.7353 31.0557C17.0071 31.0557 17.2278 30.8351 17.2278 30.5633C17.2189 30.4402 17.2278 30.1969 17.2278 30.0708C17.2278 26.27 20.3204 23.1763 24.1222 23.1763Z" fill="white"/>
<defs>
<linearGradient id="paint0_linear_704_12864" x1="40.3404" y1="48" x2="3.67122" y2="96.8488" gradientUnits="userSpaceOnUse">
<stop stop-color="#9A2686"/>
<stop offset="1" stop-color="#293992"/>
</linearGradient>
</defs>
</svg>
