<svg width="48" height="49" viewBox="0 0 48 49" fill="none" xmlns="http://www.w3.org/2000/svg">
<rect y="48.6895" width="47.9741" height="47.9742" rx="23.9871" transform="rotate(-90 0 48.6895)" fill="url(#paint0_linear_704_12871)"/>
<path d="M15.8089 22.8683C14.6471 22.8683 13.7023 23.8158 13.7023 24.981C13.7023 26.1461 14.6471 27.0937 15.8089 27.0937C16.9707 27.0937 17.9155 26.1461 17.9155 24.981C17.9155 23.8158 16.9707 22.8683 15.8089 22.8683ZM15.8089 26.0373C15.2274 26.0373 14.7556 25.5641 14.7556 24.981C14.7556 24.3979 15.2274 23.9246 15.8089 23.9246C16.3903 23.9246 16.8622 24.3979 16.8622 24.981C16.8622 25.5641 16.3903 26.0373 15.8089 26.0373ZM21.424 22.9707C21.5304 22.5598 21.4704 22.1341 21.2576 21.7697C21.0438 21.4042 20.7015 21.1443 20.2928 21.0387C19.8841 20.9298 19.4596 20.9911 19.0931 21.2066L18.8582 21.345C18.4295 20.9858 17.9302 20.7048 17.3878 20.5147V20.2284C17.3878 19.3548 16.6789 18.6439 15.8078 18.6439C14.9367 18.6439 14.2279 19.3548 14.2279 20.2284V20.5147C13.6854 20.7048 13.1872 20.9858 12.7574 21.345L12.5226 21.2066C12.1571 20.9911 11.7326 20.9298 11.3228 21.0387C10.9142 21.1453 10.5718 21.4052 10.3591 21.7686C10.1453 22.1341 10.0852 22.5598 10.1916 22.9707C10.298 23.3806 10.5571 23.7239 10.9194 23.9373L11.1659 24.0831C11.0985 24.4 11.0658 24.6915 11.0658 24.982C11.0658 25.2725 11.0974 25.5641 11.1649 25.8799L10.9194 26.0257C10.556 26.2402 10.2969 26.5835 10.1916 26.9933C10.0852 27.4043 10.1453 27.83 10.358 28.1944C10.5718 28.5599 10.9142 28.8198 11.3228 28.9254C11.7326 29.0342 12.1571 28.973 12.5226 28.7575L12.7574 28.6191C13.1861 28.9782 13.6854 29.2592 14.2279 29.4494V29.7356C14.2279 30.6093 14.9367 31.3202 15.8078 31.3202C16.6789 31.3202 17.3878 30.6093 17.3878 29.7356V29.4494C17.9302 29.2592 18.4284 28.9782 18.8582 28.6191L19.0931 28.7575C19.4596 28.973 19.8841 29.0342 20.2928 28.9254C20.7015 28.8187 21.0438 28.5589 21.2566 28.1955C21.4704 27.83 21.5304 27.4043 21.424 26.9933C21.3177 26.5835 21.0585 26.2402 20.6952 26.0247L20.4508 25.8799C20.5171 25.5641 20.5498 25.2725 20.5498 24.982C20.5498 24.6915 20.5182 24.4 20.4497 24.0831L20.6952 23.9384C21.0596 23.7239 21.3187 23.3806 21.424 22.9707ZM19.3374 23.9722C19.4459 24.3535 19.4954 24.6746 19.4954 24.981C19.4954 25.2873 19.4449 25.6085 19.3374 25.9898C19.2721 26.2211 19.3701 26.4673 19.5776 26.5898L20.1622 26.9331C20.2844 27.005 20.3707 27.1201 20.4055 27.2574C20.4403 27.3937 20.4213 27.5363 20.3486 27.6578C20.278 27.7793 20.1643 27.8659 20.0274 27.9008C19.8883 27.9346 19.7482 27.9166 19.6282 27.8448L19.0594 27.5088C18.854 27.3863 18.5896 27.4201 18.42 27.5902C17.966 28.0465 17.3836 28.3751 16.7305 28.5441C16.4977 28.6053 16.3355 28.8156 16.3355 29.0554V29.7335C16.3355 30.024 16.0985 30.2617 15.8089 30.2617C15.5192 30.2617 15.2822 30.024 15.2822 29.7335V29.0554C15.2822 28.8145 15.12 28.6043 14.8872 28.5441C14.2352 28.3751 13.6517 28.0455 13.1977 27.5902C13.0966 27.4877 12.9607 27.436 12.8249 27.436C12.7332 27.436 12.6405 27.4592 12.5573 27.5088L11.9885 27.8448C11.8695 27.9166 11.7284 27.9367 11.5893 27.9008C11.4524 27.8659 11.3397 27.7793 11.267 27.6567C11.1964 27.5363 11.1764 27.3937 11.2112 27.2574C11.246 27.1201 11.3323 27.006 11.4535 26.9342L12.0391 26.5898C12.2455 26.4673 12.3446 26.2201 12.2792 25.9898C12.1708 25.6085 12.1213 25.2873 12.1213 24.981C12.1213 24.6746 12.1718 24.3535 12.2792 23.9722C12.3446 23.7408 12.2476 23.4947 12.0401 23.3732L11.4535 23.0267C11.3323 22.9559 11.246 22.8408 11.2112 22.7045C11.1764 22.5683 11.1954 22.4257 11.2681 22.3042C11.3386 22.1827 11.4524 22.0961 11.5893 22.0612C11.7263 22.0242 11.8664 22.0454 11.9885 22.1172L12.5573 22.4531C12.7638 22.5767 13.0281 22.5429 13.1967 22.3718C13.6507 21.9154 14.2331 21.5869 14.8862 21.4179C15.119 21.3566 15.2812 21.1464 15.2812 20.9066V20.2284C15.2812 19.9379 15.5182 19.7002 15.8078 19.7002C16.0975 19.7002 16.3345 19.9379 16.3345 20.2284V20.9066C16.3345 21.1475 16.4967 21.3577 16.7295 21.4179C17.3815 21.5869 17.965 21.9165 18.419 22.3718C18.5875 22.5419 18.8519 22.5757 19.0583 22.4531L19.6271 22.1172C19.7461 22.0475 19.8894 22.0263 20.0263 22.0612C20.1632 22.0961 20.2759 22.1827 20.3486 22.3052C20.4192 22.4257 20.4392 22.5683 20.4044 22.7045C20.3697 22.8408 20.2833 22.9549 20.1611 23.0278L19.5755 23.3732C19.369 23.4947 19.2711 23.7419 19.3364 23.9722H19.3374ZM28.5023 25.5092C28.755 27.005 30.0464 28.1501 31.6084 28.1501C33.3506 28.1501 34.7684 26.7282 34.7684 24.981C34.7684 23.2338 33.3506 21.8119 31.6084 21.8119C30.0464 21.8119 28.754 22.957 28.5023 24.4528H25.2886V18.6428C25.2886 17.1861 26.4694 16.0019 27.9219 16.0019H28.5023C28.755 17.4977 30.0464 18.6428 31.6084 18.6428C33.3506 18.6428 34.7684 17.221 34.7684 15.4738C34.7684 13.7265 33.3506 12.3047 31.6084 12.3047C30.0464 12.3047 28.754 13.4498 28.5023 14.9456H27.9219C25.889 14.9456 24.2353 16.6041 24.2353 18.6428V24.4528H22.6554C22.3646 24.4528 22.1287 24.6894 22.1287 24.981C22.1287 25.2725 22.3646 25.5092 22.6554 25.5092H24.2353V31.3191C24.2353 33.3579 25.889 35.0164 27.9219 35.0164H28.5023C28.755 36.5122 30.0464 37.6573 31.6084 37.6573C33.3506 37.6573 34.7684 36.2354 34.7684 34.4882C34.7684 32.741 33.3506 31.3191 31.6084 31.3191C30.0464 31.3191 28.754 32.4642 28.5023 33.96H27.9219C26.4694 33.96 25.2886 32.7758 25.2886 31.3191V25.5092H28.5023ZM31.6084 22.8683C32.7702 22.8683 33.7151 23.8158 33.7151 24.981C33.7151 26.1461 32.7702 27.0937 31.6084 27.0937C30.4467 27.0937 29.5018 26.1461 29.5018 24.981C29.5018 23.8158 30.4467 22.8683 31.6084 22.8683ZM31.6084 13.361C32.7702 13.361 33.7151 14.3086 33.7151 15.4738C33.7151 16.6389 32.7702 17.5865 31.6084 17.5865C30.4467 17.5865 29.5018 16.6389 29.5018 15.4738C29.5018 14.3086 30.4467 13.361 31.6084 13.361ZM31.6084 32.3755C32.7702 32.3755 33.7151 33.323 33.7151 34.4882C33.7151 35.6534 32.7702 36.6009 31.6084 36.6009C30.4467 36.6009 29.5018 35.6534 29.5018 34.4882C29.5018 33.323 30.4467 32.3755 31.6084 32.3755Z" fill="white"/>
<defs>
<linearGradient id="paint0_linear_704_12871" x1="40.3187" y1="48.6894" x2="3.66924" y2="97.5119" gradientUnits="userSpaceOnUse">
<stop stop-color="#9A2686"/>
<stop offset="1" stop-color="#293992"/>
</linearGradient>
</defs>
</svg>
