<svg width="38" height="38" viewBox="0 0 38 38" fill="none" xmlns="http://www.w3.org/2000/svg">
<g clip-path="url(#clip0_704_12619)">
<path d="M30.875 7.91667H22.1667V7.125C22.1667 3.19675 18.9699 0 15.0417 0H7.125C3.19675 0 0 3.19675 0 7.125V30.875C0 34.8032 3.19675 38 7.125 38H30.875C34.8032 38 38 34.8032 38 30.875V15.0417C38 11.1134 34.8032 7.91667 30.875 7.91667ZM1.58333 30.875V7.125C1.58333 4.06917 4.06917 1.58333 7.125 1.58333H15.0417C18.0975 1.58333 20.5833 4.06917 20.5833 7.125V36.4167H7.125C4.06917 36.4167 1.58333 33.9308 1.58333 30.875ZM36.4167 30.875C36.4167 33.9308 33.9308 36.4167 30.875 36.4167H22.1667V30.0833H24.5417C24.9787 30.0833 25.3333 29.7287 25.3333 29.2917C25.3333 28.8547 24.9787 28.5 24.5417 28.5H22.1667V9.5H30.875C33.9308 9.5 36.4167 11.9858 36.4167 15.0417V30.875ZM9.5 22.9583C9.5 23.3953 9.14533 23.75 8.70833 23.75H5.54167C5.10467 23.75 4.75 23.3953 4.75 22.9583C4.75 22.5213 5.10467 22.1667 5.54167 22.1667H8.70833C9.14533 22.1667 9.5 22.5213 9.5 22.9583ZM17.4167 22.9583C17.4167 23.3953 17.062 23.75 16.625 23.75H13.4583C13.0213 23.75 12.6667 23.3953 12.6667 22.9583C12.6667 22.5213 13.0213 22.1667 13.4583 22.1667H16.625C17.062 22.1667 17.4167 22.5213 17.4167 22.9583ZM9.5 29.2917C9.5 29.7287 9.14533 30.0833 8.70833 30.0833H5.54167C5.10467 30.0833 4.75 29.7287 4.75 29.2917C4.75 28.8547 5.10467 28.5 5.54167 28.5H8.70833C9.14533 28.5 9.5 28.8547 9.5 29.2917ZM17.4167 29.2917C17.4167 29.7287 17.062 30.0833 16.625 30.0833H13.4583C13.0213 30.0833 12.6667 29.7287 12.6667 29.2917C12.6667 28.8547 13.0213 28.5 13.4583 28.5H16.625C17.062 28.5 17.4167 28.8547 17.4167 29.2917ZM33.25 29.2917C33.25 29.7287 32.8953 30.0833 32.4583 30.0833H29.2917C28.8547 30.0833 28.5 29.7287 28.5 29.2917C28.5 28.8547 28.8547 28.5 29.2917 28.5H32.4583C32.8953 28.5 33.25 28.8547 33.25 29.2917ZM11.875 11.875V15.0417C11.875 15.4787 11.5203 15.8333 11.0833 15.8333C10.6463 15.8333 10.2917 15.4787 10.2917 15.0417V11.875H7.125C6.688 11.875 6.33333 11.5203 6.33333 11.0833C6.33333 10.6463 6.688 10.2917 7.125 10.2917H10.2917V7.125C10.2917 6.688 10.6463 6.33333 11.0833 6.33333C11.5203 6.33333 11.875 6.688 11.875 7.125V10.2917H15.0417C15.4787 10.2917 15.8333 10.6463 15.8333 11.0833C15.8333 11.5203 15.4787 11.875 15.0417 11.875H11.875ZM22.1667 19C22.1667 18.563 22.5213 18.2083 22.9583 18.2083H26.125V15.0417C26.125 14.6047 26.4797 14.25 26.9167 14.25C27.3537 14.25 27.7083 14.6047 27.7083 15.0417V18.2083H30.875C31.312 18.2083 31.6667 18.563 31.6667 19C31.6667 19.437 31.312 19.7917 30.875 19.7917H27.7083V22.9583C27.7083 23.3953 27.3537 23.75 26.9167 23.75C26.4797 23.75 26.125 23.3953 26.125 22.9583V19.7917H22.9583C22.5213 19.7917 22.1667 19.437 22.1667 19Z" fill="white"/>
</g>
<defs>
<clipPath id="clip0_704_12619">
<rect width="38" height="38" fill="white"/>
</clipPath>
</defs>
</svg>
