<svg width="42" height="42" viewBox="0 0 42 42" fill="none" xmlns="http://www.w3.org/2000/svg">
<path d="M41.1251 0C40.6422 0 40.2503 0.392 40.2503 0.875V3.5H27.1275C25.6805 3.5 24.5029 4.67775 24.5029 6.125V12.25H17.5041V6.125C17.5041 5.642 17.896 5.25 18.3789 5.25H20.1286C20.6116 5.25 21.0035 4.858 21.0035 4.375C21.0035 3.892 20.6116 3.5 20.1286 3.5H18.3789C16.9319 3.5 15.7544 4.67775 15.7544 6.125V12.25H12.6836C8.17114 12.25 5.25612 14.861 5.25612 18.9V20.125C5.25612 21.5723 6.43368 22.75 7.88069 22.75H8.75554V30.625C8.75554 33.0365 10.7187 35 13.1298 35H28.8772C31.2883 35 33.2515 33.0365 33.2515 30.625V22.75H34.1263C35.5733 22.75 36.7509 21.5723 36.7509 20.125V18.9C36.7509 14.861 33.8341 12.25 29.3234 12.25H26.2526V6.125C26.2526 5.642 26.6446 5.25 27.1275 5.25H40.2503V41.125C40.2503 41.608 40.6422 42 41.1251 42C41.6081 42 42 41.608 42 41.125V0.875C42 0.392 41.6081 0 41.1251 0ZM14.8393 15.603C13.9504 15.358 13.1911 14.7875 12.7361 14H16.1096C15.5864 14.4532 15.1752 14.9993 14.8393 15.603ZM28.389 14C27.7784 15.0605 26.6516 15.75 25.3778 15.75C24.104 15.75 22.9772 15.0605 22.3665 14H28.389ZM10.5052 30.625V21.875C10.5052 21.392 10.1133 21 9.6304 21H7.88069C7.39777 21 7.00583 20.608 7.00583 20.125V18.9C7.00583 15.7028 9.15273 14.5828 10.8919 14.1978C11.4763 15.659 12.6976 16.7825 14.2006 17.2533C14.0834 17.773 14.0047 18.3173 14.0047 18.9V20.125C14.0047 21.5723 15.1822 22.75 16.6292 22.75H17.5041V30.625C17.5041 31.6138 17.8453 32.5168 18.4017 33.25H13.1298C11.6828 33.25 10.5052 32.0723 10.5052 30.625ZM35.0012 18.9V20.125C35.0012 20.608 34.6092 21 34.1263 21H32.3766C31.8937 21 31.5017 21.392 31.5017 21.875V30.625C31.5017 32.0723 30.3242 33.25 28.8772 33.25H21.8784C20.4313 33.25 19.2538 32.0723 19.2538 30.625V21.875C19.2538 21.392 18.8619 21 18.3789 21H16.6292C16.1463 21 15.7544 20.608 15.7544 20.125V18.9C15.7544 15.1602 18.6921 14.259 20.4768 14.056C21.2257 16.107 23.1521 17.5 25.3778 17.5C27.6034 17.5 29.5298 16.107 30.2787 14.056C32.0634 14.259 35.0012 15.1602 35.0012 18.9ZM1.74971 5.25V41.125C1.74971 41.608 1.35777 42 0.874854 42C0.391935 42 0 41.608 0 41.125V0.875C0 0.392 0.391935 0 0.874854 0C1.35777 0 1.74971 0.392 1.74971 0.875V3.5H11.3801C11.863 3.5 12.255 3.892 12.255 4.375C12.255 4.858 11.863 5.25 11.3801 5.25H1.74971Z" fill="white"/>
</svg>
