<svg width="48" height="48" viewBox="0 0 48 48" fill="none" xmlns="http://www.w3.org/2000/svg">
<rect y="47.6895" width="47.6892" height="47.6893" rx="23.8446" transform="rotate(-90 0 47.6895)" fill="url(#paint0_linear_704_12861)"/>
<path d="M24.0719 24.369C24.2923 24.5871 24.2957 24.9454 24.0797 25.168C23.8615 25.3896 23.509 25.3918 23.2886 25.1748C23.0267 24.916 22.6787 24.7725 22.3095 24.7725C21.5385 24.7725 20.9107 25.4065 20.9107 26.1852C20.9107 26.3231 20.9599 26.8215 21.2889 28.6253C21.3191 28.7903 21.2755 28.9609 21.1692 29.0898C21.0629 29.2175 20.9051 29.2932 20.7395 29.2932H18.9536C16.7939 29.2932 15.0371 27.5188 15.0371 25.3376V24.2096C13.6517 24.4583 13.2545 24.4899 13.0788 24.4899C11.6901 24.4899 10.561 23.3484 10.561 21.947C10.561 20.5456 11.6901 19.4041 13.0788 19.4041C13.2545 19.4041 13.6517 19.4357 15.0371 19.6844V18.5565C15.0371 16.3752 16.7939 14.6008 18.9536 14.6008H20.0703C19.8253 13.2005 19.7928 12.7993 19.7928 12.623C19.7928 11.2216 20.9219 10.0801 22.3106 10.0801C23.6993 10.0801 24.8283 11.2216 24.8283 12.623C24.8283 12.7993 24.797 13.2005 24.5508 14.6008H25.6676C27.8273 14.6008 29.5841 16.3752 29.5841 18.5565V21.947C29.5841 22.2589 29.3335 22.5121 29.0246 22.5121C28.7158 22.5121 28.4651 22.2589 28.4651 21.947V18.5565C28.4651 16.9979 27.2096 15.731 25.6676 15.731H23.8817C23.7161 15.731 23.5583 15.6564 23.452 15.5276C23.3457 15.3987 23.302 15.2281 23.3322 15.0631C23.6612 13.2593 23.7105 12.7609 23.7105 12.623C23.7105 11.8443 23.0827 11.2103 22.3117 11.2103C21.5407 11.2103 20.9129 11.8443 20.9129 12.623C20.9129 12.7609 20.9622 13.2593 21.2912 15.0631C21.3214 15.2281 21.2777 15.3987 21.1714 15.5276C21.0651 15.6553 20.9074 15.731 20.7417 15.731H18.9558C17.4138 15.731 16.1583 16.9979 16.1583 18.5565V20.3614C16.1583 20.5286 16.0844 20.688 15.9569 20.7965C15.8293 20.9039 15.6615 20.9479 15.497 20.9163C13.6473 20.5716 13.1907 20.5343 13.081 20.5343C12.31 20.5343 11.6823 21.1683 11.6823 21.947C11.6823 22.7257 12.31 23.3597 13.081 23.3597C13.1918 23.3597 13.6473 23.3225 15.497 22.9777C15.6626 22.9472 15.8293 22.9913 15.9569 23.0975C16.0844 23.206 16.1583 23.3643 16.1583 23.5327V25.3376C16.1583 26.8961 17.4138 28.163 18.9558 28.163H20.0726C19.8275 26.7627 19.7951 26.3615 19.7951 26.1852C19.7951 24.7838 20.9241 23.6423 22.3128 23.6423C22.9764 23.6423 23.6019 23.9011 24.0753 24.3701L24.0719 24.369ZM32.94 30.4223C32.94 31.6689 31.9363 32.6826 30.702 32.6826C29.4677 32.6826 28.464 31.6689 28.464 30.4223C28.464 29.1757 29.4677 28.1619 30.702 28.1619C31.9363 28.1619 32.94 29.1757 32.94 30.4223ZM31.821 30.4223C31.821 29.7984 31.3186 29.2921 30.702 29.2921C30.0854 29.2921 29.583 29.7984 29.583 30.4223C29.583 31.0461 30.0854 31.5525 30.702 31.5525C31.3186 31.5525 31.821 31.0461 31.821 30.4223ZM36.6685 32.573C36.7816 33.0127 36.7178 33.4681 36.4895 33.8592C36.2623 34.2491 35.8987 34.5271 35.4645 34.6401C35.0314 34.7577 34.5782 34.691 34.1922 34.4604L33.9426 34.3124C33.4861 34.6966 32.9568 34.9973 32.3805 35.2007V35.507C32.3805 36.4416 31.6274 37.2023 30.702 37.2023C29.7766 37.2023 29.0235 36.4416 29.0235 35.507V35.2007C28.4472 34.9973 27.9179 34.6966 27.4614 34.3124L27.2118 34.4604C26.8258 34.691 26.3737 34.7577 25.9395 34.6401C25.5053 34.526 25.1417 34.2479 24.9134 33.858C24.6862 33.4681 24.6224 33.0127 24.7355 32.573C24.8485 32.1345 25.1226 31.7672 25.5087 31.5378L25.7705 31.3818C25.6989 31.0439 25.6654 30.7319 25.6654 30.4211C25.6654 30.1103 25.6989 29.7984 25.7705 29.4594L25.5087 29.3034C25.1226 29.0751 24.8474 28.7078 24.7343 28.2681C24.6213 27.8296 24.6851 27.3742 24.9134 26.9831C25.1405 26.5932 25.5042 26.3152 25.9384 26.2022C26.3726 26.0869 26.8246 26.1524 27.2107 26.3819L27.4602 26.5299C27.9168 26.1457 28.4461 25.845 29.0224 25.6416V25.3353C29.0224 24.4006 29.7755 23.64 30.7009 23.64C31.6263 23.64 32.3794 24.4006 32.3794 25.3353V25.6416C32.9557 25.845 33.485 26.1457 33.9415 26.5299L34.1911 26.3819C34.5771 26.1524 35.0303 26.0869 35.4634 26.2022C35.8975 26.3163 36.2612 26.5943 36.4895 26.9842C36.7167 27.3742 36.7804 27.8296 36.6674 28.2681C36.5544 28.7078 36.2791 29.0751 35.8931 29.3045L35.6323 29.4594C35.704 29.7984 35.7375 30.1103 35.7375 30.4211C35.7375 30.7319 35.704 31.0439 35.6323 31.3818L35.8931 31.5366C36.2802 31.7672 36.5555 32.1345 36.6674 32.573H36.6685ZM34.7047 28.701L35.3268 28.3314C35.4555 28.2546 35.5473 28.1314 35.5842 27.9856C35.6223 27.8398 35.601 27.6872 35.5249 27.5584C35.4488 27.4273 35.3268 27.3346 35.1825 27.2973C35.0381 27.2589 34.8871 27.2804 34.7584 27.3572L34.153 27.7166C33.9337 27.8477 33.6539 27.8127 33.4738 27.6296C32.9926 27.1413 32.3727 26.7899 31.68 26.609C31.4327 26.5435 31.2604 26.3186 31.2604 26.062V25.3364C31.2604 25.0256 31.0097 24.7713 30.7009 24.7713C30.392 24.7713 30.1414 25.0256 30.1414 25.3364V26.062C30.1414 26.3197 29.9691 26.5446 29.7218 26.609C29.0291 26.7899 28.4092 27.1425 27.928 27.6296C27.7478 27.8127 27.467 27.8477 27.2488 27.7166L26.6434 27.3572C26.5136 27.2815 26.3659 27.26 26.2193 27.2973C26.0749 27.3346 25.9541 27.4273 25.878 27.5573C25.8019 27.6872 25.7806 27.8398 25.8187 27.9856C25.8556 28.1314 25.9473 28.2534 26.076 28.3303L26.6993 28.701C26.9186 28.831 27.0238 29.0954 26.9545 29.3418C26.8392 29.7498 26.7855 30.0934 26.7855 30.4211C26.7855 30.7489 26.8392 31.0925 26.9545 31.5005C27.0238 31.748 26.9198 32.0124 26.6993 32.1424L26.0772 32.5109C25.9485 32.5866 25.8578 32.7098 25.8198 32.8567C25.7817 33.0025 25.803 33.1551 25.8791 33.2839C25.9552 33.415 26.0772 33.5077 26.2215 33.545C26.367 33.5834 26.5158 33.5619 26.6456 33.4851L27.251 33.1257C27.3394 33.0726 27.4379 33.0477 27.5341 33.0477C27.6784 33.0477 27.8228 33.1042 27.9302 33.2127C28.4114 33.7009 29.0313 34.0524 29.724 34.2333C29.9713 34.2988 30.1436 34.5237 30.1436 34.7803V35.5058C30.1436 35.8166 30.3943 36.0709 30.7031 36.0709C31.012 36.0709 31.2626 35.8166 31.2626 35.5058V34.7803C31.2626 34.5226 31.4349 34.2977 31.6822 34.2333C32.3749 34.0524 32.9948 33.6998 33.476 33.2127C33.6562 33.0296 33.937 32.9934 34.1553 33.1257L34.7606 33.4851C34.8904 33.5619 35.0404 33.5834 35.1847 33.545C35.3291 33.5077 35.4499 33.415 35.526 33.285C35.6021 33.1551 35.6234 33.0025 35.5853 32.8567C35.5473 32.7098 35.4567 32.5877 35.328 32.5097L34.7058 32.1424C34.4854 32.0124 34.3802 31.7468 34.4507 31.5005C34.5659 31.0925 34.6196 30.7489 34.6196 30.4211C34.6196 30.0934 34.5659 29.7498 34.4507 29.3418C34.3813 29.0943 34.4842 28.831 34.7047 28.701Z" fill="white"/>
<defs>
<linearGradient id="paint0_linear_704_12861" x1="40.0793" y1="47.6894" x2="3.64745" y2="96.222" gradientUnits="userSpaceOnUse">
<stop stop-color="#9A2686"/>
<stop offset="1" stop-color="#293992"/>
</linearGradient>
</defs>
</svg>
