<svg width="48" height="49" viewBox="0 0 48 49" fill="none" xmlns="http://www.w3.org/2000/svg">
<rect y="48.6895" width="47.9741" height="47.9742" rx="23.9871" transform="rotate(-90 0 48.6895)" fill="url(#paint0_linear_704_12874)"/>
<path d="M30.5808 36.3399C30.6072 36.6389 30.3927 36.9041 30.102 36.9302C30.0862 36.9302 30.0703 36.9324 30.0545 36.9324C29.7839 36.9324 29.5535 36.7204 29.5282 36.4378C29.2819 33.6211 27.0192 31.4969 24.2661 31.4969C21.513 31.4969 19.2502 33.6211 19.004 36.4378C18.9776 36.7367 18.7218 36.952 18.4301 36.9302C18.1395 36.9041 17.9249 36.6389 17.9513 36.3399C18.2473 32.959 20.9623 30.4097 24.2671 30.4097C27.5719 30.4097 30.2859 32.959 30.5829 36.3399H30.5808ZM27.964 25.5177C27.964 27.6159 26.3047 29.3226 24.265 29.3226C22.2253 29.3226 20.566 27.6159 20.566 25.5177C20.566 23.4196 22.2253 21.7129 24.265 21.7129C26.3047 21.7129 27.964 23.4196 27.964 25.5177ZM26.9072 25.5177C26.9072 24.0186 25.7214 22.8 24.265 22.8C22.8087 22.8 21.6229 24.0186 21.6229 25.5177C21.6229 27.0169 22.8087 28.2355 24.265 28.2355C25.7214 28.2355 26.9072 27.0169 26.9072 25.5177ZM20.4508 15.2261C19.6307 14.5575 20.1433 13.1138 21.1832 13.1442H22.6607L23.1902 11.6158C23.5168 10.6037 25.0101 10.6026 25.3388 11.6092L25.8704 13.1442H27.3479C28.3846 13.1095 28.8993 14.564 28.0856 15.2228L26.9082 16.2088L27.3891 17.6199C27.76 18.6429 26.5447 19.6028 25.6812 18.9853L24.2756 18.0439L22.8953 18.994C22.0456 19.6245 20.8165 18.6798 21.1663 17.6612L21.6334 16.2164L20.4508 15.2261ZM21.1177 14.3836L22.5836 15.6109C22.7548 15.7533 22.8213 15.9903 22.7516 16.2045L22.1714 17.996L22.258 18.1058C22.2707 18.1058 22.2876 18.1036 22.3045 18.0917L23.9765 16.9404C24.153 16.8209 24.3802 16.8198 24.5588 16.9372L26.2561 18.0743L26.3904 17.9786L25.7869 16.2077C25.7129 15.9925 25.7795 15.7511 25.9518 15.6066L27.4102 14.3846L27.3468 14.2303H25.4973C25.2743 14.2303 25.0746 14.0857 24.9995 13.8694L24.3443 11.98H24.1857L23.5305 13.8694C23.4555 14.0857 23.2557 14.2303 23.0327 14.2303H21.1832L21.1177 14.3836ZM36.5404 18.3667L35.3631 19.3527L35.8439 20.7638C36.2149 21.7879 34.9985 22.7467 34.1361 22.1292L32.7304 21.1878L31.3502 22.1379C30.5005 22.7684 29.2713 21.8237 29.6212 20.8051L30.0883 19.3603L28.9057 18.37C28.0856 17.7014 28.5981 16.2577 29.6381 16.2882H31.1156L31.645 14.7597C31.9716 13.7476 33.465 13.7465 33.7936 14.7532L34.3252 16.2882H35.8027C36.8395 16.2534 37.3542 17.7079 36.5404 18.3667ZM35.8661 17.5286L35.8027 17.3742H33.9532C33.7302 17.3742 33.5305 17.2296 33.4554 17.0133L32.8002 15.1239H32.6417L31.9864 17.0133C31.9114 17.2296 31.7116 17.3742 31.4886 17.3742H29.6391L29.5736 17.5264L31.0395 18.7537C31.2107 18.8962 31.2773 19.1331 31.2075 19.3473L30.6273 21.1399L30.714 21.2487C30.7266 21.2487 30.7435 21.2465 30.7605 21.2345L32.4324 20.0833C32.6078 19.9648 32.8361 19.9615 33.0147 20.08L34.712 21.2171L34.8463 21.1215L34.2428 19.3506C34.1688 19.1353 34.2354 18.894 34.4077 18.7494L35.8661 17.5286ZM18.5485 22.0749C18.1617 22.3793 17.6301 22.401 17.2253 22.1292L15.8197 21.1878L14.4394 22.1379C13.5897 22.7684 12.3606 21.8237 12.7104 20.8051L13.1775 19.3603L11.9949 18.37C11.1748 17.7014 11.6874 16.2577 12.7273 16.2882H14.2048L14.7343 14.7597C15.0608 13.7476 16.5542 13.7465 16.8829 14.7532L17.4145 16.2882H18.8919C19.9287 16.2534 20.4434 17.7079 19.6296 18.3667L18.4523 19.3527L18.9332 20.7638C19.0896 21.2465 18.9332 21.7705 18.5485 22.0749ZM17.9355 21.1226L17.332 19.3517C17.258 19.1364 17.3246 18.8951 17.4969 18.7505L18.9554 17.5286L18.8919 17.3742H17.0424C16.8195 17.3742 16.6197 17.2296 16.5447 17.0133L15.8894 15.1239H15.7309L15.0756 17.0133C15.0006 17.2296 14.8009 17.3742 14.5779 17.3742H12.7273L12.6618 17.5264L14.1276 18.7537C14.2988 18.8962 14.3654 19.1331 14.2957 19.3473L13.7155 21.1399L13.8021 21.2487C13.8148 21.2487 13.8317 21.2465 13.8486 21.2345L15.5206 20.0833C15.696 19.9648 15.9254 19.9615 16.1029 20.08L17.8002 21.2171L17.9344 21.1215L17.9355 21.1226Z" fill="white"/>
<defs>
<linearGradient id="paint0_linear_704_12874" x1="40.3187" y1="48.6894" x2="3.66924" y2="97.5119" gradientUnits="userSpaceOnUse">
<stop stop-color="#9A2686"/>
<stop offset="1" stop-color="#293992"/>
</linearGradient>
</defs>
</svg>
