<svg width="51" height="51" viewBox="0 0 51 51" fill="none" xmlns="http://www.w3.org/2000/svg">
<rect y="50.6895" width="50.6892" height="50.6893" rx="25.3446" transform="rotate(-90 0 50.6895)" fill="url(#paint0_linear_704_13706)"/>
<path d="M25.3896 37.3083C25.4353 37.1414 25.3492 36.9628 25.2376 36.8395C25.1972 36.8023 22.4058 34.1352 20.7529 30.318H23.2806C23.574 30.318 23.8121 30.0799 23.8121 29.7865C23.8121 29.4931 23.574 29.255 23.2806 29.255H20.3372C19.8706 27.9295 19.5602 26.4987 19.5602 25.0031C19.5602 23.5074 19.8706 22.0767 20.3372 20.7511H35.7612C35.9781 21.3017 36.1599 21.8704 36.2906 22.4604C36.3544 22.7463 36.6361 22.9292 36.9252 22.8643C37.2122 22.8006 37.3919 22.5167 37.3292 22.2297C36.0461 16.4502 30.8183 12.2557 24.8921 12.2461C17.8541 12.2365 12.1171 17.9618 12.1182 25.002C12.1182 32.0358 17.8403 37.7579 24.8741 37.7579C25.1334 37.759 25.362 37.5591 25.3896 37.3083ZM20.7518 19.687C22.0582 16.6692 24.0651 14.3806 24.8741 13.5334C25.6905 14.3859 27.7069 16.6745 29.007 19.687H20.7518ZM35.285 19.687H30.155C29.0176 16.852 27.2743 14.6113 26.1954 13.3941C30.0923 13.8448 33.5162 16.2515 35.285 19.687ZM23.556 13.3888C22.4728 14.6049 20.7242 16.851 19.5899 19.687H14.4716C16.2203 16.2791 19.5867 13.8363 23.556 13.3888ZM13.9933 20.75H19.2073C18.7778 22.0767 18.4961 23.5021 18.4961 25.002C18.4961 26.5019 18.7778 27.9274 19.2073 29.254H13.9933C13.4756 27.9337 13.1812 26.503 13.1812 25.002C13.1812 23.5011 13.4756 22.0703 13.9933 20.75ZM14.4716 30.317H19.5899C20.7242 33.1541 22.4728 35.3991 23.556 36.6152C19.5867 36.1677 16.2203 33.7249 14.4716 30.317ZM35.504 28.5641V26.5965C35.504 24.5449 33.8351 22.876 31.7835 22.876C29.7319 22.876 28.0631 24.5449 28.0631 26.5965V28.5641C26.8108 29.1636 25.9371 30.4328 25.9371 31.9115V34.0374C25.9371 36.089 27.606 37.7579 29.6575 37.7579H33.9095C35.9611 37.7579 37.63 36.089 37.63 34.0374V31.9115C37.63 30.4328 36.7562 29.1636 35.504 28.5641ZM29.126 26.5965C29.126 25.1317 30.3177 23.939 31.7835 23.939C33.2494 23.939 34.441 25.1317 34.441 26.5965V28.2452C34.2656 28.2197 34.0913 28.191 33.9095 28.191H29.6575C29.4758 28.191 29.3014 28.2197 29.126 28.2452V26.5965ZM36.567 34.0374C36.567 35.5022 35.3754 36.6949 33.9095 36.6949H29.6575C28.1917 36.6949 27.0001 35.5022 27.0001 34.0374V31.9115C27.0001 30.4467 28.1917 29.254 29.6575 29.254H33.9095C35.3754 29.254 36.567 30.4467 36.567 31.9115V34.0374ZM32.8465 32.9744C32.8465 33.5612 32.3703 34.0374 31.7835 34.0374C31.1968 34.0374 30.7205 33.5612 30.7205 32.9744C30.7205 32.3877 31.1968 31.9115 31.7835 31.9115C32.3703 31.9115 32.8465 32.3877 32.8465 32.9744Z" fill="white"/>
<defs>
<linearGradient id="paint0_linear_704_13706" x1="42.6005" y1="50.6894" x2="3.8769" y2="102.275" gradientUnits="userSpaceOnUse">
<stop stop-color="#9A2686"/>
<stop offset="1" stop-color="#293992"/>
</linearGradient>
</defs>
</svg>
