<svg width="49" height="49" viewBox="0 0 49 49" fill="none" xmlns="http://www.w3.org/2000/svg">
<rect y="48.6895" width="48.6892" height="48.6893" rx="24.3446" transform="rotate(-90 0 48.6895)" fill="url(#paint0_linear_704_13709)"/>
<path d="M22.198 34.8028C22.198 35.0705 21.9808 35.2878 21.713 35.2878H16.863C14.4565 35.2878 12.498 33.3293 12.498 30.9228V16.3728C12.498 13.9662 14.4565 12.0078 16.863 12.0078H25.593C27.9996 12.0078 29.958 13.9662 29.958 16.3728C29.958 16.6405 29.7407 16.8578 29.473 16.8578C29.2053 16.8578 28.988 16.6405 28.988 16.3728C28.988 14.5007 27.4651 12.9778 25.593 12.9778H16.863C14.9909 12.9778 13.468 14.5007 13.468 16.3728V30.9228C13.468 32.7949 14.9909 34.3178 16.863 34.3178H21.713C21.9808 34.3178 22.198 34.5351 22.198 34.8028ZM32.383 18.7978H27.533C26.5679 18.7978 25.6464 19.2101 25.0033 19.9298C24.8248 20.1286 24.8413 20.4352 25.0411 20.6146C25.2419 20.7931 25.5474 20.7747 25.7259 20.5758C26.1857 20.0627 26.8443 19.7678 27.533 19.7678H32.383C33.7197 19.7678 34.808 20.8552 34.808 22.1928V31.8928C34.808 33.2304 33.7197 34.3178 32.383 34.3178H27.533C26.1964 34.3178 25.108 33.2304 25.108 31.8928C25.108 31.6251 24.8907 31.4078 24.623 31.4078C24.3553 31.4078 24.138 31.6251 24.138 31.8928C24.138 33.7649 25.6609 35.2878 27.533 35.2878H32.383C34.2551 35.2878 35.778 33.7649 35.778 31.8928V22.1928C35.778 20.3207 34.2551 18.7978 32.383 18.7978ZM21.713 16.8578C21.9808 16.8578 22.198 16.6405 22.198 16.3728C22.198 16.1051 21.9808 15.8878 21.713 15.8878H18.318C17.2481 15.8878 16.378 16.7579 16.378 17.8278V21.2228C16.378 21.4905 16.5953 21.7078 16.863 21.7078C17.1308 21.7078 17.348 21.4905 17.348 21.2228V17.8278C17.348 17.7444 17.3762 17.6687 17.3956 17.5911L28.2537 28.4493C28.1761 28.4697 28.1014 28.4968 28.017 28.4968H24.6221C24.3543 28.4968 24.1371 28.7141 24.1371 28.9818C24.1371 29.2495 24.3543 29.4668 24.6221 29.4668H28.017C29.087 29.4668 29.957 28.5967 29.957 27.5268V24.1318C29.957 23.8641 29.7398 23.6468 29.472 23.6468C29.2043 23.6468 28.987 23.8641 28.987 24.1318V27.5268C28.987 27.6102 28.9589 27.6859 28.9395 27.7635L18.0814 16.9053C18.159 16.885 18.2336 16.8578 18.318 16.8578H21.713ZM21.713 30.4378H19.773C19.5053 30.4378 19.288 30.6551 19.288 30.9228C19.288 31.1905 19.5053 31.4078 19.773 31.4078H21.713C21.9808 31.4078 22.198 31.1905 22.198 30.9228C22.198 30.6551 21.9808 30.4378 21.713 30.4378Z" fill="white"/>
<defs>
<linearGradient id="paint0_linear_704_13709" x1="40.9197" y1="48.6894" x2="3.72393" y2="98.2396" gradientUnits="userSpaceOnUse">
<stop stop-color="#9A2686"/>
<stop offset="1" stop-color="#293992"/>
</linearGradient>
</defs>
</svg>
