<svg width="49" height="49" viewBox="0 0 49 49" fill="none" xmlns="http://www.w3.org/2000/svg">
<rect y="49" width="49" height="49" rx="24.5" transform="rotate(-90 0 49)" fill="url(#paint0_linear_704_13718)"/>
<path d="M24.5975 34.3914C24.7001 34.6456 24.6074 34.9246 24.3559 35.0293L23.8626 35.2296C23.8034 35.2536 23.7403 35.2655 23.6782 35.2655C23.6022 35.2655 23.5262 35.2476 23.4572 35.2127L23.0379 35.0004C20.8736 33.908 13.8105 29.8293 13.8105 23.2397V18.0207C13.8105 15.9884 15.093 14.1932 17.0027 13.5533L23.5203 11.3684C23.6209 11.3355 23.7304 11.3355 23.8301 11.3684L30.3467 13.5513C32.2565 14.1912 33.5389 15.9854 33.5389 18.0187V20.3133C33.5389 20.5884 33.3179 20.8116 33.0456 20.8116C32.7734 20.8116 32.5524 20.5884 32.5524 20.3133V18.0187C32.5524 16.417 31.5413 15.0016 30.0359 14.4972L23.6742 12.3652L17.3135 14.4982C15.8091 15.0026 14.797 16.418 14.797 18.0197V23.2387C14.797 29.2561 21.4418 33.0797 23.4789 34.1083L23.6999 34.2199L23.9277 34.1262C24.1803 34.0226 24.494 34.1372 24.5975 34.3914ZM37.4857 28.7866C37.4857 32.359 34.6092 35.2655 31.0737 35.2655C27.5382 35.2655 24.6617 32.359 24.6617 28.7866C24.6617 25.2143 27.5382 22.3078 31.0737 22.3078C34.6092 22.3078 37.4857 25.2143 37.4857 28.7866ZM36.4992 28.7866C36.4992 25.7645 34.0656 23.3045 31.0737 23.3045C28.0817 23.3045 25.6481 25.7645 25.6481 28.7866C25.6481 31.8088 28.0817 34.2688 31.0737 34.2688C34.0656 34.2688 36.4992 31.8088 36.4992 28.7866ZM31.0737 30.2818C31.346 30.2818 31.5669 30.0585 31.5669 29.7834V24.7996C31.5669 24.5245 31.346 24.3013 31.0737 24.3013C30.8014 24.3013 30.5805 24.5245 30.5805 24.7996V29.7834C30.5805 30.0585 30.8014 30.2818 31.0737 30.2818ZM31.0737 31.2785C30.5292 31.2785 30.0872 31.7251 30.0872 32.2753C30.0872 32.8255 30.5292 33.272 31.0737 33.272C31.6182 33.272 32.0602 32.8255 32.0602 32.2753C32.0602 31.7251 31.6182 31.2785 31.0737 31.2785Z" fill="white"/>
<defs>
<linearGradient id="paint0_linear_704_13718" x1="41.1809" y1="49" x2="3.7477" y2="98.8665" gradientUnits="userSpaceOnUse">
<stop stop-color="#9A2686"/>
<stop offset="1" stop-color="#293992"/>
</linearGradient>
</defs>
</svg>
