<svg width="49" height="49" viewBox="0 0 49 49" fill="none" xmlns="http://www.w3.org/2000/svg">
<rect y="49" width="49" height="49" rx="24.5" transform="rotate(-90 0 49)" fill="url(#paint0_linear_704_13703)"/>
<path d="M37.7763 36.4034L30.7281 29.3554C32.4844 27.4155 33.5653 24.8527 33.5653 22.0363C33.5642 16.0101 28.6614 11.1074 22.6351 11.1074C16.6088 11.1074 11.7061 16.0101 11.7061 22.0363C11.7061 28.0625 16.6088 32.9652 22.6351 32.9652C25.4516 32.9652 28.0144 31.8843 29.9543 30.1281L37.0025 37.1761C37.4965 37.6854 38.2845 36.8974 37.7763 36.4034ZM22.6351 31.8723C17.211 31.8723 12.799 27.4603 12.799 22.0363C12.799 16.6123 17.211 12.2003 22.6351 12.2003C28.0592 12.2003 32.4713 16.6134 32.4713 22.0363C32.4713 27.4592 28.0592 31.8723 22.6351 31.8723ZM29.1937 20.48C28.0363 18.9467 25.9609 17.1183 22.6351 17.1183C19.3094 17.1183 17.234 18.9456 16.0766 20.48C15.3859 21.3959 15.3859 22.6768 16.0766 23.5937C17.234 25.127 19.3116 26.9543 22.6351 26.9543C25.9587 26.9543 28.0363 25.127 29.1937 23.5926C29.8844 22.6768 29.8844 21.3959 29.1937 20.4789V20.48ZM28.3204 22.9358C27.3139 24.2713 25.5106 25.8625 22.6351 25.8625C19.7597 25.8625 17.9575 24.2713 16.9498 22.9369C16.5509 22.4079 16.5509 21.668 16.9498 21.1391C17.9564 19.8035 19.7597 18.2123 22.6351 18.2123C25.5106 18.2123 27.3139 19.8035 28.3204 21.138C28.7194 21.6669 28.7194 22.4068 28.3204 22.9358ZM22.6351 19.8516C21.4297 19.8516 20.4493 20.832 20.4493 22.0374C20.4493 23.2429 21.4297 24.2232 22.6351 24.2232C23.8406 24.2232 24.821 23.2429 24.821 22.0374C24.821 20.832 23.8406 19.8516 22.6351 19.8516ZM22.6351 23.1303C22.0319 23.1303 21.5422 22.6396 21.5422 22.0374C21.5422 21.4352 22.0319 20.9445 22.6351 20.9445C23.2384 20.9445 23.728 21.4352 23.728 22.0374C23.728 22.6396 23.2384 23.1303 22.6351 23.1303Z" fill="white"/>
<defs>
<linearGradient id="paint0_linear_704_13703" x1="41.1808" y1="49" x2="3.7477" y2="98.8664" gradientUnits="userSpaceOnUse">
<stop stop-color="#9A2686"/>
<stop offset="1" stop-color="#293992"/>
</linearGradient>
</defs>
</svg>
