<svg width="42" height="42" viewBox="0 0 42 42" fill="none" xmlns="http://www.w3.org/2000/svg">
<path d="M41.903 32.8965L38.8631 13.6465C38.2541 9.7965 34.9832 7 31.0858 7H24.4792C25.034 6.26675 25.3753 5.36375 25.3753 4.375C25.3753 1.96175 23.4134 0 21.0001 0C18.5867 0 16.6249 1.96175 16.6249 4.375C16.6249 5.36375 16.9661 6.26675 17.5227 7H10.9161C7.01696 7 3.74432 9.7965 3.13704 13.6465L0.0971568 32.8965C-0.263359 35.175 0.38942 37.4868 1.88923 39.2402C3.3873 40.9955 5.56964 42 7.87625 42H34.1239C36.4305 42 38.6128 40.9938 40.1126 39.2402C41.609 37.4868 42.2635 35.175 41.903 32.8965ZM18.375 4.375C18.375 2.92775 19.5528 1.75 21.0001 1.75C22.4474 1.75 23.6252 2.92775 23.6252 4.375C23.6252 5.82225 22.4474 7 21.0001 7C19.5528 7 18.375 5.82225 18.375 4.375ZM38.7808 38.1028C37.6153 39.466 35.9177 40.25 34.1239 40.25H7.87625C6.08242 40.25 4.38484 39.4678 3.21929 38.1028C2.05374 36.7395 1.54447 34.9405 1.82448 33.1695L4.86436 13.9195C5.33863 10.9235 7.88325 8.75 10.9161 8.75H31.0858C34.1169 8.75 36.6632 10.9235 37.134 13.9195L40.1739 33.1695C40.4539 34.9422 39.9464 36.7395 38.7808 38.1028ZM16.6249 21.6895C16.6249 22.8883 17.4824 23.9015 18.6655 24.0975L23.6234 24.9253C25.6518 25.263 27.1253 27.0025 27.1253 29.0588C27.1253 31.3687 25.2457 33.25 22.9339 33.25H21.8751V34.125C21.8751 34.608 21.4831 35 21.0001 35C20.517 35 20.125 34.608 20.125 34.125V33.25H19.25C16.8384 33.25 14.8748 31.2882 14.8748 28.875C14.8748 28.392 15.2668 28 15.7498 28C16.2329 28 16.6249 28.392 16.6249 28.875C16.6249 30.3223 17.8027 31.5 19.25 31.5H22.9339C24.2797 31.5 25.3753 30.4045 25.3753 29.0588C25.3753 27.86 24.5177 26.8468 23.3364 26.6507L18.3785 25.823C16.3484 25.4852 14.8765 23.7458 14.8765 21.6895C14.8765 19.3795 16.7561 17.4982 19.068 17.4982H20.1268V16.6232C20.1268 16.1402 20.5188 15.7482 21.0018 15.7482C21.4848 15.7482 21.8769 16.1402 21.8769 16.6232V17.4982H22.7519C25.1652 17.4982 27.1271 19.46 27.1271 21.8732C27.1271 22.3562 26.7351 22.7482 26.252 22.7482C25.769 22.7482 25.377 22.3562 25.377 21.8732C25.377 20.426 24.1992 19.2482 22.7519 19.2482H19.068C17.7222 19.2482 16.6266 20.3438 16.6266 21.6895H16.6249Z" fill="white"/>
</svg>
