<svg width="42" height="42" viewBox="0 0 42 42" fill="none" xmlns="http://www.w3.org/2000/svg">
<path d="M35 10.5893V7.875C35 3.53325 31.4667 0 27.125 0H14.875C10.5332 0 7 3.53325 7 7.875V10.5893C3.073 11.0303 0 14.3325 0 18.375V34.125C0 38.4668 3.53325 42 7.875 42H34.125C38.4668 42 42 38.4668 42 34.125V18.375C42 14.3325 38.927 11.0303 35 10.5893ZM1.75 34.125V18.375C1.75 15.2985 4.039 12.768 7 12.3393V40.1625C4.039 39.7338 1.75 37.2015 1.75 34.125ZM8.75 7.875C8.75 4.4975 11.4975 1.75 14.875 1.75H27.125C30.5025 1.75 33.25 4.4975 33.25 7.875V40.25H8.75V7.875ZM40.25 34.125C40.25 37.2015 37.961 39.732 35 40.1607V12.3393C37.961 12.768 40.25 15.2985 40.25 18.375V34.125ZM19.25 25.375C19.25 25.858 18.858 26.25 18.375 26.25H14.875C14.392 26.25 14 25.858 14 25.375C14 24.892 14.392 24.5 14.875 24.5H18.375C18.858 24.5 19.25 24.892 19.25 25.375ZM28 25.375C28 25.858 27.608 26.25 27.125 26.25H23.625C23.142 26.25 22.75 25.858 22.75 25.375C22.75 24.892 23.142 24.5 23.625 24.5H27.125C27.608 24.5 28 24.892 28 25.375ZM19.25 32.375C19.25 32.858 18.858 33.25 18.375 33.25H14.875C14.392 33.25 14 32.858 14 32.375C14 31.892 14.392 31.5 14.875 31.5H18.375C18.858 31.5 19.25 31.892 19.25 32.375ZM28 32.375C28 32.858 27.608 33.25 27.125 33.25H23.625C23.142 33.25 22.75 32.858 22.75 32.375C22.75 31.892 23.142 31.5 23.625 31.5H27.125C27.608 31.5 28 31.892 28 32.375ZM21.875 13.125V16.625C21.875 17.108 21.483 17.5 21 17.5C20.517 17.5 20.125 17.108 20.125 16.625V13.125H16.625C16.142 13.125 15.75 12.733 15.75 12.25C15.75 11.767 16.142 11.375 16.625 11.375H20.125V7.875C20.125 7.392 20.517 7 21 7C21.483 7 21.875 7.392 21.875 7.875V11.375H25.375C25.858 11.375 26.25 11.767 26.25 12.25C26.25 12.733 25.858 13.125 25.375 13.125H21.875Z" fill="white"/>
</svg>
