<svg width="50" height="50" viewBox="0 0 50 50" fill="none" xmlns="http://www.w3.org/2000/svg">
<rect y="49.6895" width="49.6892" height="49.6893" rx="24.8446" transform="rotate(-90 0 49.6895)" fill="url(#paint0_linear_704_13715)"/>
<path d="M31.9483 23.5055C28.7416 23.5055 26.1338 26.1414 26.1338 29.3827C26.1338 32.624 28.7416 35.26 31.9483 35.26C35.155 35.26 37.7628 32.624 37.7628 29.3827C37.7628 26.1414 35.155 23.5055 31.9483 23.5055ZM30.0102 33.8651V33.3009C30.0102 32.2204 30.8794 31.3418 31.9483 31.3418C33.0172 31.3418 33.8865 32.2204 33.8865 33.3009V33.8651C33.2915 34.1286 32.6383 34.2804 31.9483 34.2804C31.2583 34.2804 30.6052 34.1296 30.0102 33.8651ZM34.8536 33.2774C34.841 31.668 33.5444 30.3623 31.9483 30.3623C30.3523 30.3623 29.0556 31.668 29.043 33.2774C27.8724 32.3821 27.1029 30.9774 27.1029 29.3827C27.1029 26.6821 29.2766 24.485 31.9483 24.485C34.6201 24.485 36.7937 26.6821 36.7937 29.3827C36.7937 30.9774 36.0243 32.383 34.8536 33.2774ZM31.9483 25.4646C30.8794 25.4646 30.0102 26.3432 30.0102 27.4236C30.0102 28.5041 30.8794 29.3827 31.9483 29.3827C33.0172 29.3827 33.8865 28.5041 33.8865 27.4236C33.8865 26.3432 33.0172 25.4646 31.9483 25.4646ZM31.9483 28.4032C31.4134 28.4032 30.9792 27.9634 30.9792 27.4236C30.9792 26.8839 31.4134 26.4441 31.9483 26.4441C32.4833 26.4441 32.9174 26.8839 32.9174 27.4236C32.9174 27.9634 32.4833 28.4032 31.9483 28.4032ZM25.6493 34.2804H18.8657C16.9954 34.2804 15.474 32.7425 15.474 30.852V23.9952C15.474 22.1047 16.9954 20.5668 18.8657 20.5668H28.5565C29.4239 20.5668 30.2476 20.8969 30.8785 21.4964C31.0732 21.6806 31.3804 21.6727 31.5636 21.4759C31.7468 21.279 31.738 20.9685 31.5433 20.7833C31.0984 20.3602 30.5742 20.0536 30.0111 19.8518V18.119C30.0111 14.6083 27.1853 11.752 23.7121 11.752C20.2389 11.752 17.4121 14.6073 17.4121 18.118V19.8577C15.724 20.466 14.5049 22.0822 14.5049 23.9952V30.852C14.5049 33.2823 16.4615 35.26 18.8657 35.26H25.6493C25.9168 35.26 26.1338 35.0405 26.1338 34.7702C26.1338 34.4998 25.9168 34.2804 25.6493 34.2804ZM18.3812 18.118C18.3812 15.147 20.7729 12.7305 23.7111 12.7305C26.6494 12.7305 29.0411 15.147 29.0411 18.118V19.6333C28.8802 19.6147 28.7203 19.5873 28.5565 19.5873H18.8657C18.7 19.5873 18.5421 19.6186 18.3812 19.6373V18.118ZM23.7111 26.4441C23.9786 26.4441 24.1957 26.6635 24.1957 26.9339V28.8929C24.1957 29.1633 23.9786 29.3827 23.7111 29.3827C23.4437 29.3827 23.2266 29.1633 23.2266 28.8929V26.9339C23.2266 26.6635 23.4437 26.4441 23.7111 26.4441Z" fill="white"/>
<defs>
<linearGradient id="paint0_linear_704_13715" x1="41.7601" y1="49.6894" x2="3.80042" y2="100.257" gradientUnits="userSpaceOnUse">
<stop stop-color="#9A2686"/>
<stop offset="1" stop-color="#293992"/>
</linearGradient>
</defs>
</svg>
