<svg width="43" height="40" viewBox="0 0 43 40" fill="none" xmlns="http://www.w3.org/2000/svg">
<path d="M7.16667 21.8182H17.9167C20.8801 21.8182 23.2917 19.3709 23.2917 16.3636V5.45455C23.2917 2.44727 20.8801 0 17.9167 0H7.16667C4.20325 0 1.79167 2.44727 1.79167 5.45455V16.3636C1.79167 19.3709 4.20325 21.8182 7.16667 21.8182ZM3.58333 5.45455C3.58333 3.44909 5.19046 1.81818 7.16667 1.81818H17.9167C19.8929 1.81818 21.5 3.44909 21.5 5.45455V16.3636C21.5 18.3691 19.8929 20 17.9167 20H7.16667C5.19046 20 3.58333 18.3691 3.58333 16.3636V5.45455ZM31.3542 21.8182H36.7292C39.1999 21.8182 41.2083 19.7782 41.2083 17.2727V11.8182C41.2083 9.31273 39.1999 7.27273 36.7292 7.27273H31.3542C28.8835 7.27273 26.875 9.31273 26.875 11.8182V17.2727C26.875 19.7782 28.8835 21.8182 31.3542 21.8182ZM28.6667 11.8182C28.6667 10.3145 29.8725 9.09091 31.3542 9.09091H36.7292C38.2109 9.09091 39.4167 10.3145 39.4167 11.8182V17.2727C39.4167 18.7764 38.2109 20 36.7292 20H31.3542C29.8725 20 28.6667 18.7764 28.6667 17.2727V11.8182ZM35.8333 25.4545H7.16667C3.21425 25.4545 0 28.7164 0 32.7273C0 36.7382 3.21425 40 7.16667 40H35.8333C39.7857 40 43 36.7382 43 32.7273C43 28.7164 39.7857 25.4545 35.8333 25.4545ZM35.8333 38.1818H7.16667C4.20325 38.1818 1.79167 35.7345 1.79167 32.7273C1.79167 29.72 4.20325 27.2727 7.16667 27.2727H35.8333C38.7967 27.2727 41.2083 29.72 41.2083 32.7273C41.2083 35.7345 38.7967 38.1818 35.8333 38.1818ZM8.95833 32.7273C8.95833 33.7309 8.15567 34.5455 7.16667 34.5455C6.17767 34.5455 5.375 33.7309 5.375 32.7273C5.375 31.7236 6.17767 30.9091 7.16667 30.9091C8.15567 30.9091 8.95833 31.7236 8.95833 32.7273ZM37.625 32.7273C37.625 33.7309 36.8223 34.5455 35.8333 34.5455C34.8443 34.5455 34.0417 33.7309 34.0417 32.7273C34.0417 31.7236 34.8443 30.9091 35.8333 30.9091C36.8223 30.9091 37.625 31.7236 37.625 32.7273ZM17.9167 32.7273C17.9167 33.7309 17.114 34.5455 16.125 34.5455C15.136 34.5455 14.3333 33.7309 14.3333 32.7273C14.3333 31.7236 15.136 30.9091 16.125 30.9091C17.114 30.9091 17.9167 31.7236 17.9167 32.7273ZM28.6667 32.7273C28.6667 33.7309 27.864 34.5455 26.875 34.5455C25.886 34.5455 25.0833 33.7309 25.0833 32.7273C25.0833 31.7236 25.886 30.9091 26.875 30.9091C27.864 30.9091 28.6667 31.7236 28.6667 32.7273Z" fill="white"/>
</svg>
