<svg width="49" height="49" viewBox="0 0 49 49" fill="none" xmlns="http://www.w3.org/2000/svg">
<rect y="48.6895" width="48.6892" height="48.6893" rx="24.3446" transform="rotate(-90 0 48.6895)" fill="url(#paint0_linear_704_13336)"/>
<path d="M24.5784 24.8796C24.8034 25.1023 24.8068 25.468 24.5864 25.6954C24.3636 25.9215 24.0037 25.9238 23.7786 25.7023C23.5113 25.438 23.156 25.2915 22.779 25.2915C21.9918 25.2915 21.3509 25.9388 21.3509 26.7339C21.3509 26.8746 21.4011 27.3835 21.737 29.2251C21.7679 29.3936 21.7233 29.5678 21.6148 29.6993C21.5063 29.8297 21.3452 29.907 21.1761 29.907H19.3527C17.1477 29.907 15.3541 28.0954 15.3541 25.8684V24.7169C13.9397 24.9707 13.5341 25.003 13.3547 25.003C11.9369 25.003 10.7842 23.8376 10.7842 22.4068C10.7842 20.976 11.9369 19.8106 13.3547 19.8106C13.5341 19.8106 13.9397 19.8429 15.3541 20.0967V18.9451C15.3541 16.7181 17.1477 14.9066 19.3527 14.9066H20.4929C20.2427 13.4769 20.2096 13.0673 20.2096 12.8873C20.2096 11.4564 21.3623 10.291 22.7801 10.291C24.1979 10.291 25.3507 11.4564 25.3507 12.8873C25.3507 13.0673 25.3187 13.4769 25.0673 14.9066H26.2075C28.4125 14.9066 30.2062 16.7181 30.2062 18.9451V22.4068C30.2062 22.7253 29.9502 22.9837 29.6349 22.9837C29.3196 22.9837 29.0637 22.7253 29.0637 22.4068V18.9451C29.0637 17.3539 27.7818 16.0604 26.2075 16.0604H24.3841C24.215 16.0604 24.054 15.9843 23.9454 15.8527C23.8369 15.7212 23.7923 15.547 23.8232 15.3785C24.1591 13.5369 24.2093 13.028 24.2093 12.8873C24.2093 12.0922 23.5684 11.4449 22.7812 11.4449C21.9941 11.4449 21.3532 12.0922 21.3532 12.8873C21.3532 13.028 21.4034 13.5369 21.7393 15.3785C21.7702 15.547 21.7256 15.7212 21.6171 15.8527C21.5085 15.9831 21.3475 16.0604 21.1784 16.0604H19.355C17.7807 16.0604 16.4988 17.3539 16.4988 18.9451V20.7879C16.4988 20.9587 16.4234 21.1214 16.2932 21.2321C16.1629 21.3418 15.9916 21.3868 15.8236 21.3545C13.9351 21.0025 13.469 20.9644 13.357 20.9644C12.5699 20.9644 11.9289 21.6118 11.9289 22.4068C11.9289 23.2018 12.5699 23.8491 13.357 23.8491C13.4701 23.8491 13.9351 23.8111 15.8236 23.4591C15.9927 23.428 16.1629 23.473 16.2932 23.5814C16.4234 23.6922 16.4988 23.8538 16.4988 24.0257V25.8684C16.4988 27.4597 17.7807 28.7532 19.355 28.7532H20.4952C20.245 27.3235 20.2118 26.9139 20.2118 26.7339C20.2118 25.303 21.3646 24.1376 22.7824 24.1376C23.4599 24.1376 24.0985 24.4019 24.5818 24.8807L24.5784 24.8796ZM33.6324 31.0598C33.6324 32.3325 32.6076 33.3675 31.3475 33.3675C30.0873 33.3675 29.0625 32.3325 29.0625 31.0598C29.0625 29.787 30.0873 28.752 31.3475 28.752C32.6076 28.752 33.6324 29.787 33.6324 31.0598ZM32.49 31.0598C32.49 30.4228 31.977 29.9059 31.3475 29.9059C30.718 29.9059 30.205 30.4228 30.205 31.0598C30.205 31.6967 30.718 32.2137 31.3475 32.2137C31.977 32.2137 32.49 31.6967 32.49 31.0598ZM37.4391 33.2556C37.5545 33.7045 37.4894 34.1695 37.2563 34.5687C37.0244 34.9668 36.6531 35.2507 36.2098 35.3661C35.7677 35.4861 35.305 35.418 34.9108 35.1826L34.6561 35.0314C34.1899 35.4238 33.6496 35.7307 33.0612 35.9384V36.2511C33.0612 37.2054 32.2923 37.9819 31.3475 37.9819C30.4027 37.9819 29.6338 37.2054 29.6338 36.2511V35.9384C29.0454 35.7307 28.505 35.4238 28.0389 35.0314L27.7841 35.1826C27.39 35.418 26.9284 35.4861 26.4851 35.3661C26.0419 35.2495 25.6706 34.9657 25.4375 34.5676C25.2056 34.1695 25.1404 33.7045 25.2558 33.2556C25.3712 32.8079 25.6511 32.4329 26.0453 32.1987L26.3126 32.0394C26.2395 31.6944 26.2052 31.3759 26.2052 31.0586C26.2052 30.7413 26.2395 30.4228 26.3126 30.0767L26.0453 29.9174C25.6511 29.6843 25.3701 29.3093 25.2547 28.8605C25.1393 28.4128 25.2044 27.9477 25.4375 27.5485C25.6694 27.1504 26.0407 26.8666 26.484 26.7512C26.9273 26.6335 27.3888 26.7004 27.783 26.9346L28.0378 27.0858C28.5039 26.6935 29.0443 26.3865 29.6326 26.1788V25.8661C29.6326 24.9119 30.4015 24.1353 31.3463 24.1353C32.2912 24.1353 33.06 24.9119 33.06 25.8661V26.1788C33.6484 26.3865 34.1888 26.6935 34.6549 27.0858L34.9097 26.9346C35.3039 26.7004 35.7666 26.6335 36.2087 26.7512C36.652 26.8677 37.0233 27.1516 37.2563 27.5497C37.4883 27.9477 37.5534 28.4128 37.438 28.8605C37.3226 29.3093 37.0416 29.6843 36.6474 29.9186L36.3812 30.0767C36.4543 30.4228 36.4886 30.7413 36.4886 31.0586C36.4886 31.3759 36.4543 31.6944 36.3812 32.0394L36.6474 32.1975C37.0427 32.4329 37.3237 32.8079 37.438 33.2556H37.4391ZM35.4341 29.3024L36.0693 28.9251C36.2007 28.8466 36.2944 28.7208 36.3321 28.572C36.3709 28.4231 36.3492 28.2674 36.2715 28.1358C36.1938 28.002 36.0693 27.9074 35.9219 27.8693C35.7746 27.83 35.6203 27.852 35.4889 27.9304L34.8709 28.2974C34.6469 28.4312 34.3613 28.3955 34.1774 28.2085C33.6861 27.71 33.0532 27.3512 32.346 27.1666C32.0935 27.0996 31.9176 26.87 31.9176 26.6081V25.8673C31.9176 25.55 31.6617 25.2903 31.3463 25.2903C31.031 25.2903 30.7751 25.55 30.7751 25.8673V26.6081C30.7751 26.8712 30.5992 27.1008 30.3467 27.1666C29.6395 27.3512 29.0066 27.7112 28.5153 28.2085C28.3314 28.3955 28.0446 28.4312 27.8218 28.2974L27.2037 27.9304C27.0712 27.8531 26.9204 27.8312 26.7708 27.8693C26.6234 27.9074 26.5 28.002 26.4223 28.1347C26.3446 28.2674 26.3229 28.4231 26.3617 28.572C26.3994 28.7208 26.4931 28.8455 26.6245 28.9239L27.2609 29.3024C27.4848 29.4351 27.5922 29.7051 27.5214 29.9567C27.4037 30.3732 27.3488 30.724 27.3488 31.0586C27.3488 31.3932 27.4037 31.744 27.5214 32.1606C27.5922 32.4133 27.4859 32.6833 27.2609 32.816L26.6257 33.1921C26.4943 33.2695 26.4017 33.3952 26.3629 33.5452C26.324 33.6941 26.3458 33.8499 26.4234 33.9814C26.5011 34.1153 26.6257 34.2099 26.773 34.2479C26.9216 34.2872 27.0735 34.2653 27.206 34.1868L27.8241 33.8199C27.9144 33.7656 28.0149 33.7402 28.1132 33.7402C28.2605 33.7402 28.4079 33.7979 28.5176 33.9087C29.0088 34.4072 29.6418 34.766 30.349 34.9507C30.6015 35.0176 30.7774 35.2472 30.7774 35.5091V36.2499C30.7774 36.5673 31.0333 36.8269 31.3486 36.8269C31.6639 36.8269 31.9199 36.5673 31.9199 36.2499V35.5091C31.9199 35.2461 32.0958 35.0164 32.3483 34.9507C33.0555 34.766 33.6884 34.406 34.1797 33.9087C34.3636 33.7218 34.6504 33.6849 34.8731 33.8199L35.4912 34.1868C35.6237 34.2653 35.7768 34.2872 35.9242 34.2479C36.0716 34.2099 36.195 34.1153 36.2727 33.9826C36.3504 33.8499 36.3721 33.6941 36.3332 33.5452C36.2944 33.3952 36.2018 33.2706 36.0705 33.191L35.4352 32.816C35.2102 32.6833 35.1028 32.4121 35.1748 32.1606C35.2924 31.744 35.3473 31.3932 35.3473 31.0586C35.3473 30.724 35.2924 30.3732 35.1748 29.9567C35.1039 29.704 35.209 29.4351 35.4341 29.3024Z" fill="white"/>
<defs>
<linearGradient id="paint0_linear_704_13336" x1="40.9197" y1="48.6894" x2="3.72393" y2="98.2396" gradientUnits="userSpaceOnUse">
<stop stop-color="#9A2686"/>
<stop offset="1" stop-color="#293992"/>
</linearGradient>
</defs>
</svg>
