<svg width="50" height="50" viewBox="0 0 50 50" fill="none" xmlns="http://www.w3.org/2000/svg">
<rect y="49.6895" width="49.6892" height="49.6893" rx="24.8446" transform="rotate(-90 0 49.6895)" fill="url(#paint0_linear_704_13712)"/>
<path d="M25.0398 33.5738H18.4751C16.6651 33.5738 15.1927 32.1014 15.1927 30.2914V21.851C15.1927 20.041 16.6651 18.5686 18.4751 18.5686H19.9343C20.4417 18.5686 20.949 18.6887 21.402 18.9156L23.5693 19.9988C24.1526 20.2905 24.8054 20.4443 25.4571 20.4443H28.792C29.0509 20.4443 29.2609 20.2342 29.2609 19.9754C29.2609 19.7165 29.0509 19.5065 28.792 19.5065H25.4571C24.9498 19.5065 24.4424 19.3864 23.9894 19.1595L21.8221 18.0763C21.2388 17.7846 20.5861 17.6308 19.9343 17.6308H18.944V15.2863C18.944 13.994 19.9962 12.9417 21.2885 12.9417H26.3087C26.3556 12.9417 26.4006 12.953 26.4465 12.9558V15.2863C26.4465 16.0619 27.0777 16.693 27.8533 16.693H30.1791C30.1847 16.7587 30.1978 16.8234 30.1978 16.8899V19.0376C30.1978 19.2964 30.4079 19.5065 30.6667 19.5065C30.9256 19.5065 31.1356 19.2964 31.1356 19.0376V16.8899C31.1356 16.0356 30.8093 15.2272 30.2175 14.6129L28.6729 13.0092C28.0577 12.3706 27.1959 12.0039 26.3087 12.0039H21.2885C19.4785 12.0039 18.0062 13.4763 18.0062 15.2863V17.6787C15.9017 17.915 14.2549 19.6846 14.2549 21.851V30.2914C14.2549 32.6181 16.1483 34.5116 18.4751 34.5116H25.0398C25.2986 34.5116 25.5087 34.3015 25.5087 34.0427C25.5087 33.7838 25.2986 33.5738 25.0398 33.5738ZM29.5423 15.2628C29.6848 15.411 29.7974 15.5798 29.8949 15.7552H27.8533C27.5944 15.7552 27.3844 15.5451 27.3844 15.2863V13.2165C27.6085 13.3328 27.8195 13.4753 27.9968 13.6592L29.5413 15.2628H29.5423ZM34.8869 26.4004V24.6645C34.8869 22.8545 33.4145 21.3821 31.6045 21.3821C29.7946 21.3821 28.3222 22.8545 28.3222 24.6645V26.4004C27.2174 26.9293 26.4465 28.0491 26.4465 29.3536V31.2292C26.4465 33.0392 27.9189 34.5116 29.7289 34.5116H33.4802C35.2902 34.5116 36.7626 33.0392 36.7626 31.2292V29.3536C36.7626 28.0491 35.9917 26.9293 34.8869 26.4004ZM29.26 24.6645C29.26 23.3722 30.3122 22.3199 31.6045 22.3199C32.8969 22.3199 33.9491 23.3722 33.9491 24.6645V26.119C33.7944 26.0965 33.6406 26.0712 33.4802 26.0712H29.7289C29.5685 26.0712 29.4147 26.0965 29.26 26.119V24.6645ZM35.8247 31.2292C35.8247 32.5215 34.7725 33.5738 33.4802 33.5738H29.7289C28.4366 33.5738 27.3844 32.5215 27.3844 31.2292V29.3536C27.3844 28.0613 28.4366 27.009 29.7289 27.009H33.4802C34.7725 27.009 35.8247 28.0613 35.8247 29.3536V31.2292ZM32.5424 30.2914C32.5424 30.8091 32.1222 31.2292 31.6045 31.2292C31.0869 31.2292 30.6667 30.8091 30.6667 30.2914C30.6667 29.7737 31.0869 29.3536 31.6045 29.3536C32.1222 29.3536 32.5424 29.7737 32.5424 30.2914Z" fill="white"/>
<defs>
<linearGradient id="paint0_linear_704_13712" x1="41.7601" y1="49.6894" x2="3.80042" y2="100.257" gradientUnits="userSpaceOnUse">
<stop stop-color="#9A2686"/>
<stop offset="1" stop-color="#293992"/>
</linearGradient>
</defs>
</svg>
