<svg width="32" height="42" viewBox="0 0 32 42" fill="none" xmlns="http://www.w3.org/2000/svg">
<path d="M26.6428 3.98663C23.2432 1.00276 18.679 -0.413053 14.1077 0.104969C7.00799 0.906503 1.14048 6.53649 0.15723 13.4878C-0.591321 18.7625 1.36274 24.0057 5.38287 27.5111C7.60896 29.452 8.88559 32.2801 8.88559 35.2657V35.8747C8.88559 39.2524 11.6771 42 15.1087 42H16.8867C20.3183 42 23.1098 39.2524 23.1098 35.8747V35.257C23.1098 32.3063 24.4469 29.466 26.8757 27.2574C30.1313 24.2927 32 20.0978 32 15.7489C32 11.2634 30.0477 6.97576 26.6428 3.98663ZM21.3318 35.873C21.3318 38.2846 19.3386 40.2482 16.8867 40.2482H15.1087C12.6568 40.2482 10.6636 38.2846 10.6636 35.873V35.264C10.6636 34.5832 10.6049 33.9077 10.4947 33.2479H21.5096C21.3923 33.9077 21.3318 34.5779 21.3318 35.2552V35.873ZM25.6684 25.9711C23.9135 27.5671 22.6547 29.459 21.9577 31.4978H16.885V18.2987C19.4044 17.8805 21.33 15.7191 21.33 13.122C21.33 12.639 20.9318 12.247 20.441 12.247C19.9503 12.247 19.552 12.639 19.552 13.122C19.552 15.0524 17.9571 16.6222 15.9959 16.6222C14.0348 16.6222 12.4399 15.0524 12.4399 13.122C12.4399 12.639 12.0416 12.247 11.5509 12.247C11.0601 12.247 10.6618 12.639 10.6618 13.122C10.6618 15.7191 12.5874 17.8805 15.1069 18.2987V31.4978H10.0626C9.39766 29.466 8.19927 27.6301 6.5617 26.2003C2.98786 23.0852 1.2525 18.423 1.91748 13.7293C2.79049 7.55504 8.00191 2.55682 14.3086 1.84279C14.8829 1.77804 15.4536 1.74654 16.0191 1.74654C19.5182 1.74654 22.82 2.97684 25.4622 5.29394C28.4866 7.95055 30.2237 11.7605 30.2237 15.7471C30.2237 19.6673 28.6075 23.2987 25.6702 25.9711H25.6684Z" fill="white"/>
</svg>
