<svg width="39" height="39" viewBox="0 0 39 39" fill="none" xmlns="http://www.w3.org/2000/svg">
<path d="M33.3125 13H26V5.6875C26 2.55125 23.4487 0 20.3125 0H18.6875C15.5513 0 13 2.55125 13 5.6875V13H5.6875C2.55125 13 0 15.5513 0 18.6875V20.3125C0 23.4487 2.55125 26 5.6875 26H13V33.3125C13 36.4487 15.5513 39 18.6875 39H20.3125C23.4487 39 26 36.4487 26 33.3125V26H33.3125C36.4487 26 39 23.4487 39 20.3125V18.6875C39 15.5513 36.4487 13 33.3125 13ZM37.375 20.3125C37.375 22.5518 35.5518 24.375 33.3125 24.375H25.1875C24.739 24.375 24.375 24.739 24.375 25.1875V33.3125C24.375 35.5518 22.5518 37.375 20.3125 37.375H18.6875C16.4482 37.375 14.625 35.5518 14.625 33.3125V25.1875C14.625 24.739 14.261 24.375 13.8125 24.375H5.6875C3.44825 24.375 1.625 22.5518 1.625 20.3125V18.6875C1.625 16.4482 3.44825 14.625 5.6875 14.625H13.8125C14.261 14.625 14.625 14.261 14.625 13.8125V5.6875C14.625 3.44825 16.4482 1.625 18.6875 1.625H20.3125C22.5518 1.625 24.375 3.44825 24.375 5.6875V13.8125C24.375 14.261 24.739 14.625 25.1875 14.625H33.3125C35.5518 14.625 37.375 16.4482 37.375 18.6875V20.3125Z" fill="#9A2686"/>
</svg>
