<svg width="36" height="35" viewBox="0 0 36 35" fill="none" xmlns="http://www.w3.org/2000/svg">
<path d="M31.5 20.0066C31.5 18.4303 30.1545 17.1485 28.5 17.1485H25.5C23.8455 17.1485 22.5 18.4303 22.5 20.0066C20.019 20.0066 18 21.93 18 24.2937V30.0098C18 32.3735 20.019 34.2969 22.5 34.2969H31.5C33.981 34.2969 36 32.3735 36 30.0098V24.2937C36 21.93 33.981 20.0066 31.5 20.0066ZM25.5 18.5775H28.5C29.328 18.5775 30 19.2177 30 20.0066H24C24 19.2177 24.672 18.5775 25.5 18.5775ZM22.5 21.4356H31.5C33.1545 21.4356 34.5 22.7174 34.5 24.2937V25.7227H19.5V24.2937C19.5 22.7174 20.8455 21.4356 22.5 21.4356ZM31.5 32.8679H22.5C20.8455 32.8679 19.5 31.5861 19.5 30.0098V27.1517H26.25V29.2953C26.25 29.6897 26.586 30.0098 27 30.0098C27.414 30.0098 27.75 29.6897 27.75 29.2953V27.1517H34.5V30.0098C34.5 31.5861 33.1545 32.8679 31.5 32.8679ZM15 33.5824C15 33.9768 14.664 34.2969 14.25 34.2969H6.75C3.0285 34.2969 0 31.4117 0 27.8663V6.43068C0 2.88523 3.0285 0 6.75 0H17.25C20.9715 0 24 2.88523 24 6.43068V13.5759C24 13.9703 23.664 14.2904 23.25 14.2904C22.836 14.2904 22.5 13.9703 22.5 13.5759V6.43068C22.5 3.67263 20.145 1.42904 17.25 1.42904H6.75C3.855 1.42904 1.5 3.67263 1.5 6.43068V27.8663C1.5 30.6243 3.855 32.8679 6.75 32.8679H14.25C14.664 32.8679 15 33.188 15 33.5824ZM10.5 19.292C10.5 19.6864 10.164 20.0066 9.75 20.0066H6.75C6.336 20.0066 6 19.6864 6 19.292C6 18.8976 6.336 18.5775 6.75 18.5775H9.75C10.164 18.5775 10.5 18.8976 10.5 19.292ZM18 19.292C18 19.6864 17.664 20.0066 17.25 20.0066H14.25C13.836 20.0066 13.5 19.6864 13.5 19.292C13.5 18.8976 13.836 18.5775 14.25 18.5775H17.25C17.664 18.5775 18 18.8976 18 19.292ZM10.5 25.0082C10.5 25.4026 10.164 25.7227 9.75 25.7227H6.75C6.336 25.7227 6 25.4026 6 25.0082C6 24.6138 6.336 24.2937 6.75 24.2937H9.75C10.164 24.2937 10.5 24.6138 10.5 25.0082ZM10.5 7.85972C10.5 8.25413 10.164 8.57424 9.75 8.57424H6.75C6.336 8.57424 6 8.25413 6 7.85972C6 7.4653 6.336 7.1452 6.75 7.1452H9.75C10.164 7.1452 10.5 7.4653 10.5 7.85972ZM18 7.85972C18 8.25413 17.664 8.57424 17.25 8.57424H14.25C13.836 8.57424 13.5 8.25413 13.5 7.85972C13.5 7.4653 13.836 7.1452 14.25 7.1452H17.25C17.664 7.1452 18 7.4653 18 7.85972ZM10.5 13.5759C10.5 13.9703 10.164 14.2904 9.75 14.2904H6.75C6.336 14.2904 6 13.9703 6 13.5759C6 13.1815 6.336 12.8614 6.75 12.8614H9.75C10.164 12.8614 10.5 13.1815 10.5 13.5759ZM18 13.5759C18 13.9703 17.664 14.2904 17.25 14.2904H14.25C13.836 14.2904 13.5 13.9703 13.5 13.5759C13.5 13.1815 13.836 12.8614 14.25 12.8614H17.25C17.664 12.8614 18 13.1815 18 13.5759Z" fill="#9A2686"/>
</svg>
