<svg width="42" height="42" viewBox="0 0 42 42" fill="none" xmlns="http://www.w3.org/2000/svg">
<rect y="41.957" width="41.9571" height="41.9571" rx="20.9785" transform="rotate(-90 0 41.957)" fill="url(#paint0_linear_704_12025)"/>
<path d="M27.6354 15.0987H27.1867V11.9575C27.1867 10.7208 26.1806 9.71387 24.943 9.71387H16.8658C15.6291 9.71387 14.6221 10.7208 14.6221 11.9575V15.0987H14.1734C11.9468 15.0987 10.1348 16.9107 10.1348 19.1373V24.5221C10.1348 26.7487 11.9468 28.5607 14.1734 28.5607H14.6221V29.0095C14.6221 30.2462 15.6291 31.2532 16.8658 31.2532H24.943C26.1806 31.2532 27.1867 30.2462 27.1867 29.0095V28.5607H27.6354C29.8621 28.5607 31.6741 26.7487 31.6741 24.5221V19.1373C31.6741 16.9107 29.8621 15.0987 27.6354 15.0987ZM15.5196 11.9575C15.5196 11.2153 16.1236 10.6113 16.8658 10.6113H24.943C25.6852 10.6113 26.2892 11.2153 26.2892 11.9575V15.0987H15.5196V11.9575ZM26.2892 29.0095C26.2892 29.7517 25.6852 30.3557 24.943 30.3557H16.8658C16.1236 30.3557 15.5196 29.7517 15.5196 29.0095V24.5221C15.5196 23.7799 16.1236 23.1759 16.8658 23.1759H24.943C25.6852 23.1759 26.2892 23.7799 26.2892 24.5221V29.0095ZM30.7766 24.5221C30.7766 26.2542 29.3676 27.6633 27.6354 27.6633H27.1867V24.5221C27.1867 23.2854 26.1806 22.2785 24.943 22.2785H16.8658C15.6291 22.2785 14.6221 23.2854 14.6221 24.5221V27.6633H14.1734C12.4413 27.6633 11.0322 26.2542 11.0322 24.5221V19.1373C11.0322 17.4052 12.4413 15.9962 14.1734 15.9962H27.6354C29.3676 15.9962 30.7766 17.4052 30.7766 19.1373V24.5221ZM27.1867 19.1373C27.1867 19.385 26.9857 19.586 26.738 19.586H24.0456C23.7979 19.586 23.5968 19.385 23.5968 19.1373C23.5968 18.8896 23.7979 18.6886 24.0456 18.6886H26.738C26.9857 18.6886 27.1867 18.8896 27.1867 19.1373Z" fill="white"/>
<defs>
<linearGradient id="paint0_linear_704_12025" x1="35.2618" y1="41.957" x2="3.20904" y2="84.656" gradientUnits="userSpaceOnUse">
<stop stop-color="#9A2686"/>
<stop offset="1" stop-color="#293992"/>
</linearGradient>
</defs>
</svg>
