<svg width="42" height="42" viewBox="0 0 42 42" fill="none" xmlns="http://www.w3.org/2000/svg">
<rect y="41.957" width="41.9571" height="41.9571" rx="20.9785" transform="rotate(-90 0 41.957)" fill="url(#paint0_linear_704_12001)"/>
<path d="M16.7623 9.71387H13.1724C11.4403 9.71387 10.0312 11.1229 10.0312 12.855V16.4449C10.0312 18.177 11.4403 19.586 13.1724 19.586H16.7623C18.4944 19.586 19.9034 18.177 19.9034 16.4449V12.855C19.9034 11.1229 18.4944 9.71387 16.7623 9.71387ZM19.006 16.4449C19.006 17.6816 17.999 18.6886 16.7623 18.6886H13.1724C11.9357 18.6886 10.9287 17.6816 10.9287 16.4449V12.855C10.9287 11.6183 11.9357 10.6113 13.1724 10.6113H16.7623C17.999 10.6113 19.006 11.6183 19.006 12.855V16.4449ZM15.8648 12.4063H14.0699C13.3277 12.4063 12.7237 13.0103 12.7237 13.7525V15.5474C12.7237 16.2896 13.3277 16.8936 14.0699 16.8936H15.8648C16.607 16.8936 17.211 16.2896 17.211 15.5474V13.7525C17.211 13.0103 16.607 12.4063 15.8648 12.4063ZM16.3135 15.5474C16.3135 15.7951 16.1125 15.9962 15.8648 15.9962H14.0699C13.8222 15.9962 13.6211 15.7951 13.6211 15.5474V13.7525C13.6211 13.5048 13.8222 13.3037 14.0699 13.3037H15.8648C16.1125 13.3037 16.3135 13.5048 16.3135 13.7525V15.5474ZM28.4294 9.71387H24.8395C23.1074 9.71387 21.6984 11.1229 21.6984 12.855V16.4449C21.6984 18.177 23.1074 19.586 24.8395 19.586H28.4294C30.1615 19.586 31.5705 18.177 31.5705 16.4449V12.855C31.5705 11.1229 30.1615 9.71387 28.4294 9.71387ZM30.6731 16.4449C30.6731 17.6816 29.667 18.6886 28.4294 18.6886H24.8395C23.6019 18.6886 22.5958 17.6816 22.5958 16.4449V12.855C22.5958 11.6183 23.6019 10.6113 24.8395 10.6113H28.4294C29.667 10.6113 30.6731 11.6183 30.6731 12.855V16.4449ZM27.5319 12.4063H25.737C24.9948 12.4063 24.3908 13.0103 24.3908 13.7525V15.5474C24.3908 16.2896 24.9948 16.8936 25.737 16.8936H27.5319C28.2741 16.8936 28.8781 16.2896 28.8781 15.5474V13.7525C28.8781 13.0103 28.2741 12.4063 27.5319 12.4063ZM27.9807 15.5474C27.9807 15.7951 27.7787 15.9962 27.5319 15.9962H25.737C25.4902 15.9962 25.2882 15.7951 25.2882 15.5474V13.7525C25.2882 13.5048 25.4902 13.3037 25.737 13.3037H27.5319C27.7787 13.3037 27.9807 13.5048 27.9807 13.7525V15.5474ZM16.7623 21.381H13.1724C11.4403 21.381 10.0312 22.79 10.0312 24.5221V28.112C10.0312 29.8441 11.4403 31.2532 13.1724 31.2532H16.7623C18.4944 31.2532 19.9034 29.8441 19.9034 28.112V24.5221C19.9034 22.79 18.4944 21.381 16.7623 21.381ZM19.006 28.112C19.006 29.3487 17.999 30.3557 16.7623 30.3557H13.1724C11.9357 30.3557 10.9287 29.3487 10.9287 28.112V24.5221C10.9287 23.2854 11.9357 22.2785 13.1724 22.2785H16.7623C17.999 22.2785 19.006 23.2854 19.006 24.5221V28.112ZM15.8648 24.0734H14.0699C13.3277 24.0734 12.7237 24.6774 12.7237 25.4196V27.2145C12.7237 27.9567 13.3277 28.5607 14.0699 28.5607H15.8648C16.607 28.5607 17.211 27.9567 17.211 27.2145V25.4196C17.211 24.6774 16.607 24.0734 15.8648 24.0734ZM16.3135 27.2145C16.3135 27.4622 16.1125 27.6633 15.8648 27.6633H14.0699C13.8222 27.6633 13.6211 27.4622 13.6211 27.2145V25.4196C13.6211 25.1719 13.8222 24.9709 14.0699 24.9709H15.8648C16.1125 24.9709 16.3135 25.1719 16.3135 25.4196V27.2145ZM30.2243 21.381H29.3269C28.5847 21.381 27.9807 21.985 27.9807 22.7272V24.0734H25.2882V22.7272C25.2882 21.985 24.6842 21.381 23.942 21.381H23.0446C22.3024 21.381 21.6984 21.985 21.6984 22.7272V23.6247C21.6984 24.3669 22.3024 24.9709 23.0446 24.9709H24.3908V27.6633H23.0446C22.3024 27.6633 21.6984 28.2673 21.6984 29.0095V29.9069C21.6984 30.6492 22.3024 31.2532 23.0446 31.2532H23.942C24.6842 31.2532 25.2882 30.6492 25.2882 29.9069V28.5607H27.5319C28.2741 28.5607 28.8781 27.9567 28.8781 27.2145V24.9709H30.2243C30.9665 24.9709 31.5705 24.3669 31.5705 23.6247V22.7272C31.5705 21.985 30.9665 21.381 30.2243 21.381ZM22.5958 23.6247V22.7272C22.5958 22.4795 22.7978 22.2785 23.0446 22.2785H23.942C24.1888 22.2785 24.3908 22.4795 24.3908 22.7272V24.0734H23.0446C22.7978 24.0734 22.5958 23.8724 22.5958 23.6247ZM24.3908 29.9069C24.3908 30.1546 24.1888 30.3557 23.942 30.3557H23.0446C22.7978 30.3557 22.5958 30.1546 22.5958 29.9069V29.0095C22.5958 28.7618 22.7978 28.5607 23.0446 28.5607H24.3908V29.9069ZM27.9807 27.2145C27.9807 27.4622 27.7787 27.6633 27.5319 27.6633H25.2882V24.9709H27.9807V27.2145ZM30.6731 23.6247C30.6731 23.8724 30.4711 24.0734 30.2243 24.0734H28.8781V22.7272C28.8781 22.4795 29.0801 22.2785 29.3269 22.2785H30.2243C30.4711 22.2785 30.6731 22.4795 30.6731 22.7272V23.6247Z" fill="white"/>
<defs>
<linearGradient id="paint0_linear_704_12001" x1="35.2618" y1="41.957" x2="3.20904" y2="84.656" gradientUnits="userSpaceOnUse">
<stop stop-color="#9A2686"/>
<stop offset="1" stop-color="#293992"/>
</linearGradient>
</defs>
</svg>
