<svg width="42" height="42" viewBox="0 0 42 42" fill="none" xmlns="http://www.w3.org/2000/svg">
<rect y="41.957" width="41.957" height="41.957" rx="20.9785" transform="rotate(-90 0 41.957)" fill="url(#paint0_linear_704_12031)"/>
<path d="M31.4644 14.235C31.4644 12.5507 30.0969 11.1805 28.4158 11.1805C26.7347 11.1805 25.3672 12.5507 25.3672 14.235C25.3672 15.7711 26.5048 17.0461 27.9803 17.2582V23.8351C27.9803 25.5195 26.6128 26.8897 24.9317 26.8897H20.6662C20.7298 26.7256 20.8273 26.572 20.9589 26.4394L23.1722 24.2218C23.342 24.0516 23.342 23.7749 23.1722 23.6047C23.0023 23.4346 22.7262 23.4346 22.5564 23.6047L20.343 25.8224C19.9424 26.2238 19.7054 26.8897 19.7054 27.3261C19.7054 27.7624 19.9162 28.4807 20.343 28.9084L22.5564 31.126C22.6417 31.2115 22.7532 31.2534 22.8647 31.2534C22.9762 31.2534 23.0877 31.2106 23.173 31.126C23.3429 30.9558 23.3429 30.6791 23.173 30.5089L20.9597 28.2913C20.8064 28.1377 20.7002 27.9562 20.6392 27.7624H24.9325C27.0936 27.7624 28.8522 26.0004 28.8522 23.8351V17.2582C30.3277 17.0461 31.4644 15.7711 31.4644 14.235ZM28.4158 16.4169C27.2155 16.4169 26.2382 15.4377 26.2382 14.235C26.2382 13.0324 27.2155 12.0532 28.4158 12.0532C29.6161 12.0532 30.5934 13.0324 30.5934 14.235C30.5934 15.4377 29.6161 16.4169 28.4158 16.4169ZM22.3909 14.235C22.3909 13.6521 22.1644 13.104 21.7533 12.692L19.54 10.4753C19.3692 10.3051 19.094 10.3051 18.9241 10.4753C18.7543 10.6455 18.7543 10.9221 18.9241 11.0923L21.1374 13.3099C21.2777 13.4505 21.3822 13.6171 21.4458 13.7995H17.0923C14.9313 13.7995 13.1727 15.5616 13.1727 17.7269V24.3038C11.6971 24.5159 10.5596 25.7909 10.5596 27.327C10.5596 29.0113 11.9271 30.3815 13.6082 30.3815C15.2893 30.3815 16.6568 29.0113 16.6568 27.327C16.6568 25.7909 15.5192 24.5159 14.0437 24.3038V17.7269C14.0437 16.0425 15.4112 14.6723 17.0923 14.6723H21.4449C21.3805 14.8538 21.2768 15.0214 21.1366 15.1619L18.9233 17.3795C18.7534 17.5497 18.7534 17.8264 18.9233 17.9965C19.0086 18.0821 19.1201 18.124 19.2316 18.124C19.3431 18.124 19.4546 18.0812 19.54 17.9965L21.7533 15.7789C22.1644 15.367 22.3909 14.818 22.3909 14.235ZM15.7858 27.3261C15.7858 28.5287 14.8085 29.5079 13.6082 29.5079C12.4079 29.5079 11.4306 28.5287 11.4306 27.3261C11.4306 26.1235 12.4079 25.1442 13.6082 25.1442C14.8085 25.1442 15.7858 26.1235 15.7858 27.3261Z" fill="white"/>
<defs>
<linearGradient id="paint0_linear_704_12031" x1="35.2617" y1="41.957" x2="3.20903" y2="84.656" gradientUnits="userSpaceOnUse">
<stop stop-color="#9A2686"/>
<stop offset="1" stop-color="#293992"/>
</linearGradient>
</defs>
</svg>
