<svg width="43" height="43" viewBox="0 0 43 43" fill="none" xmlns="http://www.w3.org/2000/svg">
<rect y="43" width="43" height="43" rx="21.5" transform="rotate(-90 0 43)" fill="url(#paint0_linear_704_12034)"/>
<path d="M29.1801 24.0115C28.8974 23.9482 28.4442 23.843 28.2421 23.3606C27.4154 21.3679 25.3363 20.1927 23.1835 20.5083C21.3177 20.7794 19.7629 22.1949 19.3157 24.0286C19.1444 24.7316 19.1333 25.4398 19.2815 26.1343C19.3294 26.3592 19.2249 26.5687 19.0193 26.656C17.8397 27.1614 17.2238 28.4409 17.5553 29.6982C17.7814 30.5577 18.483 31.259 19.3448 31.4848C19.5522 31.5387 19.7603 31.5695 19.9616 31.5738C20.5202 31.59 27.5088 31.5892 28.2472 31.5738C28.5239 31.5678 28.8015 31.5336 29.0713 31.4711C30.4814 31.1513 31.601 30.036 31.924 28.6325C32.3951 26.5824 31.1898 24.5529 29.1801 24.0115ZM31.0896 28.4418C30.8437 29.5117 29.9562 30.3943 28.8811 30.639C28.667 30.6886 28.4485 30.7159 28.2318 30.7202C26.8029 30.7484 21.131 30.7527 19.9856 30.7202C19.8486 30.7168 19.7064 30.6963 19.5633 30.6595C18.9962 30.5107 18.5336 30.0488 18.3854 29.4826C18.1335 28.5264 18.6844 27.7328 19.3594 27.4437C19.9428 27.1939 20.2555 26.5816 20.121 25.9564C19.9993 25.3893 20.0088 24.8095 20.1501 24.2322C20.5159 22.7337 21.7855 21.5774 23.3094 21.3559C23.4996 21.3285 23.6889 21.3148 23.8774 21.3148C25.4288 21.3148 26.8492 22.2351 27.4531 23.6899C27.8257 24.5811 28.6224 24.7616 28.9582 24.8377C30.5216 25.2593 31.458 26.8424 31.0905 28.4426L31.0896 28.4418ZM17.4653 14.4915C17.4653 14.0194 17.8491 13.6363 18.322 13.6363C18.7949 13.6363 19.1787 14.0194 19.1787 14.4915C19.1787 14.9636 18.7949 15.3468 18.322 15.3468C17.8491 15.3468 17.4653 14.9636 17.4653 14.4915ZM32.0285 14.9192V22.6166C32.0285 22.8526 31.8366 23.0442 31.6002 23.0442C31.3637 23.0442 31.1718 22.8526 31.1718 22.6166V14.9192C31.1718 13.2685 29.8269 11.9257 28.1735 11.9257L15.3228 11.8924C13.6712 11.8924 12.3254 13.2351 12.3254 14.8858V27.7482C12.3254 29.3988 13.6704 30.7416 15.3237 30.7416H16.1804C16.4168 30.7416 16.6087 30.9332 16.6087 31.1692C16.6087 31.4053 16.4168 31.5969 16.1804 31.5969H15.3237C13.1983 31.5969 11.4688 29.8701 11.4688 27.7482V14.8858C11.4688 12.7639 13.1983 11.0371 15.3237 11.0371L28.1744 11.0705C30.2989 11.0705 32.0285 12.7972 32.0285 14.9192ZM14.8954 13.6363C15.3682 13.6363 15.752 14.0194 15.752 14.4915C15.752 14.9636 15.3682 15.3468 14.8954 15.3468C14.4225 15.3468 14.0387 14.9636 14.0387 14.4915C14.0387 14.0194 14.4225 13.6363 14.8954 13.6363Z" fill="white"/>
<defs>
<linearGradient id="paint0_linear_704_12034" x1="36.1383" y1="43" x2="3.2888" y2="86.7604" gradientUnits="userSpaceOnUse">
<stop stop-color="#9A2686"/>
<stop offset="1" stop-color="#293992"/>
</linearGradient>
</defs>
</svg>
