<svg width="43" height="43" viewBox="0 0 43 43" fill="none" xmlns="http://www.w3.org/2000/svg">
<rect y="42.957" width="42.9571" height="42.9571" rx="21.4785" transform="rotate(-90 0 42.957)" fill="url(#paint0_linear_704_12028)"/>
<path d="M14.5746 23.0278C14.3875 23.2138 14.2089 23.4058 14.0399 23.6037C13.9204 23.7429 13.7502 23.8149 13.58 23.8149C13.4411 23.8149 13.3035 23.7681 13.1889 23.6721C12.9354 23.4573 12.904 23.0782 13.1188 22.8263C13.3084 22.6044 13.5099 22.3884 13.7212 22.1785C16.8971 19.0208 21.7812 18.1318 25.8769 19.971C26.1799 20.1066 26.3151 20.4629 26.1787 20.764C26.0411 21.0663 25.685 21.1995 25.3796 21.0639C21.7413 19.4299 17.3993 20.2193 14.5746 23.0266V23.0278ZM31.9162 15.159C32.1902 15.3509 32.5644 15.2897 32.7587 15.0198C32.9519 14.7499 32.8891 14.3756 32.6187 14.1836C24.9136 8.71056 14.4527 9.57314 7.74714 16.2411C7.51537 16.4715 7.29085 16.7054 7.07357 16.9441C6.85025 17.1901 6.86956 17.5692 7.11702 17.7923C7.23291 17.8955 7.37776 17.9471 7.52141 17.9471C7.68558 17.9471 7.84975 17.8799 7.96925 17.7491C8.17205 17.5248 8.38209 17.3052 8.59937 17.0905C14.8861 10.84 24.6927 10.0278 31.9149 15.1602L31.9162 15.159ZM35.7126 16.4415L23.476 28.6029C23.6884 28.9592 23.8176 29.3707 23.8176 29.8146C23.8176 31.1379 22.7348 32.214 21.4033 32.214C20.0719 32.214 18.9891 31.1379 18.9891 29.8146C18.9891 28.4913 20.0719 27.4152 21.4033 27.4152C21.85 27.4152 22.2628 27.5447 22.6225 27.7547L34.8591 15.5933C35.0945 15.3593 35.4772 15.3593 35.7126 15.5933C35.9479 15.8272 35.9479 16.2075 35.7126 16.4415ZM22.6104 29.8134C22.6104 29.1523 22.0684 28.6137 21.4033 28.6137C20.7382 28.6137 20.1962 29.1523 20.1962 29.8134C20.1962 30.4744 20.7382 31.0131 21.4033 31.0131C22.0684 31.0131 22.6104 30.4744 22.6104 29.8134Z" fill="white"/>
<defs>
<linearGradient id="paint0_linear_704_12028" x1="36.1022" y1="42.957" x2="3.28552" y2="86.6737" gradientUnits="userSpaceOnUse">
<stop stop-color="#9A2686"/>
<stop offset="1" stop-color="#293992"/>
</linearGradient>
</defs>
</svg>
