<svg width="33" height="39" viewBox="0 0 33 39" fill="none" xmlns="http://www.w3.org/2000/svg">
<path d="M25.1875 0H7.3125C3.2825 0 0 3.27786 0 7.30216V33.2654C0 36.3972 2.55125 38.9449 5.6875 38.9449H25.1875C29.2175 38.9449 32.5 35.667 32.5 31.6427V7.30216C32.5 3.27786 29.2175 0 25.1875 0ZM30.875 7.30216V27.5859H8.125V1.6227H25.1875C28.3238 1.6227 30.875 4.17034 30.875 7.30216ZM1.625 7.30216C1.625 4.4462 3.75375 2.07706 6.5 1.68761V27.5859H5.6875C4.095 27.5859 2.665 28.235 1.625 29.2898V7.30216ZM25.1875 37.3221H5.6875C3.445 37.3221 1.625 35.5047 1.625 33.2654C1.625 31.0261 3.445 29.2086 5.6875 29.2086H30.875V31.6427C30.875 34.7745 28.3238 37.3221 25.1875 37.3221ZM12.87 22.6691C13.2925 22.8152 13.7638 22.6042 13.91 22.1823L15.4862 17.8497H23.3025L24.8787 22.1823C24.9925 22.5069 25.3175 22.7178 25.6425 22.7178C25.74 22.7178 25.8213 22.7178 25.9188 22.6691C26.3413 22.5231 26.5525 22.0525 26.4062 21.6306L21.4175 7.90256C21.1087 7.04253 20.3125 6.49081 19.3862 6.49081C18.46 6.49081 17.68 7.04253 17.3713 7.90256L12.3825 21.6306C12.2362 22.0525 12.4475 22.5231 12.87 22.6691ZM18.8988 8.45428C19.0125 8.14596 19.2887 8.11351 19.3862 8.11351C19.4837 8.11351 19.7762 8.14596 19.89 8.45428L22.7175 16.227H16.0875L18.915 8.45428H18.8988Z" fill="#9A2686"/>
</svg>
