<svg width="38" height="39" viewBox="0 0 38 39" fill="none" xmlns="http://www.w3.org/2000/svg">
<path d="M25.3333 21.9368C25.3333 22.3853 24.9787 22.7493 24.5417 22.7493H22.9583C22.5213 22.7493 22.1667 22.3853 22.1667 21.9368C22.1667 21.4883 22.5213 21.1243 22.9583 21.1243H24.5417C24.9787 21.1243 25.3333 21.4883 25.3333 21.9368ZM30.875 21.1243H29.2917C28.8547 21.1243 28.5 21.4883 28.5 21.9368C28.5 22.3853 28.8547 22.7493 29.2917 22.7493H30.875C31.312 22.7493 31.6667 22.3853 31.6667 21.9368C31.6667 21.4883 31.312 21.1243 30.875 21.1243ZM24.5417 27.6245H22.9583C22.5213 27.6245 22.1667 27.9885 22.1667 28.4371C22.1667 28.8856 22.5213 29.2496 22.9583 29.2496H24.5417C24.9787 29.2496 25.3333 28.8856 25.3333 28.4371C25.3333 27.9885 24.9787 27.6245 24.5417 27.6245ZM30.875 27.6245H29.2917C28.8547 27.6245 28.5 27.9885 28.5 28.4371C28.5 28.8856 28.8547 29.2496 29.2917 29.2496H30.875C31.312 29.2496 31.6667 28.8856 31.6667 28.4371C31.6667 27.9885 31.312 27.6245 30.875 27.6245ZM24.5417 8.12371H22.9583C22.5213 8.12371 22.1667 8.48773 22.1667 8.93625C22.1667 9.38477 22.5213 9.74878 22.9583 9.74878H24.5417C24.9787 9.74878 25.3333 9.38477 25.3333 8.93625C25.3333 8.48773 24.9787 8.12371 24.5417 8.12371ZM30.875 8.12371H29.2917C28.8547 8.12371 28.5 8.48773 28.5 8.93625C28.5 9.38477 28.8547 9.74878 29.2917 9.74878H30.875C31.312 9.74878 31.6667 9.38477 31.6667 8.93625C31.6667 8.48773 31.312 8.12371 30.875 8.12371ZM24.5417 14.624H22.9583C22.5213 14.624 22.1667 14.988 22.1667 15.4365C22.1667 15.885 22.5213 16.2491 22.9583 16.2491H24.5417C24.9787 16.2491 25.3333 15.885 25.3333 15.4365C25.3333 14.988 24.9787 14.624 24.5417 14.624ZM30.875 14.624H29.2917C28.8547 14.624 28.5 14.988 28.5 15.4365C28.5 15.885 28.8547 16.2491 29.2917 16.2491H30.875C31.312 16.2491 31.6667 15.885 31.6667 15.4365C31.6667 14.988 31.312 14.624 30.875 14.624ZM38 7.31118V31.6872C38 35.719 34.8032 39 30.875 39H7.125C3.19675 39 0 35.719 0 31.6872V14.3835C0 12.4074 0.794833 10.4882 2.18183 9.11663L4.864 6.46614C7.01892 4.33406 10.3962 4.33406 12.5511 6.46614L15.2333 9.11663C15.447 9.32789 15.6481 9.55377 15.8317 9.78941V7.3128C15.8317 3.28101 19.0285 0 22.9568 0H30.8734C34.8017 0 37.9984 3.28101 37.9984 7.3128L38 7.31118ZM15.8333 14.3835C15.8333 12.8462 15.2143 11.3527 14.136 10.2867L11.4538 7.63619C10.6843 6.87404 9.69633 6.49377 8.70833 6.49377C7.72033 6.49377 6.73233 6.87404 5.96283 7.63619L3.28067 10.2883C2.20242 11.3543 1.58333 12.8478 1.58333 14.3851V31.6888C1.58333 34.8252 4.06917 37.3766 7.125 37.3766H15.8333V14.3835ZM36.4167 7.31118C36.4167 4.1748 33.9308 1.62344 30.875 1.62344H22.9583C19.9025 1.62344 17.4167 4.1748 17.4167 7.31118V37.3749H30.875C33.9308 37.3749 36.4167 34.8236 36.4167 31.6872V7.31118ZM10.2917 21.1243H7.125C6.688 21.1243 6.33333 21.4883 6.33333 21.9368C6.33333 22.3853 6.688 22.7493 7.125 22.7493H10.2917C10.7287 22.7493 11.0833 22.3853 11.0833 21.9368C11.0833 21.4883 10.7287 21.1243 10.2917 21.1243ZM10.2917 14.624H7.125C6.688 14.624 6.33333 14.988 6.33333 15.4365C6.33333 15.885 6.688 16.2491 7.125 16.2491H10.2917C10.7287 16.2491 11.0833 15.885 11.0833 15.4365C11.0833 14.988 10.7287 14.624 10.2917 14.624ZM10.2917 27.6245H7.125C6.688 27.6245 6.33333 27.9885 6.33333 28.4371C6.33333 28.8856 6.688 29.2496 7.125 29.2496H10.2917C10.7287 29.2496 11.0833 28.8856 11.0833 28.4371C11.0833 27.9885 10.7287 27.6245 10.2917 27.6245Z" fill="#9A2686"/>
</svg>
