<svg width="35" height="42" viewBox="0 0 35 42" fill="none" xmlns="http://www.w3.org/2000/svg">
<path d="M27.125 0H7.875C3.535 0 0 3.535 0 7.875V35.875C0 39.2525 2.7475 42 6.125 42H27.125C31.465 42 35 38.465 35 34.125V7.875C35 3.535 31.465 0 27.125 0ZM33.25 7.875V29.75H8.75V1.75H27.125C30.5025 1.75 33.25 4.4975 33.25 7.875ZM1.75 7.875C1.75 4.795 4.0425 2.24 7 1.82V29.75H6.125C4.41 29.75 2.87 30.45 1.75 31.5875V7.875ZM27.125 40.25H6.125C3.71 40.25 1.75 38.29 1.75 35.875C1.75 33.46 3.71 31.5 6.125 31.5H33.25V34.125C33.25 37.5025 30.5025 40.25 27.125 40.25ZM13.86 24.4475C14.315 24.605 14.8225 24.3775 14.98 23.9225L16.6775 19.25H25.095L26.7925 23.9225C26.915 24.2725 27.265 24.5 27.615 24.5C27.72 24.5 27.8075 24.5 27.9125 24.4475C28.3675 24.29 28.595 23.7825 28.4375 23.3275L23.065 8.5225C22.7325 7.595 21.875 7 20.8775 7C19.88 7 19.04 7.595 18.7075 8.5225L13.335 23.3275C13.1775 23.7825 13.405 24.29 13.86 24.4475ZM20.3525 9.1175C20.475 8.785 20.7725 8.75 20.8775 8.75C20.9825 8.75 21.2975 8.785 21.42 9.1175L24.465 17.5H17.325L20.37 9.1175H20.3525Z" fill="white"/>
</svg>
