<svg width="48" height="48" viewBox="0 0 48 48" fill="none" xmlns="http://www.w3.org/2000/svg">
<rect y="47.6895" width="47.6892" height="47.6893" rx="23.8446" transform="rotate(-90 0 47.6895)" fill="url(#paint0_linear_704_14192)"/>
<path d="M35.1153 28.7091C34.2644 27.5419 32.357 25.5843 29.1365 25.5843C25.916 25.5843 24.0085 27.5419 23.1576 28.7091C22.6152 29.4539 22.6152 30.4541 23.1576 31.1979C24.0095 32.3651 25.9189 34.3226 29.1365 34.3226C32.354 34.3226 34.2644 32.3651 35.1153 31.1979C35.6587 30.4531 35.6587 29.4529 35.1153 28.7091ZM34.3212 30.6298C33.4154 31.8718 31.7802 33.3526 29.1355 33.3526C26.4907 33.3526 24.8565 31.8718 23.9498 30.6298C23.6551 30.2259 23.6551 29.6831 23.9498 29.2781C24.8565 28.0362 26.4917 26.5554 29.1355 26.5554C31.7792 26.5554 33.4154 28.0362 34.3212 29.2781C34.6169 29.6821 34.6169 30.2259 34.3212 30.6298ZM29.1355 28.0119C28.0555 28.0119 27.1771 28.8829 27.1771 29.954C27.1771 31.025 28.0555 31.896 29.1355 31.896C30.2155 31.896 31.0938 31.025 31.0938 29.954C31.0938 28.8829 30.2155 28.0119 29.1355 28.0119ZM29.1355 30.925C28.595 30.925 28.1563 30.489 28.1563 29.954C28.1563 29.4189 28.595 28.9829 29.1355 28.9829C29.676 28.9829 30.1147 29.4189 30.1147 29.954C30.1147 30.489 29.676 30.925 29.1355 30.925ZM20.3229 29.4685H16.4072C14.5174 29.4685 12.9801 27.9439 12.9801 26.0699V20.7292H34.5219V25.0988C34.5219 25.3668 34.7412 25.5843 35.0115 25.5843C35.2817 25.5843 35.5011 25.3668 35.5011 25.0988V17.3306C35.5011 14.9214 33.5241 12.9609 31.0948 12.9609H16.4072C13.9779 12.9609 12.001 14.9214 12.001 17.3306V26.0699C12.001 28.479 13.9779 30.4395 16.4072 30.4395H20.3239C20.5942 30.4395 20.8135 30.222 20.8135 29.954C20.8135 29.686 20.5942 29.4685 20.3239 29.4685H20.3229ZM12.9801 19.7582V17.8161H34.5219V19.7582H12.9801ZM16.4072 13.932H31.0948C32.8162 13.932 34.2321 15.2021 34.472 16.8451H13.0301C13.27 15.2021 14.6859 13.932 16.4072 13.932ZM14.9385 25.5843C14.9385 26.6554 15.8168 27.5264 16.8968 27.5264C17.9769 27.5264 18.8552 26.6554 18.8552 25.5843C18.8552 24.5133 17.9769 23.6423 16.8968 23.6423C15.8168 23.6423 14.9385 24.5133 14.9385 25.5843ZM17.876 25.5843C17.876 26.1194 17.4364 26.5554 16.8968 26.5554C16.3573 26.5554 15.9177 26.1194 15.9177 25.5843C15.9177 25.0493 16.3573 24.6133 16.8968 24.6133C17.4364 24.6133 17.876 25.0493 17.876 25.5843Z" fill="white"/>
<defs>
<linearGradient id="paint0_linear_704_14192" x1="40.0793" y1="47.6894" x2="3.64745" y2="96.222" gradientUnits="userSpaceOnUse">
<stop stop-color="#9A2686"/>
<stop offset="1" stop-color="#293992"/>
</linearGradient>
</defs>
</svg>
