<svg width="49" height="49" viewBox="0 0 49 49" fill="none" xmlns="http://www.w3.org/2000/svg">
<rect y="48.6895" width="48.6892" height="48.6893" rx="24.3446" transform="rotate(-90 0 48.6895)" fill="url(#paint0_linear_704_14206)"/>
<path d="M27.6908 17.0623C25.9614 17.0623 24.5541 18.464 24.5541 20.1865C24.5541 21.9091 25.9614 23.3108 27.6908 23.3108C29.4201 23.3108 30.8275 21.9091 30.8275 20.1865C30.8275 18.464 29.4201 17.0623 27.6908 17.0623ZM27.6908 22.2694C26.5375 22.2694 25.5997 21.3352 25.5997 20.1865C25.5997 19.0378 26.5375 18.1037 27.6908 18.1037C28.844 18.1037 29.7819 19.0378 29.7819 20.1865C29.7819 21.3352 28.844 22.2694 27.6908 22.2694ZM36.233 24.4137C36.3198 24.8219 36.2414 25.2396 36.0124 25.5895C35.7834 25.9383 35.4311 26.1779 35.0223 26.2643C34.6135 26.3539 34.1931 26.2737 33.8418 26.0446L32.8224 25.3833C32.4648 25.7332 32.0727 26.0467 31.6524 26.3164C31.5646 26.3737 31.4663 26.3997 31.3691 26.3997C31.1976 26.3997 31.0303 26.3153 30.9299 26.1612C30.7731 25.9196 30.8432 25.5968 31.0847 25.4416C31.5531 25.1406 31.9807 24.7772 32.3561 24.3616C32.5307 24.17 32.8172 24.1336 33.0305 24.2741L34.4127 25.1708C34.5309 25.2468 34.6699 25.275 34.8069 25.2437C34.9428 25.2156 35.0599 25.1354 35.1362 25.0177C35.2126 24.9021 35.2387 24.7626 35.2094 24.6261C35.1812 24.4908 35.1007 24.3741 34.9825 24.2981L33.6024 23.4025C33.387 23.2619 33.3055 22.9869 33.4111 22.7526C33.778 21.9434 33.9631 21.0801 33.9631 20.1855C33.9631 19.2909 33.777 18.4276 33.4111 17.6184C33.3044 17.3841 33.387 17.1091 33.6024 16.9685L34.9825 16.0729C35.0996 15.9969 35.1801 15.8792 35.2094 15.7448C35.2377 15.6084 35.2126 15.4689 35.1362 15.3533C35.0599 15.2366 34.9418 15.1564 34.8069 15.1273C34.6678 15.096 34.5298 15.1242 34.4138 15.2002L33.0305 16.0968C32.8182 16.2374 32.5296 16.202 32.3561 16.0083C31.391 14.9388 30.0768 14.2285 28.6569 14.0098C28.4018 13.9703 28.2136 13.7526 28.2136 13.4954V11.8541C28.2136 11.5677 27.9783 11.3334 27.6908 11.3334C27.4032 11.3334 27.168 11.5677 27.168 11.8541V13.4954C27.168 13.7526 26.9798 13.9703 26.7247 14.0098C25.3048 14.2285 23.9905 14.9388 23.0244 16.0083C22.853 16.202 22.5665 16.2385 22.35 16.0968L20.9678 15.2002C20.8507 15.1242 20.7106 15.095 20.5747 15.1273C20.4377 15.1554 20.3206 15.2356 20.2443 15.3533C20.0874 15.5928 20.1554 15.9167 20.3969 16.0729L21.7771 16.9685C22.0186 17.1247 22.0876 17.4486 21.9297 17.6892C21.7729 17.9287 21.4488 17.9975 21.2062 17.8412L19.826 16.9456C19.1025 16.4759 18.8965 15.5053 19.3681 14.7847C19.5971 14.4347 19.9484 14.1952 20.3582 14.1088C20.7671 14.0202 21.1863 14.0994 21.5387 14.3285L22.5571 14.9898C23.5399 14.0275 24.7799 13.3579 26.1214 13.0642V11.8551C26.1214 10.9939 26.8251 10.293 27.6897 10.293C28.5544 10.293 29.2581 10.9939 29.2581 11.8551V13.0642C30.5995 13.3569 31.8396 14.0275 32.8214 14.9898L33.8418 14.3285C34.1921 14.1004 34.6124 14.0202 35.0212 14.1088C35.4311 14.1952 35.7834 14.4347 36.0114 14.7836C36.2404 15.1335 36.3188 15.5511 36.232 15.9594C36.1452 16.3676 35.9047 16.7186 35.5545 16.9456L34.5371 17.6059C34.8508 18.4286 35.0087 19.2951 35.0087 20.1865C35.0087 21.078 34.8508 21.9445 34.5371 22.7672L35.5545 23.4275C35.9047 23.6555 36.1462 24.0065 36.233 24.4137ZM25.5986 24.873H21.225L21.8388 21.4061C21.8534 21.0929 21.8534 20.9079 21.8388 20.851C21.7122 20.3886 21.4195 20.0251 21.0128 19.8262C20.6008 19.6252 20.1272 19.6169 19.6682 19.8064C19.4047 19.9168 19.1454 20.1897 18.9624 20.5469L16.6664 24.874H15.144C13.4147 24.874 12.0073 26.2758 12.0073 27.9983V32.164C12.0073 33.8865 13.4147 35.2883 15.144 35.2883H23.9048C25.8914 35.2883 27.6165 33.8792 28.0065 31.9391L28.6757 28.6107C28.8597 27.6869 28.6224 26.7423 28.0243 26.0175C27.4263 25.2916 26.5417 24.874 25.5997 24.874L25.5986 24.873ZM13.0529 32.163V27.9973C13.0529 26.8486 13.9908 25.9144 15.144 25.9144H16.1896V34.2458H15.144C13.9908 34.2458 13.0529 33.3117 13.0529 32.163ZM27.65 28.4055L26.9808 31.7339C26.6891 33.1888 25.3947 34.2458 23.9048 34.2458H17.2351V25.7467C17.3826 25.652 17.5059 25.5197 17.5906 25.3593L19.8909 21.0259C19.9975 20.8187 20.077 20.7666 20.0749 20.7645C20.2464 20.6948 20.4147 20.6927 20.5517 20.7593C20.6688 20.8176 20.7597 20.9239 20.8089 21.0572L20.1962 24.6897C20.1418 24.9948 20.2244 25.3052 20.4241 25.5416C20.6238 25.778 20.9155 25.9134 21.225 25.9134H25.5986C26.227 25.9134 26.8156 26.1914 27.215 26.6757C27.6145 27.1589 27.7723 27.789 27.65 28.4034V28.4055Z" fill="white"/>
<defs>
<linearGradient id="paint0_linear_704_14206" x1="40.9197" y1="48.6894" x2="3.72393" y2="98.2396" gradientUnits="userSpaceOnUse">
<stop stop-color="#9A2686"/>
<stop offset="1" stop-color="#293992"/>
</linearGradient>
</defs>
</svg>
