<svg width="48" height="48" viewBox="0 0 48 48" fill="none" xmlns="http://www.w3.org/2000/svg">
<rect y="47.6895" width="47.6892" height="47.6893" rx="23.8446" transform="rotate(-90 0 47.6895)" fill="url(#paint0_linear_704_14637)"/>
<path d="M33.5051 18.9682C32.901 14.6333 29.2883 11.1269 24.9138 10.6276C22.1723 10.3137 19.5084 11.1083 17.4159 12.8621C15.3507 14.593 14.0768 17.1196 13.9213 19.7944C13.9038 20.0953 14.1337 20.3536 14.4357 20.3699C14.7378 20.3939 14.9961 20.1585 15.0136 19.8576C15.1515 17.4793 16.2842 15.2339 18.1207 13.6949C19.9801 12.1373 22.3485 11.4299 24.7891 11.7111C28.6743 12.1536 31.8843 15.2688 32.4216 19.1175C32.6318 20.6293 32.4556 22.1608 31.9105 23.5461C31.3765 24.9064 29.9668 25.8209 28.4029 25.8209H25.6482C25.8353 25.5005 25.9426 25.1277 25.9426 24.731C25.9426 23.5287 24.9609 22.551 23.7537 22.551C22.5466 22.551 21.5649 23.5287 21.5649 24.731C21.5649 25.9332 22.5466 26.9109 23.7537 26.9109H28.4029C30.4123 26.9109 32.2323 25.7185 32.9305 23.944C33.5434 22.3831 33.7415 20.6631 33.5051 18.9682ZM22.6593 24.731C22.6593 24.1293 23.1507 23.641 23.7537 23.641C24.3568 23.641 24.8482 24.1293 24.8482 24.731C24.8482 25.3326 24.3568 25.8209 23.7537 25.8209C23.1507 25.8209 22.6593 25.3326 22.6593 24.731ZM28.6294 22.8475C29.0245 22.0768 29.2259 21.2441 29.2259 20.371C29.2259 17.3659 26.7711 14.9211 23.7537 14.9211C20.7364 14.9211 18.2816 17.3659 18.2816 20.371C18.2816 21.6343 18.7259 22.866 19.5325 23.8394C19.7251 24.0715 19.6923 24.4149 19.4592 24.6067C19.3574 24.6906 19.2337 24.731 19.1111 24.731C18.9535 24.731 18.797 24.6634 18.6887 24.5326C17.7212 23.3652 17.1871 21.8872 17.1871 20.371C17.1871 16.7643 20.1323 13.8311 23.7537 13.8311C27.3752 13.8311 30.3203 16.7643 30.3203 20.371C30.3203 21.4185 30.0795 22.4191 29.6046 23.3445C29.4656 23.6126 29.1329 23.7173 28.868 23.5821C28.5988 23.4448 28.4915 23.1145 28.6294 22.8475ZM23.7537 29.0909C19.5314 29.0909 15.853 32.023 15.0092 36.0646C14.9479 36.36 15.1559 36.7208 15.5455 36.7208C15.7994 36.7208 16.027 36.5442 16.0807 36.287C16.4637 34.4493 17.5187 32.8742 18.9634 31.7843L20.3905 33.9152C20.9148 34.6989 22.2139 34.6989 22.7392 33.9152L23.7176 32.3445L24.7683 33.9152C25.0298 34.3065 25.4698 34.5408 25.9426 34.5408C26.4154 34.5408 26.8554 34.3065 27.1169 33.9152L28.543 31.7843C29.9876 32.8742 31.0426 34.4493 31.4268 36.287C31.4881 36.5824 31.7836 36.7753 32.0736 36.7099C32.3702 36.6488 32.5595 36.3611 32.4982 36.0657C31.6544 32.024 27.9771 29.092 23.7548 29.092L23.7537 29.0909ZM26.2064 33.3102C26.1221 33.4367 25.994 33.4508 25.9426 33.4508C25.8912 33.4508 25.7631 33.4367 25.6788 33.3102L24.6271 31.7385C24.2375 31.1575 23.2711 31.1564 22.8804 31.7385L21.8286 33.3091C21.7433 33.4356 21.6163 33.4497 21.5649 33.4497C21.5134 33.4497 21.3865 33.4356 21.3011 33.3091L19.8794 31.1858C21.0319 30.5438 22.3583 30.1798 23.7537 30.1798C25.1491 30.1798 26.4756 30.5438 27.6269 31.1858L26.2064 33.3102Z" fill="white"/>
<defs>
<linearGradient id="paint0_linear_704_14637" x1="40.0792" y1="47.6894" x2="3.64745" y2="96.222" gradientUnits="userSpaceOnUse">
<stop stop-color="#9A2686"/>
<stop offset="1" stop-color="#293992"/>
</linearGradient>
</defs>
</svg>
