<svg width="48" height="48" viewBox="0 0 48 48" fill="none" xmlns="http://www.w3.org/2000/svg">
<rect y="48" width="48" height="48" rx="24" transform="rotate(-90 0 48)" fill="url(#paint0_linear_704_14631)"/>
<path d="M35.0833 23.2311L32.2145 22.285C31.7287 22.1252 31.1942 22.1252 30.7103 22.285L27.8415 23.2311C26.8613 23.5535 26.2034 24.4607 26.2034 25.4877V29.007C26.2034 32.4455 29.9032 34.5509 31.0364 35.1138C31.0364 35.1138 31.2076 35.2707 31.4639 35.2707C31.7201 35.2707 31.8636 35.1481 31.8636 35.1481C33.0034 34.6926 36.7214 32.9029 36.7214 29.007V25.4867C36.7214 24.4597 36.0635 23.5535 35.0833 23.2302V23.2311ZM35.7651 29.007C35.7651 32.3058 32.5052 33.8653 31.5069 34.2656L31.4849 34.2742L31.4639 34.2637C30.454 33.7626 27.1597 31.9007 27.1597 29.007V25.4877C27.1597 24.8715 27.5546 24.3276 28.1427 24.1336L31.0115 23.1874C31.1569 23.1389 31.3099 23.1151 31.4629 23.1151C31.6159 23.1151 31.7679 23.1389 31.9143 23.1874L34.7831 24.1336C35.3712 24.3276 35.7661 24.8705 35.7661 25.4867L35.7651 29.007ZM26.6806 19.9277H18.0742C17.8103 19.9277 17.5961 19.7147 17.5961 19.4522C17.5961 19.1897 17.8103 18.9767 18.0742 18.9767H26.6806C26.9445 18.9767 27.1587 19.1897 27.1587 19.4522C27.1587 19.7147 26.9445 19.9277 26.6806 19.9277ZM24.2899 23.2559C24.2899 23.5183 24.0757 23.7313 23.8118 23.7313H18.0742C17.8103 23.7313 17.5961 23.5183 17.5961 23.2559C17.5961 22.9934 17.8103 22.7804 18.0742 22.7804H23.8118C24.0757 22.7804 24.2899 22.9934 24.2899 23.2559ZM24.2899 27.0595C24.2899 27.322 24.0757 27.535 23.8118 27.535H18.0742C17.8103 27.535 17.5961 27.322 17.5961 27.0595C17.5961 26.7971 17.8103 26.5841 18.0742 26.5841H23.8118C24.0757 26.5841 24.2899 26.7971 24.2899 27.0595ZM26.2025 34.6669C26.2025 34.9293 25.9883 35.1424 25.7243 35.1424H18.0742C15.7017 35.1424 13.771 33.2224 13.771 30.8632V18.5013C13.771 16.1421 15.7017 14.2221 18.0742 14.2221H18.6001C18.822 13.1381 19.7878 12.3203 20.943 12.3203H23.8118C24.967 12.3203 25.9318 13.1381 26.1547 14.2221H26.6806C29.0531 14.2221 30.9838 16.1421 30.9838 18.5013V19.4522C30.9838 19.7147 30.7696 19.9277 30.5057 19.9277C30.2417 19.9277 30.0275 19.7147 30.0275 19.4522V18.5013C30.0275 16.666 28.5262 15.1731 26.6806 15.1731H25.7243C25.4604 15.1731 25.2462 14.9601 25.2462 14.6976C25.2462 13.9112 24.6026 13.2712 23.8118 13.2712H20.943C20.1522 13.2712 19.5086 13.9112 19.5086 14.6976C19.5086 14.9601 19.2944 15.1731 19.0305 15.1731H18.0742C16.2286 15.1731 14.7273 16.666 14.7273 18.5013V30.8632C14.7273 32.6985 16.2286 34.1914 18.0742 34.1914H25.7243C25.9883 34.1914 26.2025 34.4044 26.2025 34.6669Z" fill="white"/>
<defs>
<linearGradient id="paint0_linear_704_14631" x1="40.3404" y1="48" x2="3.67122" y2="96.8488" gradientUnits="userSpaceOnUse">
<stop stop-color="#9A2686"/>
<stop offset="1" stop-color="#293992"/>
</linearGradient>
</defs>
</svg>
