<svg width="37" height="37" viewBox="0 0 37 37" fill="none" xmlns="http://www.w3.org/2000/svg">
<path d="M31.6042 12.3333H24.6667V5.39583C24.6667 2.42042 22.2462 0 19.2708 0H17.7292C14.7537 0 12.3333 2.42042 12.3333 5.39583V12.3333H5.39583C2.42042 12.3333 0 14.7537 0 17.7292V19.2708C0 22.2462 2.42042 24.6667 5.39583 24.6667H12.3333V31.6042C12.3333 34.5796 14.7537 37 17.7292 37H19.2708C22.2462 37 24.6667 34.5796 24.6667 31.6042V24.6667H31.6042C34.5796 24.6667 37 22.2462 37 19.2708V17.7292C37 14.7537 34.5796 12.3333 31.6042 12.3333ZM35.4583 19.2708C35.4583 21.3952 33.7286 23.125 31.6042 23.125H23.8958C23.4703 23.125 23.125 23.4703 23.125 23.8958V31.6042C23.125 33.7286 21.3952 35.4583 19.2708 35.4583H17.7292C15.6047 35.4583 13.875 33.7286 13.875 31.6042V23.8958C13.875 23.4703 13.5297 23.125 13.1042 23.125H5.39583C3.27142 23.125 1.54167 21.3952 1.54167 19.2708V17.7292C1.54167 15.6047 3.27142 13.875 5.39583 13.875H13.1042C13.5297 13.875 13.875 13.5297 13.875 13.1042V5.39583C13.875 3.27142 15.6047 1.54167 17.7292 1.54167H19.2708C21.3952 1.54167 23.125 3.27142 23.125 5.39583V13.1042C23.125 13.5297 23.4703 13.875 23.8958 13.875H31.6042C33.7286 13.875 35.4583 15.6047 35.4583 17.7292V19.2708Z" fill="white"/>
</svg>
