<svg width="39" height="42" viewBox="0 0 39 42" fill="none" xmlns="http://www.w3.org/2000/svg">
<path d="M32.7955 14H31.9091V7.875C31.9091 3.53325 28.33 0 23.9318 0H15.0682C10.67 0 7.09091 3.53325 7.09091 7.875V14H6.20455C2.78318 14 0 16.7475 0 20.125V28.875C0 31.2882 1.989 33.25 4.43182 33.25H18.6136V40.25H9.75C9.26073 40.25 8.86364 40.642 8.86364 41.125C8.86364 41.608 9.26073 42 9.75 42H29.25C29.7393 42 30.1364 41.608 30.1364 41.125C30.1364 40.642 29.7393 40.25 29.25 40.25H20.3864V33.25H34.5682C37.011 33.25 39 31.2882 39 28.875V20.125C39 16.7475 36.2168 14 32.7955 14ZM32.7955 15.75C35.2383 15.75 37.2273 17.7118 37.2273 20.125V25.3768C36.4863 24.8255 35.5645 24.5 34.5682 24.5H31.9091V15.75H32.7955ZM8.86364 7.875C8.86364 4.4975 11.6468 1.75 15.0682 1.75H23.9318C27.3532 1.75 30.1364 4.4975 30.1364 7.875V24.5H8.86364V7.875ZM6.20455 15.75H7.09091V24.5H4.43182C3.43555 24.5 2.51373 24.8273 1.77273 25.3768V20.125C1.77273 17.7118 3.76173 15.75 6.20455 15.75ZM34.5682 31.5H4.43182C2.96577 31.5 1.77273 30.3223 1.77273 28.875C1.77273 27.4277 2.96577 26.25 4.43182 26.25H34.5682C36.0342 26.25 37.2273 27.4277 37.2273 28.875C37.2273 30.3223 36.0342 31.5 34.5682 31.5Z" fill="white"/>
</svg>
