<svg width="48" height="48" viewBox="0 0 48 48" fill="none" xmlns="http://www.w3.org/2000/svg">
<rect y="48" width="48" height="48" rx="24" transform="rotate(-90 0 48)" fill="url(#paint0_linear_704_14187)"/>
<path d="M18.3767 26.9339C18.6457 26.9339 18.8641 27.1523 18.8641 27.4214V30.346C18.8641 30.6151 18.6457 30.8334 18.3767 30.8334C18.1076 30.8334 17.8892 30.6151 17.8892 30.346V27.4214C17.8892 27.1523 18.1076 26.9339 18.3767 26.9339ZM20.8139 22.547V30.346C20.8139 30.6151 21.0322 30.8334 21.3013 30.8334C21.5704 30.8334 21.7887 30.6151 21.7887 30.346V22.547C21.7887 22.2779 21.5704 22.0596 21.3013 22.0596C21.0322 22.0596 20.8139 22.2779 20.8139 22.547ZM23.7385 24.4967V30.346C23.7385 30.6151 23.9569 30.8334 24.2259 30.8334C24.495 30.8334 24.7134 30.6151 24.7134 30.346V24.4967C24.7134 24.2277 24.495 24.0093 24.2259 24.0093C23.9569 24.0093 23.7385 24.2277 23.7385 24.4967ZM37.3867 25.7153V33.1078C37.3867 34.2299 35.4282 34.7329 33.4872 34.7329C31.5463 34.7329 29.5877 34.2309 29.5877 33.1078V25.7153C29.5877 24.4967 31.6194 24.0356 33.4872 24.0093C35.3561 24.0356 37.3867 24.4967 37.3867 25.7153ZM36.4138 29.3545C35.6622 29.6928 34.5781 29.8585 33.4872 29.8585C32.3963 29.8585 31.3133 29.6938 30.5626 29.3555V30.6501C30.6767 30.85 31.6769 31.3209 33.4872 31.3209C35.321 31.3209 36.3222 30.8373 36.4148 30.6433L36.4138 29.3545ZM36.4109 26.8803C35.6485 27.243 34.5498 27.4214 33.4853 27.4214C32.4207 27.4214 31.323 27.243 30.5607 26.8813V28.213C30.6747 28.4128 31.6749 28.8837 33.4853 28.8837C35.3141 28.8837 36.3144 28.4031 36.4119 28.2071L36.4109 26.8803ZM30.5616 25.7153C30.6474 25.9249 31.6369 26.4465 33.4843 26.4465C35.358 26.4465 36.3485 25.9103 36.4099 25.7066C36.3495 25.5204 35.358 24.9842 33.4843 24.9842C31.6359 24.9842 30.6474 25.5057 30.5616 25.7153ZM36.4138 33.0786V31.7908C35.6622 32.13 34.5771 32.2957 33.4843 32.2957C32.3915 32.2957 31.3103 32.131 30.5597 31.7927V33.1078C30.6435 33.2706 31.6457 33.758 33.4843 33.758C35.3229 33.758 36.3251 33.2716 36.4138 33.0786ZM27.6351 34.2455C27.6351 34.5145 27.4167 34.7329 27.1476 34.7329H18.3767C15.958 34.7329 13.9897 32.7647 13.9897 30.346V15.7229C13.9897 13.3042 15.958 11.3359 18.3767 11.3359H23.7531C25.4445 11.3359 27.0365 11.995 28.2346 13.1921L31.6311 16.5895C32.8282 17.7857 33.4872 19.3767 33.4872 21.0701V21.5721C33.4872 21.8412 33.2689 22.0596 32.9998 22.0596C32.7307 22.0596 32.5124 21.8412 32.5124 21.5721V21.0701C32.5124 20.7435 32.4753 20.4237 32.4188 20.1098H27.1505C25.8062 20.1098 24.7134 19.016 24.7134 17.6726V12.4044C24.3985 12.3479 24.0787 12.3108 23.7531 12.3108H18.3767C16.4952 12.3108 14.9646 13.8414 14.9646 15.7229V30.346C14.9646 32.2275 16.4952 33.758 18.3767 33.758H27.1505C27.4196 33.758 27.638 33.9764 27.638 34.2455H27.6351ZM27.5415 13.8813C27.0043 13.3452 26.3716 12.9464 25.6853 12.6813V17.6726C25.6853 18.4788 26.3414 19.1349 27.1476 19.1349H32.14C31.8738 18.4486 31.4751 17.815 30.9389 17.2788L27.5424 13.8813H27.5415Z" fill="white"/>
<defs>
<linearGradient id="paint0_linear_704_14187" x1="40.3404" y1="48" x2="3.67122" y2="96.8488" gradientUnits="userSpaceOnUse">
<stop stop-color="#9A2686"/>
<stop offset="1" stop-color="#293992"/>
</linearGradient>
</defs>
</svg>
