<svg width="49" height="49" viewBox="0 0 49 49" fill="none" xmlns="http://www.w3.org/2000/svg">
<rect y="48.6895" width="48.6892" height="48.6893" rx="24.3446" transform="rotate(-90 0 48.6895)" fill="url(#paint0_linear_704_14202)"/>
<path d="M27.9069 22.3777C28.877 23.3487 30.169 23.8836 31.5433 23.8836C32.9176 23.8836 34.2096 23.3487 35.1796 22.3777C37.1588 20.3996 37.1917 17.1852 35.2588 14.9006C35.2547 14.8965 35.2516 14.8924 35.2475 14.8883L32.6275 11.9834C32.393 11.7551 32.1101 11.5391 31.5422 11.5391C31.03 11.5391 30.6905 11.7551 30.4354 12.0071L27.8267 14.8996C25.8938 17.1842 25.9267 20.3986 27.9059 22.3766L27.9069 22.3777ZM28.6023 15.5764L31.1359 12.7837C31.2923 12.6119 31.4414 12.5605 31.568 12.5605C31.6945 12.5605 31.8128 12.6325 31.963 12.7765L34.4791 15.5713C36.0591 17.4434 36.0478 20.0561 34.4534 21.6504C32.9001 23.2047 30.1885 23.2047 28.6352 21.6504C27.0377 20.054 27.0284 17.4382 28.6033 15.5774L28.6023 15.5764ZM24.8569 30.007V33.314C24.8569 34.2223 24.4444 35.0627 23.7233 35.6192C23.2069 36.0183 22.5897 36.2271 21.9581 36.2271C21.7143 36.2271 21.4695 36.1962 21.2267 36.1335C15.7933 34.7201 11.9985 29.7385 11.9985 23.8836C11.9985 23.4197 12.0243 22.9475 12.0757 22.4805C12.7021 16.8118 17.2705 12.2437 22.9395 11.6172C23.4085 11.5658 23.8807 11.5401 24.3426 11.5401C25.4741 11.5401 26.2333 11.6574 27.0254 11.8322C27.3031 11.8939 27.4769 12.1686 27.4162 12.4453C27.3556 12.722 27.0932 12.8968 26.8021 12.8362C26.0543 12.6705 25.3826 12.5677 24.3416 12.5677C23.9167 12.5677 23.4826 12.5913 23.0506 12.6387C17.8578 13.2137 13.6722 17.3991 13.0982 22.5927C13.0509 23.0226 13.0272 23.4567 13.0272 23.8836C13.0272 29.2149 16.5062 33.8427 21.487 35.1378C22.0486 35.2848 22.634 35.1624 23.0948 34.8055C23.5618 34.4445 23.8282 33.9013 23.8282 33.314V30.0029C21.236 29.7406 19.1992 27.5712 19.1992 24.9122V22.855H18.6849C18.401 22.855 18.1706 22.6245 18.1706 22.3406C18.1706 22.0567 18.401 21.8263 18.6849 21.8263H21.2566V18.2261C21.2566 17.9422 21.487 17.7118 21.7709 17.7118C22.0548 17.7118 22.2852 17.9422 22.2852 18.2261V21.8263H24.8569C25.1408 21.8263 25.3713 22.0567 25.3713 22.3406C25.3713 22.6245 25.1408 22.855 24.8569 22.855H20.2279V24.9122C20.2279 27.1813 22.0733 29.0267 24.3426 29.0267C26.4431 29.0267 28.2011 27.455 28.4326 25.3699C28.4634 25.0881 28.7175 24.8824 29.0004 24.9153C29.2823 24.9461 29.487 25.2012 29.4551 25.4831C29.1856 27.9148 27.2475 29.7673 24.8569 30.007ZM36.5827 25.4923C35.9666 30.2106 32.6367 34.1955 28.0993 35.6449C27.8349 35.7302 27.5387 35.5842 27.4523 35.3106C27.3658 35.04 27.516 34.751 27.7855 34.6646C31.9455 33.3366 34.9986 29.685 35.5623 25.3607C35.5993 25.0788 35.8616 24.8793 36.1394 24.9173C36.4212 24.9544 36.6198 25.2126 36.5838 25.4934L36.5827 25.4923Z" fill="white"/>
<defs>
<linearGradient id="paint0_linear_704_14202" x1="40.9197" y1="48.6894" x2="3.72393" y2="98.2396" gradientUnits="userSpaceOnUse">
<stop stop-color="#9A2686"/>
<stop offset="1" stop-color="#293992"/>
</linearGradient>
</defs>
</svg>
