<svg width="37" height="37" viewBox="0 0 37 37" fill="none" xmlns="http://www.w3.org/2000/svg">
<path d="M32.9547 6.09428L21.6727 0.706432C19.6963 -0.235477 17.4301 -0.235477 15.4521 0.706432L4.17021 6.09428C1.67425 7.28592 0.0616667 9.84187 0.0616667 12.6059L0 36.2277C0 36.6516 0.343792 36.9985 0.769292 37C1.19325 37 1.54167 36.6562 1.54167 36.2307L1.55554 30.8337H35.4583V36.2292C35.4583 36.6547 35.8037 37 36.2292 37C36.6547 37 37 36.6547 37 36.2292V12.6075C37 9.78175 35.4506 7.28592 32.9547 6.09428ZM4.83312 7.48479L16.115 2.09694C17.6706 1.35698 19.4527 1.35698 21.0083 2.09694L32.2902 7.48479C33.1474 7.89485 33.8519 8.50994 34.3838 9.25144H2.72412C3.26833 8.51148 3.97904 7.89331 4.83312 7.48479ZM19.2708 29.2921V21.5841C19.2708 21.3436 19.3865 21.1124 19.5792 20.969L20.979 19.9192C21.164 19.9994 21.369 20.0441 21.5833 20.0441C22.4343 20.0441 23.125 19.3535 23.125 18.5025C23.125 17.6516 22.4343 16.9609 21.5833 16.9609C20.7323 16.9609 20.0417 17.6516 20.0417 18.5025C20.0417 18.5611 20.0694 18.612 20.0756 18.669L18.6542 19.7342C18.0745 20.169 17.7292 20.8596 17.7292 21.5841V29.2921H1.56017L1.60333 12.6075C1.60333 11.9801 1.7205 11.3711 1.91629 10.793H6.16667V13.1054C6.16667 13.5309 6.512 13.8762 6.9375 13.8762C7.363 13.8762 7.70833 13.5309 7.70833 13.1054V10.793H13.875V13.1054C13.875 13.5309 14.2203 13.8762 14.6458 13.8762C15.0713 13.8762 15.4167 13.5309 15.4167 13.1054V10.793H21.5833V13.1054C21.5833 13.5309 21.9287 13.8762 22.3542 13.8762C22.7797 13.8762 23.125 13.5309 23.125 13.1054V10.793H29.2917V13.1054C29.2917 13.5309 29.637 13.8762 30.0625 13.8762C30.488 13.8762 30.8333 13.5309 30.8333 13.1054V10.793H35.1639C35.3489 11.3665 35.4583 11.9739 35.4583 12.6075V29.2921H19.2708ZM10.7917 33.9168C10.3662 33.9168 10.0208 33.5715 10.0208 33.146C10.0208 32.7206 10.3662 32.3752 10.7917 32.3752H26.2083C26.6338 32.3752 26.9792 32.7206 26.9792 33.146C26.9792 33.5715 26.6338 33.9168 26.2083 33.9168H10.7917ZM27.75 36.2292C27.75 36.6547 27.4047 37 26.9792 37H10.0208C9.59533 37 9.25 36.6547 9.25 36.2292C9.25 35.8037 9.59533 35.4584 10.0208 35.4584H26.9792C27.4047 35.4584 27.75 35.8037 27.75 36.2292Z" fill="white"/>
</svg>
