<svg width="48" height="48" viewBox="0 0 48 48" fill="none" xmlns="http://www.w3.org/2000/svg">
<rect y="47.9746" width="47.9741" height="47.9742" rx="23.9871" transform="rotate(-90 0 47.9746)" fill="url(#paint0_linear_704_15054)"/>
<path d="M15.8094 22.1534C14.6476 22.1534 13.7028 23.101 13.7028 24.2661C13.7028 25.4313 14.6476 26.3789 15.8094 26.3789C16.9712 26.3789 17.916 25.4313 17.916 24.2661C17.916 23.101 16.9712 22.1534 15.8094 22.1534ZM15.8094 25.3225C15.2279 25.3225 14.7561 24.8492 14.7561 24.2661C14.7561 23.683 15.2279 23.2098 15.8094 23.2098C16.3908 23.2098 16.8627 23.683 16.8627 24.2661C16.8627 24.8492 16.3908 25.3225 15.8094 25.3225ZM21.4245 22.2559C21.5309 21.845 21.4709 21.4193 21.2581 21.0548C21.0443 20.6893 20.702 20.4294 20.2933 20.3238C19.8846 20.215 19.4601 20.2763 19.0936 20.4918L18.8587 20.6302C18.43 20.271 17.9307 19.99 17.3883 19.7999V19.5136C17.3883 18.64 16.6794 17.929 15.8083 17.929C14.9372 17.929 14.2283 18.64 14.2283 19.5136V19.7999C13.6859 19.99 13.1877 20.271 12.7579 20.6302L12.523 20.4918C12.1576 20.2763 11.7331 20.215 11.3233 20.3238C10.9147 20.4305 10.5723 20.6904 10.3596 21.0538C10.1457 21.4193 10.0857 21.845 10.1921 22.2559C10.2985 22.6658 10.5576 23.0091 10.9199 23.2225L11.1664 23.3682C11.099 23.6851 11.0663 23.9767 11.0663 24.2672C11.0663 24.5577 11.0979 24.8492 11.1653 25.1651L10.9199 25.3109C10.5565 25.5253 10.2974 25.8686 10.1921 26.2785C10.0857 26.6894 10.1457 27.1151 10.3585 27.4796C10.5723 27.8451 10.9147 28.1049 11.3233 28.2106C11.7331 28.3194 12.1576 28.2581 12.523 28.0426L12.7579 27.9042C13.1866 28.2634 13.6859 28.5444 14.2283 28.7345V29.0208C14.2283 29.8944 14.9372 30.6053 15.8083 30.6053C16.6794 30.6053 17.3883 29.8944 17.3883 29.0208V28.7345C17.9307 28.5444 18.4289 28.2634 18.8587 27.9042L19.0936 28.0426C19.4601 28.2581 19.8846 28.3194 20.2933 28.2106C20.702 28.1039 21.0443 27.844 21.2571 27.4806C21.4709 27.1151 21.5309 26.6894 21.4245 26.2785C21.3181 25.8686 21.059 25.5253 20.6956 25.3098L20.4513 25.1651C20.5176 24.8492 20.5503 24.5577 20.5503 24.2672C20.5503 23.9767 20.5187 23.6851 20.4502 23.3682L20.6956 23.2235C21.0601 23.0091 21.3192 22.6658 21.4245 22.2559ZM19.3379 23.2573C19.4464 23.6387 19.4959 23.9598 19.4959 24.2661C19.4959 24.5725 19.4454 24.8936 19.3379 25.275C19.2726 25.5063 19.3706 25.7524 19.5781 25.875L20.1627 26.2183C20.2849 26.2901 20.3712 26.4053 20.406 26.5426C20.4407 26.6789 20.4218 26.8215 20.3491 26.9429C20.2785 27.0644 20.1648 27.151 20.0278 27.1859C19.8888 27.2197 19.7487 27.2018 19.6286 27.1299L19.0599 26.794C18.8545 26.6715 18.5901 26.7053 18.4205 26.8753C17.9665 27.3317 17.3841 27.6602 16.731 27.8292C16.4982 27.8905 16.336 28.1007 16.336 28.3405V29.0187C16.336 29.3092 16.099 29.5469 15.8094 29.5469C15.5197 29.5469 15.2827 29.3092 15.2827 29.0187V28.3405C15.2827 28.0997 15.1205 27.8894 14.8877 27.8292C14.2357 27.6602 13.6522 27.3306 13.1982 26.8753C13.0971 26.7729 12.9612 26.7211 12.8253 26.7211C12.7337 26.7211 12.641 26.7444 12.5578 26.794L11.989 27.1299C11.87 27.2018 11.7289 27.2218 11.5898 27.1859C11.4529 27.151 11.3402 27.0644 11.2675 26.9419C11.1969 26.8215 11.1769 26.6789 11.2117 26.5426C11.2464 26.4053 11.3328 26.2912 11.4539 26.2193L12.0396 25.875C12.246 25.7524 12.345 25.5052 12.2797 25.275C12.1712 24.8936 12.1217 24.5725 12.1217 24.2661C12.1217 23.9598 12.1723 23.6387 12.2797 23.2573C12.345 23.026 12.2481 22.7798 12.0406 22.6584L11.4539 22.3119C11.3328 22.2411 11.2464 22.126 11.2117 21.9897C11.1769 21.8534 11.1959 21.7108 11.2686 21.5893C11.3391 21.4678 11.4529 21.3812 11.5898 21.3464C11.7268 21.3094 11.8668 21.3305 11.989 21.4024L12.5578 21.7383C12.7643 21.8619 13.0286 21.8281 13.1972 21.6569C13.6511 21.2006 14.2336 20.8721 14.8867 20.703C15.1194 20.6418 15.2817 20.4316 15.2817 20.1918V19.5136C15.2817 19.2231 15.5186 18.9854 15.8083 18.9854C16.098 18.9854 16.335 19.2231 16.335 19.5136V20.1918C16.335 20.4326 16.4972 20.6428 16.7299 20.703C17.3819 20.8721 17.9655 21.2016 18.4194 21.6569C18.588 21.827 18.8524 21.8608 19.0588 21.7383L19.6276 21.4024C19.7466 21.3326 19.8899 21.3115 20.0268 21.3464C20.1637 21.3812 20.2764 21.4678 20.3491 21.5904C20.4197 21.7108 20.4397 21.8534 20.4049 21.9897C20.3702 22.126 20.2838 22.24 20.1616 22.3129L19.576 22.6584C19.3695 22.7798 19.2716 23.027 19.3369 23.2573H19.3379ZM28.5027 24.7943C28.7555 26.2901 30.0469 27.4352 31.6089 27.4352C33.3511 27.4352 34.7689 26.0134 34.7689 24.2661C34.7689 22.5189 33.3511 21.0971 31.6089 21.0971C30.0469 21.0971 28.7545 22.2422 28.5027 23.738H25.2891V17.928C25.2891 16.4713 26.4699 15.2871 27.9224 15.2871H28.5027C28.7555 16.7829 30.0469 17.928 31.6089 17.928C33.3511 17.928 34.7689 16.5061 34.7689 14.7589C34.7689 13.0117 33.3511 11.5898 31.6089 11.5898C30.0469 11.5898 28.7545 12.7349 28.5027 14.2307H27.9224C25.8895 14.2307 24.2358 15.8892 24.2358 17.928V23.738H22.6558C22.3651 23.738 22.1292 23.9746 22.1292 24.2661C22.1292 24.5577 22.3651 24.7943 22.6558 24.7943H24.2358V30.6043C24.2358 32.6431 25.8895 34.3015 27.9224 34.3015H28.5027C28.7555 35.7973 30.0469 36.9424 31.6089 36.9424C33.3511 36.9424 34.7689 35.5206 34.7689 33.7734C34.7689 32.0261 33.3511 30.6043 31.6089 30.6043C30.0469 30.6043 28.7545 31.7494 28.5027 33.2452H27.9224C26.4699 33.2452 25.2891 32.061 25.2891 30.6043V24.7943H28.5027ZM31.6089 22.1534C32.7707 22.1534 33.7155 23.101 33.7155 24.2661C33.7155 25.4313 32.7707 26.3789 31.6089 26.3789C30.4471 26.3789 29.5023 25.4313 29.5023 24.2661C29.5023 23.101 30.4471 22.1534 31.6089 22.1534ZM31.6089 12.6462C32.7707 12.6462 33.7155 13.5938 33.7155 14.7589C33.7155 15.9241 32.7707 16.8716 31.6089 16.8716C30.4471 16.8716 29.5023 15.9241 29.5023 14.7589C29.5023 13.5938 30.4471 12.6462 31.6089 12.6462ZM31.6089 31.6606C32.7707 31.6606 33.7155 32.6082 33.7155 33.7734C33.7155 34.9385 32.7707 35.8861 31.6089 35.8861C30.4471 35.8861 29.5023 34.9385 29.5023 33.7734C29.5023 32.6082 30.4471 31.6606 31.6089 31.6606Z" fill="white"/>
<defs>
<linearGradient id="paint0_linear_704_15054" x1="40.3187" y1="47.9746" x2="3.66924" y2="96.7971" gradientUnits="userSpaceOnUse">
<stop stop-color="#9A2686"/>
<stop offset="1" stop-color="#293992"/>
</linearGradient>
</defs>
</svg>
