<svg width="39" height="39" viewBox="0 0 39 39" fill="none" xmlns="http://www.w3.org/2000/svg">
<path d="M35.75 13V8.49713C35.75 5.25038 33.5871 2.36275 30.4915 1.4755C27.0709 0.495625 23.374 0 19.5 0C15.626 0 11.9291 0.49725 8.5085 1.4755C5.41125 2.36275 3.25 5.25038 3.25 8.49713V13C1.45762 13 0 14.4576 0 16.25V19.5C0 21.2924 1.45762 22.75 3.25 22.75V26.8125C3.25 29.3426 4.54187 31.577 6.5 32.89V34.9375C6.5 37.1768 8.32325 39 10.5625 39C12.8018 39 14.625 37.1768 14.625 34.9375V34.125H24.375V34.9375C24.375 37.1768 26.1982 39 28.4375 39C30.6768 39 32.5 37.1768 32.5 34.9375V32.89C34.4581 31.577 35.75 29.3426 35.75 26.8125V22.75C37.5424 22.75 39 21.2924 39 19.5V16.25C39 14.4576 37.5424 13 35.75 13ZM20.3125 21.125V9.75H34.125V21.125H20.3125ZM4.875 21.125V9.75H18.6875V21.125H4.875ZM8.957 3.03712C12.2314 2.0995 15.7788 1.625 19.5 1.625C23.2213 1.625 26.7686 2.0995 30.043 3.03712C32.3278 3.692 33.956 5.75413 34.1104 8.125H4.888C5.044 5.75413 6.67388 3.692 8.957 3.03712ZM1.625 19.5V16.25C1.625 15.3546 2.35462 14.625 3.25 14.625V21.125C2.35462 21.125 1.625 20.3954 1.625 19.5ZM13 34.9375C13 36.2814 11.9064 37.375 10.5625 37.375C9.21863 37.375 8.125 36.2814 8.125 34.9375V33.7074C8.88713 33.9771 9.70775 34.125 10.5625 34.125H13V34.9375ZM30.875 34.9375C30.875 36.2814 29.7814 37.375 28.4375 37.375C27.0936 37.375 26 36.2814 26 34.9375V34.125H28.4375C29.2922 34.125 30.1129 33.9771 30.875 33.7074V34.9375ZM34.125 26.8125C34.125 29.9487 31.5737 32.5 28.4375 32.5H10.5625C7.42625 32.5 4.875 29.9487 4.875 26.8125V22.75H9.75V25.1875C9.75 25.636 10.114 26 10.5625 26C11.011 26 11.375 25.636 11.375 25.1875V22.75H27.625V25.1875C27.625 25.636 27.989 26 28.4375 26C28.886 26 29.25 25.636 29.25 25.1875V22.75H34.125V26.8125ZM37.375 19.5C37.375 20.3954 36.6454 21.125 35.75 21.125V14.625C36.6454 14.625 37.375 15.3546 37.375 16.25V19.5Z" fill="white"/>
</svg>
