<svg width="47" height="47" viewBox="0 0 47 47" fill="none" xmlns="http://www.w3.org/2000/svg">
<rect y="47" width="47" height="47" rx="23.5" transform="rotate(-90 0 47)" fill="url(#paint0_linear_704_15066)"/>
<path d="M19.113 34.1821C19.6533 34.1821 20.1139 33.7979 20.1828 33.288C20.3626 31.9776 21.5088 30.9887 22.8488 30.9887C24.1888 30.9887 25.3351 31.9776 25.5148 33.288C25.5848 33.7979 26.0455 34.1821 26.5858 34.1821H27.1745C29.8448 34.1821 32.0179 32.033 32.0179 29.392V16.6183C32.0179 13.9773 29.8448 11.8281 27.1745 11.8281H26.5858C26.0455 11.8281 25.5859 12.2124 25.5148 12.7223C25.3351 14.0327 24.1888 15.0216 22.8488 15.0216C21.5088 15.0216 20.3626 14.0327 20.1828 12.7233C20.1139 12.2135 19.6533 11.8281 19.113 11.8281H18.5641C15.8938 11.8281 13.7207 13.9773 13.7207 16.6183V29.392C13.7207 32.033 15.8938 34.1821 18.5641 34.1821H19.113ZM14.797 29.392V16.6183C14.797 14.5638 16.4868 12.8926 18.5641 12.8926L19.1162 12.866C19.3681 14.7022 20.9728 16.086 22.8488 16.086C24.7248 16.086 26.3296 14.7011 26.5858 12.8926H27.1745C29.2518 12.8926 30.9416 14.5638 30.9416 16.6183V29.392C30.9416 31.4464 29.2518 33.1177 27.1745 33.1177L26.5825 33.1443C26.3307 31.308 24.7259 29.9242 22.8499 29.9242C20.9739 29.9242 19.3691 31.3091 19.1141 33.1177H18.5651C16.4879 33.1177 14.797 31.4464 14.797 29.392ZM35.2468 17.6827V30.4565C35.2468 34.2715 32.1083 37.3756 28.2508 37.3756H18.5641C18.267 37.3756 18.0259 37.1371 18.0259 36.8433C18.0259 36.5495 18.267 36.3111 18.5641 36.3111H28.2508C31.5152 36.3111 34.1705 33.684 34.1705 30.4565V17.6827C34.1705 17.3889 34.4116 17.1505 34.7086 17.1505C35.0057 17.1505 35.2468 17.3889 35.2468 17.6827Z" fill="white"/>
<defs>
<linearGradient id="paint0_linear_704_15066" x1="39.5" y1="47" x2="3.59473" y2="94.8311" gradientUnits="userSpaceOnUse">
<stop stop-color="#9A2686"/>
<stop offset="1" stop-color="#293992"/>
</linearGradient>
</defs>
</svg>
