<svg width="48" height="48" viewBox="0 0 48 48" fill="none" xmlns="http://www.w3.org/2000/svg">
<rect y="48" width="48" height="48" rx="24" transform="rotate(-90 0 48)" fill="url(#paint0_linear_704_14661)"/>
<path d="M18.4971 11.6264H23.993C24.3258 11.6264 24.6537 11.6563 24.9745 11.7141V17.1076C24.9745 18.4809 26.0926 19.599 27.4659 19.599H32.8581C32.891 19.7764 32.9149 19.9568 32.9289 20.1382C32.9508 20.4122 33.2019 20.6155 33.466 20.5946C33.74 20.5727 33.9443 20.3315 33.9224 20.0574C33.7978 18.5267 33.1321 17.0867 32.0459 16.0014L28.573 12.5283C27.3493 11.3045 25.7229 10.6309 23.993 10.6309H18.4971C16.0247 10.6299 14.0127 12.6419 14.0127 15.1144V30.063C14.0127 32.5355 16.0247 34.5476 18.4971 34.5476H22.4832C22.7583 34.5476 22.9815 34.3244 22.9815 34.0493C22.9815 33.7743 22.7583 33.551 22.4832 33.551H18.4971C16.5738 33.551 15.0092 31.9864 15.0092 30.063V15.1144C15.0092 13.1911 16.5738 11.6264 18.4971 11.6264ZM31.3414 16.705C31.8845 17.2481 32.303 17.8959 32.5771 18.6024H27.4659C26.6417 18.6024 25.9711 17.9318 25.9711 17.1076V11.9932C26.6746 12.2652 27.3194 12.6828 27.8685 13.2319L31.3414 16.705ZM37.199 22.3217C36.2593 21.3809 34.616 21.3809 33.6763 22.3217L25.996 30.0022C25.3373 30.661 24.9745 31.537 24.9745 32.4688V34.0493C24.9745 34.3244 25.1978 34.5476 25.4728 34.5476H27.0533C27.9851 34.5476 28.861 34.1849 29.5197 33.5261L37.2 25.8455C37.6703 25.3752 37.9294 24.7493 37.9294 24.0836C37.9294 23.4179 37.6694 22.792 37.199 22.3217ZM36.4944 25.14L28.8142 32.8205C28.3438 33.2909 27.718 33.55 27.0523 33.55H25.9701V32.4678C25.9701 31.8021 26.2292 31.1772 26.6995 30.7058L34.3798 23.0252C34.9438 22.4612 35.9294 22.4612 36.4934 23.0252C36.7755 23.3073 36.9309 23.683 36.9309 24.0826C36.9309 24.4822 36.7765 24.8569 36.4944 25.14Z" fill="white"/>
<defs>
<linearGradient id="paint0_linear_704_14661" x1="40.3404" y1="48" x2="3.67121" y2="96.8488" gradientUnits="userSpaceOnUse">
<stop stop-color="#9A2686"/>
<stop offset="1" stop-color="#293992"/>
</linearGradient>
</defs>
</svg>
