<svg width="48" height="48" viewBox="0 0 48 48" fill="none" xmlns="http://www.w3.org/2000/svg">
<rect y="47.9746" width="47.9741" height="47.9742" rx="23.9871" transform="rotate(-90 0 47.9746)" fill="url(#paint0_linear_704_15057)"/>
<path d="M30.5808 35.6251C30.6072 35.924 30.3927 36.1893 30.102 36.2154C30.0862 36.2154 30.0703 36.2176 30.0545 36.2176C29.7839 36.2176 29.5535 36.0056 29.5282 35.7229C29.2819 32.9062 27.0192 30.782 24.2661 30.782C21.513 30.782 19.2502 32.9062 19.004 35.7229C18.9776 36.0219 18.7218 36.2371 18.4301 36.2154C18.1395 36.1893 17.9249 35.924 17.9513 35.6251C18.2473 32.2442 20.9623 29.6949 24.2671 29.6949C27.5719 29.6949 30.2859 32.2442 30.5829 35.6251H30.5808ZM27.964 24.8029C27.964 26.901 26.3047 28.6078 24.265 28.6078C22.2253 28.6078 20.566 26.901 20.566 24.8029C20.566 22.7048 22.2253 20.998 24.265 20.998C26.3047 20.998 27.964 22.7048 27.964 24.8029ZM26.9072 24.8029C26.9072 23.3038 25.7214 22.0851 24.265 22.0851C22.8087 22.0851 21.6229 23.3038 21.6229 24.8029C21.6229 26.302 22.8087 27.5207 24.265 27.5207C25.7214 27.5207 26.9072 26.302 26.9072 24.8029ZM20.4508 14.5112C19.6307 13.8426 20.1433 12.399 21.1832 12.4294H22.6607L23.1902 10.9009C23.5168 9.88883 25.0101 9.88774 25.3388 10.8944L25.8704 12.4294H27.3479C28.3846 12.3946 28.8993 13.8492 28.0856 14.508L26.9082 15.494L27.3891 16.905C27.76 17.928 26.5447 18.8879 25.6812 18.2705L24.2756 17.329L22.8953 18.2791C22.0456 18.9097 20.8165 17.965 21.1663 16.9464L21.6334 15.5016L20.4508 14.5112ZM21.1177 13.6687L22.5836 14.8961C22.7548 15.0385 22.8213 15.2755 22.7516 15.4896L22.1714 17.2812L22.258 17.391C22.2707 17.391 22.2876 17.3888 22.3045 17.3768L23.9765 16.2256C24.153 16.106 24.3802 16.1049 24.5588 16.2223L26.2561 17.3595L26.3904 17.2638L25.7869 15.4929C25.7129 15.2776 25.7795 15.0363 25.9518 14.8917L27.4102 13.6698L27.3468 13.5154H25.4973C25.2743 13.5154 25.0746 13.3708 24.9995 13.1545L24.3443 11.2651H24.1857L23.5305 13.1545C23.4555 13.3708 23.2557 13.5154 23.0327 13.5154H21.1832L21.1177 13.6687ZM36.5404 17.6519L35.3631 18.6379L35.8439 20.049C36.2149 21.073 34.9985 22.0319 34.1361 21.4144L32.7304 20.4729L31.3502 21.4231C30.5005 22.0536 29.2713 21.1089 29.6212 20.0903L30.0883 18.6455L28.9057 17.6551C28.0856 16.9866 28.5981 15.5429 29.6381 15.5733H31.1156L31.645 14.0449C31.9716 13.0328 33.465 13.0317 33.7936 14.0383L34.3252 15.5733H35.8027C36.8395 15.5385 37.3542 16.9931 36.5404 17.6519ZM35.8661 16.8137L35.8027 16.6594H33.9532C33.7302 16.6594 33.5305 16.5148 33.4554 16.2984L32.8002 14.409H32.6417L31.9864 16.2984C31.9114 16.5148 31.7116 16.6594 31.4886 16.6594H29.6391L29.5736 16.8115L31.0395 18.0389C31.2107 18.1813 31.2773 18.4183 31.2075 18.6325L30.6273 20.4251L30.714 20.5338C30.7266 20.5338 30.7435 20.5316 30.7605 20.5197L32.4324 19.3684C32.6078 19.2499 32.8361 19.2467 33.0147 19.3652L34.712 20.5023L34.8463 20.4066L34.2428 18.6357C34.1688 18.4205 34.2354 18.1791 34.4077 18.0345L35.8661 16.8137ZM18.5485 21.36C18.1617 21.6644 17.6301 21.6862 17.2253 21.4144L15.8197 20.4729L14.4394 21.4231C13.5897 22.0536 12.3606 21.1089 12.7104 20.0903L13.1775 18.6455L11.9949 17.6551C11.1748 16.9866 11.6874 15.5429 12.7273 15.5733H14.2048L14.7343 14.0449C15.0608 13.0328 16.5542 13.0317 16.8829 14.0383L17.4145 15.5733H18.8919C19.9287 15.5385 20.4434 16.9931 19.6296 17.6519L18.4523 18.6379L18.9332 20.049C19.0896 20.5316 18.9332 21.0556 18.5485 21.36ZM17.9355 20.4077L17.332 18.6368C17.258 18.4216 17.3246 18.1802 17.4969 18.0356L18.9554 16.8137L18.8919 16.6594H17.0424C16.8195 16.6594 16.6197 16.5148 16.5447 16.2984L15.8894 14.409H15.7309L15.0756 16.2984C15.0006 16.5148 14.8009 16.6594 14.5779 16.6594H12.7273L12.6618 16.8115L14.1276 18.0389C14.2988 18.1813 14.3654 18.4183 14.2957 18.6325L13.7155 20.4251L13.8021 20.5338C13.8148 20.5338 13.8317 20.5316 13.8486 20.5197L15.5206 19.3684C15.696 19.2499 15.9254 19.2467 16.1029 19.3652L17.8002 20.5023L17.9344 20.4066L17.9355 20.4077Z" fill="white"/>
<defs>
<linearGradient id="paint0_linear_704_15057" x1="40.3187" y1="47.9746" x2="3.66924" y2="96.7971" gradientUnits="userSpaceOnUse">
<stop stop-color="#9A2686"/>
<stop offset="1" stop-color="#293992"/>
</linearGradient>
</defs>
</svg>
