<svg width="48" height="48" viewBox="0 0 48 48" fill="none" xmlns="http://www.w3.org/2000/svg">
<rect y="48" width="48" height="48" rx="24" transform="rotate(-90 0 48)" fill="url(#paint0_linear_704_15060)"/>
<path d="M37.5927 35.0299L30.7271 28.164C32.4395 26.2725 33.4934 23.7736 33.4934 21.0275C33.4923 15.1515 28.7121 10.3711 22.8365 10.3711C16.9609 10.3711 12.1807 15.1515 12.1807 21.0275C12.1807 26.9034 16.9609 31.6838 22.8365 31.6838C25.5825 31.6838 28.0813 30.6299 29.9727 28.9174L36.8382 35.7833C36.9427 35.8878 37.0791 35.9389 37.2154 35.9389C37.3518 35.9389 37.4882 35.8867 37.5927 35.7833C37.8004 35.5756 37.8004 35.2377 37.5927 35.0299ZM22.8365 30.6171C17.5491 30.6171 13.2462 26.3152 13.2462 21.0264C13.2462 15.7376 17.548 11.4367 22.8365 11.4367C28.125 11.4367 32.4267 15.7387 32.4267 21.0275C32.4267 26.3162 28.1239 30.6182 22.8365 30.6182V30.6171ZM27.6252 17.8231C26.744 17.8231 26.0268 18.5403 26.0268 19.4216V24.2169H24.4285V17.2903C24.4285 16.409 23.7113 15.6918 22.8301 15.6918C21.9489 15.6918 21.2317 16.409 21.2317 17.2903V24.2169H19.6333V20.4872C19.6333 19.6059 18.9162 18.8887 18.035 18.8887C17.1537 18.8887 16.4366 19.6059 16.4366 20.4872V23.6841C16.4366 24.5654 17.1537 25.2826 18.035 25.2826H27.6252C28.5064 25.2826 29.2236 24.5654 29.2236 23.6841V19.4216C29.2236 18.5403 28.5064 17.8231 27.6252 17.8231ZM18.5678 24.2169H18.035C17.7409 24.2169 17.5022 23.9772 17.5022 23.6841V20.4872C17.5022 20.1941 17.7409 19.9544 18.035 19.9544C18.3291 19.9544 18.5678 20.1941 18.5678 20.4872V24.2169ZM22.2973 17.2903C22.2973 16.9972 22.536 16.7575 22.8301 16.7575C23.1242 16.7575 23.3629 16.9972 23.3629 17.2903V24.2169H22.2973V17.2903ZM28.158 23.6841C28.158 23.9772 27.9193 24.2169 27.6252 24.2169H27.0924V19.4216C27.0924 19.1285 27.3311 18.8887 27.6252 18.8887C27.9193 18.8887 28.158 19.1285 28.158 19.4216V23.6841Z" fill="white"/>
<defs>
<linearGradient id="paint0_linear_704_15060" x1="40.3404" y1="48" x2="3.67122" y2="96.8488" gradientUnits="userSpaceOnUse">
<stop stop-color="#9A2686"/>
<stop offset="1" stop-color="#293992"/>
</linearGradient>
</defs>
</svg>
