<svg width="44" height="43" viewBox="0 0 44 43" fill="none" xmlns="http://www.w3.org/2000/svg">
<path d="M35.75 10.75H25.795L25.245 10.2286C24.596 9.61408 23.8132 9.22888 22.9955 9.05329L29.172 6.15258C29.8467 5.74229 30.25 5.03279 30.25 4.25521C30.25 3.47762 29.8467 2.76633 29.0748 2.30408L24.6748 0.292042C24.2513 0.0985417 23.7985 0 23.3347 0C21.5893 0 20.1667 1.38854 20.1667 3.09421V9.31846C19.6588 9.53346 19.1785 9.82908 18.755 10.2286L18.205 10.75H8.25C3.7015 10.75 0 14.3674 0 18.8125V36.7292C0 40.1871 2.87833 43 6.41667 43H37.5833C41.1217 43 44 40.1871 44 36.7292V18.8125C44 14.3674 40.2985 10.75 35.75 10.75ZM35.75 12.5417C38.973 12.5417 41.624 14.8852 42.0732 17.9167H35.9682C34.2943 17.9167 32.7085 17.2896 31.504 16.1519L27.687 12.5417H35.75ZM22 3.09421C22 2.37575 22.5977 1.79167 23.3347 1.79167C23.529 1.79167 23.7197 1.83288 23.8993 1.91529L28.2022 3.87538C28.3965 3.99363 28.4185 4.18175 28.4185 4.25521C28.4185 4.34837 28.3892 4.52037 28.2938 4.58667L22.0018 7.53575V3.09421H22ZM8.25 12.5417H16.3112L12.4942 16.1519C11.2915 17.2896 9.70567 17.9167 8.03 17.9167H1.92683C2.376 14.8852 5.027 12.5417 8.25 12.5417ZM25.6667 41.2083H18.3333V30.4583C18.3333 28.4821 19.9778 26.875 22 26.875C24.0222 26.875 25.6667 28.4821 25.6667 30.4583V41.2083ZM37.5833 41.2083H27.5V30.4583C27.5 27.4949 25.0323 25.0833 22 25.0833C18.9677 25.0833 16.5 27.4949 16.5 30.4583V41.2083H6.41667C3.8885 41.2083 1.83333 39.1981 1.83333 36.7292V19.7083H8.03183C10.186 19.7083 12.2228 18.9021 13.7702 17.4383L20.031 11.5168C21.1383 10.4705 22.8672 10.4705 23.969 11.5168L30.2298 17.4383C31.7772 18.9021 33.814 19.7083 35.9682 19.7083H42.1667V36.7292C42.1667 39.1981 40.1115 41.2083 37.5833 41.2083ZM12.8333 27.7708C12.8333 28.2653 12.4227 28.6667 11.9167 28.6667H8.25C7.744 28.6667 7.33333 28.2653 7.33333 27.7708C7.33333 27.2763 7.744 26.875 8.25 26.875H11.9167C12.4227 26.875 12.8333 27.2763 12.8333 27.7708ZM12.8333 34.9375C12.8333 35.432 12.4227 35.8333 11.9167 35.8333H8.25C7.744 35.8333 7.33333 35.432 7.33333 34.9375C7.33333 34.443 7.744 34.0417 8.25 34.0417H11.9167C12.4227 34.0417 12.8333 34.443 12.8333 34.9375ZM36.6667 27.7708C36.6667 28.2653 36.256 28.6667 35.75 28.6667H32.0833C31.5773 28.6667 31.1667 28.2653 31.1667 27.7708C31.1667 27.2763 31.5773 26.875 32.0833 26.875H35.75C36.256 26.875 36.6667 27.2763 36.6667 27.7708ZM36.6667 34.9375C36.6667 35.432 36.256 35.8333 35.75 35.8333H32.0833C31.5773 35.8333 31.1667 35.432 31.1667 34.9375C31.1667 34.443 31.5773 34.0417 32.0833 34.0417H35.75C36.256 34.0417 36.6667 34.443 36.6667 34.9375ZM23.8333 17.9167C23.8333 18.9057 23.012 19.7083 22 19.7083C20.988 19.7083 20.1667 18.9057 20.1667 17.9167C20.1667 16.9277 20.988 16.125 22 16.125C23.012 16.125 23.8333 16.9277 23.8333 17.9167Z" fill="white"/>
</svg>
