<svg width="37" height="37" viewBox="0 0 37 37" fill="none" xmlns="http://www.w3.org/2000/svg">
<path d="M33.9167 29.3703V16.4172C35.7327 15.5477 37 13.707 37 11.5625C37 11.4916 33.8858 0.559625 33.8858 0.559625C33.7902 0.228167 33.4896 0 33.1458 0H3.85417C3.50883 0 3.20821 0.228167 3.11417 0.559625C3.11417 0.559625 0 11.4916 0 11.5625C0 13.707 1.26725 15.5477 3.08333 16.4172V29.3703C1.32583 29.728 0 31.285 0 33.1458C0 35.2702 1.72821 37 3.85417 37H33.1458C35.2718 37 37 35.2702 37 33.1458C37 31.285 35.6742 29.728 33.9167 29.3703ZM1.54321 11.6658L4.43538 1.54167H10.7917V5.39583C10.7917 5.82133 11.137 6.16667 11.5625 6.16667C11.988 6.16667 12.3333 5.82133 12.3333 5.39583V1.54167H24.6667V5.39583C24.6667 5.82133 25.012 6.16667 25.4375 6.16667C25.863 6.16667 26.2083 5.82133 26.2083 5.39583V1.54167H32.5646L35.4568 11.6658C35.4028 13.744 33.6947 15.4167 31.6042 15.4167H30.0625C27.9365 15.4167 26.2083 13.6869 26.2083 11.5625C26.2083 11.137 25.863 10.7917 25.4375 10.7917C25.012 10.7917 24.6667 11.137 24.6667 11.5625C24.6667 13.6869 22.9385 15.4167 20.8125 15.4167H16.1875C14.0615 15.4167 12.3333 13.6869 12.3333 11.5625C12.3333 11.137 11.988 10.7917 11.5625 10.7917C11.137 10.7917 10.7917 11.137 10.7917 11.5625C10.7917 13.6869 9.06346 15.4167 6.9375 15.4167H5.39583C3.30533 15.4167 1.59717 13.744 1.54321 11.6658ZM5.39583 16.9583H6.9375C8.91083 16.9583 10.6221 15.8822 11.5625 14.2974C12.5029 15.8822 14.2142 16.9583 16.1875 16.9583H20.8125C22.7858 16.9583 24.4971 15.8822 25.4375 14.2974C26.3779 15.8822 28.0892 16.9583 30.0625 16.9583H31.6042C31.8678 16.9583 32.1206 16.9167 32.375 16.8797V29.2917H23.8958C23.6908 29.2917 23.495 29.3734 23.3501 29.5167L22.0335 30.8333H14.9634L13.6468 29.5167C13.5019 29.3718 13.3061 29.2917 13.1011 29.2917H4.625V16.8797C4.87937 16.9167 5.13221 16.9583 5.39583 16.9583ZM33.1458 35.4583H3.85417C2.57921 35.4583 1.54167 34.4208 1.54167 33.1458C1.54167 31.8709 2.57921 30.8333 3.85417 30.8333H12.785L14.1016 32.1499C14.2465 32.2948 14.4423 32.375 14.6474 32.375H22.3557C22.5608 32.375 22.7565 32.2933 22.9015 32.1499L24.218 30.8333H33.1489C34.4239 30.8333 35.4614 31.8709 35.4614 33.1458C35.4614 34.4208 34.4239 35.4583 33.1489 35.4583H33.1458Z" fill="white"/>
</svg>
