<svg width="44" height="44" viewBox="0 0 44 44" fill="none" xmlns="http://www.w3.org/2000/svg">
<rect y="44" width="44" height="44" rx="22" transform="rotate(-90 0 44)" fill="url(#paint0_linear_704_10034)"/>
<path d="M22.0389 32.3847C22.0786 32.2398 22.0038 32.0848 21.9069 31.9778C21.8719 31.9455 19.4488 29.6304 18.014 26.3169H20.2082C20.4629 26.3169 20.6696 26.1103 20.6696 25.8556C20.6696 25.6009 20.4629 25.3942 20.2082 25.3942H17.6532C17.2482 24.2436 16.9787 23.0016 16.9787 21.7034C16.9787 20.4051 17.2482 19.1631 17.6532 18.0125H31.0418C31.23 18.4905 31.3878 18.9841 31.5013 19.4962C31.5567 19.7445 31.8012 19.9032 32.0522 19.8469C32.3013 19.7915 32.4572 19.5451 32.4028 19.296C31.2891 14.2792 26.7512 10.6382 21.6071 10.6299C15.4978 10.6216 10.5179 15.5913 10.5188 21.7025C10.5188 27.808 15.4858 32.775 21.5914 32.775C21.8165 32.7759 22.0149 32.6025 22.0389 32.3847ZM18.0131 17.0889C19.1471 14.4693 20.8892 12.4827 21.5914 11.7473C22.3 12.4873 24.0504 14.4739 25.1789 17.0889H18.0131ZM30.6284 17.0889H26.1754C25.1881 14.628 23.6749 12.6829 22.7383 11.6264C26.121 12.0177 29.093 14.1067 30.6284 17.0889ZM20.4472 11.6218C19.507 12.6774 17.9891 14.6271 17.0046 17.0889H12.5617C14.0796 14.1307 17.0018 12.0103 20.4472 11.6218ZM12.1465 18.0116H16.6724C16.2996 19.1631 16.0551 20.4005 16.0551 21.7025C16.0551 23.0044 16.2996 24.2418 16.6724 25.3933H12.1465C11.6971 24.2473 11.4415 23.0053 11.4415 21.7025C11.4415 20.3996 11.6971 19.1576 12.1465 18.0116ZM12.5617 26.316H17.0046C17.9891 28.7787 19.507 30.7275 20.4472 31.7831C17.0018 31.3946 14.0796 29.2742 12.5617 26.316ZM30.8185 24.7945V23.0865C30.8185 21.3057 29.3698 19.857 27.589 19.857C25.8082 19.857 24.3595 21.3057 24.3595 23.0865V24.7945C23.2726 25.3149 22.5141 26.4166 22.5141 27.7001V29.5455C22.5141 31.3264 23.9627 32.775 25.7436 32.775H29.4344C31.2153 32.775 32.6639 31.3264 32.6639 29.5455V27.7001C32.6639 26.4166 31.9055 25.3149 30.8185 24.7945ZM25.2822 23.0865C25.2822 21.815 26.3166 20.7797 27.589 20.7797C28.8614 20.7797 29.8958 21.815 29.8958 23.0865V24.5177C29.7435 24.4955 29.5922 24.4706 29.4344 24.4706H25.7436C25.5858 24.4706 25.4345 24.4955 25.2822 24.5177V23.0865ZM31.7412 29.5455C31.7412 30.817 30.7069 31.8523 29.4344 31.8523H25.7436C24.4712 31.8523 23.4368 30.817 23.4368 29.5455V27.7001C23.4368 26.4286 24.4712 25.3933 25.7436 25.3933H29.4344C30.7069 25.3933 31.7412 26.4286 31.7412 27.7001V29.5455ZM28.5117 28.6228C28.5117 29.1321 28.0983 29.5455 27.589 29.5455C27.0797 29.5455 26.6663 29.1321 26.6663 28.6228C26.6663 28.1135 27.0797 27.7001 27.589 27.7001C28.0983 27.7001 28.5117 28.1135 28.5117 28.6228Z" fill="white"/>
<defs>
<linearGradient id="paint0_linear_704_10034" x1="36.9787" y1="44" x2="3.36528" y2="88.778" gradientUnits="userSpaceOnUse">
<stop stop-color="#9A2686"/>
<stop offset="1" stop-color="#293992"/>
</linearGradient>
</defs>
</svg>
