<svg width="45" height="45" viewBox="0 0 45 45" fill="none" xmlns="http://www.w3.org/2000/svg">
<rect y="45" width="44.5312" height="44.5312" rx="22.2656" transform="rotate(-90 0 45)" fill="url(#paint0_linear_704_10037)"/>
<path d="M24.652 32.0673H16.5847C14.8547 32.0673 13.4474 30.66 13.4474 28.9299V15.484C13.4474 13.754 14.8547 12.3467 16.5847 12.3467H21.5282C21.8285 12.3467 22.1225 12.3807 22.4111 12.4327V17.2768C22.4111 18.5121 23.4168 19.5178 24.652 19.5178H29.4826C29.5121 19.6792 29.5525 19.8378 29.565 20.0028C29.5856 20.2493 29.8079 20.4321 30.0482 20.4133C30.2947 20.3936 30.4784 20.1767 30.4587 19.9301C30.3467 18.5533 29.7479 17.258 28.7708 16.2818L25.647 13.1579C24.5463 12.0571 23.0834 11.4512 21.5273 11.4512H16.5847C14.3608 11.4503 12.551 13.2601 12.551 15.484V28.9299C12.551 31.1539 14.3608 32.9637 16.5847 32.9637H24.652C24.8994 32.9637 25.1002 32.7629 25.1002 32.5155C25.1002 32.2681 24.8994 32.0673 24.652 32.0673ZM28.138 16.9147C28.6247 17.4014 28.9842 17.9886 29.2307 18.6214H24.652C23.9107 18.6214 23.3075 18.0181 23.3075 17.2768V12.6864C23.9385 12.9311 24.5212 13.2977 25.0142 13.7899L28.138 16.9138V16.9147ZM33.9321 32.1982L29.2217 27.4876L31.2771 25.4322L31.667 25.8221C32.0722 26.2399 32.7176 25.5936 32.3008 25.1884L28.1057 20.9933C27.9309 20.8185 27.6468 20.8185 27.472 20.9933C27.2972 21.1681 27.2972 21.4522 27.472 21.627L27.8386 21.9936L23.0941 26.7382L22.7275 26.3716C22.5527 26.1968 22.2686 26.1968 22.0938 26.3716C21.919 26.5464 21.919 26.8306 22.0938 27.0054L26.2888 31.2005C26.694 31.6182 27.3393 30.9719 26.9225 30.5667L26.5326 30.1768L28.588 28.1214L33.2984 32.8319C33.7036 33.2496 34.349 32.6033 33.9321 32.1982ZM23.7279 27.372L28.4724 22.6274L30.6434 24.7985L25.8989 29.5431L23.7279 27.372ZM16.1365 19.0696C16.1365 18.8222 16.3373 18.6214 16.5847 18.6214H20.1702C20.4176 18.6214 20.6184 18.8222 20.6184 19.0696C20.6184 19.317 20.4176 19.5178 20.1702 19.5178H16.5847C16.3373 19.5178 16.1365 19.317 16.1365 19.0696ZM24.652 22.207H16.5847C16.3373 22.207 16.1365 22.0062 16.1365 21.7588C16.1365 21.5114 16.3373 21.3106 16.5847 21.3106H24.652C24.8994 21.3106 25.1002 21.5114 25.1002 21.7588C25.1002 22.0062 24.8994 22.207 24.652 22.207ZM21.9629 24.8962H16.5847C16.3373 24.8962 16.1365 24.6954 16.1365 24.448C16.1365 24.2006 16.3373 23.9998 16.5847 23.9998H21.9629C22.2103 23.9998 22.4111 24.2006 22.4111 24.448C22.4111 24.6954 22.2103 24.8962 21.9629 24.8962ZM19.2738 26.6889C19.5212 26.6889 19.722 26.8897 19.722 27.1371C19.722 27.3845 19.5212 27.5853 19.2738 27.5853H16.5847C16.3373 27.5853 16.1365 27.3845 16.1365 27.1371C16.1365 26.8897 16.3373 26.6889 16.5847 26.6889H19.2738Z" fill="white"/>
<defs>
<linearGradient id="paint0_linear_704_10037" x1="37.4252" y1="45" x2="3.40592" y2="90.3187" gradientUnits="userSpaceOnUse">
<stop stop-color="#9A2686"/>
<stop offset="1" stop-color="#293992"/>
</linearGradient>
</defs>
</svg>
