<svg width="44" height="44" viewBox="0 0 44 44" fill="none" xmlns="http://www.w3.org/2000/svg">
<rect y="44" width="44" height="44" rx="22" transform="rotate(-90 0 44)" fill="url(#paint0_linear_704_10043)"/>
<path d="M32.3984 26.4879C31.6134 25.411 29.8535 23.6049 26.8822 23.6049C23.9108 23.6049 22.1509 25.411 21.3659 26.4879C20.8654 27.1751 20.8654 28.0979 21.3659 28.7841C22.1518 29.861 23.9135 31.6672 26.8822 31.6672C29.8508 31.6672 31.6134 29.861 32.3984 28.7841C32.8998 28.097 32.8998 27.1742 32.3984 26.4879ZM31.6658 28.26C30.8301 29.4059 29.3214 30.7722 26.8812 30.7722C24.4411 30.7722 22.9333 29.4059 22.0967 28.26C21.8248 27.8873 21.8248 27.3865 22.0967 27.0129C22.9333 25.867 24.442 24.5008 26.8812 24.5008C29.3205 24.5008 30.8301 25.867 31.6658 27.0129C31.9386 27.3856 31.9386 27.8873 31.6658 28.26ZM26.8812 25.8446C25.8848 25.8446 25.0744 26.6483 25.0744 27.6365C25.0744 28.6247 25.8848 29.4283 26.8812 29.4283C27.8777 29.4283 28.6881 28.6247 28.6881 27.6365C28.6881 26.6483 27.8777 25.8446 26.8812 25.8446ZM26.8812 28.5324C26.3826 28.5324 25.9778 28.1301 25.9778 27.6365C25.9778 27.1428 26.3826 26.7406 26.8812 26.7406C27.3799 26.7406 27.7847 27.1428 27.7847 27.6365C27.7847 28.1301 27.3799 28.5324 26.8812 28.5324ZM18.7504 27.1885H15.1377C13.3941 27.1885 11.9757 25.7819 11.9757 24.0528V19.1253H31.851V23.1569C31.851 23.4042 32.0533 23.6049 32.3027 23.6049C32.552 23.6049 32.7544 23.4042 32.7544 23.1569V15.9896C32.7544 13.7669 30.9304 11.958 28.689 11.958H15.1377C12.8963 11.958 11.0723 13.7669 11.0723 15.9896V24.0528C11.0723 26.2756 12.8963 28.0844 15.1377 28.0844H18.7514C19.0007 28.0844 19.2031 27.8837 19.2031 27.6365C19.2031 27.3892 19.0007 27.1885 18.7514 27.1885H18.7504ZM11.9757 18.2294V16.4376H31.851V18.2294H11.9757ZM15.1377 12.8539H28.689C30.2772 12.8539 31.5836 14.0258 31.8049 15.5417H12.0218C12.2431 14.0258 13.5494 12.8539 15.1377 12.8539ZM13.7825 23.6049C13.7825 24.5931 14.5929 25.3967 15.5894 25.3967C16.5859 25.3967 17.3962 24.5931 17.3962 23.6049C17.3962 22.6167 16.5859 21.813 15.5894 21.813C14.5929 21.813 13.7825 22.6167 13.7825 23.6049ZM16.4928 23.6049C16.4928 24.0985 16.0872 24.5008 15.5894 24.5008C15.0916 24.5008 14.686 24.0985 14.686 23.6049C14.686 23.1112 15.0916 22.709 15.5894 22.709C16.0872 22.709 16.4928 23.1112 16.4928 23.6049Z" fill="white"/>
<defs>
<linearGradient id="paint0_linear_704_10043" x1="36.9787" y1="44" x2="3.36528" y2="88.778" gradientUnits="userSpaceOnUse">
<stop stop-color="#9A2686"/>
<stop offset="1" stop-color="#293992"/>
</linearGradient>
</defs>
</svg>
