<svg width="44" height="44" viewBox="0 0 44 44" fill="none" xmlns="http://www.w3.org/2000/svg">
<rect y="44" width="44" height="44" rx="22" transform="rotate(-90 0 44)" fill="url(#paint0_linear_704_10040)"/>
<path d="M22.2093 22.4843C22.4127 22.6856 22.4158 23.0161 22.2165 23.2215C22.0152 23.4259 21.69 23.428 21.4866 23.2278C21.245 22.989 20.9239 22.8566 20.5832 22.8566C19.8719 22.8566 19.2927 23.4416 19.2927 24.16C19.2927 24.2872 19.3381 24.7471 19.6416 26.4113C19.6695 26.5636 19.6293 26.721 19.5312 26.8399C19.4331 26.9577 19.2875 27.0276 19.1347 27.0276H17.4869C15.4943 27.0276 13.8734 25.3905 13.8734 23.378V22.3373C12.5952 22.5667 12.2287 22.5959 12.0666 22.5959C10.7854 22.5959 9.74365 21.5427 9.74365 20.2497C9.74365 18.9567 10.7854 17.9035 12.0666 17.9035C12.2287 17.9035 12.5952 17.9327 13.8734 18.1621V17.1214C13.8734 15.1089 15.4943 13.4718 17.4869 13.4718H18.5173C18.2912 12.1798 18.2613 11.8096 18.2613 11.647C18.2613 10.354 19.303 9.30078 20.5843 9.30078C21.8655 9.30078 22.9072 10.354 22.9072 11.647C22.9072 11.8096 22.8783 12.1798 22.6512 13.4718H23.6816C25.6742 13.4718 27.2951 15.1089 27.2951 17.1214V20.2497C27.2951 20.5375 27.0638 20.7711 26.7789 20.7711C26.4939 20.7711 26.2627 20.5375 26.2627 20.2497V17.1214C26.2627 15.6835 25.1043 14.5145 23.6816 14.5145H22.0338C21.881 14.5145 21.7354 14.4457 21.6373 14.3269C21.5393 14.208 21.499 14.0505 21.5269 13.8983C21.8304 12.234 21.8758 11.7742 21.8758 11.647C21.8758 10.9285 21.2966 10.3435 20.5853 10.3435C19.8739 10.3435 19.2947 10.9285 19.2947 11.647C19.2947 11.7742 19.3402 12.234 19.6437 13.8983C19.6716 14.0505 19.6313 14.208 19.5332 14.3269C19.4352 14.4447 19.2896 14.5145 19.1368 14.5145H17.489C16.0663 14.5145 14.9079 15.6835 14.9079 17.1214V18.7867C14.9079 18.941 14.8398 19.0881 14.7221 19.1882C14.6044 19.2872 14.4495 19.3279 14.2977 19.2987C12.5911 18.9807 12.1699 18.9463 12.0687 18.9463C11.3574 18.9463 10.7782 19.5312 10.7782 20.2497C10.7782 20.9682 11.3574 21.5531 12.0687 21.5531C12.1709 21.5531 12.5911 21.5187 14.2977 21.2007C14.4505 21.1725 14.6044 21.2132 14.7221 21.3112C14.8398 21.4113 14.9079 21.5573 14.9079 21.7127V23.378C14.9079 24.8159 16.0663 25.9848 17.489 25.9848H18.5194C18.2933 24.6929 18.2633 24.3227 18.2633 24.16C18.2633 22.867 19.3051 21.8138 20.5863 21.8138C21.1986 21.8138 21.7757 22.0526 22.2124 22.4854L22.2093 22.4843ZM30.3914 28.0693C30.3914 29.2195 29.4653 30.1548 28.3265 30.1548C27.1877 30.1548 26.2616 29.2195 26.2616 28.0693C26.2616 26.9191 27.1877 25.9838 28.3265 25.9838C29.4653 25.9838 30.3914 26.9191 30.3914 28.0693ZM29.359 28.0693C29.359 27.4937 28.8954 27.0266 28.3265 27.0266C27.7576 27.0266 27.2941 27.4937 27.2941 28.0693C27.2941 28.6449 27.7576 29.1121 28.3265 29.1121C28.8954 29.1121 29.359 28.6449 29.359 28.0693ZM33.8315 30.0537C33.9358 30.4593 33.8769 30.8795 33.6663 31.2403C33.4567 31.6001 33.1212 31.8566 32.7206 31.9609C32.321 32.0693 31.9029 32.0078 31.5467 31.7951L31.3165 31.6585C30.8952 32.013 30.4069 32.2904 29.8752 32.4781V32.7607C29.8752 33.623 29.1803 34.3248 28.3265 34.3248C27.4727 34.3248 26.7779 33.623 26.7779 32.7607V32.4781C26.2462 32.2904 25.7578 32.013 25.3366 31.6585L25.1063 31.7951C24.7501 32.0078 24.333 32.0693 23.9325 31.9609C23.5319 31.8555 23.1963 31.599 22.9857 31.2393C22.7761 30.8795 22.7173 30.4593 22.8216 30.0537C22.9258 29.6491 23.1788 29.3102 23.535 29.0985L23.7766 28.9546C23.7105 28.6428 23.6795 28.355 23.6795 28.0683C23.6795 27.7815 23.7105 27.4937 23.7766 27.1809L23.535 27.037C23.1788 26.8263 22.9248 26.4874 22.8205 26.0818C22.7162 25.6772 22.7751 25.257 22.9857 24.8962C23.1953 24.5365 23.5308 24.2799 23.9314 24.1757C24.332 24.0693 24.7491 24.1298 25.1053 24.3415L25.3355 24.4781C25.7568 24.1235 26.2451 23.8462 26.7768 23.6585V23.3759C26.7768 22.5135 27.4717 21.8117 28.3255 21.8117C29.1793 21.8117 29.8741 22.5135 29.8741 23.3759V23.6585C30.4058 23.8462 30.8942 24.1235 31.3154 24.4781L31.5457 24.3415C31.9018 24.1298 32.32 24.0693 32.7195 24.1757C33.1201 24.281 33.4557 24.5375 33.6663 24.8972C33.8759 25.257 33.9347 25.6772 33.8304 26.0818C33.7262 26.4874 33.4722 26.8263 33.116 27.038L32.8754 27.1809C32.9415 27.4937 32.9725 27.7815 32.9725 28.0683C32.9725 28.355 32.9415 28.6428 32.8754 28.9546L33.116 29.0975C33.4732 29.3102 33.7272 29.6491 33.8304 30.0537H33.8315ZM32.0195 26.4812L32.5936 26.1402C32.7123 26.0693 32.797 25.9556 32.831 25.8211C32.8661 25.6866 32.8465 25.5458 32.7763 25.427C32.7061 25.306 32.5936 25.2205 32.4604 25.1861C32.3272 25.1506 32.1878 25.1704 32.0691 25.2414L31.5106 25.573C31.3082 25.6939 31.0501 25.6616 30.8839 25.4927C30.4399 25.0422 29.8679 24.7179 29.2289 24.5511C29.0007 24.4906 28.8417 24.2831 28.8417 24.0464V23.3769C28.8417 23.0902 28.6104 22.8555 28.3255 22.8555C28.0405 22.8555 27.8093 23.0902 27.8093 23.3769V24.0464C27.8093 24.2841 27.6503 24.4916 27.4221 24.5511C26.783 24.7179 26.211 25.0432 25.7671 25.4927C25.6009 25.6616 25.3417 25.6939 25.1404 25.573L24.5819 25.2414C24.4621 25.1715 24.3258 25.1517 24.1906 25.1861C24.0574 25.2205 23.9459 25.306 23.8757 25.4259C23.8055 25.5458 23.7858 25.6866 23.821 25.8211C23.855 25.9556 23.9397 26.0683 24.0584 26.1392L24.6335 26.4812C24.8358 26.6011 24.9329 26.8451 24.8689 27.0724C24.7625 27.4489 24.713 27.7659 24.713 28.0683C24.713 28.3707 24.7625 28.6877 24.8689 29.0641C24.9329 29.2925 24.8369 29.5365 24.6335 29.6564L24.0594 29.9963C23.9407 30.0662 23.8571 30.1798 23.822 30.3154C23.7869 30.4499 23.8065 30.5907 23.8767 30.7096C23.9469 30.8305 24.0594 30.916 24.1926 30.9504C24.3268 30.9859 24.4642 30.9661 24.5839 30.8952L25.1425 30.5636C25.224 30.5146 25.3149 30.4916 25.4037 30.4916C25.5369 30.4916 25.67 30.5438 25.7692 30.6439C26.2131 31.0943 26.7851 31.4186 27.4242 31.5855C27.6523 31.6459 27.8113 31.8535 27.8113 32.0902V32.7596C27.8113 33.0464 28.0426 33.281 28.3275 33.281C28.6125 33.281 28.8438 33.0464 28.8438 32.7596V32.0902C28.8438 31.8524 29.0028 31.6449 29.2309 31.5855C29.87 31.4186 30.442 31.0933 30.8859 30.6439C31.0522 30.4749 31.3113 30.4416 31.5126 30.5636L32.0712 30.8952C32.1909 30.9661 32.3293 30.9859 32.4625 30.9504C32.5956 30.916 32.7072 30.8305 32.7774 30.7106C32.8476 30.5907 32.8672 30.4499 32.8321 30.3154C32.797 30.1798 32.7133 30.0672 32.5946 29.9953L32.0206 29.6564C31.8172 29.5365 31.7201 29.2914 31.7852 29.0641C31.8915 28.6877 31.9411 28.3707 31.9411 28.0683C31.9411 27.7659 31.8915 27.4489 31.7852 27.0724C31.7212 26.8441 31.8162 26.6011 32.0195 26.4812Z" fill="white"/>
<defs>
<linearGradient id="paint0_linear_704_10040" x1="36.9787" y1="44" x2="3.36528" y2="88.778" gradientUnits="userSpaceOnUse">
<stop stop-color="#9A2686"/>
<stop offset="1" stop-color="#293992"/>
</linearGradient>
</defs>
</svg>
