<svg width="45" height="45" viewBox="0 0 45 45" fill="none" xmlns="http://www.w3.org/2000/svg">
<rect y="44.4688" width="44.4687" height="44.4687" rx="22.2343" transform="rotate(-90 0 44.4688)" fill="url(#paint0_linear_704_10046)"/>
<path d="M33.4917 20.028L29.1808 11.8614C28.7425 11.0332 27.8929 10.5186 26.9638 10.5186H17.3741C16.4469 10.5186 15.5973 11.0313 15.159 11.8585L10.8267 20.0289C10.4165 20.8044 10.4165 21.7302 10.8267 22.5047L15.158 30.6654C15.5964 31.4916 16.445 32.0043 17.3721 32.0043H26.9619C27.891 32.0043 28.7405 31.4897 29.1789 30.6615L33.4898 22.4949C33.8971 21.7224 33.8971 20.8005 33.4898 20.0289L33.4917 20.028ZM32.6354 22.0359L28.3245 30.2005C28.0549 30.7103 27.5341 31.0267 26.9638 31.0267H17.3731C16.8048 31.0267 16.284 30.7113 16.0153 30.2034L11.6831 22.0437C11.4251 21.5574 11.4241 20.9763 11.6831 20.4889L16.0153 12.3185C16.284 11.8106 16.8048 11.4952 17.3741 11.4952H26.9628C27.5331 11.4952 28.0539 11.8116 28.3235 12.3214L32.6344 20.487C32.8904 20.9724 32.8904 21.5515 32.6344 22.0369L32.6354 22.0359ZM26.0871 17.98L22.843 21.2614L26.0871 24.5429L25.3995 25.2324L22.1583 21.9539L18.9171 25.2324L18.2295 24.5429L21.4736 21.2614L18.2295 17.98L18.9171 17.2905L22.1583 20.569L25.3995 17.2905L26.0871 17.98Z" fill="white"/>
<defs>
<linearGradient id="paint0_linear_704_10046" x1="37.3726" y1="44.4687" x2="3.40113" y2="89.7237" gradientUnits="userSpaceOnUse">
<stop stop-color="#9A2686"/>
<stop offset="1" stop-color="#293992"/>
</linearGradient>
</defs>
</svg>
