<svg width="44" height="44" viewBox="0 0 44 44" fill="none" xmlns="http://www.w3.org/2000/svg">
<rect y="44" width="44" height="44" rx="22" transform="rotate(-90 0 44)" fill="url(#paint0_linear_704_10049)"/>
<path d="M30.1084 13.9147L27.7787 11.5757C27.1712 10.9658 26.3634 10.6299 25.5041 10.6299H21.1323C19.0094 10.6299 17.2752 12.2502 17.0436 14.3207H16.5372C14.2571 14.3207 12.4016 16.1837 12.4016 18.473V28.6228C12.4016 30.9121 14.2571 32.775 16.5372 32.775H22.9704C25.2505 32.775 27.106 30.9121 27.106 28.6228V28.1144C29.1683 27.8819 30.7821 26.1407 30.7821 24.0092V15.5461C30.7821 14.9297 30.5422 14.3503 30.1084 13.9147ZM29.4587 14.5671C29.6462 14.7553 29.7702 14.9897 29.8263 15.2425H27.5646C26.8045 15.2425 26.186 14.6215 26.186 13.8585V11.6661C26.5362 11.7759 26.8615 11.9595 27.128 12.2271L29.4578 14.5662L29.4587 14.5671ZM22.9695 31.8514H16.5363C14.7626 31.8514 13.3197 30.4027 13.3197 28.6219V18.472C13.3197 16.6912 14.7626 15.2425 16.5363 15.2425H16.9958V24.0083C16.9958 26.2976 18.8513 28.1605 21.1314 28.1605H26.186V28.6219C26.186 30.4027 24.7432 31.8514 22.9695 31.8514ZM26.6455 27.2378H21.1314C19.3577 27.2378 17.9148 25.7892 17.9148 24.0083V14.7812C17.9148 13.0003 19.3577 11.5517 21.1314 11.5517H25.267V13.8585C25.267 15.13 26.2982 16.1652 27.5646 16.1652H29.8621V24.0083C29.8621 25.7892 28.4193 27.2378 26.6455 27.2378ZM27.1051 20.3175C27.1051 20.5721 26.8992 20.7788 26.6455 20.7788H24.348V23.0856C24.348 23.3403 24.1421 23.547 23.8885 23.547C23.6348 23.547 23.429 23.3403 23.429 23.0856V20.7788H21.1314C20.8778 20.7788 20.6719 20.5721 20.6719 20.3175C20.6719 20.0628 20.8778 19.8561 21.1314 19.8561H23.429V17.5493C23.429 17.2946 23.6348 17.088 23.8885 17.088C24.1421 17.088 24.348 17.2946 24.348 17.5493V19.8561H26.6455C26.8992 19.8561 27.1051 20.0628 27.1051 20.3175Z" fill="white"/>
<defs>
<linearGradient id="paint0_linear_704_10049" x1="36.9787" y1="44" x2="3.36528" y2="88.778" gradientUnits="userSpaceOnUse">
<stop stop-color="#9A2686"/>
<stop offset="1" stop-color="#293992"/>
</linearGradient>
</defs>
</svg>
