<svg width="48" height="48" viewBox="0 0 48 48" fill="none" xmlns="http://www.w3.org/2000/svg">
<rect y="47.6895" width="47.6892" height="47.6893" rx="23.8446" transform="rotate(-90 0 47.6895)" fill="url(#paint0_linear_704_10052)"/>
<path d="M34.7529 11.2832H12.5311C11.9732 11.2832 11.521 11.8205 11.521 12.4833V31.6848C11.521 32.3476 11.9732 32.8849 12.5311 32.8849H34.7529C35.3107 32.8849 35.7629 32.3476 35.7629 31.6848V12.4833C35.7629 11.8205 35.3107 11.2832 34.7529 11.2832Z" stroke="white"/>
<path d="M31.4535 13.5839H15.469C15.1538 13.5839 14.8982 13.9058 14.8982 14.3029V22.4515C14.8982 22.8486 15.1538 23.1705 15.469 23.1705H31.4535C31.7687 23.1705 32.0243 22.8486 32.0243 22.4515V14.3029C32.0243 13.9058 31.7687 13.5839 31.4535 13.5839Z" stroke="white"/>
<path d="M21.0582 25.727H15.5826C15.2046 25.727 14.8982 26.05 14.8982 26.4484V29.8154C14.8982 30.2138 15.2046 30.5369 15.5826 30.5369H21.0582C21.4362 30.5369 21.7426 30.2138 21.7426 29.8154V26.4484C21.7426 26.05 21.4362 25.727 21.0582 25.727Z" stroke="white"/>
<path d="M29.3054 29.4102C29.9355 29.4102 30.4462 28.8718 30.4462 28.2077C30.4462 27.5436 29.9355 27.0052 29.3054 27.0052C28.6754 27.0052 28.1647 27.5436 28.1647 28.2077C28.1647 28.8718 28.6754 29.4102 29.3054 29.4102Z" stroke="white"/>
<defs>
<linearGradient id="paint0_linear_704_10052" x1="40.0793" y1="47.6894" x2="3.64745" y2="96.222" gradientUnits="userSpaceOnUse">
<stop stop-color="#9A2686"/>
<stop offset="1" stop-color="#293992"/>
</linearGradient>
</defs>
</svg>
