<svg width="41" height="41" viewBox="0 0 41 41" fill="none" xmlns="http://www.w3.org/2000/svg">
<path d="M17.7045 21.4318V32.6136C17.7045 33.128 17.2871 33.5455 16.7727 33.5455C16.2584 33.5455 15.8409 33.128 15.8409 32.6136V21.4318C15.8409 20.9175 16.2584 20.5 16.7727 20.5C17.2871 20.5 17.7045 20.9175 17.7045 21.4318ZM24.2273 33.5455C24.7416 33.5455 25.1591 33.128 25.1591 32.6136V21.4318C25.1591 20.9175 24.7416 20.5 24.2273 20.5C23.7129 20.5 23.2955 20.9175 23.2955 21.4318V32.6136C23.2955 33.128 23.7129 33.5455 24.2273 33.5455ZM31.6818 31.6818C32.1962 31.6818 32.6136 31.2644 32.6136 30.75V21.4318C32.6136 20.9175 32.1962 20.5 31.6818 20.5C31.1675 20.5 30.75 20.9175 30.75 21.4318V30.75C30.75 31.2644 31.1675 31.6818 31.6818 31.6818ZM9.31818 20.5C8.80382 20.5 8.38636 20.9175 8.38636 21.4318V30.75C8.38636 31.2644 8.80382 31.6818 9.31818 31.6818C9.83255 31.6818 10.25 31.2644 10.25 30.75V21.4318C10.25 20.9175 9.83255 20.5 9.31818 20.5ZM41 15.8409V21.8605C41 41 32.4012 41 20.5 41C8.59882 41 0 41 0 21.8605V15.8409C0 15.3955 0.314955 15.0116 0.752909 14.9277C0.803227 14.9165 3.485 14.4022 7.45455 13.912V13.0455C7.45455 5.85368 13.3064 0 20.5 0C27.6936 0 33.5455 5.85368 33.5455 13.0455V13.912C37.515 14.4003 40.1968 14.9165 40.2471 14.9277C40.685 15.0116 41 15.3955 41 15.8409ZM9.31818 13.6977C12.6056 13.3418 16.5174 13.0455 20.5 13.0455C24.4826 13.0455 28.3944 13.3418 31.6818 13.6977V13.0455C31.6818 6.87868 26.6668 1.86364 20.5 1.86364C14.3332 1.86364 9.31818 6.87868 9.31818 13.0455V13.6977ZM39.1364 16.618C36.7006 16.1913 28.7242 14.9091 20.5 14.9091C12.2758 14.9091 4.29755 16.1913 1.86364 16.618V21.8605C1.86364 39.1364 8.48327 39.1364 20.5 39.1364C32.5167 39.1364 39.1364 39.1364 39.1364 21.8605V16.618Z" fill="#9A2686"/>
</svg>
